<?xml version="1.0" encoding="utf-8"?>
<!-- Generator: Adobe Illustrator 18.1.1, SVG Export Plug-In . SVG Version: 6.00 Build 0)  -->
<svg version="1.1" id="Layer_1" xmlns="http://www.w3.org/2000/svg" xmlns:xlink="http://www.w3.org/1999/xlink" x="0px" y="0px"
	 viewBox="128 -46 257 164" enable-background="new 128 -46 257 164" xml:space="preserve">
<g id="_x23_010101ff">
	<path fill="#010101" d="M211.4-43.6c5.8-0.9,11.8-0.3,17.6-0.5c8-0.3,15.7,2.8,22.7,6.3c7.8,3.8,13.7,10.3,19.4,16.6
		c9.7,12.6,14.4,28.4,15.8,44.1c0.1,5.2,1.5,10.4,0.7,15.6c-0.8,5.7-0.6,11.5-1.8,17.2c-2.9,12.8-7.9,25.5-16.4,35.6
		c-8.8,11.8-22.1,20-36.6,22.4c-4.6,0.6-9.2,0.2-13.8,0.3c-15.5,0.7-30-7.8-40.3-18.8c-14.7-15.9-20.6-38-20.8-59.3
		c-0.3-20.2,4.9-41.3,17.8-57.3C184.3-32.8,197.4-40.6,211.4-43.6 M213.4-37.6c-14.3,2.7-27.3,11.4-35.5,23.4
		c-8.7,12.3-12.2,27.4-13.7,42.2c-1.1,16.2,1.8,32.7,8.2,47.6c6.5,13.7,18,25.6,32.8,30.3c7.6,2.9,15.9,2.2,23.9,2
		c9.2-1.1,18.2-4.6,25.6-10.3c16-11.7,24.3-31.4,26.3-50.6c0.2-7.7,0.2-15.3,0.1-23c-1.5-16.5-7-33.2-18.2-45.7
		c-6.1-6.3-13.8-11.1-22.1-13.9C232-39,222.4-38.3,213.4-37.6z"/>
	<path fill="#010101" d="M313.2-30.8c7.4-7.9,17.8-13.7,28.8-13.3c6,0.2,12.1-0.5,17.9,1.2c4.2,1.2,8.2,3.1,12.1,5.3
		c-0.5,1.9-1.2,3.7-2,5.4c-8.5-4.4-18-7.6-27.8-6.6c-7.4,1-15,3.2-20.8,8.2c-7.6,6.1-12.1,16-11.3,25.7c0.5,8.2,4.8,15.8,11.1,20.9
		c13.2,10.9,30.9,14,44.1,24.9c5.2,4.8,10.8,10,12.9,17.1c3.5,11.8,2.6,25-3.5,35.8c-8.2,12.8-23.2,21.7-38.6,20.4
		c-12.4,0.7-25.4-2.3-35.3-10.1c0.6-1.8,1.4-3.5,2.4-5.1c4.5,2.1,8.5,5.1,13.2,6.8c13.6,4.7,29.7,5,42-3.2
		c13.9-9.3,19.5-28.7,13.1-44c-2.6-5.9-7-11-12.5-14.5c-12.7-9-28.6-12.4-40.8-22.2c-6.6-4.7-11.6-11.6-13.6-19.5
		C302.1-9.3,305.3-22,313.2-30.8z"/>
	<path fill="#010101" d="M131.4-34.8c2.7-0.8,5.6,0.2,7.5,2.2c0.2,2.1,0.8,4.9-1.1,6.5c-1.6,1.4-4,2.9-6.1,1.7
		C127.5-25.9,127.9-32.9,131.4-34.8z"/>
	<path fill="#010101" d="M131.1,3c1.9-0.1,3.8-0.1,5.7,0c0.4,34.3,0,68.6,0.2,103c0,2-0.1,4-0.2,6c-1.9,0.1-3.8,0.1-5.7,0
		c-0.4-34.3,0-68.6-0.2-103C130.9,7,131,5,131.1,3z"/>
</g>
</svg>
