<?xml version="1.0" encoding="utf-8"?>
<!-- Generator: Adobe Illustrator 18.1.1, SVG Export Plug-In . SVG Version: 6.00 Build 0)  -->
<svg version="1.1" id="Layer_1" xmlns="http://www.w3.org/2000/svg" xmlns:xlink="http://www.w3.org/1999/xlink" x="0px" y="0px"
	 viewBox="0 0 144 72" enable-background="new 0 0 144 72" xml:space="preserve">
<g>
	<path d="M48.6,59c-2.7,0-5.4,0-8.1,0c0.2-2.3,0.4-4.5,0.6-6.8c-1.4,0-2.7,0-4.1,0c-0.2,2.3-0.4,4.5-0.6,6.8c-5.6,0-11.2,0-16.9,0
		c-0.2-2.2-0.4-4.5-0.6-6.8c-1.4,0-2.7,0-4.1,0c0.2,2.3,0.4,4.6,0.6,6.8c-2.7,0-5.4,0-8.1,0c-0.2-1.2-0.4-2.5-0.6-3.8
		C5.7,49.1,4.8,43,3.8,36.9c-0.4-2.5-0.8-5-1.1-7.5c0-0.2,0.1-0.5,0.2-0.7c3.7-5.9,7.4-11.8,11.1-17.7c0.1-0.2,0.4-0.4,0.7-0.4
		c8.9,0,17.8,0,26.7,0c0.2,0,0.5,0.2,0.7,0.4C45.7,17,49.3,22.9,53,28.8c0.1,0.2,0.2,0.5,0.2,0.7c-0.8,5.3-1.6,10.6-2.4,15.9
		c-0.6,4.2-1.3,8.4-1.9,12.6C48.7,58.3,48.7,58.6,48.6,59z M41.8,47.5c0.1-1.1,0.3-2.1,0.4-3.2c0.6-4.9,1.2-9.7,1.8-14.6
		c0-0.4,0-0.8-0.2-1.1c-1-2.1-2.1-4.2-3.1-6.3c-0.4-0.8-0.6-1.9-1.3-2.3c-0.7-0.4-1.8-0.2-2.7-0.2c-1.6,0-3.1,0-4.7,0
		c0.2,1.2,0.3,2.3,0.5,3.4c-3.1,0-6.1,0-9.1,0c0.1-1.2,0.3-2.3,0.4-3.4c-2.3,0-4.6,0-6.8,0c-0.5,0-0.7,0.1-0.9,0.6
		c-1.3,2.7-2.7,5.4-4.1,8.2c-0.2,0.3-0.2,0.8-0.2,1.2c0.5,4.4,1.1,8.9,1.7,13.3c0.2,1.5,0.4,2.9,0.6,4.4
		C23.3,47.5,32.5,47.5,41.8,47.5z"/>
	<path d="M86.8,43.3c-0.3,0-0.6,0-0.9,0c0-3.7,0-7.4,0-11.1c0.1,0,0.2-0.1,0.3-0.1c1.8,0,3.6-0.1,5.5,0c2.9,0.2,3.3,2.9,2.4,4.5
		c-0.3,0.5-0.9,0.9-1.4,1.3c1.4,0.4,1.6,1.6,1.6,2.8c0,0.8,0.2,1.7,0.3,2.5c-1.1,0.1-1.1,0.1-1.2-1c-0.1-0.8-0.1-1.6-0.3-2.4
		c-0.2-1.1-0.9-1.6-2-1.7c-1.2,0-2.4,0-3.5,0c-0.5,0-0.7,0.2-0.6,0.7c0,1.2,0,2.3,0,3.5C86.8,42.7,86.8,43,86.8,43.3z M86.9,33
		c0,1.4,0,2.7,0,4.1c0,0.1,0.2,0.4,0.4,0.4c1.4,0,2.9,0,4.3-0.1c1.2-0.1,1.9-1.1,1.8-2.3c-0.1-1.2-0.8-2-2-2
		C89.9,32.9,88.4,33,86.9,33z"/>
	<path d="M78.4,43.5c-2.9,0-5-2-5.3-4.9c-0.1-1.4,0-2.8,0.6-4.1c1-2.1,3.2-3.1,5.6-2.7c2.2,0.4,3.9,2.1,4.2,4.5
		c0.1,1,0.1,2.1-0.1,3.1C82.9,42.1,81,43.5,78.4,43.5z M82.7,37.7c-0.1-0.5-0.1-1-0.2-1.6c-0.4-2.1-2-3.4-3.9-3.5
		c-2.1,0-3.6,1.1-4.2,3.3c-0.3,1.2-0.3,2.5,0.1,3.7c1.1,3.6,5.1,3.7,6.8,1.9C82.3,40.5,82.7,39.2,82.7,37.7z"/>
	<path d="M118,37.7c-0.1,0.6-0.1,1.3-0.3,1.9c-0.7,2.7-2.7,4-5.7,3.9c-2.3-0.1-4.3-1.9-4.6-4.5c-0.1-1-0.1-2.2,0.1-3.2
		c0.4-2.1,2.2-4.1,5.4-4c2.4,0.1,4.2,1.6,4.8,4.1C117.9,36.5,117.9,37.1,118,37.7z M112.7,42.7c1.6,0,2.8-0.7,3.6-2.2
		c0.9-1.8,0.9-3.7,0-5.6c-0.7-1.5-2-2.2-3.7-2.2c-1.7,0-2.9,0.8-3.6,2.3c-0.8,1.7-0.8,3.5-0.1,5.3C109.6,41.9,110.9,42.7,112.7,42.7
		z"/>
	<path d="M96.8,32.2c1.7,0,3.3-0.1,4.9,0c2.1,0.2,3.4,1.5,3.8,3.5c0.2,1.2,0.2,2.4,0.1,3.6c-0.4,2.5-1.9,3.8-4.5,3.9
		c-1.4,0.1-2.8,0-4.3,0C96.8,39.6,96.8,35.9,96.8,32.2z M97.8,32.9c0,3.2,0,6.2,0,9.1c0,0.1,0.3,0.4,0.5,0.4c1.1,0,2.1,0,3.2-0.1
		c1.6-0.2,2.7-1,3-2.6c0.2-1,0.3-2,0.2-3c-0.2-2.1-1.1-3.3-2.9-3.6C100.5,32.9,99.2,33,97.8,32.9z"/>
	<path d="M137.2,43.2c-0.8,0.3-1.2-0.1-1.5-0.8c-0.2-0.7-0.5-1.4-0.8-2.1c-0.1-0.4-0.3-0.5-0.7-0.5c-1.4,0-2.8,0-4.2,0
		c-0.2,0-0.5,0.2-0.6,0.4c-0.3,0.7-0.7,1.5-0.9,2.3c-0.2,0.7-0.6,0.9-1.4,0.7c0.3-0.7,0.5-1.4,0.8-2.1c1.1-2.8,2.3-5.6,3.4-8.5
		c0.2-0.4,0.4-0.6,0.9-0.6c0.5,0,0.7,0.2,0.9,0.7c1.3,3.3,2.6,6.5,3.8,9.8C137,42.7,137.1,43,137.2,43.2z M132.2,33.3
		c-0.1,0-0.1,0-0.2,0c-0.7,1.8-1.4,3.7-2.2,5.5c1.5,0,2.9,0,4.4,0C133.6,37,132.9,35.1,132.2,33.3z"/>
	<path d="M71.5,35.4c-0.6,0.1-1,0.2-1.3-0.6c-1-2.5-4.6-2.8-6.4-0.7c-1.4,1.8-1.5,5.1-0.1,7c1,1.3,2.4,1.8,3.9,1.5
		c1.5-0.2,2.4-1.3,2.8-2.7c0.1-0.3,0.1-0.5,0.2-0.8c0.3,0,0.6,0,1,0c0,2.4-1.9,4.3-4.2,4.4c-4.1,0.2-6-3.1-5.7-6.6
		c0.2-2.1,1.1-3.9,3.1-4.7c1.6-0.7,3.2-0.6,4.8,0.3C70.7,33.2,71.3,34.1,71.5,35.4z"/>
	<path d="M118.4,32.2c0.7-0.2,1.1,0,1.3,0.7c1,2.8,2,5.6,3,8.4c0.1,0.2,0.2,0.5,0.3,0.9c0.2-0.4,0.3-0.6,0.4-0.9c1-2.8,2-5.6,3-8.4
		c0.2-0.7,0.6-0.9,1.3-0.7c-0.1,0.2-0.1,0.4-0.2,0.6c-1.2,3.3-2.5,6.6-3.7,10c-0.1,0.3-0.2,0.6-0.7,0.5c-0.3-0.1-0.7,0.1-0.9-0.4
		c-1.3-3.5-2.6-7.1-3.9-10.6C118.4,32.3,118.5,32.2,118.4,32.2z"/>
	<path d="M80.1,29.9c-0.6,0.2-0.6-0.1-0.6-0.5c0-0.4,0-0.7,0-1.1c-0.6,0-1.2,0-1.7,0c-0.4,0.5,0.3,1.4-0.7,1.8c0-1.4,0-2.6,0-3.9
		c0.4-0.1,0.4-0.1,0.7,1.4c0.5,0,1.1,0,1.6,0c0.4-0.5-0.2-1.3,0.7-1.6C80.1,27.4,80.1,28.6,80.1,29.9z"/>
	<path d="M83.9,29.4c-0.1,0.6-0.5,0.7-2.7,0.5c0-1.2,0-2.5,0-3.8c0.9,0,1.8,0,2.7,0c0,0.7-0.6,0.4-0.9,0.4c-0.4,0.1-0.8,0-1.2,0
		c0,0.4,0,0.7,0,1.1c0.5,0,1,0,1.5,0c0.1,0,0.3,0.2,0.4,0.3c-0.1,0.1-0.3,0.2-0.4,0.2c-0.5,0-1,0-1.5,0c0,0.4,0,0.8,0,1.2
		C82.5,29.4,83.2,29.4,83.9,29.4z"/>
	<path d="M66.1,30c0-1.3,0-2.6,0-3.9c0.7,0,1.4,0,2.1,0c0.6,0.1,0.9,0.6,0.9,1.2c-0.1,0.6-0.4,1-1,1c-0.4,0-0.8,0-1.1,0
		C66.4,28.8,67.3,29.8,66.1,30z M66.9,26.5c-0.1,0.1-0.1,0.2-0.2,0.3c0.1,0.4,0.1,1,0.3,1.1c0.4,0.1,0.9,0,1.3-0.2
		c0.1,0,0.2-0.7,0.1-0.7C67.9,26.7,67.4,26.6,66.9,26.5z"/>
	<path d="M65.3,30c-0.2-0.2-0.5-0.3-0.5-0.5c-0.1-0.5-0.5-0.6-0.9-0.6c-0.5,0-1-0.1-1.1,0.7c0,0.2-0.4,0.3-0.6,0.5
		C62.1,30,62,29.9,62,29.9c0.4-1.2,0.9-2.3,1.3-3.4c0.1-0.1,0.3-0.3,0.5-0.3c0.2,0,0.4,0.2,0.5,0.3c0.5,1.1,0.9,2.3,1.3,3.4
		C65.4,29.9,65.4,29.9,65.3,30z M63.1,28.4c0.5,0,0.8,0,1.2,0c-0.2-0.6-0.4-1.1-0.6-1.7C63.5,27.3,63.3,27.8,63.1,28.4z"/>
	<path d="M72.6,29.8c-0.5,0.2-0.7,0-0.8-0.4c-0.1-0.6-0.5-0.6-1-0.6c-0.5,0-0.9-0.1-1,0.6c-0.1,0.4-0.3,0.6-0.8,0.4
		c0.4-1.2,0.9-2.4,1.3-3.5c0.1-0.4,0.7-0.3,0.8,0C71.7,27.5,72.2,28.7,72.6,29.8z M71,26.9c-0.1,0-0.1,0-0.2,0
		c-0.2,0.5-0.3,1-0.5,1.6c0.5,0,0.8,0,1.2-0.1C71.3,27.8,71.1,27.3,71,26.9z"/>
	<path d="M76.3,28.6c-0.1,0.9-0.8,1.5-1.7,1.4c-1-0.1-1.7-0.9-1.7-1.9c0-1.1,0.6-2,1.6-2.1c0.9-0.1,1.5,0.4,1.8,1.4
		c-0.3-0.2-0.6-0.3-0.7-0.5c-0.6-0.8-1.7-0.6-2,0.3c-0.1,0.5-0.1,1.1,0.1,1.5c0.1,0.3,0.6,0.6,0.9,0.6c0.3,0,0.7-0.3,1-0.5
		c0.2-0.1,0.3-0.3,0.5-0.5C76.2,28.5,76.2,28.6,76.3,28.6z"/>
	<path d="M141.2,32.1c0,0.9,0,1.6,0,2.4c-0.1,0-0.2,0-0.2,0c0-0.5-0.1-0.9-0.1-1.6c-0.3,0.7-0.5,1.1-0.6,1.6c-0.1,0-0.1,0-0.2,0
		c-0.2-0.5-0.4-0.9-0.6-1.4c-0.1,0-0.1,0-0.2,0c0,0.4,0,0.7,0,1.1c0,0.1-0.1,0.2-0.2,0.3c-0.1-0.1-0.2-0.2-0.2-0.3
		c0-0.7,0-1.4,0-2.1c1.3-0.1,0.7,1.1,1.3,1.5C140.6,33.3,140,32.1,141.2,32.1z"/>
	<path d="M137,32.6c-0.3-0.1-0.5-0.1-0.7-0.2c0-0.1,0-0.1,0-0.2c0.6,0,1.3,0,1.9,0c0,0.1,0,0.1,0,0.2c-0.2,0.1-0.4,0.1-0.8,0.2
		c0,0.6,0,1.3,0,1.9c-0.1,0-0.2,0-0.3,0C137.1,33.9,137.1,33.2,137,32.6z"/>
	<path d="M34.2,37.1c0.2-1.2,0.4-2.3,0.7-3.5c0.1-0.3,0.4-0.5,0.6-0.7c0.2,0.2,0.5,0.4,0.6,0.7c0.7,2.4,0.7,4.8,0,7.1
		c-0.1,0.2-0.4,0.4-0.6,0.6c-0.2-0.2-0.5-0.4-0.6-0.7C34.6,39.5,34.4,38.3,34.2,37.1z"/>
	<path d="M19.6,37.5c0.2-1.2,0.4-2.3,0.7-3.5c0.1-0.3,0.4-0.5,0.6-0.7c0.2,0.2,0.5,0.4,0.6,0.7c0.7,2.3,0.7,4.7,0,7
		c-0.1,0.3-0.4,0.5-0.6,0.7c-0.2-0.2-0.5-0.4-0.6-0.7C20,39.8,19.8,38.7,19.6,37.5z"/>
</g>
</svg>
