<?xml version="1.0" encoding="utf-8"?>
<!-- Generator: Adobe Illustrator 18.1.1, SVG Export Plug-In . SVG Version: 6.00 Build 0)  -->
<svg version="1.1" id="Layer_1" xmlns="http://www.w3.org/2000/svg" xmlns:xlink="http://www.w3.org/1999/xlink" x="0px" y="0px"
	 viewBox="0 0 400 564.3" enable-background="new 0 0 400 564.3" xml:space="preserve">
<g>
	<g>
		<polygon points="142,26 142,0 80,0 80,76 142,76 142,50 106,50 106,26 		"/>
		<polygon points="230,0 168,0 168,26.7 193.9,50 168,50 168,76 230,76 230,50.7 206.5,26 230,26 		"/>
		<polygon points="320,0 258,0 258,26.7 282.9,50 258,50 258,76 320,76 320,50.7 295.5,26 320,26 		"/>
	</g>
	<polygon fill="#231F20" points="36.4,519 0,110.7 400,110.7 363.6,518.9 199.8,564.3 	"/>
	<polygon opacity="0.8" fill="#3D3638" enable-background="new    " points="200.3,529.6 332.5,493.2 363.5,144.7 200.3,144.7 	"/>
</g>
<polygon fill="#FFFFFF" points="316.9,215.7 281.8,215.7 110.9,215.7 102.4,258.8 273.2,258.8 267.9,285.5 97.3,285.5 88.7,328.6 
	259.3,328.6 251.4,368.3 172.8,393.6 123.8,374.8 127.4,354.9 84.6,354.9 73.8,405.6 171.8,443.1 288.4,405.6 326.2,215.7 "/>
</svg>
