<?xml version="1.0" encoding="utf-8"?>
<!-- Generator: Adobe Illustrator 18.1.1, SVG Export Plug-In . SVG Version: 6.00 Build 0)  -->
<svg version="1.1" id="Layer_1" xmlns="http://www.w3.org/2000/svg" xmlns:xlink="http://www.w3.org/1999/xlink" x="0px" y="0px"
	 viewBox="0 26.9 72 18" enable-background="new 0 26.9 72 18" xml:space="preserve">
<g>
	<g>
		<path fill="#FFFFFF" d="M11.1,40.8C11,41,11,41.1,10.8,41.2c-0.1,0.1-0.3,0.2-0.4,0.3c-0.2,0.2-0.4,0.3-0.6,0.5
			c-0.2,0.2-0.4,0.3-0.6,0.4c-0.1,0-0.1,0-0.2,0c-0.1,0-0.1,0.1-0.2,0.1c-0.1,0-0.1,0.1-0.2,0.1c-0.1,0-0.2,0.1-0.2,0.1s0,0,0,0.1
			c0,0,0,0,0,0.1c-0.1,0-0.1,0-0.1,0s-0.1,0-0.1,0.1h0.1c0,0,0,0,0,0.1c0,0,0,0,0,0.1C8.4,43,8.7,42.9,9,42.7s0.5-0.4,0.8-0.5
			c-0.2,0.2-0.4,0.4-0.7,0.6s-0.5,0.3-0.8,0.5h0.1h0.1h0.1h0.1c0.1,0,0.3,0,0.5,0s0.3,0.1,0.5,0.1c0.1,0,0.1,0,0.2,0
			c0.1,0,0.1,0,0.1,0.1c-0.1,0-0.2,0-0.3,0s-0.2,0-0.3-0.1c-0.1,0-0.2,0-0.4,0c-0.1,0-0.2,0-0.4,0c-0.1,0-0.1,0-0.2,0
			c-0.1,0-0.1,0-0.2,0c-0.1,0-0.2,0-0.3,0.1c-0.1,0.1-0.2,0.1-0.3,0.1c-0.1,0-0.2,0.1-0.3,0.1c-0.1,0-0.2,0-0.3,0.1
			c-0.3,0-0.6,0-1,0c-0.3-0.1-0.6-0.1-0.9-0.2l0,0c0,0,0,0-0.1,0s-0.1-0.1-0.2-0.1s-0.1-0.1-0.2-0.1l0.1,0.1c0.1,0,0.1,0,0.1,0.1
			c0,0,0,0.1-0.1,0.1H4.6H4.5H4.4c-0.1,0-0.3-0.1-0.4-0.2c-0.1,0-0.1,0-0.2,0c-0.1,0-0.1,0-0.2,0c0,0,0,0,0-0.1H3.5H3.4v-0.1
			c0,0,0,0,0-0.1c-0.1,0-0.3-0.1-0.4-0.2c-0.1-0.1-0.2-0.1-0.3-0.2c-0.1-0.1-0.2-0.2-0.3-0.2c-0.1-0.1-0.2-0.2-0.3-0.2
			C2,42,2,42,1.9,42s-0.1,0-0.1-0.1c0,0,0,0,0.1,0H2c-0.1-0.2-0.2-0.3-0.3-0.4c-0.1-0.1-0.2-0.3-0.3-0.5c0.1,0,0.1,0.1,0.1,0.1
			c0,0.1,0.1,0.1,0.1,0.2c0-0.1,0-0.2-0.1-0.3c0-0.1-0.1-0.2-0.2-0.2v0.1c0,0,0,0,0,0.1l-0.1-0.1c0,0-0.1-0.1-0.1-0.2
			c0-0.1,0-0.1-0.1-0.2c0-0.1,0-0.1-0.1-0.1c0,0.3,0,0.6,0.1,0.9s0.1,0.6,0.1,0.9c-0.1,0-0.1,0-0.1-0.1C1,42,1,42,1,42
			c0-0.1,0-0.1,0-0.2c0-0.1,0-0.1,0-0.1l0,0l0,0c0,0,0,0,0-0.1v-0.1l0,0l0,0c0,0.1,0,0,0-0.1c0-0.1,0-0.3,0-0.4c0-0.2,0-0.3,0-0.5
			s0-0.3-0.1-0.5l0,0l0,0c0-0.2,0-0.3,0-0.5c0-0.1,0-0.3-0.1-0.4l0,0l0,0c0-0.1,0-0.1,0-0.2s0-0.1-0.1-0.1c0,0,0,0,0,0.1V39
			c0,0-0.1-0.1-0.1-0.2c0-0.1,0-0.2,0-0.2c0-0.1,0-0.2,0-0.3c0-0.1,0-0.2,0-0.2s0,0,0,0.1c0,0,0,0,0,0.1c0,0,0,0,0.1-0.1v-0.1V38
			v-0.1H0.6H0.5l0.1-0.1c0,0,0.1,0,0.1-0.1c0-0.2,0-0.3,0-0.4c0-0.1,0-0.2,0.1-0.3c0,0,0,0-0.1,0c0,0,0,0-0.1,0c0,0,0,0-0.1,0
			c0,0,0,0,0-0.1c0,0,0,0,0.1,0h0.1c0-0.1,0-0.1,0-0.2c0-0.1,0-0.1,0-0.2l0,0l0,0c0-0.2,0-0.4,0-0.5c0-0.2,0-0.3,0.1-0.5
			c0.1,0,0.1,0.1,0.1,0.1c0,0.1,0,0.1,0,0.1c0,0.1,0,0.3,0,0.4c0,0.1,0,0.3,0.1,0.4c0,0.1,0,0.1,0,0.1s0,0.1,0,0.2
			c0,0,0.1,0,0.1-0.1v-0.1v-0.1v-0.1v0.1v0.1c-0.1-0.3,0-0.4,0-0.4c0-0.1,0.1-0.2,0.1-0.2l0,0l0,0l0,0c0,0,0,0,0-0.1h0.2v-0.1
			c0,0,0,0,0-0.1l0,0l0,0l0,0c0,0,0,0,0-0.1h0.1c0,0,0.1,0,0.1-0.1H1.5c0,0-0.1,0-0.1-0.1h0.2c0.1,0,0.1-0.1,0.1-0.1
			s0.1-0.1,0.1-0.2c0,0,0,0-0.1,0s0,0-0.1,0C1.8,35,1.8,34.8,2,34.7c0.1-0.1,0.2-0.2,0.3-0.3c0.1-0.2,0.2-0.3,0.3-0.4
			s0.3-0.2,0.5-0.3c0.1,0,0.1,0,0.1-0.1l0.1-0.1h0.1h0.1c0.1,0,0.2-0.1,0.3-0.1c0.2-0.1,0.3-0.2,0.5-0.2c0.1,0,0.1,0,0.2-0.1
			c0.1,0,0.1,0,0.2-0.1c-0.2,0-0.3,0-0.5,0c-0.1,0-0.3,0.1-0.4,0.2l0,0l0,0c0.1,0,0.2,0,0.2-0.1c0.1,0,0.2-0.1,0.3-0.1
			c0.1,0,0.2,0,0.2,0c0.1,0,0.2,0,0.2,0s0.2,0,0.3,0c0,0,0,0,0-0.1c0.1,0,0.3,0,0.4,0c0.2,0,0.3,0,0.4,0C6,32.9,6.2,33,6.4,33
			c0.3,0,0.5,0,0.7,0.1c0.1,0,0.2,0,0.3,0.1c0.1,0,0.2,0.1,0.3,0.1c0.1,0,0.3,0,0.4,0.1c0.2,0,0.3,0.1,0.4,0.2l0,0l0,0
			c0.1,0,0.1,0,0.2,0.1l0.1,0.1C8.9,33.9,9,33.9,9,34c0.1,0,0.2,0,0.2,0v0.1c0.1,0.1,0.2,0.2,0.3,0.2c0.1,0.1,0.2,0.2,0.3,0.3
			c0.1,0.1,0.2,0.2,0.3,0.3c0.1,0.1,0.1,0.2,0.2,0.4l0.1,0.1l0.1,0.1l0,0c0,0,0,0,0-0.1c0,0.1,0,0.1,0,0.2c0,0.1,0.1,0.1,0.2,0.2
			v0.1V36c0,0,0,0.1,0.1,0.1v0.1c0-0.1,0-0.1,0-0.1l0,0c0,0,0,0,0,0.1c0,0,0,0,0,0.1c0,0.1,0,0.1,0,0.2c0,0.1,0,0.1,0,0.1
			c0-0.2,0-0.4,0-0.6c0-0.2,0-0.4,0-0.6c-0.1,0.1-0.1,0.2-0.1,0.3c0,0.1,0,0.2-0.1,0.3c0-0.2,0-0.3,0-0.5c0-0.2,0.1-0.4,0.1-0.5
			c0.1,0,0.1,0,0.1,0.1s0,0.1-0.1,0.2c0,0.2,0,0.5,0,0.8s0,0.6,0,0.9v0.1l0,0c0,0.1,0,0.2,0,0.3c0,0.1,0,0.2,0,0.3h0.1h0.1H11
			c0,0,0.1,0,0.1,0.1c0,0,0,0.1-0.1,0.1h-0.1c0,0,0,0,0.1,0l0,0l0,0l0,0h-0.1h-0.1l0,0c0,0,0,0,0,0.1h-0.1c-0.1,0-0.1,0-0.1,0
			c0,0.1,0,0.2,0,0.3c0,0.1,0,0.2,0,0.3l0,0l0,0c0,0.2,0,0.5,0,0.7c0,0.2,0,0.5,0,0.7c0,0,0,0.1,0.1,0.1c0,0,0,0,0.1,0.1
			c0.1,0,0.1,0,0.1-0.1c0,0,0-0.1,0.1-0.1c0,0,0.1,0,0.1,0.1v0.1v0.1v0.1c0,0,0,0.1,0.1,0.1l0.1,0.1c0,0-0.1,0-0.1-0.1
			c0,0-0.1,0-0.1-0.1C11.1,40.7,11,40.7,11.1,40.8C11,40.8,11,40.8,11.1,40.8z M0.6,37.8L0.6,37.8C0.6,37.9,0.6,37.9,0.6,37.8
			c0,0.1,0,0.1,0,0.2l0,0l0,0C0.6,37.9,0.6,37.9,0.6,37.8C0.6,37.9,0.6,37.8,0.6,37.8z M0.6,38.5C0.6,38.5,0.6,38.4,0.6,38.5
			c0-0.1,0-0.2,0-0.2S0.6,38.4,0.6,38.5C0.6,38.4,0.6,38.5,0.6,38.5z M0.9,39.9c0-0.1,0-0.2,0-0.2S0.9,39.8,0.9,39.9
			C0.8,39.8,0.8,39.9,0.9,39.9z M2,38.6c-0.2,0-0.3,0-0.5,0s-0.3,0-0.5,0H0.9c0,0,0,0,0,0.1c0.4,0,0.8,0.1,1.2,0.1c0.3,0,0.7,0,1,0
			c0.1,0,0.2,0,0.3,0s0.2,0,0.3,0h0.1c0,0,0.1,0,0.1-0.1c-0.3,0-0.6-0.1-1-0.1C2.7,38.6,2.3,38.6,2,38.6z M1,38.8
			C0.9,38.8,0.9,38.8,1,38.8c0,0.1,0,0.1,0,0.2c0.3,0,0.6,0,0.8,0.1c0.3,0,0.5,0,0.7,0s0.5,0,0.7,0s0.5,0,0.8,0v-0.2
			c-0.3,0-0.5-0.1-0.8-0.1s-0.5,0-0.8,0s-0.5,0-0.8,0C1.5,38.8,1.2,38.8,1,38.8z M1,35.3L1,35.3c0.1,0.1,0.1,0.1,0.1,0.2
			s0,0.1,0,0.2v0.1C1,35.8,1,35.9,1,36v-0.1v-0.1v-0.1v-0.1l0,0v-0.1C1,35.4,1,35.3,1,35.3z M1,38C1,38.1,1,38.1,1,38
			C1,38.1,1,38.1,1,38c0.4,0.1,0.8,0.1,1.2,0.1s0.9,0,1.3,0L3.4,38c0,0-0.1,0-0.1-0.1c-0.1,0-0.2,0-0.3,0s-0.2,0-0.3,0v-0.1
			c0,0,0,0,0-0.1c-0.3,0-0.6,0-0.9,0C1.5,38,1.2,38,1,38z M3.2,38.2c-0.3,0-0.7,0-1.1,0s-0.8,0-1.1,0c0.5,0,0.9,0,1.4,0s0.9,0,1.3,0
			c0-0.1-0.1-0.1-0.2-0.1S3.2,38.2,3.2,38.2z M3.8,38.6C3.9,38.6,3.9,38.5,3.8,38.6C3.9,38.6,3.9,38.6,3.8,38.6L3.8,38.6
			C3.9,38.5,3.9,38.5,3.8,38.6L3.8,38.6c-0.3-0.1-0.4-0.1-0.6-0.1c-0.1,0-0.3,0-0.5,0c-0.3,0-0.7,0-1,0s-0.6,0-0.9,0.1
			c0.3,0,0.5,0,0.8,0c0.2,0,0.5,0,0.7,0s0.5,0,0.7,0C3.4,38.6,3.6,38.6,3.8,38.6z M3.3,37.7c-0.4,0-0.7,0-1.1,0s-0.8,0-1.2,0
			c0,0.1,0,0.1,0,0.1v0.1c0.2,0,0.4,0,0.5,0c0.2,0,0.3,0,0.5,0s0.3,0,0.5,0s0.3,0,0.5-0.1c-0.3,0-0.5,0-0.7,0s-0.5,0-0.7,0
			c-0.1,0-0.1,0-0.2,0s-0.1,0-0.2-0.1c0.1,0,0.1,0,0.2,0s0.2,0,0.2,0c0.1,0,0.1,0,0.2,0s0.1,0,0.2,0c0.1,0,0.3,0,0.4,0
			c0.1,0,0.3,0,0.5,0C3,37.7,3.2,37.8,3.3,37.7c0.2,0.1,0.4,0.1,0.5,0h0.1H4l-0.1-0.1c-0.1,0-0.1,0-0.2,0c-0.1,0-0.1,0-0.2,0
			C3.4,37.7,3.3,37.7,3.3,37.7z M1,36c0,0,0,0.1,0,0.2C1,36.2,1,36.2,1,36C1,36,1,36,1,36z M1,37.4C1,37.4,1,37.5,1,37.4
			c0,0.1,0,0.1,0,0.2c0.5,0,0.9,0,1.4,0s1,0,1.4,0v-0.2c-0.5,0-0.9,0-1.4,0C2,37.4,1.5,37.4,1,37.4z M2.6,37.2L2.6,37.2h0.2l0,0
			c-0.3,0-0.6,0-0.8,0s-0.6,0-0.9,0l0,0l0,0c0.3,0,0.6,0,0.8,0C2.1,37.2,2.3,37.2,2.6,37.2z M1,39.1C1,39.1,1,39.2,1,39.1
			C1.1,39.2,1.1,39.2,1,39.1c0.1,0.1,0.2,0,0.4,0c0.1,0,0.2,0,0.3-0.1c-0.1,0-0.3,0-0.4,0S1.1,39.1,1,39.1z M1.1,36.9L1.1,36.9
			c0,0.1,0,0.2,0,0.2c0.5,0,1,0,1.4,0s0.9,0,1.3,0c0-0.1,0-0.1,0-0.1s0,0,0-0.1c-0.4,0-0.9,0-1.3,0S1.6,36.9,1.1,36.9z M3.1,39.6
			C3.2,39.6,3.2,39.6,3.1,39.6h0.2l0,0l0,0c0.1,0,0.1,0,0.1,0s0,0,0,0.1l0,0l0,0c0.1,0,0.2,0,0.3,0s0.2,0,0.3,0c0,0,0,0,0-0.1
			c0-0.1,0-0.1-0.1-0.1c-0.5,0-1-0.1-1.5-0.1s-1,0-1.5,0v0.1v0.1c0.2,0,0.3,0,0.5,0s0.3,0,0.5,0s0.3,0,0.5,0.1
			C2.7,39.6,2.9,39.6,3.1,39.6c-0.1,0-0.1,0-0.2,0c-0.1,0-0.2,0-0.2,0c-0.1,0-0.2,0-0.3,0s-0.2,0-0.2,0c0.1,0,0.3,0,0.5,0
			C2.8,39.5,3,39.5,3.1,39.6z M2.7,36.8c-0.2,0-0.5,0-0.7,0s-0.5,0-0.7,0H1.2c-0.1,0-0.1,0-0.1,0c0.5,0,1,0.1,1.4,0.1s0.9,0,1.3,0
			c-0.2,0-0.4,0-0.6,0C3.1,36.8,2.9,36.8,2.7,36.8z M3.9,39.7h-1c-0.3,0-0.6,0-0.9-0.1c-0.3,0-0.6,0-0.8,0c0,0.1,0,0.1,0,0.1v0.1
			c0.4,0,0.8,0,1.2,0s0.8,0,1.2,0C3.7,39.8,3.8,39.8,3.9,39.7c0.1,0.1,0.2,0.1,0.3,0c0-0.1,0-0.1-0.1-0.1C4,39.7,4,39.7,3.9,39.7z
			 M1.2,40.8C1.2,40.7,1.2,40.7,1.2,40.8C1.2,40.6,1.2,40.6,1.2,40.8l-0.1-0.1C1.2,40.6,1.2,40.7,1.2,40.8
			C1.2,40.7,1.2,40.7,1.2,40.8z M3.5,36.7c-0.2,0-0.5,0-0.7-0.1c-0.2,0-0.4,0-0.6-0.1c-0.1,0-0.3,0-0.4,0s-0.3,0-0.5,0l0,0l0,0
			c0.2,0,0.4,0,0.7,0c0.2,0,0.4,0,0.7,0.1c0.2,0,0.4,0,0.7,0c0.2,0,0.4,0,0.6,0c0,0-0.1,0-0.2,0C3.6,36.7,3.6,36.7,3.5,36.7z
			 M1.5,39.9H1.4c-0.1,0-0.1,0-0.1,0C1.4,40,1.6,40,1.8,40s0.4,0,0.6,0s0.4,0,0.6,0c0.2,0,0.4,0,0.6,0c0.1,0,0.2,0,0.3,0
			s0.2,0,0.3,0l0,0c-0.4,0-0.8,0-1.3,0C2.5,39.9,2,39.9,1.5,39.9z M1.3,39.4c0.2,0,0.3,0,0.4,0s0.3,0,0.4,0c-0.1,0-0.1,0-0.2,0
			s-0.2,0-0.2,0C1.6,39.4,1.5,39.4,1.3,39.4C1.3,39.4,1.3,39.4,1.3,39.4z M1.3,40.2c0.2,0,0.4,0,0.6,0s0.4,0,0.6,0s0.4,0,0.7,0
			c0.2,0,0.4,0,0.6,0c0.1,0,0.1,0,0.2,0s0.1,0,0.2-0.1c-0.5,0-0.9-0.1-1.4-0.1C2.2,40.1,1.7,40.1,1.3,40.2
			C1.3,40.1,1.3,40.1,1.3,40.2C1.3,40.1,1.3,40.1,1.3,40.2z M1.8,39.2c-0.1,0-0.2,0-0.2,0c-0.1,0-0.1,0-0.2,0c0.5,0,0.9,0,1.3,0.1
			c0.4,0,0.8,0,1.2,0c-0.1,0-0.3-0.1-0.5-0.1s-0.3,0-0.5-0.1c-0.2,0-0.4,0-0.5,0C2.1,39.1,1.9,39.1,1.8,39.2z M3.5,36.3
			c-0.3,0-0.7,0-1.1,0s-0.7,0-1.1,0v0.1c0,0,0,0,0,0.1c0.4,0,0.9,0,1.3,0s0.9,0,1.3,0v-0.2c-0.1,0-0.1,0-0.2,0
			C3.7,36.3,3.6,36.3,3.5,36.3z M3.7,40.3c-0.1,0-0.2,0-0.2,0c-0.1,0-0.1,0-0.2,0c0,0,0,0-0.1,0c0,0,0,0-0.1,0H3c0,0,0,0-0.1,0H2.8
			h-1c-0.1,0-0.1,0-0.2,0s-0.2,0-0.2,0s0,0.1,0.1,0.1h0.1h0.1c0.1,0,0.1,0,0.1,0c0.4,0,0.7,0,1.1,0.1c0.4,0.1,0.8,0,1.2,0l0,0
			c0,0,0,0,0-0.1c-0.1,0-0.1,0-0.2,0S3.7,40.3,3.7,40.3z M1.4,40.5c0.2,0.1,0.4,0.1,0.6,0.1s0.4,0,0.5,0c0.2,0,0.5,0,0.7,0
			c0.3,0,0.5,0,0.8,0h0.1c0.1,0,0.1,0,0.1-0.1c-0.1,0-0.1,0-0.1,0s0,0.1-0.1,0.1v-0.1c0,0,0,0-0.1,0c-0.2,0-0.5,0-0.7,0
			s-0.4,0-0.6,0s-0.4,0-0.6,0C1.9,40.4,1.7,40.4,1.4,40.5L1.4,40.5z M3.5,36C3.5,36,3.5,35.9,3.5,36C3.4,36,3.4,36,3.5,36
			c-0.4,0-0.7,0-1,0s-0.6,0-0.9-0.1c0,0,0,0.1-0.1,0.1c0,0.1,0,0.1,0,0.1c0.4,0.1,0.9,0.1,1.3,0.1s0.8,0,1.2,0c0,0,0,0,0-0.1
			C4,36,4,36,4,36c-0.1,0-0.2,0-0.3,0C3.6,35.9,3.6,35.9,3.5,36z M1.5,40.7c0.1,0,0.2,0,0.2,0s0.2,0,0.3,0c0.3,0,0.6,0,0.9,0
			s0.6,0,0.9,0h0.1c0.1,0,0.1,0,0.2,0h0.1c0,0,0,0,0-0.1c-0.2,0-0.5,0-0.7,0s-0.4,0-0.7,0s-0.4,0-0.7,0C2,40.6,1.8,40.6,1.5,40.7
			L1.5,40.7z M1.6,36.5c0.4,0,0.8,0,1.2,0.1c0.4,0,0.8,0,1.2,0c-0.2,0-0.4,0-0.6,0s-0.4,0-0.5,0c-0.2,0-0.4,0-0.5,0
			C2,36.4,1.8,36.4,1.6,36.5z M1.7,35.7C1.7,35.8,1.7,35.8,1.7,35.7C1.6,35.8,1.6,35.8,1.7,35.7c0.1,0.1,0.3,0.2,0.5,0.2
			s0.4,0,0.6,0s0.4,0,0.6,0s0.4,0,0.6,0c0,0,0,0,0-0.1v-0.1c-0.3,0-0.7,0-1.1,0S2.1,35.7,1.7,35.7z M1.7,40.9c0.2,0,0.5,0,0.7,0.1
			c0.2,0,0.4,0,0.6,0c0.2,0,0.4,0,0.6,0c0.2,0,0.4,0,0.7,0v-0.2c-0.2,0-0.4,0-0.6,0c-0.2,0-0.4,0-0.7,0c-0.2,0-0.5,0-0.7,0
			s-0.5,0-0.7,0l0,0C1.6,40.8,1.7,40.8,1.7,40.9C1.6,40.9,1.6,40.9,1.7,40.9z M1.9,41.2c0.1,0,0.2,0,0.4,0c0.1,0,0.3,0.1,0.4,0.1
			c0.2,0,0.5,0,0.7,0c0.3,0,0.5,0,0.7,0h0.1c0.1,0,0.1,0,0.1-0.1c-0.3,0-0.7,0-1.1-0.1C2.7,41.2,2.3,41.2,1.9,41.2
			C1.8,41.1,1.8,41.1,1.9,41.2L1.9,41.2z M2,35.4c0.1,0,0.1,0,0.2,0c0,0,0.1,0,0.1,0.1C2.2,35.5,2.2,35.5,2,35.4
			C2.1,35.5,2,35.5,2,35.4c0,0.1,0.1,0.2,0.1,0.2c0.1,0,0.1,0,0.2,0c0.1,0,0.2,0,0.2,0c0.1,0,0.2,0,0.2,0l0.1,0.1c0.2,0,0.4,0,0.6,0
			s0.4,0,0.6,0c0,0,0,0,0-0.1c0,0,0,0,0-0.1c-0.2,0-0.4,0-0.5-0.1c-0.2,0-0.4,0-0.6,0c-0.2,0-0.4,0-0.6,0C2.4,35.4,2.2,35.4,2,35.4z
			 M2.1,41.5c0.3,0,0.6,0.1,0.9,0.1s0.6,0,1,0s0.6,0,1,0c0.3,0,0.6,0,1,0.1c-0.1-0.1-0.2-0.1-0.3-0.2c-0.1,0-0.3-0.1-0.4-0.1
			s-0.3,0-0.4,0s-0.3,0-0.4,0c-0.3-0.1-0.5-0.1-0.8-0.1s-0.5,0-0.7,0c-0.1,0-0.3,0-0.4-0.1c-0.1,0-0.3,0-0.4,0
			C2,41.3,2,41.3,2.1,41.5C2,41.4,2,41.4,2.1,41.5z M4,35c-0.3,0-0.6,0-0.8,0s-0.6,0-1,0c0,0,0,0,0,0.1l0,0l0,0c0.1,0,0.3,0,0.4,0
			c0.2,0,0.3,0,0.5,0s0.3,0,0.5,0S3.9,35.1,4,35c0.1,0.1,0.1,0.1,0.2,0.1s0.1,0,0.1-0.1C4.2,35,4.2,35,4,35L4,35z M2.3,35.2
			L2.3,35.2c-0.1,0-0.2,0-0.2,0C2.2,35.2,2.2,35.2,2.3,35.2C2.3,35.3,2.3,35.3,2.3,35.2z M2.4,41.8C2.4,41.7,2.4,41.7,2.4,41.8
			C2.4,41.7,2.4,41.7,2.4,41.8c0.1,0,0.2,0,0.3,0s0.1,0,0.2,0c0.7,0,1.3,0.1,1.9,0.1s1.2,0,1.9,0.1c-0.1,0-0.2,0-0.3-0.1
			c-0.1,0-0.2-0.1-0.3-0.1c-0.1,0-0.1,0-0.2,0s-0.1,0-0.2,0c-0.3,0-0.5,0-0.8-0.1c-0.3,0-0.5,0-0.8,0c-0.4,0-0.7,0-1.1,0
			s-0.7,0-1-0.1c0,0.1,0,0.1,0.1,0.1C2.3,41.7,2.4,41.7,2.4,41.8z M2.6,34.8c-0.1,0-0.1,0-0.2,0c0,0-0.1,0-0.1,0.1c0.3,0,0.7,0,1,0
			s0.6,0,1,0v-0.1c-0.3,0-0.5,0-0.8,0C3.1,34.7,2.8,34.7,2.6,34.8z M2.3,35.3C2.4,35.3,2.4,35.3,2.3,35.3
			C2.4,35.2,2.4,35.2,2.3,35.3C2.3,35.2,2.3,35.3,2.3,35.3z M2.7,41.9c0.6,0,1.3,0,1.9,0s1.3,0,1.9,0.1c0.2,0,0.5,0,0.7,0.1
			c0.2,0,0.5,0,0.7,0.1c0.1,0,0.2,0,0.3,0s0.2,0,0.3,0s0.2,0,0.3,0s0.2,0,0.3-0.1c-0.4,0-0.8,0-1.2,0S7,42,6.6,42
			c-0.7-0.1-1.3-0.1-1.9-0.1s-1.3,0-1.9-0.1c-0.1,0-0.1,0-0.2,0c-0.1,0-0.1,0-0.2,0l0,0c0,0,0,0,0.1,0c0,0,0,0,0.1,0
			C2.6,41.9,2.6,41.9,2.7,41.9C2.6,41.9,2.7,41.9,2.7,41.9L2.7,41.9z M2.5,34.7L2.5,34.7c0.1-0.1,0.2-0.1,0.2-0.2
			c-0.1,0-0.1,0-0.1,0.1C2.5,34.6,2.5,34.7,2.5,34.7z M2.6,35.2c0.1,0,0.2,0,0.3,0s0.2,0,0.3,0.1c-0.1,0-0.2,0-0.3,0
			S2.7,35.3,2.6,35.2c0.2,0.1,0.3,0.1,0.5,0.2c0.1,0,0.3,0,0.4,0c0.1,0,0.3,0,0.4,0c0.1,0,0.2,0,0.3,0v-0.1l0,0c-0.3,0-0.6,0-0.9,0
			C3.1,35.2,2.8,35.2,2.6,35.2z M2.7,34.5C2.7,34.5,2.7,34.6,2.7,34.5c0,0.1-0.1,0.2-0.1,0.2c0.3,0,0.6,0,0.8,0c0.2,0,0.5,0,0.8,0
			c0,0,0,0,0-0.1v-0.1h0.1l0,0v-0.1c0,0,0,0,0-0.1c-0.3,0-0.6,0-0.9,0C3.3,34.5,3,34.5,2.7,34.5z M2.7,34.1C2.7,34,2.7,34,2.7,34.1
			c0.1-0.1,0.1-0.2,0.1-0.2h0.1l0,0l0,0c0.1,0,0.1-0.1,0.2-0.1c0.1,0,0.1-0.1,0.2-0.2c-0.1,0-0.2,0.1-0.3,0.2
			C2.8,33.9,2.7,34,2.7,34.1z M2.7,42C2.8,42,2.8,42,2.7,42l0.2,0.2H3c0.1,0,0.1,0,0.2,0c0.1,0,0.3,0,0.4,0c0.1,0,0.3,0,0.4,0
			c0.2,0,0.5,0,0.7,0.1c0.2,0,0.5,0,0.7,0c0.3,0,0.5,0,0.7,0s0.5,0,0.7,0s0.4,0,0.6,0s0.4,0,0.6,0c0.1,0,0.2,0,0.3,0s0.2,0,0.4-0.1
			c-0.1,0-0.1,0-0.2,0c-0.1,0-0.1,0-0.2,0c-0.1,0-0.1,0-0.2,0c-0.1,0-0.1,0-0.2-0.1c0,0,0,0-0.1,0H7.7c-0.5,0-1,0-1.6,0
			c-0.5,0-1.1,0-1.6,0c-0.2,0-0.4,0-0.7,0c-0.2,0-0.4,0-0.6,0c-0.1,0-0.1,0-0.2,0S2.9,42.1,2.7,42c0.5,0,0.7,0,0.9,0
			c0.2,0,0.4,0.1,0.5,0.1c0.3,0,0.6,0,0.9,0s0.5,0,0.8,0s0.5,0,0.7,0s0.5,0,0.8,0c-0.4,0-0.7,0-1.1-0.1c-0.4,0-0.7,0-1.1,0
			S4.4,42,4,42s-0.8,0-1.2,0c0,0,0,0,0,0.1c0,0,0.1,0,0.1,0.1c0,0,0,0-0.1,0C2.8,42.2,2.8,42.2,2.7,42C2.8,42,2.8,42,2.7,42L2.7,42z
			 M2.8,34.4L2.8,34.4L2.8,34.4L2.8,34.4c0.1,0,0.2,0,0.3,0s0.2,0,0.4,0c0.1,0,0.3,0,0.4,0c0.1,0,0.3,0,0.4,0s0.1,0,0.2,0
			s0.1,0,0.2-0.1c-0.3,0-0.6,0-0.9,0S3.1,34.4,2.8,34.4z M3.5,34.2c-0.1,0-0.3,0-0.4,0c-0.1,0-0.2,0-0.3,0.1c0.2,0,0.3,0.1,0.5,0.1
			s0.3,0,0.5,0c0.1,0,0.2,0,0.3,0s0.2,0,0.3,0c0.1,0,0.2,0,0.3,0c0.1,0,0.1,0,0.2-0.1c-0.3,0-0.5,0-0.7,0
			C3.9,34.2,3.7,34.2,3.5,34.2z M3.4,37.2c-0.1,0-0.1,0-0.2,0s-0.2,0-0.2,0h0.1h0.1h0.1C3.3,37.2,3.4,37.2,3.4,37.2z M3.5,42.8
			L3.5,42.8C3.5,42.7,3.5,42.7,3.5,42.8c-0.1-0.1-0.2-0.1-0.2-0.2c-0.1,0-0.1-0.1-0.2-0.1c0.1,0.1,0.1,0.1,0.2,0.2
			C3.3,42.8,3.4,42.8,3.5,42.8z M4.3,41.2c-0.1,0-0.2,0-0.2,0c-0.1,0-0.2,0-0.3,0s-0.2,0-0.3,0s-0.2,0-0.3,0c0.2,0,0.4,0,0.6,0
			C3.9,41.2,4.1,41.2,4.3,41.2z M3.4,42.5c0.4,0,0.8,0,1.2,0s0.8,0,1.3,0c0.4,0,0.9,0,1.3,0s0.8,0,1.2-0.1c-0.1,0-0.2,0-0.4,0
			c-0.1,0-0.3,0-0.4,0c-0.2,0-0.5,0-0.7,0c-0.3,0-0.5,0-0.7,0c-0.5,0-1,0-1.5-0.1c-0.5,0-0.9-0.1-1.4-0.1l0,0l0,0
			C3.2,42.4,3.3,42.4,3.4,42.5C3.3,42.4,3.3,42.4,3.4,42.5z M3.7,34c-0.1,0-0.1,0-0.2,0s-0.2,0-0.3,0.1c0.2,0,0.5,0.1,0.7,0.1
			c0.2,0,0.4,0,0.7,0c0.1,0,0.1,0,0.2,0s0.1,0,0.2,0s0.1,0,0.1,0l0.1-0.1C4.9,34,4.7,34,4.4,34S3.9,34,3.7,34z M3.4,33.7
			C3.5,33.7,3.5,33.7,3.4,33.7h0.2C3.5,33.7,3.5,33.7,3.4,33.7C3.5,33.6,3.4,33.6,3.4,33.7z M3.4,37.2c0.1,0,0.2,0,0.3,0
			s0.2,0,0.2,0s0,0-0.1,0H3.7H3.6C3.5,37.2,3.4,37.2,3.4,37.2z M4,39.2L4,39.2c-0.2,0-0.2,0-0.3,0c-0.1,0-0.1,0-0.2,0
			c-0.1,0-0.1,0-0.2,0c0.1,0,0.2,0,0.3,0C3.8,39.2,3.9,39.2,4,39.2z M3.6,42.9L3.6,42.9C3.8,43,3.8,43,3.9,43.1c0.1,0,0.1,0,0.2,0
			c0.1,0,0.1,0,0.2,0C4.2,43.1,4.1,43,4,43C3.8,42.9,3.7,42.9,3.6,42.9z M5.1,33C5,33,5.1,33.1,5.1,33C5.2,33.1,5.2,33.1,5.1,33
			c0,0.1-0.2,0.1-0.3,0.1s-0.2,0-0.3,0.1c-0.1,0-0.2,0.1-0.3,0.1c-0.2,0.1-0.3,0.1-0.4,0.1c0,0.1-0.1,0.1-0.1,0.1
			c-0.1,0-0.1,0-0.1,0.1c0.4-0.1,0.7-0.2,1.1-0.3c0.4-0.1,0.8-0.1,1.2-0.2c0,0,0-0.1,0.1-0.1s0.2,0,0.2,0S6.1,33,6,33c0,0,0,0-0.1,0
			c0,0-0.1,0-0.2,0c-0.1,0-0.1,0-0.2,0s-0.1,0-0.2,0C5.2,33,5.1,33,5.1,33z M3.6,42.6c0.1,0,0.2,0.1,0.3,0.1s0.2,0,0.3,0
			s0.2,0,0.4,0c0.1,0,0.2,0,0.4,0h1c0.4,0,0.7,0,1.1,0s0.7,0,1-0.1c-0.8,0-1.5,0-2.3,0C5.1,42.5,4.3,42.5,3.6,42.6z M5.9,33.9
			c-0.2,0-0.4,0-0.6,0s-0.4,0-0.6,0s-0.4,0-0.6,0s-0.4,0-0.5,0.1c0.4,0,0.8,0,1.2,0C5.2,33.9,5.6,33.9,5.9,33.9z M4,37.4
			C3.9,37.4,4,37.4,4,37.4L4,37.4C4,37.3,4,37.3,4,37.4C4,37.3,4,37.3,4,37.4z M4,36.4L4,36.4c0-0.1,0-0.1,0.1-0.1H4V36.4z
			 M4.1,36.2C4.1,36.1,4.1,36.1,4.1,36.2c0-0.1,0-0.1,0-0.1S4.1,36.1,4.1,36.2C4,36.1,4,36.2,4.1,36.2z M4,37.5
			C4.1,37.5,4.1,37.5,4,37.5C4.1,37.5,4.1,37.5,4,37.5C4.1,37.5,4.1,37.5,4,37.5c0.1-0.2,0.1-0.2,0.1-0.2c-0.1,0-0.1,0-0.1,0
			C4.1,37.4,4,37.5,4,37.5z M4.9,42.7c-0.1,0-0.3,0-0.4,0s-0.3,0-0.4,0.1c0.6,0,1.1,0,1.7,0s1.1,0,1.7-0.1c-0.4,0-0.9,0-1.3,0
			C5.8,42.7,5.3,42.7,4.9,42.7z M4.2,37.5L4.2,37.5c0.1-0.1,0.1-0.1,0-0.2l0,0l0,0C4.2,37.3,4.2,37.4,4.2,37.5
			C4.2,37.4,4.2,37.5,4.2,37.5z M4.3,40.1C4.3,40,4.3,40,4.3,40.1C4.3,40,4.3,40,4.3,40.1C4.2,40,4.2,40,4.3,40.1
			C4.2,40,4.2,40.1,4.3,40.1z M4.2,40.4C4.3,40.4,4.3,40.4,4.2,40.4c0-0.1,0-0.1,0-0.1l0,0C4.2,40.3,4.2,40.3,4.2,40.4L4.2,40.4z
			 M4.3,34.9C4.3,34.9,4.4,34.9,4.3,34.9c0.1-0.1,0.1-0.1,0.1-0.1H4.3C4.3,34.8,4.3,34.8,4.3,34.9L4.3,34.9z M7.2,37.4H6.8
			c-0.4,0-0.8,0-1.3,0c-0.4,0-0.9,0-1.3,0v0.1v0.1c0.2,0,0.4,0,0.7,0c0.2,0,0.5,0,0.7,0c0.3,0,0.5,0,0.8,0s0.5,0,0.7,0h0.1
			C7.3,37.6,7.3,37.6,7.2,37.4C7.3,37.4,7.2,37.4,7.2,37.4C7.3,37.3,7.2,37.4,7.2,37.4z M4.3,36.4C4.3,36.5,4.3,36.5,4.3,36.4
			L4.3,36.4C4.3,36.5,4.3,36.5,4.3,36.4L4.3,36.4z M5.8,37.9L5.8,37.9L5.8,37.9L5.8,37.9c-0.1,0-0.1,0-0.2,0s-0.1,0-0.1,0H5.4
			c0.1,0,0.1,0,0.2,0S5.7,37.9,5.8,37.9c-0.2,0-0.2,0-0.3,0s-0.1,0-0.2,0S5,37.9,4.9,38c-0.2,0-0.3,0.1-0.5,0.1l0,0l0,0l0,0
			C4.9,38.1,5.3,38,5.8,37.9C6.1,38,6.6,38,7,38c-0.3,0-0.7,0-1,0s-0.7,0-1,0.1c0.1,0,0.2,0,0.3,0c0.1,0,0.2,0,0.4,0
			c0.1,0,0.2-0.1,0.3,0c0.1,0.1,0.2,0,0.3,0l0,0c0,0,0,0,0.1,0s0.2,0,0.3,0c0.1,0,0.2,0,0.3,0c0.1,0,0.1,0,0.1,0s0,0,0.1,0
			c0,0,0,0,0.1,0h0.1h0.1c0,0,0.1,0,0.1-0.1c-0.1,0-0.2,0-0.2,0c-0.1,0-0.2,0-0.3,0c0.1,0,0.1,0,0.2,0h0.1h0.1c0,0,0.1,0,0.1-0.1
			c0,0,0,0.1,0.1,0.1l0,0v-0.1l0,0l0,0l0,0l0,0v-0.1c-0.2,0-0.5,0-0.7,0s-0.5,0-0.7,0v-0.1l0,0c-0.1,0-0.1,0-0.1,0s0,0,0,0.1
			C5.9,38,5.8,38,5.8,37.9C5.7,38,5.7,38,5.8,37.9C5.7,37.9,5.7,37.9,5.8,37.9C5.7,37.9,5.7,37.9,5.8,37.9
			C5.7,37.9,5.7,37.9,5.8,37.9C5.7,37.9,5.7,37.9,5.8,37.9L5.8,37.9z M9.5,38.2c-0.1,0-0.2,0-0.3,0s-0.2,0-0.3,0v0.1H8.8l0,0l0,0
			c-0.2,0-0.4,0-0.6,0c-0.2,0-0.4,0-0.5,0c0,0,0,0,0,0.1v0.1c0,0,0,0,0-0.1c0-0.1,0-0.1,0-0.1c-0.1,0-0.1,0-0.1,0v0.1v0.1v0.1v-0.1
			c0-0.1,0-0.1,0-0.2c-0.1,0-0.3,0-0.4,0s-0.3,0-0.4,0s-0.1,0-0.2,0s-0.1,0-0.2,0c-0.2,0-0.3,0-0.5,0s-0.3,0-0.5,0s-0.3,0-0.5,0
			s-0.3,0-0.4,0c0,0.1,0,0.2,0,0.2s0,0.2,0,0.3c0,0.1,0,0.2,0,0.3c0,0.1,0,0.2,0,0.2l0,0l0,0l0,0c0,0,0,0,0,0.1v0.1
			c0,0,0,0.1,0.1,0.1v0.1c0.1,0.1,0.1,0.2,0.2,0.3c0.1,0.1,0.1,0.2,0.1,0.3L5,40.4c0.1,0,0.1,0.1,0.2,0.1c0.1,0.1,0.3,0.2,0.5,0.3
			c0.2,0.1,0.4,0.2,0.6,0.3c0.1,0.1,0.2,0.1,0.2,0.1c0.1,0,0.2,0.1,0.2,0.1c0.1,0.1,0.3,0.1,0.4,0.1s0.3,0,0.4,0s0.3-0.1,0.4-0.1
			s0.3-0.1,0.4-0.1s0.1,0,0.2,0s0.2,0,0.2,0C8.8,41.1,9,41,9.1,40.9c0.1-0.1,0.3-0.2,0.4-0.3v-0.1c0.1-0.1,0.2-0.1,0.3-0.2
			S10,40.1,10,40c0,0,0-0.1-0.1-0.1l-0.1-0.1l-0.1-0.1v-0.1c0.1,0,0.1,0.1,0.2,0.1c0,0.1,0.1,0.1,0.2,0.1c0.1-0.1,0.1-0.2,0.2-0.3
			l0,0c0,0,0,0,0,0.1c0,0,0,0,0,0.1c0,0.1,0,0,0,0c0.1-0.1,0.1-0.2,0.1-0.2c0-0.1,0.1-0.1,0.2-0.2c0,0.1,0,0.2,0,0.2
			c0,0.1,0,0.1,0,0.2c0,0,0,0,0.1,0c0,0,0,0,0.1,0.1h-0.1c0,0,0,0-0.1,0c0,0,0,0.1,0.1,0.1c0,0,0,0.1,0.1,0.1c0-0.2,0-0.5,0-0.8
			s0-0.5,0-0.8c0,0,0,0,0-0.1v-0.1c0,0,0,0-0.1,0.1c0,0,0,0.1-0.1,0c0,0,0-0.1,0-0.2c0-0.1,0-0.2,0-0.2c-0.2,0-0.3,0-0.5,0
			C9.9,38.2,9.7,38.2,9.5,38.2z M4.5,37.6H4.3C4.3,37.6,4.4,37.6,4.5,37.6L4.5,37.6z M4.3,40.4C4.3,40.4,4.4,40.4,4.3,40.4
			c0.1,0,0.1,0,0.2,0C4.5,40.4,4.5,40.3,4.3,40.4C4.4,40.3,4.4,40.4,4.3,40.4L4.3,40.4z M4.4,36.3c0.1-0.3,0.2-0.6,0.3-0.9
			c0.1-0.3,0.2-0.6,0.3-0.8c-0.2,0.2-0.3,0.4-0.4,0.7S4.4,35.9,4.4,36.3z M4.4,40.6C4.5,40.6,4.5,40.6,4.4,40.6h0.2l0,0l0,0
			C4.6,40.6,4.6,40.6,4.4,40.6C4.4,40.5,4.4,40.5,4.4,40.6L4.4,40.6z M4.4,40.8c0.1,0,0.2,0,0.2,0s0.1,0,0.2-0.1c-0.1,0-0.1,0-0.2,0
			S4.4,40.7,4.4,40.8L4.4,40.8z M4.4,41.1c0.1,0,0.2,0,0.3,0c0.1,0,0.2,0,0.3,0C5,41,4.9,41,4.8,41S4.6,41,4.4,41.1
			C4.4,40.9,4.4,40.9,4.4,41.1C4.4,41,4.4,41,4.4,41.1z M4.4,41.3L4.4,41.3c0.1,0,0.1,0,0.2,0C4.5,41.3,4.5,41.3,4.4,41.3
			C4.4,41.2,4.4,41.2,4.4,41.3z M4.4,41.2c0.1,0,0.2,0,0.3,0c0.1,0,0.2,0,0.4,0c0,0-0.1,0-0.1-0.1c-0.1,0-0.1,0-0.2,0s-0.1,0-0.2,0
			C4.5,41.1,4.4,41.1,4.4,41.2z M5.5,34.3c-0.1,0-0.2,0.1-0.2,0.2s-0.1,0.2-0.2,0.3C5,35,5,35.1,4.9,35.3c-0.1,0.1-0.2,0.3-0.2,0.4
			c-0.1,0.2-0.1,0.4-0.2,0.6c0,0.2-0.1,0.4-0.1,0.6c0.2,0,0.4,0,0.6,0s0.3,0,0.5,0s0.3,0,0.5,0s0.4,0,0.5,0v-0.1v-0.1l0,0l0,0
			c0.1-0.3,0.2-0.5,0.1-0.8c0-0.3-0.1-0.6-0.2-0.8c0.1-0.2,0.1-0.3,0.1-0.5c0-0.1-0.1-0.2-0.2-0.3c0,0,0,0,0,0.1v0.1c0,0,0,0,0-0.1
			c0,0,0,0,0-0.1v-0.1c0,0,0,0,0-0.1c-0.1,0-0.2,0-0.4,0C5.7,34.2,5.6,34.2,5.5,34.3z M5.3,34.3c-0.1,0-0.1,0.1-0.1,0.2
			c-0.1,0-0.2,0.1-0.2,0.2c0,0.1-0.1,0.2-0.1,0.3s-0.1,0.2-0.1,0.3c0,0.1-0.1,0.2-0.1,0.3c0,0.1-0.1,0.2-0.1,0.3
			c0,0.1-0.1,0.2-0.1,0.3s0,0.2,0,0.3c0.1-0.4,0.2-0.7,0.4-1.1C5,35,5.1,34.6,5.3,34.3L5.3,34.3z M7.2,37.1H6.8c-0.3,0-0.6,0-0.9,0
			s-0.6,0-0.9,0c-0.1,0-0.2,0-0.3,0s-0.2,0-0.3,0c0.2,0,0.4,0,0.7,0c0.2,0,0.5,0,0.7,0s0.4,0,0.7,0C6.7,37.1,7,37.1,7.2,37.1
			L7.2,37.1c0.2,0,0.2,0,0.2-0.1l-0.1-0.1C7.3,37.1,7.2,37.1,7.2,37.1z M4.8,37.6c-0.1,0-0.1,0-0.2,0s-0.1,0-0.1,0
			C4.6,37.6,4.6,37.6,4.8,37.6C4.8,37.6,4.8,37.6,4.8,37.6z M4.6,41.3c0.1,0,0.1,0,0.2,0s0.2,0,0.3,0c-0.1,0-0.1,0-0.2-0.1
			C4.7,41.3,4.6,41.3,4.6,41.3z M4.9,43.1C4.8,43.1,4.8,43.1,4.9,43.1H4.7H4.9C4.9,43.2,4.9,43.2,4.9,43.1z M4.8,37.9L4.8,37.9
			C4.9,37.9,4.9,37.9,4.8,37.9L4.8,37.9L4.8,37.9z M4.8,42.9C5.1,43,5.4,43,5.7,43c0.3,0,0.6,0,0.9-0.1c-0.2,0-0.4,0-0.5,0
			s-0.3,0-0.4,0s-0.3,0-0.4,0C5.1,42.9,4.9,42.9,4.8,42.9z M7,33.7c-0.1,0-0.2,0-0.3,0c-0.1,0-0.2,0-0.3,0c-0.1,0-0.2,0-0.3,0
			c-0.1,0-0.2,0-0.3,0c-0.2,0-0.4,0-0.6,0s-0.3,0-0.5,0c0.2,0,0.4,0.1,0.7,0.1c0.2,0,0.5,0,0.7,0C6.5,33.8,6.7,33.8,7,33.7
			c0.2,0,0.5,0.1,0.7,0.1c0.1,0,0.2,0,0.3,0s0.2,0,0.3,0c-0.1,0-0.2,0-0.3,0c-0.1,0-0.2,0-0.3,0s-0.2,0-0.4,0
			C7.2,33.7,7.1,33.7,7,33.7z M4.9,33.6c0.2,0,0.4,0,0.5,0c0.2,0,0.3,0,0.5,0c0,0,0,0-0.1,0s-0.1,0-0.1,0l0,0c0,0,0.1,0,0,0
			s-0.3,0-0.4,0C5.2,33.5,5,33.5,4.9,33.6z M5.1,40.7L5.1,40.7C5,40.6,5,40.6,5,40.6S5,40.6,5.1,40.7L5.1,40.7z M5.1,43.2L5.1,43.2
			c-0.1-0.1-0.1,0-0.2,0C5,43.2,5,43.2,5.1,43.2L5.1,43.2z M5.8,41.1c-0.1,0-0.2-0.1-0.3-0.1c-0.1-0.1-0.2-0.1-0.3-0.1
			C5.3,41,5.4,41,5.5,41.1C5.6,41.1,5.7,41.1,5.8,41.1z M5.2,43.3c0.1,0,0.2,0,0.3,0.1c0.1,0.1,0.2,0.1,0.3,0.1
			c0.1-0.1,0.1-0.1,0.2-0.1s0.2,0,0.2-0.1c-0.2,0-0.3,0-0.5,0C5.6,43.3,5.4,43.3,5.2,43.3z M7,37.6C7,37.6,7,37.5,7,37.6
			C7,37.5,7,37.5,7,37.6c-0.2,0-0.4,0-0.7,0c-0.2,0-0.4,0-0.6,0c-0.1,0-0.2,0-0.3,0c-0.1,0-0.2,0-0.3,0c0.1,0,0.3,0,0.5,0
			s0.4,0,0.6,0s0.4,0,0.6,0s0.4,0,0.5,0c0,0,0-0.1-0.1-0.1L7,37.6L7,37.6C7.1,37.5,7.1,37.6,7,37.6z M6.5,41.5
			c-0.1-0.1-0.2-0.1-0.4-0.1c-0.1,0-0.2-0.1-0.4-0.1c0.1,0.1,0.3,0.2,0.4,0.2c0.2,0.1,0.4,0.1,0.6,0.1s0.4,0,0.6,0s0.4,0,0.5-0.1
			c-0.1,0-0.2,0-0.3,0c-0.1,0-0.2,0-0.4,0c-0.1,0-0.2,0-0.4,0C6.7,41.6,6.6,41.6,6.5,41.5z M5.8,33.5c0.1,0,0.3,0,0.4,0.1
			c0.1,0,0.3,0,0.4,0s0.3,0,0.4,0s0.3,0,0.5,0c-0.2,0-0.5-0.1-0.8-0.1C6.4,33.5,6.1,33.5,5.8,33.5z M6.1,33.6
			C6,33.6,6,33.6,6.1,33.6C6,33.6,6,33.6,6.1,33.6C5.9,33.6,5.9,33.6,6.1,33.6C6,33.6,6,33.6,6.1,33.6z M6.1,34c0.2,0,0.4,0,0.7,0
			s0.4,0,0.6,0s0.4,0,0.6,0c0.2,0,0.4,0,0.6,0c-0.2,0-0.4-0.1-0.6-0.1s-0.4,0-0.6,0s-0.4,0-0.6,0S6.4,33.9,6.1,34L6.1,34L6.1,34
			C6,33.9,6,33.9,6.1,34C6,33.9,6.1,34,6.1,34z M6.1,36c0,0.1,0,0.2,0,0.3c0,0.1,0,0.2,0,0.3H6v-0.1v-0.1c0,0,0,0,0-0.1
			S6,36.2,6.1,36C6,36.1,6,36,6.1,36C6,36,6,36,6.1,36z M6,43.5c0.4,0.1,0.7,0,1.1,0c0.3-0.1,0.6-0.2,0.9-0.3c-0.2,0-0.3,0-0.5,0
			s-0.3,0-0.5,0.1c-0.2,0-0.3,0.1-0.5,0.1S6.1,43.5,6,43.5z M6.8,35.3C6.8,35.3,6.8,35.2,6.8,35.3C6.9,35.3,6.9,35.3,6.8,35.3
			c0.1-0.1,0-0.2,0-0.3s-0.1-0.2-0.1-0.3c0-0.1-0.1-0.2-0.2-0.3c0-0.1-0.1-0.1-0.2-0.1c0.1,0.1,0.1,0.2,0.1,0.2
			c0,0.1,0.1,0.2,0.1,0.3C6.6,34.9,6.6,35,6.7,35C6.7,35.1,6.7,35.2,6.8,35.3z M6.6,34.1c0.1,0,0.1,0,0.2,0s0.1,0,0.2,0
			c-0.1,0-0.2,0-0.2,0C6.7,34.1,6.7,34.1,6.6,34.1z M6.6,33.2L6.6,33.2c0.1,0.1,0.3,0.1,0.5,0.1s0.3,0,0.4,0c-0.1,0-0.3-0.1-0.4-0.1
			C6.9,33.2,6.8,33.1,6.6,33.2z M6.8,34.3c0.1,0,0.3,0.1,0.5,0.1s0.4,0,0.6,0c0.2,0,0.4,0,0.5,0c0.2,0,0.3,0,0.5,0.1
			c0.1,0,0.1,0,0.2,0c0.1,0,0.2,0,0.2,0c-0.1-0.1-0.2-0.2-0.4-0.2c-0.2,0-0.3,0-0.5,0c-0.3,0-0.5,0-0.8,0
			C7.4,34.2,7.1,34.2,6.8,34.3L6.8,34.3C6.7,34.2,6.8,34.2,6.8,34.3C6.8,34.2,6.8,34.2,6.8,34.3z M6.9,36.3c0,0.1,0,0.1,0.1,0.2
			s0,0.2,0.1,0.3c0-0.1,0-0.1,0-0.2c0-0.1,0-0.1,0-0.2c0-0.1,0-0.1,0-0.2c0-0.1,0-0.1-0.1-0.2H6.9c0,0.1,0,0,0,0l0,0c0,0,0,0,0.1,0
			c0,0,0,0,0.1,0l0,0C7,35.8,7,35.7,7,35.6c0-0.1,0-0.2,0-0.3H6.9H6.8c0.1,0.1,0.1,0.3,0.1,0.5S6.9,36.1,6.9,36.3z M6.7,36.8
			C6.8,36.8,6.8,36.8,6.7,36.8c0.1,0,0.2,0,0.3,0c0-0.1,0-0.1,0-0.2c0-0.1-0.1-0.1-0.1-0.2C6.8,36.5,6.8,36.7,6.7,36.8z M6.9,34.5
			c0.4,0.1,0.9,0.1,1.3,0.1c0.5,0,0.9,0,1.3,0c-0.1,0-0.1-0.1-0.1-0.1s-0.1,0-0.1-0.1c-0.2,0-0.5,0-0.7,0c-0.3,0-0.5,0-0.8,0
			c-0.2,0-0.3,0-0.5-0.1c-0.2,0-0.3,0-0.4,0C6.9,34.4,6.9,34.4,6.9,34.5C6.9,34.4,6.9,34.4,6.9,34.5z M7,34.6C7,34.6,7,34.7,7,34.6
			c0,0.1,0,0.2,0.1,0.2c0.3,0,0.6,0,0.9,0s0.6,0,0.9,0c0.2,0,0.3,0,0.4,0c0.1,0,0.3,0,0.4-0.1c-0.2,0-0.5-0.1-0.7-0.1
			s-0.4,0-0.7-0.1c-0.2,0-0.5,0-0.7,0C7.5,34.6,7.3,34.6,7,34.6z M7.1,35C7.2,35,7.2,35,7.1,35h0.2v-0.1c0,0,0,0,0-0.1
			c-0.1,0-0.1,0-0.1,0H7.1V35z M7.1,35.1C7.1,35.1,7.2,35.2,7.1,35.1c0,0.1,0,0.1,0.1,0.1h0.1v-0.1H7.1C7.2,35.1,7.2,35.1,7.1,35.1z
			 M7.2,36.8L7.2,36.8c0-0.1,0-0.1,0.1-0.2c0-0.1,0-0.1,0-0.2c0,0,0,0.1,0,0.2C7.2,36.7,7.2,36.8,7.2,36.8z M7.3,35.5L7.3,35.5
			c0.1-0.1,0.1-0.1,0-0.2l0,0C7.2,35.4,7.2,35.4,7.3,35.5C7.3,35.4,7.3,35.5,7.3,35.5z M7.4,35.9v-0.1v-0.1
			C7.4,35.8,7.4,35.8,7.4,35.9L7.4,35.9z M7.4,41.5c0.1,0,0.1,0,0.2,0s0.1,0,0.2,0s0.1,0,0.2,0s0.1,0,0.2,0s0.1,0,0.2,0
			c0.1,0,0.1,0,0.2-0.1c-0.2,0-0.4,0.1-0.6,0.1C7.7,41.4,7.5,41.4,7.4,41.5z M7.4,43.1C7.5,43.1,7.5,43.1,7.4,43.1h0.2H7.4L7.4,43.1
			z M7.5,35.3L7.5,35.3C7.6,35.2,7.6,35.2,7.5,35.3c0.1-0.1,0.1-0.1,0.1-0.2H7.5C7.5,35.1,7.5,35.1,7.5,35.3
			C7.5,35.2,7.5,35.2,7.5,35.3z M7.6,35.4L7.6,35.4C7.5,35.3,7.5,35.3,7.6,35.4C7.5,35.4,7.5,35.4,7.6,35.4
			C7.5,35.4,7.5,35.4,7.6,35.4L7.6,35.4c0.1,0,0.2,0.1,0.3,0.1c0.1,0,0.2,0,0.3,0c0.1,0,0.2,0,0.3,0s0.2,0,0.2,0c0.1,0,0.1,0,0.2,0
			c0.1,0,0.2,0,0.3,0s0.2,0,0.3,0s0.2,0,0.2,0c-0.2,0-0.4,0-0.6,0c-0.2,0-0.3,0-0.5,0s-0.3,0-0.5,0C7.9,35.4,7.8,35.4,7.6,35.4z
			 M9.6,35c-0.2,0-0.3,0-0.5,0s-0.4,0-0.6,0s-0.4,0-0.6,0c-0.2,0-0.4,0-0.5,0l0,0h0.1l0,0c0.1,0,0.1,0,0.2,0s0.1,0,0.2,0
			c0.3,0,0.7,0,1.1,0.1c0.4,0,0.7,0.1,1,0.1C9.9,35,9.9,35,9.8,35C9.8,35,9.7,35,9.6,35z M10,35.7c-0.1,0-0.1,0-0.1,0s-0.1,0-0.2,0
			c-0.3,0-0.5,0-0.9,0c-0.3,0-0.6,0-0.9,0c-0.1,0-0.1,0-0.2,0s-0.1,0-0.2,0s-0.1,0-0.2,0c0,0-0.1,0-0.1,0.1c0.1,0,0.1,0,0.2,0
			s0.1,0,0.2,0c0.4,0,0.8,0.1,1.2,0.1S9.6,35.9,10,35.7L10,35.7L10,35.7z M7.5,35.8V36h0.1c0,0,0,0,0-0.1l0,0L7.5,35.8
			c0.1,0,0.1,0,0.1-0.1C7.6,35.8,7.5,35.8,7.5,35.8L7.5,35.8z M7.5,36.2C7.5,36.1,7.5,36.1,7.5,36.2c0.1-0.1,0.1-0.2,0-0.2
			C7.5,36,7.5,36,7.5,36.2C7.5,36.1,7.5,36.1,7.5,36.2z M7.5,36.3L7.5,36.3C7.6,36.3,7.6,36.3,7.5,36.3L7.5,36.3
			C7.5,36.2,7.5,36.3,7.5,36.3z M7.5,37.2L7.5,37.2L7.5,37.2z M7.5,37.4L7.5,37.4L7.5,37.4L7.5,37.4L7.5,37.4z M7.5,37.7
			C7.5,37.6,7.5,37.6,7.5,37.7C7.6,37.7,7.6,37.7,7.5,37.7C7.6,37.6,7.5,37.6,7.5,37.7c0-0.1,0-0.1,0-0.1S7.5,37.6,7.5,37.7z
			 M7.5,38.2C7.5,38.1,7.5,38.1,7.5,38.2c0.1,0,0.1,0,0.1-0.1L7.5,38.2L7.5,38.2z M7.5,37.2L7.5,37.2C7.6,37.3,7.6,37.2,7.5,37.2
			C7.6,37.1,7.6,37.1,7.5,37.2C7.6,37.2,7.5,37.2,7.5,37.2z M7.6,37.5C7.6,37.5,7.6,37.4,7.6,37.5C7.6,37.4,7.6,37.4,7.6,37.5
			C7.6,37.4,7.6,37.4,7.6,37.5C7.5,37.4,7.5,37.4,7.6,37.5z M9.8,35.2c-0.3,0-0.7-0.1-1.1-0.1c-0.4,0-0.7,0-1.1,0c0,0,0,0,0,0.1v0.1
			c0.2,0,0.4,0,0.7,0c0.2,0,0.5,0,0.7,0s0.4,0,0.6,0c0.2,0,0.4,0,0.5,0c0-0.1-0.1-0.1-0.1-0.1C9.9,35.2,9.8,35.2,9.8,35.2z M10,36.6
			c-0.2,0-0.4,0-0.6,0c-0.2,0-0.4,0-0.6,0c-0.2,0-0.4,0-0.6,0s-0.4,0-0.5,0H7.6l0.1,0.1h0.1c0.2,0,0.3,0,0.4,0s0.3,0,0.4,0
			c0.2,0,0.4,0,0.6,0.1c0.2,0,0.4,0,0.6,0c0,0,0,0,0.1,0H10h0.1h0.1l0,0c0-0.1,0-0.1-0.1-0.1C10.1,36.6,10,36.6,10,36.6z M7.6,38.4
			L7.6,38.4C7.6,38.5,7.6,38.5,7.6,38.4C7.6,38.5,7.6,38.5,7.6,38.4L7.6,38.4z M7.6,41.9c0.2,0,0.4,0,0.6,0s0.4,0,0.6,0
			c0.2,0,0.3,0,0.4,0c0.1,0,0.2,0,0.3-0.1c-0.1,0-0.2,0-0.4,0s-0.3,0-0.5,0s-0.3,0-0.5,0C7.8,41.9,7.7,41.9,7.6,41.9z M7.6,36.3
			L7.6,36.3L7.6,36.3L7.6,36.3c0.4,0.1,0.8,0.1,1.3,0.1c0.4,0,0.8,0,1.2,0c0,0,0,0,0.1,0c0,0,0,0,0.1,0c0,0,0,0,0.1,0c0,0,0,0,0-0.1
			c-0.5,0.1-1,0-1.4,0S8.1,36.3,7.6,36.3z M7.6,38L7.6,38L7.6,38c0.1,0,0.3,0,0.4,0c0.1,0,0.2,0,0.3,0s0.2,0,0.3,0s0.2,0,0.2-0.1
			H8.7H8.6c0,0,0,0,0-0.1c-0.1,0-0.2,0-0.3,0s-0.2,0-0.3,0c0-0.1-0.1-0.1-0.1,0C7.8,38,7.7,38,7.6,38C7.7,38,7.7,38,7.6,38z
			 M10.4,36.1c-0.2,0-0.4,0-0.7-0.1c-0.2,0-0.5,0-0.8,0s-0.5,0-0.7,0s-0.4,0-0.6,0v0.1c0.5,0,1,0.1,1.4,0.1s0.8,0,1.3,0
			C10.3,36.3,10.3,36.2,10.4,36.1C10.3,36.2,10.3,36.2,10.4,36.1c-0.1,0.1-0.1,0.1-0.1,0.1s0,0,0.1,0C10.4,36.2,10.4,36.2,10.4,36.1
			C10.4,36.2,10.4,36.2,10.4,36.1z M7.6,36.4c0.1,0,0.3,0.1,0.5,0.1c0.2,0,0.4,0,0.7,0c-0.1,0-0.2,0-0.3,0s-0.2,0-0.3,0
			s-0.2,0-0.3,0C7.8,36.4,7.7,36.4,7.6,36.4z M7.6,37.2c0.5,0,0.9,0,1.3,0.1c0.4,0,0.8,0,1.2,0L10,37.2c-0.1,0-0.1,0-0.2,0H9.5
			c-0.3,0-0.7-0.1-1-0.1S7.9,37.1,7.6,37.2L7.6,37.2z M9.9,37.4c-0.4,0-0.8,0-1.1,0c-0.4,0-0.8,0-1.1,0l0,0l0,0c0.1,0,0.2,0,0.4,0
			c0.1,0,0.3,0,0.4,0c0.3,0,0.6,0,0.9,0c0.3,0,0.6,0,0.8,0h-0.1C10,37.4,10,37.4,9.9,37.4z M7.6,37.6L7.6,37.6
			c0.1,0.1,0.3,0.1,0.4,0.1c0.2,0,0.3,0,0.5,0s0.3,0,0.5,0s0.3,0,0.5,0s0.3,0,0.5,0s0.3,0,0.4-0.1c-0.5,0-1,0-1.4,0
			S8.1,37.6,7.6,37.6z M7.6,38.1c0.1,0,0.3,0,0.4,0c0.1,0,0.3,0,0.4-0.1c-0.1,0-0.3,0-0.4,0S7.7,38.1,7.6,38.1z M10.1,35.8
			c-0.2,0-0.4,0-0.6,0s-0.4,0-0.6,0s-0.4,0-0.5,0c-0.2,0-0.4,0-0.6,0c0,0,0,0,0,0.1c0,0,0,0,0,0.1c0.2,0,0.5,0,0.7,0
			c0.2,0,0.4,0,0.6,0c0.2,0,0.4,0,0.6,0c0.2,0,0.4,0,0.7,0c0-0.1-0.1-0.1-0.1-0.1C10.2,35.8,10.1,35.8,10.1,35.8z M7.8,34.2
			c0.2,0,0.4,0,0.6,0.1c0.2,0,0.4,0,0.6,0c-0.2-0.1-0.2-0.2-0.3-0.2s-0.2,0-0.3,0s-0.2,0-0.3,0C8,34.1,7.9,34.2,7.8,34.2z M7.8,36.7
			C7.9,36.7,7.9,36.7,7.8,36.7L7.8,36.7C8,36.7,7.9,36.7,7.8,36.7C7.9,36.7,7.9,36.7,7.8,36.7z M7.9,43.1L7.9,43.1L7.9,43.1
			L7.9,43.1C7.9,43.1,7.8,43.1,7.9,43.1z M7.9,43.2L7.9,43.2c0.2,0,0.2,0,0.2-0.1C8.1,43.2,8,43.2,7.9,43.2C8,43.2,8,43.2,7.9,43.2z
			 M8.2,41.5c0.1,0,0.1,0,0.1,0h0.1l0,0l0,0c0,0,0,0,0.1,0c0,0,0,0,0.1,0s0.1-0.1,0.2-0.1c0.1,0,0.1-0.1,0.1-0.1
			c-0.1,0.1-0.2,0.1-0.4,0.2C8.4,41.4,8.3,41.4,8.2,41.5z M8.2,41.8c0.2,0,0.5,0,0.7,0s0.4,0,0.7,0c0,0,0,0,0-0.1c0,0,0,0,0.1-0.1
			c-0.1,0-0.3,0-0.4,0s-0.3,0-0.4,0c-0.1,0-0.2,0-0.4,0C8.4,41.6,8.3,41.7,8.2,41.8z M9.6,36.9c0.1,0,0.2,0,0.3,0s0.2,0,0.3,0
			l-0.1-0.1c0,0,0,0-0.1,0S9.7,36.8,9.6,36.9c-0.2-0.1-0.3-0.1-0.5-0.1c-0.1,0-0.3,0-0.4,0c-0.1,0-0.3,0-0.5,0
			c0.2,0,0.4,0.1,0.6,0.1C9.1,36.9,9.3,36.9,9.6,36.9z M9.9,37c-0.2,0-0.5-0.1-0.8-0.1s-0.6,0-0.8-0.1c0.1,0,0.2,0.1,0.4,0.1
			c0.1,0,0.3,0,0.4,0c0.1,0,0.3,0,0.4,0C9.7,37,9.8,37,9.9,37z M8.7,37.9C8.7,37.9,8.8,37.9,8.7,37.9c0.1,0,0.2,0,0.2,0
			S8.8,37.9,8.7,37.9L8.7,37.9z M9.4,38.1L9.4,38.1L9.4,38.1c0.1,0,0.1,0,0.2,0c0.1,0,0.1,0,0.2,0c0.1,0,0.1,0,0.2,0
			c0.1,0,0.1,0,0.2,0c0,0,0,0,0.1,0h0.1h0.1l0,0c-0.3,0-0.6,0-0.9,0c-0.3,0-0.6,0-0.8,0.1c0.1,0,0.2,0,0.3,0
			C9.2,38.1,9.3,38.1,9.4,38.1z M8.7,41.2c0.1,0,0.2-0.1,0.2-0.1C9,41,9.1,41,9.2,41c0.1-0.1,0.1-0.1,0.2-0.2
			c0.1-0.1,0.1-0.1,0.2-0.2c0.1-0.1,0.1-0.1,0.2-0.2c0.1-0.1,0.1-0.1,0.1-0.2c-0.2,0.2-0.4,0.3-0.6,0.5C9.1,40.9,8.9,41,8.7,41.2z
			 M8.8,41.6c0.2,0,0.3,0,0.5,0s0.3,0,0.5,0c0,0,0,0,0.1,0c0,0,0,0,0.1,0c-0.1,0-0.2,0-0.3,0s-0.2,0-0.3,0s-0.2,0-0.3,0
			C8.9,41.5,8.8,41.5,8.8,41.6z M9.2,41.3L9.2,41.3C9.2,41.4,9.2,41.4,9.2,41.3C9.2,41.4,9.2,41.4,9.2,41.3c0.1,0.1,0.1,0.1,0.2,0.1
			c0.1,0,0.1,0,0.2,0c0.1,0,0.1,0,0.2,0c0,0,0-0.1,0.1-0.1H10h0.1l0,0c-0.1,0-0.1,0-0.2,0s-0.2,0-0.2,0c-0.1,0-0.2,0-0.2,0
			S9.3,41.3,9.2,41.3z M9.2,41c0.1,0,0.1,0,0.1,0v-0.1C9.4,40.9,9.3,40.9,9.2,41z M9.5,40.4L9.5,40.4c-0.2,0.1-0.2,0.1-0.2,0.1
			L9.5,40.4C9.4,40.4,9.4,40.4,9.5,40.4z M9.4,35.5c0.1,0,0.1,0,0.2,0c0.1,0,0.1,0,0.2,0c0.1,0,0.1,0,0.2,0c0.1,0,0.1,0,0.1,0l0,0
			c-0.1,0-0.2,0-0.4,0C9.7,35.5,9.5,35.5,9.4,35.5z M9.4,37.1c0.1,0,0.1,0,0.2,0c0.1,0,0.1,0,0.2,0c0.1,0,0.1,0,0.2,0
			c0.1,0,0.1,0,0.2,0c-0.1,0-0.2,0-0.4,0C9.6,37.1,9.5,37.1,9.4,37.1z M9.6,41.1C9.5,41.1,9.5,41.1,9.6,41.1
			c-0.1,0.1-0.1,0.1-0.1,0.1c0.1,0,0.1,0,0.2,0s0.2,0,0.2,0c0.1,0,0.1,0,0.2,0c0.1,0,0.1,0,0.1-0.1c-0.1,0-0.2,0-0.3,0
			C9.8,41.1,9.7,41.1,9.6,41.1z M9.7,42L9.7,42c0.1-0.1,0.1-0.1,0.1-0.1S9.7,41.9,9.7,42C9.7,42,9.6,42,9.7,42z M9.7,41
			c0.1,0,0.1,0,0.2,0c0.1,0,0.2,0,0.3,0s0.2,0,0.2,0c0.1,0,0.1-0.1,0.2-0.1c-0.1,0-0.2,0-0.3,0s-0.2,0-0.3,0S9.8,40.9,9.7,41
			C9.7,40.9,9.7,40.9,9.7,41z M9.9,40.8c0.1,0,0.1,0,0.2,0c0.1,0,0.2,0,0.2,0c0.1,0,0.1,0,0.2,0c0.1,0,0.1,0,0.1-0.1
			c-0.1,0-0.1,0-0.2,0s-0.1,0-0.2,0c-0.1,0-0.1,0-0.2,0C10,40.7,9.9,40.7,9.9,40.8z M10,40.2L10,40.2c0.1-0.1,0.1-0.1,0.1-0.1
			C10,40.1,10,40.1,10,40.2C10,40.2,9.9,40.2,10,40.2z M10.5,40.5h-0.1h-0.1h-0.1c0,0-0.1,0-0.1,0.1C10.2,40.6,10.3,40.6,10.5,40.5
			c0,0.1,0.2,0.1,0.3,0.1c0-0.1-0.1-0.1-0.1-0.1C10.6,40.5,10.6,40.5,10.5,40.5z M10.2,36.9c0.1,0,0.1,0,0.2,0c0.1,0,0.1,0,0.2,0
			l0,0l0,0h0.1v-0.1c0,0,0,0,0-0.1c-0.1,0-0.1,0-0.2,0C10.4,36.9,10.3,36.9,10.2,36.9L10.2,36.9L10.2,36.9z M10.2,37.1
			c0.1,0,0.1,0,0.2,0c0,0,0.1,0,0.2,0c-0.1,0-0.1,0-0.2,0S10.2,37.1,10.2,37.1z M10.2,37.3L10.2,37.3c0.1,0.1,0.1,0,0.2,0
			c0.1,0,0.1,0,0.2,0c0,0,0-0.1-0.1-0.1s-0.1,0-0.1,0C10.4,37.2,10.3,37.3,10.2,37.3L10.2,37.3z M10.2,37.4L10.2,37.4
			c0.1,0.1,0.2,0.1,0.2,0.1c0.1,0,0.2,0,0.2,0c-0.1-0.1-0.1-0.1-0.2,0C10.3,37.4,10.3,37.4,10.2,37.4z M10.2,36.7
			C10.3,36.7,10.3,36.7,10.2,36.7c0.1,0,0.2,0,0.2,0l0,0C10.4,36.7,10.4,36.7,10.2,36.7C10.4,36.6,10.4,36.6,10.2,36.7
			C10.3,36.6,10.3,36.6,10.2,36.7C10.3,36.6,10.3,36.6,10.2,36.7L10.2,36.7z M10.3,36.5h0.2v-0.1L10.3,36.5
			C10.4,36.4,10.3,36.4,10.3,36.5C10.3,36.4,10.3,36.4,10.3,36.5z M11,40.8c-0.1,0.1-0.1,0.1-0.2,0.2c0,0.1-0.1,0.1-0.1,0.2
			c-0.2,0.1-0.3,0.2-0.4,0.4c0.1-0.1,0.3-0.2,0.4-0.3C10.8,41.1,10.9,41,11,40.8L11,40.8L11,40.8z M10.5,40.1l0.1,0.1
			c0,0,0.1,0.1,0.2,0c0-0.1-0.1-0.1-0.1-0.1H10.5C10.6,40,10.6,40,10.5,40.1C10.5,40,10.5,40,10.5,40.1z M10.6,38.6L10.6,38.6
			C10.7,38.6,10.7,38.6,10.6,38.6V39c0,0,0,0,0-0.1v-0.1C10.6,38.8,10.6,38.7,10.6,38.6L10.6,38.6z M10.8,40.4
			C10.8,40.3,10.8,40.3,10.8,40.4c-0.1,0-0.1,0-0.1-0.1C10.7,40.3,10.7,40.3,10.8,40.4C10.8,40.3,10.8,40.3,10.8,40.4z"/>
		<path fill="#FFFFFF" d="M17.7,33.4c0.1,0,0.2,0,0.3,0c0.1,0,0.2,0,0.3-0.1c0.1,0,0.2-0.1,0.4-0.1c0.1,0,0.3-0.1,0.4-0.1
			c0-0.1,0-0.2,0-0.3c0-0.1,0-0.2,0-0.3h0.1l0,0c0,0.1,0,0.2,0,0.3c0,0.1,0,0.2,0,0.3c0.3,0,0.6,0,0.8,0.1c0.2,0,0.5,0.1,0.7,0.1
			l0,0l0,0c0,0,0,0,0.1,0l0,0h0.1H21h0.1l0.1,0.1h-0.1H21l0,0c0,0,0,0,0.1,0c0,0.1,0.1,0.1,0.1,0.1h0.1c0.1,0.1,0.3,0.2,0.4,0.3
			c0.1,0.1,0.2,0.2,0.3,0.4h0.1h0.1v0.1c0,0,0,0,0,0.1c0.1,0,0.1,0,0.1,0.1l0.1,0.1c0-0.2,0-0.3,0-0.5c0-0.2,0-0.4,0-0.6h0.1
			c0,0,0,0,0,0.1v0.1v0.1l0,0l0,0c0,0.3,0,0.5,0,0.7s0,0.4,0.1,0.6c0,0-0.1,0.1-0.1,0.2l0,0l0,0v0.1v0.1c0,0.3,0,0.6,0,0.9
			c0,0.3,0,0.6,0,0.9s0,0.5,0,0.8c0,0.3,0,0.6,0,0.9l0,0c0,0,0,0,0,0.1l0,0c0,0,0,0,0,0.1c0,0.3,0,0.7,0,0.9c0,0.3,0,0.6,0,0.9h0.1
			c0,0,0.1,0,0,0.1c0,0,0,0-0.1,0h-0.1c0,0.1,0,0.1,0,0.2c0,0,0,0.1,0,0.2c0.2,0,0.3,0,0.5,0.1c0.2,0,0.3,0.1,0.5,0.1
			c0,0,0.1,0,0.1-0.1v-0.1h0.1c0,0,0,0,0.1,0c0,0,0,0,0,0.1c0,0.1,0,0,0,0.1c0.1,0,0.1,0,0.2,0.1c0.1,0,0.1,0,0.2,0h0.1h0.1h0.1
			c0,0,0.1,0,0.1,0.1c0,0,0,0-0.1,0h-0.1h-0.1h-0.1c0,0,0,0,0,0.1v0.1c-0.1,0-0.1,0-0.2,0c0,0-0.1,0-0.2,0l0,0c0,0,0,0,0,0.1
			c0,0,0,0,0,0.1c0,0,0,0-0.1,0v0.1l0,0c0,0,0,0,0.1,0h0.1c0.1,0,0.1,0.1,0.2,0.1s0.2,0,0.2,0v0.1c0,0,0,0.1-0.1,0.1c0,0,0,0-0.1,0
			v0.1c0,0,0,0,0,0.1c-0.1,0-0.1,0-0.2,0s-0.1,0-0.2,0s-0.1,0-0.2,0s-0.1,0-0.2,0l0,0l0,0c0,0.1,0,0.1,0,0.2c0,0.1,0,0.2,0,0.2
			s0,0-0.1,0l0,0v-0.1c0-0.1,0-0.1,0-0.2H23c-0.1,0-0.1,0-0.1,0H23h0.1v-0.1l0,0c-0.2,0-0.3,0-0.5,0s-0.3,0-0.5,0V43
			c0.1,0,0.2,0,0.4,0c0.1,0,0.3,0,0.4,0c-0.1,0-0.2,0-0.3,0c-0.1,0-0.3,0-0.4,0c0,0.1,0,0.3,0,0.4c0,0.1,0,0.3,0,0.4
			c0-0.1-0.1-0.3-0.1-0.4c0-0.2,0-0.3,0-0.4c-0.1,0-0.2,0-0.3,0c-0.1,0-0.2,0-0.3,0c0.1,0,0.2,0,0.3,0c0.1,0,0.2,0,0.3,0v-0.1
			c-0.2-0.1-0.3-0.1-0.5-0.1s-0.4,0-0.6,0c0,0,0,0,0.1,0c0,0,0,0,0.1,0l0,0l0,0c0.1,0,0.1,0,0.2,0c0,0,0.1,0,0.2,0h-0.1
			c-0.1,0-0.1,0-0.2,0s-0.1,0-0.2,0s-0.1,0-0.1,0l0,0c0,0,0,0,0,0.1l0,0l0,0c-0.2,0-0.5,0-0.7,0c-0.3,0-0.5,0-0.7-0.1
			c0.1,0,0.2,0,0.4,0c0.1,0,0.3,0,0.4,0s0.3,0,0.4,0s0.3,0,0.4,0c-0.1,0-0.2,0-0.3,0c-0.1,0-0.3,0-0.4,0s-0.3,0-0.4,0s-0.3,0-0.4,0
			s-0.1,0-0.2,0s-0.1,0-0.2-0.1c-0.2,0-0.4,0-0.6,0s-0.3,0-0.6,0c0,0.1,0,0.2,0,0.3c0,0.1,0,0.1,0,0.2l0,0v-0.1c0-0.1,0-0.1,0-0.1
			s0-0.1,0-0.2c0,0,0,0,0,0.1V43l0,0l0,0C18,43,18,43,18,42.9v-0.1l0,0l0,0l0,0c-0.1,0-0.2,0-0.3,0c-0.1,0-0.2,0-0.3,0l0,0l0,0
			c0.1,0.1,0.1,0.1,0.2,0c0.1,0,0.2,0,0.2,0c0,0.1-0.1,0.1-0.1,0.1s-0.1,0-0.2,0c-0.2,0-0.3,0-0.5,0s-0.3,0-0.5,0l0,0l0,0
			c-0.1,0-0.2,0-0.3,0c-0.1,0-0.2,0-0.3,0c0,0.1,0,0.1,0,0.2s0,0.1,0,0.2s0,0.1,0,0.2s0,0.1,0,0.1c-0.1-0.1-0.1-0.2-0.1-0.3
			s0-0.2,0-0.3c-0.1,0-0.2,0-0.2,0c-0.1,0-0.1,0-0.2,0c0,0,0-0.1,0.1,0c0.1,0,0.1,0,0.1,0c-0.2,0-0.4,0-0.6-0.1c-0.2,0-0.4,0-0.7,0
			c-0.2,0-0.5,0-0.7,0s-0.5,0-0.7,0c0,0,0,0,0,0.1v0.1c-0.1,0-0.1,0-0.1,0V43h-0.7c-0.1,0-0.2,0-0.2,0c-0.1,0-0.1,0-0.2,0.1l0,0
			c0,0,0,0,0-0.1c0,0,0,0-0.1,0c0,0,0,0-0.1,0c-0.1-0.1-0.2-0.1-0.1-0.2c0-0.1,0.1-0.1,0.3-0.1c0-0.1,0-0.2-0.1-0.2c0,0-0.1,0-0.2,0
			c-0.1,0-0.1,0-0.1-0.1c0,0,0.1,0,0.1-0.1c0,0,0.1,0,0.1-0.1l0.1-0.1c0-0.1,0-0.1,0-0.2c0.1,0,0.1,0.1,0.1,0.1l0.1,0.1
			c0.1-0.1,0.3-0.1,0.4-0.1c0.2,0,0.3-0.1,0.4-0.1v-0.1c0,0,0,0,0-0.1c0.1,0,0.1-0.1,0.1-0.1c0-0.1,0-0.1,0-0.2c0-0.1,0-0.1,0.1-0.1
			v-0.1l0,0l0,0c0.1-0.1,0.1-0.1,0.1-0.2c0-0.1,0-0.1-0.1-0.2c0,0,0,0,0.1,0s0,0,0.1,0c0-0.1,0-0.1,0-0.2c0,0,0-0.1,0-0.2v-0.1l0,0
			c0-0.3,0-0.6,0-0.8s0-0.5,0-0.8l0,0l0,0c0-0.1,0-0.1,0.1-0.1v-0.3H13h-0.1c0-0.1,0-0.1,0-0.1H13c0-0.1,0-0.1,0-0.2
			c0-0.1,0-0.1,0-0.2c0,0,0,0-0.1,0c0,0-0.1,0,0,0v-0.1c0,0,0,0,0.1,0l0,0l0,0v-0.1l0,0c0-0.3,0-0.7,0-1s0-0.6-0.1-1
			c-0.1,0-0.1,0.1-0.1,0.1c0,0.1-0.1,0.1-0.1,0.2s0,0.1-0.1,0.2c0,0.1,0,0.1-0.1,0.2l0,0l0,0c0-0.1,0-0.2,0.1-0.3
			c0-0.1,0.1-0.2,0.1-0.3s0.1-0.2,0.1-0.3c0-0.1,0-0.2,0-0.3c0.1,0,0.1,0,0.1,0l0,0c0,0.2,0,0.4,0,0.6s0,0.4,0.1,0.5
			c0-0.1,0-0.2,0-0.4c0-0.1,0-0.3,0-0.4s0-0.2-0.1-0.4c0-0.1-0.1-0.2-0.2-0.2h-0.1h-0.1c-0.1,0-0.3-0.1-0.4-0.1
			c-0.2,0-0.3-0.1-0.4-0.1c0,0,0,0,0,0.1v0.1c-0.1,0-0.1-0.1-0.1-0.1c0-0.1,0-0.1,0-0.2c0-0.1,0-0.1,0-0.2s0-0.1,0-0.2L11.5,34v-0.1
			c0,0,0,0-0.1,0h-0.1h-0.1c0,0,0,0,0-0.1c0.1,0,0.1,0,0.2,0c0.1,0,0.1,0,0.2,0v-0.1c0,0,0,0,0-0.1c0.1,0,0.2,0,0.4,0v-0.1v-0.1
			c0,0,0,0,0,0.1c0,0,0,0,0,0.1c0.1,0,0.1,0,0.2,0c0.1,0,0.2,0,0.2,0c0.1,0,0.2,0,0.3-0.1c0.1,0,0.2,0,0.4,0c0,0,0,0,0-0.1l0,0l0,0
			l0,0c0.1,0,0.1,0,0.1,0s0,0,0,0.1c0-0.2,0-0.3,0-0.5c0-0.1,0-0.3,0-0.5c0.1,0,0.1,0.1,0.1,0.1c0,0.1,0,0.1,0,0.2s0,0.1,0,0.2
			c0,0.1,0,0.1,0,0.2c0,0,0.1,0,0.1,0.1v0.1c0.1,0,0.1,0,0.2,0c0.1,0,0.2,0,0.2,0c0.2,0,0.4-0.1,0.6-0.1c0.2,0,0.4,0,0.5,0
			c0,0,0,0,0.1,0l0,0c0.1,0,0.2,0,0.2,0c0.1,0,0.2-0.1,0.2-0.1h0.1h0.1h0.1c0,0,0.1,0,0.1,0.1c-0.2,0-0.4,0-0.6,0.1
			c-0.2,0-0.3,0.1-0.5,0.1c0.2,0,0.4,0,0.6,0c0.2,0,0.5,0,0.7,0c0-0.1,0-0.1,0-0.2s0-0.1,0-0.2h0.1h0.1v0.1l0,0v-0.1V33
			c0,0,0,0,0-0.1c0,0.1,0,0.2,0.1,0.2c0,0.1,0,0.2,0.1,0.3c0.1,0,0.2,0,0.2,0c0.1,0,0.1,0,0.2,0c0,0,0,0.1-0.1,0.1s-0.1,0-0.1,0
			h-0.1c0,0-0.1,0-0.1,0.1v0.6c-0.4-0.1-0.3-0.1-0.2-0.2s0.2-0.1,0.3-0.1c0.1,0,0.2-0.1,0.4-0.1c0.1,0,0.2-0.1,0.4-0.1l0,0
			c0,0,0,0,0-0.1c0.1,0,0.1-0.1,0.2-0.1C17.5,33.5,17.6,33.4,17.7,33.4c0-0.1,0.1-0.1,0.2-0.2c0,0,0,0,0,0.1c0,0,0,0-0.1,0
			C17.8,33.4,17.8,33.4,17.7,33.4L17.7,33.4z M11,33.6C10.9,33.6,11,33.6,11,33.6c0.1,0,0.1,0,0.1,0H11L11,33.6L11,33.6z M11.1,34.3
			L11.1,34.3C11.2,34.3,11.2,34.3,11.1,34.3c0.1,0,0.1,0,0.1-0.1c0-0.1-0.1-0.1-0.1-0.1V34.3C11.1,34.2,11.1,34.3,11.1,34.3z
			 M12.5,33.4c-0.2,0-0.4,0-0.7,0c-0.2,0-0.4,0-0.6,0.1c0,0,0,0,0.1,0h0.1h0.1c0,0,0,0,0,0.1h0.1l0,0c0,0,0,0-0.1,0
			c0.1,0,0.1,0,0.2,0c0.1,0,0.2,0,0.2,0c0.1,0,0.1,0,0.2,0c0.1,0,0.1,0,0.1,0l0,0l0,0c0,0,0,0-0.1,0H12c0.1,0,0.2,0,0.2,0
			C12.4,33.5,12.4,33.5,12.5,33.4C12.4,33.5,12.4,33.5,12.5,33.4c-0.1,0.1-0.1,0.1-0.1,0.1S12.4,33.5,12.5,33.4L12.5,33.4
			C12.4,33.5,12.4,33.5,12.5,33.4C12.4,33.5,12.4,33.4,12.5,33.4z M11.8,43.2c0.1,0,0.3-0.1,0.5-0.1s0.4,0,0.5-0.1
			c-0.2,0-0.4,0.1-0.6,0.1c-0.2,0-0.4,0.1-0.6,0.1c-0.1,0-0.1,0-0.2,0c-0.1,0-0.1,0-0.2-0.1c0.1-0.1,0.2-0.1,0.3-0.1
			C11.6,43.2,11.7,43.2,11.8,43.2L11.8,43.2L11.8,43.2z M11.5,33.8h-0.1c-0.1,0-0.1,0-0.1,0.1c0.1,0,0.3,0,0.5,0s0.4,0,0.6,0
			c0-0.1,0-0.1,0-0.1v-0.1c-0.2,0-0.3,0-0.5,0C11.8,33.8,11.6,33.8,11.5,33.8z M11.3,33.6C11.3,33.6,11.3,33.7,11.3,33.6
			c0.1,0,0.2,0,0.2,0C11.4,33.6,11.4,33.6,11.3,33.6C11.4,33.6,11.3,33.6,11.3,33.6L11.3,33.6L11.3,33.6z M12.3,34.1
			c-0.1,0-0.3,0-0.5,0s-0.4,0-0.5,0.1l0,0c0,0,0,0,0,0.1c0.2,0,0.3,0,0.5,0s0.4,0,0.6,0C12.4,34.2,12.4,34.1,12.3,34.1
			C12.3,34.2,12.3,34.2,12.3,34.1C12.3,34.2,12.3,34.1,12.3,34.1z M12.2,42.3C12.1,42.3,12.1,42.3,12.2,42.3
			C12.1,42.3,12.1,42.2,12.2,42.3c-0.2-0.1-0.3-0.1-0.4,0c-0.1,0-0.2,0-0.3,0.1v0.1c0,0.1,0,0.1,0,0.1c0.2,0,0.3,0,0.5,0
			s0.4,0,0.5,0v-0.1c-0.1,0-0.1,0-0.2,0c-0.1,0-0.2,0-0.2,0c-0.1,0-0.1,0-0.2,0s-0.1,0-0.2-0.1c0-0.1,0.1-0.1,0.2-0.1
			C12,42.3,12.1,42.3,12.2,42.3C12.1,42.4,12.2,42.4,12.2,42.3c0.2,0.1,0.3,0.1,0.3,0.1s0,0,0-0.1v-0.1c-0.1,0-0.1,0-0.2,0
			C12.2,42.3,12.2,42.3,12.2,42.3z M11.5,34.4c0.2,0,0.3,0,0.5,0s0.3,0,0.5,0v-0.1v-0.1c-0.1,0-0.2,0-0.2,0c-0.1,0-0.2,0-0.2,0
			c-0.1,0-0.2,0-0.2,0L11.5,34.4z M12.2,34.7c-0.1,0-0.2,0-0.2,0c-0.1,0-0.1,0-0.2,0c0.1,0,0.1,0,0.2,0.1
			C12,34.7,12.1,34.7,12.2,34.7z M12.4,34C12.4,34.1,12.3,34.1,12.4,34c-0.1,0-0.1,0-0.1,0C12.2,34.1,12.3,34.1,12.4,34
			C12.4,34.1,12.4,34.1,12.4,34z M13.2,41.7c-0.1,0-0.1,0-0.2,0c-0.1,0-0.1,0-0.2,0c-0.1,0-0.1,0-0.1,0s-0.1,0-0.1,0.1
			c0.1,0,0.2,0,0.3,0C13,41.7,13.1,41.7,13.2,41.7c0,0,0.1,0,0.2,0s0.2,0,0.2,0H13.2z M14,42.3c-0.2,0-0.5,0-0.7-0.1
			c-0.2,0-0.5,0-0.7-0.1v0.2c0.3,0,0.5,0,0.7,0C13.6,42.4,13.8,42.4,14,42.3c0.2,0.1,0.4,0.1,0.6,0.1c0.2,0,0.4,0,0.7,0
			c-0.2,0-0.4-0.1-0.6,0C14.4,42.3,14.2,42.3,14,42.3z M14.9,42.5c-0.1,0-0.2,0-0.3,0s-0.3,0-0.4,0c-0.2,0-0.4,0-0.6,0s-0.4,0-0.6,0
			c-0.1,0-0.1,0-0.2,0c-0.1,0-0.1,0-0.1,0.1c0.4,0,0.7,0,1,0s0.7,0,1,0.1c-0.1,0-0.1,0-0.1,0c0.1,0,0.1,0,0.2,0c0.1,0,0.1,0,0.2,0
			c0,0,0-0.1,0.1-0.1h0.1h0.1c0,0,0.1,0,0.1-0.1v-0.1h-0.1h-0.1C15,42.5,14.9,42.5,14.9,42.5z M13.5,34.3c-0.1,0-0.3,0-0.4,0
			c-0.2,0-0.3,0-0.4,0.1c0.3,0.1,0.6,0.1,1,0.1c0.3,0,0.7,0,1,0c0.1,0,0.2,0,0.3,0s0.2,0,0.3,0h0.1h0.1c0,0,0,0.1-0.1,0.1h-0.1h-0.1
			h-0.1c-0.1,0-0.3,0-0.5,0s-0.3,0-0.5,0H14c0,0-0.1,0-0.1-0.1c-0.1,0-0.2,0-0.2,0c-0.1,0-0.2,0-0.2,0c-0.1,0-0.2,0-0.2,0h-0.2
			c0.1,0.1,0.2,0.1,0.3,0.1s0.3,0,0.4,0c0.3,0,0.6,0,1,0c0.3,0,0.6,0,0.9,0v-0.1c0-0.1,0-0.1,0-0.1c-0.4,0-0.7,0-1.1,0.1
			C14.2,34.4,13.8,34.4,13.5,34.3z M15.1,37.3h-1.4c-0.2,0-0.3,0-0.5,0s-0.3,0.1-0.5,0.1c0.2,0,0.5,0,0.7,0s0.5,0,0.7,0s0.5,0,0.7,0
			s0.4,0,0.6,0c0-0.1,0-0.1,0-0.1h-0.1C15.2,37.3,15.2,37.3,15.1,37.3L15.1,37.3z M15.1,37.6c-0.2,0-0.4,0-0.6,0s-0.4,0-0.6,0
			c-0.2,0-0.4,0-0.6,0s-0.4,0-0.6,0v0.2c0.2,0,0.4,0,0.6,0c0.2,0,0.4,0,0.6,0c0.2,0,0.4,0,0.6,0c0.2,0,0.4,0,0.6,0h0.1
			c0.1,0,0.1,0,0.1-0.1c0,0,0-0.1-0.1-0.1C15.2,37.6,15.2,37.6,15.1,37.6C15.2,37.6,15.2,37.6,15.1,37.6L15.1,37.6z M14.7,40.5
			c-0.3,0-0.6,0-0.9,0c-0.3,0-0.6,0-0.9,0c-0.1,0-0.1,0-0.2,0c-0.1,0-0.1,0-0.2,0.1c0.2,0,0.3,0,0.5,0s0.3,0,0.5,0s0.3,0,0.5,0
			s0.3,0,0.5,0L14.7,40.5c0,0.1,0,0.1,0.1,0.1c0.1,0,0.1,0,0.2,0c0.1,0,0.1,0,0.1-0.1c-0.1-0.1-0.2-0.1-0.3-0.1
			C14.9,40.5,14.8,40.5,14.7,40.5z M12.7,40.8c0.4,0,0.9,0,1.2,0.1c0.4,0,0.8,0.1,1.2,0h0.1c0,0,0.1,0,0.1-0.1l0,0
			c-0.2,0-0.4,0-0.6,0c-0.2,0-0.4,0-0.7,0c-0.2,0-0.5,0-0.7,0S12.8,40.8,12.7,40.8z M13.9,40.9c-0.2,0-0.4,0-0.5,0s-0.1,0-0.2,0
			c-0.1,0-0.1,0-0.2,0c-0.1,0-0.1,0-0.2,0c-0.1,0-0.1,0-0.1,0.1c0.2,0,0.4,0,0.6,0C13.5,41,13.7,41,13.9,40.9
			c0.3,0.1,0.5,0.1,0.7,0.1s0.4,0,0.6,0c-0.2,0-0.4-0.1-0.6-0.1C14.4,40.9,14.1,40.9,13.9,40.9z M12.7,41.2L12.7,41.2L12.7,41.2
			C12.7,41.2,12.7,41.3,12.7,41.2c0.1,0.1,0.3,0.1,0.6,0.1c0.2,0,0.5,0,0.7,0s0.5,0,0.7,0s0.4,0,0.5,0c-0.2,0-0.4,0-0.6,0
			c-0.2,0-0.4,0-0.6,0c-0.2,0-0.4,0-0.6,0C13.2,41.2,13,41.2,12.7,41.2z M12.7,41.4L12.7,41.4c0,0.1,0,0.1,0,0.2c0.2,0,0.4,0,0.7,0
			c0.2,0,0.4,0,0.6,0c0.2,0,0.4,0,0.6,0c0.2,0,0.4,0,0.7,0v-0.2c-0.2,0-0.5,0-0.7,0s-0.4,0-0.6,0s-0.4,0-0.6,0
			C13.1,41.4,12.9,41.4,12.7,41.4z M12.7,38.8c0.4,0,0.8,0,1.2,0s0.8,0,1.2,0c0.1,0,0.1,0,0.2,0c0.1,0,0.1,0,0.1-0.1l-0.1-0.1
			c-0.1,0-0.1,0-0.1,0c-0.4,0-0.8,0-1.2,0s-0.8,0-1.2,0v-0.1l0,0h-0.1c0,0,0,0,0,0.1C12.7,38.7,12.7,38.7,12.7,38.8L12.7,38.8z
			 M12.7,34.3c0.4,0,0.8,0,1.2,0s0.7,0,1.1,0h0.1h0.1c-0.2,0-0.3,0-0.5,0c-0.1,0-0.3,0-0.4,0l0,0l0,0c-0.2,0-0.5,0-0.7,0
			C13.3,34.2,13,34.2,12.7,34.3L12.7,34.3C12.7,34.2,12.7,34.2,12.7,34.3L12.7,34.3z M15.2,38.4c-0.1,0-0.3,0-0.4,0
			c-0.1,0-0.2,0-0.4,0s-0.5,0-0.8,0s-0.6,0-0.8,0h-0.1c0,0,0,0-0.1,0c0,0,0,0,0,0.1c0.4,0,0.7,0,1.1,0s0.7,0,1,0c0.1,0,0.2,0,0.3,0
			S15.2,38.5,15.2,38.4c0-0.1,0-0.1-0.1-0.1C15.2,38.4,15.2,38.4,15.2,38.4z M13.9,39.2c-0.2,0-0.4,0-0.5,0c-0.2,0-0.4,0-0.5,0h-0.1
			c-0.1,0-0.1,0-0.1,0.1c0.1,0,0.1,0,0.2,0c0.1,0,0.2,0,0.3,0s0.2,0,0.3,0s0.1,0,0.2,0.1c0.1,0,0.2,0,0.4,0c0.1,0,0.3,0,0.4,0H15
			c0.1,0,0.2,0,0.2,0.1c0.1,0,0.1,0,0.2-0.1c-0.2,0-0.4-0.1-0.7-0.1C14.4,39.2,14.2,39.2,13.9,39.2z M13.1,40.3H13h-0.1h-0.1v0.1
			c0.2,0,0.3,0,0.5,0s0.4,0,0.6,0c0.2,0,0.4,0,0.6,0s0.4,0,0.5,0h0.1c0,0,0.1,0,0.1-0.1c-0.4-0.1-0.7-0.1-1.1-0.1
			C13.8,40.3,13.4,40.3,13.1,40.3z M13.1,33.7C13.1,33.7,13,33.8,13.1,33.7c-0.1,0-0.1,0-0.2,0h-0.1h-0.1v0.1v0.1c0.2,0,0.4,0,0.7,0
			c0.2,0,0.5,0,0.7,0s0.5,0,0.7,0s0.4,0,0.6-0.1c-0.3,0-0.6,0-0.8,0s-0.6,0-0.9,0h-0.1h-0.1h-0.1c0,0-0.1,0-0.1-0.1
			c0.3,0,0.6,0,0.9,0c0.3,0,0.7,0,1.1,0c0.1,0,0.1,0,0.2,0c0.1,0,0.1,0,0.2-0.1c-0.4,0-0.8,0-1.2,0C13.9,33.7,13.5,33.7,13.1,33.7z
			 M15.5,34c-0.2,0-0.5,0.1-0.7,0.1c-0.3,0-0.5,0-0.8,0s-0.5,0-0.7,0s-0.4,0-0.6,0c0.1,0,0.1,0.1,0.2,0.1c0.1,0,0.1,0,0.2,0
			c0.1,0,0.2,0,0.4,0s0.2,0,0.4,0.1c0.2,0,0.4,0,0.6,0c0.2,0,0.4,0,0.6,0C15.2,34.2,15.4,34.1,15.5,34C15.6,34.1,15.5,34,15.5,34
			L15.5,34z M12.7,37.3L12.7,37.3c0.1,0,0.1,0,0.1,0S12.8,37.3,12.7,37.3L12.7,37.3z M14.7,37.9c-0.1,0-0.1,0-0.2,0s-0.1,0-0.2,0
			c-0.2,0-0.5,0-0.8,0s-0.6,0-0.8,0.1c0,0,0,0.1,0.1,0.1h0.1H13h0.1c0.4,0,0.7,0,1.1,0c0.4,0,0.8,0,1.2,0h-0.1c-0.1,0-0.1,0-0.2,0
			c-0.1,0-0.1,0-0.2,0C14.7,38,14.7,38,14.7,37.9z M15.1,38.9c-0.2,0-0.3,0-0.5,0s-0.4,0-0.6,0c-0.2,0-0.4,0-0.5,0s-0.3,0-0.5,0
			c-0.1,0-0.1,0-0.2,0c-0.1,0-0.1,0-0.1,0.1c0.2,0,0.3,0,0.5,0s0.4,0,0.6,0c0.2,0,0.4,0,0.6,0C14.6,39,14.8,39,15.1,38.9L15.1,38.9
			l0.1,0.1C15.2,38.9,15.2,38.9,15.1,38.9C15.2,38.9,15.1,38.9,15.1,38.9z M15.1,39.6c-0.4,0-0.8,0-1.3,0c-0.4,0-0.8,0-1.2,0l0,0
			l0,0c0.1,0,0.1,0,0.2,0c0.1,0,0.2,0,0.3,0c0.3,0,0.6,0,1,0C14.5,39.8,14.8,39.8,15.1,39.6c0.1,0.1,0.1,0.1,0.2,0.1
			c0.1,0,0.1,0,0.1-0.1h-0.1C15.2,39.6,15.2,39.6,15.1,39.6z M14.3,39.8c-0.1,0-0.2,0-0.4,0c-0.1,0-0.3,0-0.4,0c-0.1,0-0.3,0-0.4,0
			c-0.1,0-0.3,0-0.4,0v0.1c0.2,0,0.4,0,0.6,0c0.2,0,0.4,0,0.7,0c0.2,0,0.5,0,0.7,0s0.5,0,0.7,0c-0.1,0-0.2-0.1-0.3-0.1s-0.2,0-0.3,0
			s-0.2,0-0.3,0C14.4,39.8,14.3,39.8,14.3,39.8z M12.7,40.1L12.7,40.1L12.7,40.1c0.2,0.1,0.4,0.1,0.6,0.1c0.2,0,0.4,0,0.7,0
			c0.1,0,0.2,0,0.4,0c0.1,0,0.3,0,0.4,0c0.1,0,0.3,0,0.4,0c0.1,0,0.2,0,0.3-0.1c-0.5,0-0.9,0-1.4,0C13.6,40.1,13.1,40.1,12.7,40.1z
			 M12.7,33.5c0.1,0,0.2,0,0.4,0c0.1,0,0.3,0,0.4,0c0.1,0,0.3,0,0.4,0c0.1,0,0.2,0,0.4-0.1c-0.2,0-0.5,0-0.7,0s-0.4,0-0.7,0l0,0l0,0
			C12.8,33.4,12.8,33.4,12.7,33.5C12.8,33.4,12.8,33.4,12.7,33.5C12.8,33.4,12.8,33.4,12.7,33.5L12.7,33.5z M12.7,36.7L12.7,36.7
			c0.3,0.1,0.5,0.1,0.8,0.1c0.2,0,0.5,0,0.8,0c0.1,0,0.3,0,0.5,0s0.4,0,0.5,0h0.1c0,0,0.1,0,0.1-0.1c-0.4,0-0.9-0.1-1.3-0.1
			C13.7,36.7,13.2,36.7,12.7,36.7z M12.7,37c0.2,0,0.4,0,0.6,0c0.2,0,0.4,0,0.6,0c0.2,0,0.4,0,0.6,0c0.2,0,0.4,0,0.5,0s0.1,0,0.2,0
			c0.1,0,0.1,0,0.1,0v0.1c0,0,0,0-0.1,0s-0.1,0-0.1,0H15c-0.1,0-0.1,0-0.1,0h-0.1c-0.1,0-0.2,0-0.4,0c-0.1,0-0.3,0-0.4,0
			c-0.2,0-0.3,0-0.4,0c-0.1,0-0.3,0-0.4,0c-0.1,0-0.2,0-0.2,0c-0.1,0-0.1,0-0.2,0.1c0.5,0,0.9,0,1.4,0.1c0.4,0,0.9,0,1.3,0v-0.1
			c0-0.1,0-0.1,0-0.1c-0.2,0-0.5,0-0.7,0s-0.4,0-0.7,0c-0.2,0-0.4,0-0.7,0C13.2,37,13,37,12.7,37z M15.1,38.1c-0.1,0-0.3,0-0.5,0
			s-0.3,0-0.5,0s-0.3,0-0.5,0s-0.3,0-0.5,0h-0.2c0,0,0,0-0.1,0c0,0-0.1,0-0.1,0.1c0,0,0,0,0.1,0s0.1,0,0.1,0l0,0l0,0
			c0.5,0,0.9,0,1.3,0c0.4,0,0.8,0,1.1,0C15.3,38.2,15.2,38.2,15.1,38.1C15.2,38.1,15.2,38.1,15.1,38.1z M12.7,41.8
			c0.2,0,0.4,0,0.6,0c0.2,0,0.4,0,0.6,0c0.2,0,0.4,0,0.6,0c0.2,0,0.4,0,0.6,0l0,0l0,0c-0.4,0-0.8-0.1-1.1-0.1
			C13.5,41.8,13.1,41.8,12.7,41.8z M14.9,42.1c-0.1,0-0.1,0-0.2,0c-0.1,0-0.1,0-0.2,0c-0.1,0-0.3,0-0.4,0c-0.2,0-0.3,0-0.5,0
			s-0.3,0-0.5,0s-0.3,0-0.4,0.1c0.4,0,0.8,0,1.3,0.1c0.4,0,0.8,0,1.2,0h0.1h0.1c0-0.1-0.1-0.1-0.2-0.1C15.1,42.1,15,42.1,14.9,42.1z
			 M15,36.4C14.9,36.4,14.9,36.4,15,36.4C14.9,36.3,14.9,36.3,15,36.4c-0.3-0.1-0.5-0.1-0.6-0.1c-0.2,0-0.3,0-0.5,0s-0.3,0-0.5,0
			s-0.4,0-0.6,0v0.1c0,0,0,0,0,0.1c0.2,0,0.3,0,0.5,0s0.4,0,0.6,0c0.2,0,0.4,0,0.6,0C14.6,36.5,14.8,36.5,15,36.4
			C15,36.5,15,36.4,15,36.4c0.1,0,0.2,0,0.2,0h0.1c0,0,0.1,0,0.1-0.1c-0.1-0.1-0.2-0.1-0.3,0C15.1,36.4,15,36.4,15,36.4z M12.8,35.4
			v0.7c0.3,0,0.6-0.1,0.8-0.1c0.3,0,0.6,0,0.8,0c-0.3,0-0.5,0-0.8,0c-0.2,0-0.5,0-0.8,0v-0.1c0,0,0,0,0-0.1c0.1-0.1,0.2-0.1,0.2-0.1
			c0.1,0,0.2,0,0.2,0c0.3,0,0.5,0,0.8-0.1c0.3,0,0.5,0,0.8-0.1c-0.2,0-0.4,0-0.6,0s-0.4,0-0.6-0.1c-0.1,0-0.2,0-0.3,0s-0.2,0-0.3,0
			L12.8,35.4C12.9,35.4,12.9,35.4,12.8,35.4c0,0,0,0-0.1,0c0,0,0,0,0-0.1c0.2,0,0.4,0,0.6,0c0.2,0,0.4,0,0.7,0c0.2,0,0.4,0,0.6,0
			c0.2,0,0.4,0,0.5,0h0.1h0.1h0.1v-0.1c-0.5,0-1,0-1.4-0.1C13.7,35.3,13.2,35.4,12.8,35.4z M12.8,39.4c0.3,0,0.6,0,0.9,0
			c0.3,0,0.6,0,0.9,0c-0.3,0-0.6,0-0.9-0.1C13.4,39.4,13.1,39.4,12.8,39.4z M12.9,43.1L12.9,43.1C12.8,43.1,12.8,43.1,12.9,43.1
			L12.9,43.1z M14.8,35c-0.1,0-0.2,0-0.3,0s-0.2,0-0.3,0c-0.2,0-0.4,0-0.7,0c-0.2,0-0.4,0-0.6,0c-0.1,0-0.1,0-0.1,0v0.1
			c0.4,0,0.7,0,1,0S14.5,35.1,14.8,35c0.1,0.1,0.1,0.1,0.2,0.1c0.1,0,0.1,0,0.2,0c0.1,0,0.1,0,0.1,0s0.1,0,0.1-0.1
			c-0.1,0-0.2-0.1-0.3-0.1C15,35,14.9,35,14.8,35z M15.5,35.3h-0.3c-0.1,0-0.3,0-0.4,0s-0.2,0-0.3,0s-0.2,0-0.4,0
			c-0.1,0-0.2,0-0.4,0c-0.1,0-0.3,0-0.5,0s-0.3,0-0.5,0c0.2,0,0.5,0,0.7,0s0.5,0,0.7,0s0.5,0,0.7,0S15.2,35.3,15.5,35.3L15.5,35.3
			L15.5,35.3C15.6,35.3,15.5,35.3,15.5,35.3L15.5,35.3z M12.8,38.6c0.3,0,0.6,0,0.9,0c0.3,0,0.6,0,1,0c0.1,0,0.2,0,0.3,0
			s0.2,0,0.3-0.1c-0.2,0-0.4,0-0.6,0c-0.2,0-0.4,0-0.7,0c-0.2,0-0.4,0-0.6,0C13.2,38.5,13,38.5,12.8,38.6z M12.9,39.5L12.9,39.5
			c0.1,0,0.2,0,0.2,0C13,39.5,13,39.5,12.9,39.5L12.9,39.5z M12.9,41.1c0.2,0,0.4,0,0.6,0c0.2,0,0.4,0,0.6,0s0.4,0,0.6,0
			c0.2,0,0.4,0,0.6,0c-0.2,0-0.4,0-0.6,0s-0.4,0-0.6,0s-0.4,0-0.6,0C13.2,41.1,13,41.1,12.9,41.1z M14,43c-0.1,0-0.1,0-0.2,0.1
			c-0.1,0-0.2,0-0.3,0s-0.2,0-0.3,0s-0.2,0-0.3,0c0.2,0,0.4,0,0.6-0.1S13.8,43,14,43z M13,36.2c0.1,0,0.3,0,0.4,0
			c0.1,0,0.3,0,0.4,0.1h0.1H14c0.1,0,0.3,0,0.5,0s0.3,0,0.5,0c0,0,0.1,0,0.1-0.1l0.1-0.1c-0.2,0-0.3,0-0.5,0s-0.4,0-0.6,0
			c-0.2,0-0.4,0-0.6,0C13.3,36.1,13.1,36.2,13,36.2z M13,40c0.3,0,0.7,0,1.1,0c0.4,0,0.7,0,1.1,0c0.1,0,0.1,0,0.1,0s0.1,0,0.1-0.1
			c-0.2,0-0.3,0-0.5-0.1c-0.2,0-0.4,0-0.6,0c-0.2,0-0.4,0-0.6,0C13.4,40,13.2,40,13,40z M13.3,35.8c0.3,0,0.7,0.1,1.1,0.1
			c0.4,0,0.7,0,1.1,0l0.1-0.1c0,0,0.1,0,0.1-0.1c-0.2,0-0.3,0-0.5,0s-0.4,0-0.6,0s-0.4,0-0.6,0S13.4,35.8,13.3,35.8z M13.4,39.5
			c0.2,0,0.3,0,0.5,0s0.3,0,0.5,0s0.4,0,0.5,0c0.2,0,0.3,0,0.5-0.1c-0.3,0-0.7,0-1,0C14.1,39.5,13.7,39.5,13.4,39.5z M13.6,39.1
			c0.3,0,0.6,0,0.9,0c0.3,0,0.6,0,0.9,0c-0.3,0-0.6-0.1-0.9-0.1C14.2,39.1,13.9,39.1,13.6,39.1z M15.1,42c-0.1,0-0.3,0-0.4,0
			c-0.1,0-0.2,0-0.3,0s-0.3,0-0.4,0c-0.1,0-0.3,0-0.4,0c0.3,0,0.6,0,0.9,0c0.3,0,0.5,0,0.8,0C15.3,42,15.2,42,15.1,42
			C15.2,42,15.1,42,15.1,42z M15.1,33.6L15.1,33.6C15.1,33.6,15.1,33.5,15.1,33.6c-0.1,0-0.2,0-0.3,0s-0.2,0-0.3,0s-0.2,0-0.3,0
			s-0.2,0-0.3,0s-0.1,0-0.1,0l0,0h0.1H14c0.1,0,0.3,0,0.5,0C14.7,33.7,14.9,33.7,15.1,33.6C15.1,33.7,15.1,33.7,15.1,33.6
			c0.1,0.1,0.2,0.1,0.3,0.1s0.1,0,0.1,0h0.1c-0.1,0-0.1,0-0.1,0h-0.1C15.4,33.7,15.2,33.6,15.1,33.6L15.1,33.6z M13.8,36.6
			c0.2,0,0.4,0,0.7,0.1c0.3,0,0.5,0,0.7,0h0.1c0.1,0,0.1,0,0.1-0.1c-0.2,0-0.3,0-0.4,0c-0.1,0-0.3,0-0.4,0c-0.1,0-0.3,0-0.4,0
			C14.1,36.6,13.9,36.6,13.8,36.6z M15.4,34.7c-0.1,0-0.2,0-0.3,0s-0.2,0-0.3,0s-0.3,0-0.5,0s-0.3,0-0.5,0c0.2,0.1,0.3,0.1,0.5,0.1
			s0.3,0,0.5,0c0.1,0,0.2,0,0.3,0s0.2,0,0.2,0C15.4,34.8,15.4,34.8,15.4,34.7c0.2,0.1,0.2,0,0.2,0C15.5,34.7,15.5,34.7,15.4,34.7
			L15.4,34.7z M14.3,43h-0.1c-0.1,0-0.1,0-0.1,0c0-0.1,0-0.1,0.1-0.1C14.1,43,14.2,43,14.3,43z M14.2,34.9L14.2,34.9
			c0.1,0,0.1,0,0.2,0C14.3,34.9,14.2,34.9,14.2,34.9L14.2,34.9z M14.6,42.9C14.6,42.9,14.7,42.9,14.6,42.9
			C14.7,42.9,14.7,43,14.6,42.9c0.1,0.1,0.1,0.1,0.2,0.1s0.1,0,0.1,0l0,0c0,0,0,0,0.1,0l0,0l0,0C14.9,43,14.8,43,14.6,42.9
			C14.5,43,14.4,43,14.3,43c0,0,0,0,0.1,0L14.6,42.9C14.5,43,14.5,43,14.6,42.9C14.6,43,14.6,42.9,14.6,42.9z M14.7,37.9
			c0.1,0,0.2,0,0.4,0c0.1,0,0.2,0,0.3,0c-0.1,0-0.2,0-0.3,0C14.9,37.9,14.8,37.9,14.7,37.9z M15.3,40.4
			C15.3,40.5,15.4,40.5,15.3,40.4C15.4,40.5,15.4,40.4,15.3,40.4C15.4,40.4,15.3,40.4,15.3,40.4z M15.4,40.6
			C15.4,40.7,15.4,40.6,15.4,40.6c0.1-0.1,0.1-0.1,0.1-0.1L15.4,40.6C15.4,40.6,15.3,40.6,15.4,40.6C15.3,40.6,15.3,40.6,15.4,40.6z
			 M15.4,40.9L15.4,40.9L15.4,40.9L15.4,40.9L15.4,40.9z M15.4,43L15.4,43C15.5,43,15.5,42.9,15.4,43C15.5,42.9,15.5,42.9,15.4,43
			C15.4,42.9,15.4,42.9,15.4,43z M15.6,42.2c0.1,0,0.1,0,0.2,0c0.1,0,0.2,0,0.2,0v-0.1V42h-0.1c-0.1,0-0.1,0-0.1,0
			C15.7,42.1,15.6,42.1,15.6,42.2L15.6,42.2z M15.6,42.4h0.6c0.1,0,0.1,0,0.1,0s0,0-0.1,0h-0.1H16c0,0,0,0-0.1,0c0,0,0,0-0.1,0l0,0
			H15.6C15.7,42.3,15.6,42.3,15.6,42.4L15.6,42.4z M16.8,42.5c-0.1,0-0.2,0-0.3,0c-0.1,0-0.2,0-0.3,0c-0.1,0-0.2,0-0.3,0
			s-0.2,0-0.2,0v0.1l0,0c0.1,0,0.2,0,0.4,0c0.1,0,0.3,0,0.5,0c0.1,0.1,0.1,0.1,0.2,0.1s0.2,0,0.2,0v-0.1c0,0,0,0,0-0.1
			C16.9,42.4,16.8,42.4,16.8,42.5L16.8,42.5z M15.7,39.4C15.6,39.3,15.6,39.3,15.7,39.4C15.6,39.3,15.6,39.3,15.7,39.4
			C15.6,39.3,15.6,39.4,15.7,39.4C15.6,39.4,15.6,39.5,15.7,39.4C15.6,39.5,15.6,39.4,15.7,39.4L15.7,39.4z M17.9,35.3
			C17.9,35.2,17.8,35.2,17.9,35.3c-0.1,0-0.2,0-0.2,0c-0.1,0-0.1,0-0.2,0C17.6,35.3,17.7,35.3,17.9,35.3c0.1,0,0.2,0.1,0.4,0.1
			c0,0,0,0.1,0.1,0.1c0,0,0.1,0,0.1,0.1h0.1c0,0,0,0,0,0.1c-0.1-0.1-0.2-0.1-0.4-0.2C18,35.4,17.9,35.3,17.9,35.3
			c-0.2,0-0.4,0-0.5,0c-0.2,0-0.3,0.1-0.5,0.1c-0.2,0.1-0.3,0.1-0.4,0.2c-0.1,0.1-0.3,0.1-0.4,0.2c0,0,0,0-0.1,0v0.3
			c0,0.5,0,0.9-0.1,1.4c0,0.5-0.1,0.9-0.1,1.4s0,1,0,1.5s0,0.9,0,1.4c0-0.1,0-0.2,0-0.4c0-0.1,0-0.3,0-0.3c0-0.1-0.1-0.2-0.1-0.2
			c0-0.1,0-0.2,0-0.2c0-0.1,0-0.2,0-0.2c0-0.1,0-0.2,0-0.2c0-0.1,0-0.1,0-0.2c0-0.1,0-0.1,0-0.2c-0.1,0.3-0.1,0.6-0.1,0.9
			s0,0.6,0,0.9c0,0.1,0,0.1,0,0.1s0,0.1-0.1,0.1l0,0l0,0V42c0,0,0,0,0,0.1c0.1,0,0.1,0,0.1,0h0.1V42c0,0,0,0,0-0.1V42c0,0,0,0,0,0.1
			c0.1,0,0.3,0,0.5,0.1c0.2,0,0.3,0.1,0.4,0.1v-0.1c0-0.1,0-0.1,0.1-0.1v0.1c0,0,0,0,0.1,0.1c0,0,0,0,0,0.1c0,0,0,0,0,0.1
			c0.1,0,0.1,0,0.2,0s0.1,0,0.2,0l0,0l0,0v0.1l0,0c-0.1,0-0.1,0-0.2,0c0,0-0.1,0-0.2,0c0,0.1,0,0.2,0,0.2s0,0.1,0,0.2
			c0.1,0,0.2,0,0.3,0c0.1,0,0.2,0,0.3,0c0-0.1,0-0.1,0-0.1s0,0,0-0.1h0.1h0.1v-0.1v-0.1l0,0l0,0c0-0.1,0.1-0.1,0.1-0.2
			s0.1-0.1,0.1-0.2l0,0l0,0c0,0,0,0,0-0.1c0,0,0-0.1,0.1-0.1s0.1,0,0.1,0.1c0,0,0,0.1,0.1,0.1c0.2,0,0.4-0.1,0.5-0.1
			c0.2,0,0.3-0.1,0.5-0.1v-0.1c0,0-0.1,0-0.2,0s-0.1,0-0.1-0.1h0.1c0.1,0,0.1,0,0.1,0l0,0l0,0c0-0.1,0-0.2,0-0.2c0-0.1,0-0.2,0-0.3
			l0,0c0,0,0,0,0-0.1c0,0,0,0,0.1,0c0-0.1,0-0.2,0-0.3c0-0.1,0-0.2,0-0.3c0,0,0,0-0.1,0h-0.1v-0.1H19v-0.4l0,0c0,0,0,0-0.1,0
			c0,0,0,0-0.1,0l0,0c0-0.1,0-0.1,0.1-0.1s0.1,0,0.1,0v-0.2c-0.1,0-0.1,0-0.1,0h-0.1c0-0.1,0-0.1,0.1-0.1H19c0-0.3,0-0.6-0.1-0.9
			c0-0.3-0.1-0.6-0.1-0.9c0-0.2,0-0.4,0-0.7c0-0.2-0.1-0.4-0.1-0.6c0,0.1,0,0.2-0.1,0.3c0,0.1,0,0.2-0.1,0.3c0-0.2,0-0.4,0-0.5
			c0-0.2,0-0.3,0-0.5c0,0,0,0-0.1,0h-0.1c0-0.1,0-0.1,0-0.1h0.1C18.3,36,18.3,36,18.2,36s-0.1-0.1-0.2-0.1c0.1,0,0.2,0.1,0.2,0.1
			c0.1,0,0.1,0.1,0.2,0.1c-0.1-0.2-0.2-0.3-0.4-0.4C18.3,35.3,18.1,35.2,17.9,35.3z M15.7,37c0,0.2,0,0.5,0,0.7s0,0.4,0,0.6
			c0,0.1,0,0.3,0,0.5s0,0.3,0,0.5s0,0.3,0,0.5s0,0.3,0,0.4c0-0.1,0.1-0.1,0.1-0.2s0-0.2,0-0.2c0-0.3,0-0.5,0-0.8s0-0.5,0-0.8
			c0-0.1,0-0.3,0-0.4c0-0.1,0-0.3,0-0.4C15.8,37.3,15.8,37.2,15.7,37c0.1-0.2,0.1-0.3,0-0.4l0,0v0.1v0.1
			C15.7,36.9,15.7,36.9,15.7,37L15.7,37z M15.8,35.2c0.1,0,0.2,0,0.2,0c0.1,0,0.1,0,0.2,0l0,0l0,0c0,0.1-0.1,0.1-0.1,0.1
			c-0.1,0-0.1,0-0.1,0.1c0.2,0,0.3,0,0.4-0.1c0.1-0.1,0.2-0.1,0.3-0.2c-0.1,0-0.3,0-0.5,0c-0.2,0-0.4,0-0.6,0v0.1H15.8z M15.8,36.6
			L15.8,36.6C15.8,36.5,15.8,36.5,15.8,36.6L15.8,36.6z M15.9,35.3L15.9,35.3c-0.1,0-0.1,0-0.1,0C15.8,35.4,15.8,35.4,15.9,35.3
			C15.9,35.4,15.9,35.4,15.9,35.3z M15.8,35.4C15.8,35.5,15.8,35.5,15.8,35.4C15.8,35.5,15.8,35.5,15.8,35.4
			C15.8,35.5,15.9,35.5,15.8,35.4c0.1,0.1,0.1,0,0.1,0H16c0,0,0,0,0-0.1h-0.2V35.4z M15.9,36.7c0,0,0-0.1,0-0.2s0-0.1,0-0.2
			c0-0.1,0-0.1,0-0.2c0-0.1,0-0.1,0-0.2c0,0.1-0.1,0.1-0.1,0.2c0,0.1,0,0.1,0,0.2c0,0.1,0,0.1,0,0.2C15.9,36.6,15.9,36.7,15.9,36.7z
			 M15.9,42.8H16c0.1,0,0.1,0,0.2,0s0.1,0,0.2,0s0.1,0,0.1-0.1c-0.1,0-0.2,0-0.3,0C16.1,42.8,16,42.8,15.9,42.8z M15.9,34.3
			c0.1,0,0.1,0,0.2-0.1l0.1-0.1c-0.1,0-0.1,0-0.2,0.1C16,34.3,15.9,34.3,15.9,34.3z M15.9,34.4c0.1,0,0.1-0.1,0.2-0.1
			s0.1-0.1,0.2-0.1c-0.1,0-0.1,0-0.2,0.1C16,34.4,15.9,34.4,15.9,34.4z M16.6,34.5C16.5,34.5,16.5,34.5,16.6,34.5
			C16.5,34.4,16.5,34.4,16.6,34.5c-0.1,0-0.1,0-0.2,0.1c-0.1,0-0.1,0.1-0.2,0.1s-0.1,0.1-0.2,0.1c0,0-0.1,0.1-0.1,0.2
			c0,0,0.1,0,0.2,0c0.1,0,0.1,0,0.2,0c0,0,0,0,0-0.1v-0.1c0.1,0,0.2,0.1,0.4,0.1c0.2,0,0.3,0,0.5,0s0.3,0,0.5,0s0.3,0,0.4,0l0,0l0,0
			c0.1,0,0.2,0,0.3,0c0.1,0,0.2,0,0.2,0h0.6c0,0,0,0,0-0.1v-0.1c-0.1,0-0.1,0-0.2,0s-0.1,0-0.2,0s-0.1,0-0.2,0s-0.1,0-0.2,0v-0.1
			l0,0l0,0c-0.2,0-0.4,0-0.6,0s-0.3,0-0.5,0c-0.1,0-0.1,0-0.1,0s-0.1,0-0.2,0s-0.1,0-0.2,0S16.7,34.6,16.6,34.5l-0.1,0.1
			c0,0-0.1,0-0.1-0.1C16.5,34.4,16.5,34.4,16.6,34.5c0.1-0.1,0.1-0.1,0.2-0.1s0.1,0,0.2,0s0.1,0,0.2,0c0.4,0,0.7,0,1,0s0.6,0,1,0
			l0,0c-0.4,0-0.8,0-1.2,0C17.4,34.4,17,34.4,16.6,34.5z M16,42.3c0.1,0,0.2,0,0.3,0c0.1,0,0.2,0,0.3,0c-0.1,0-0.1,0-0.1,0h-0.1
			c0.1,0,0.2,0,0.3,0c0.1,0,0.2,0.1,0.3,0c-0.1-0.1-0.3-0.1-0.4-0.1s-0.3,0-0.4-0.1v0.1C16,42.2,16,42.2,16,42.3z M16.1,36.1
			L16.1,36.1c0.1,0,0.1,0,0.2,0C16.2,36.2,16.2,36.2,16.1,36.1L16.1,36.1z M16.2,36.7L16.2,36.7C16.3,36.7,16.3,36.7,16.2,36.7
			C16.3,36.7,16.3,36.8,16.2,36.7C16.2,36.8,16.2,36.8,16.2,36.7L16.2,36.7L16.2,36.7z M16.4,34c0.1,0,0.1,0,0.1,0l0.1-0.1
			C16.5,33.9,16.4,34,16.4,34z M18.1,34.3h-0.9c-0.1,0-0.1,0-0.2,0s-0.1,0-0.2,0s-0.1,0-0.2,0c0,0-0.1,0-0.1,0.1c0.2,0,0.4,0,0.6,0
			s0.4,0,0.6,0s0.4,0,0.6,0s0.4,0,0.5,0c-0.1-0.1-0.3-0.1-0.4-0.1C18.4,34.3,18.3,34.3,18.1,34.3z M17,34.1C17,34.2,17,34.2,17,34.1
			C17,34.2,17,34.2,17,34.1L17,34.1L17,34.1z M17,35.3c0.1,0,0.2,0,0.2,0s0.1,0,0.2,0c-0.1,0-0.2,0-0.3,0C17.1,35.3,17,35.3,17,35.3
			z M17.3,35C17.2,35,17.2,35,17.3,35c-0.1,0-0.1,0-0.1,0.1c0.1-0.1,0.3-0.1,0.5-0.1s0.4,0,0.6,0.1c0.1,0,0.1,0.1,0.1,0.1
			s0.1,0,0.2,0s0.2,0,0.3,0c0.1,0,0.1,0,0.2-0.1H19h-0.1c-0.1,0-0.1,0-0.2,0s-0.1,0-0.1,0V35c0,0,0.1,0,0.2,0s0.1,0,0.2,0
			s0.1,0,0.2,0h0.1v-0.1l0,0c-0.2,0-0.3,0-0.4,0s-0.3,0-0.4,0s-0.3,0-0.4,0C17.6,34.9,17.4,34.9,17.3,35h-0.1C17,34.9,17,35,17,35
			s0.1,0,0.1-0.1C17.2,35,17.2,35,17.3,35z M17.1,34.1C17.2,34.1,17.2,34.1,17.1,34.1c0.1,0,0.1,0,0.2,0
			C17.3,34.1,17.2,34.1,17.1,34.1C17.2,34.1,17.2,34.1,17.1,34.1z M17.3,33.9c0.2,0,0.3,0,0.4,0s0.3,0,0.4,0s0.3,0,0.4,0
			s0.3,0,0.5,0v-0.1c-0.1,0-0.2,0-0.4,0c-0.1,0-0.3,0-0.5,0s-0.3,0-0.4,0C17.6,33.8,17.4,33.9,17.3,33.9z M17.5,34L17.5,34
			c-0.1,0-0.1,0.1-0.2,0.1c0.3,0,0.6,0,0.8,0c0.3,0,0.6,0,0.8,0l0,0c0,0,0,0,0-0.1c-0.3,0-0.5,0-0.8,0C17.9,34,17.7,34,17.5,34z
			 M17.4,33.6L17.4,33.6c0.1,0,0.1,0,0.1,0S17.5,33.6,17.4,33.6C17.4,33.6,17.3,33.6,17.4,33.6z M18.6,34.1L18.6,34.1
			C18.6,34.1,18.5,34.1,18.6,34.1c-0.1,0-0.1,0-0.2,0s-0.1,0-0.2,0s-0.2,0-0.2,0c-0.1,0-0.1,0-0.2,0c0,0,0,0-0.1,0c0,0,0,0-0.1,0
			l0,0l0,0c0.2,0,0.5,0,0.7,0s0.4,0,0.7,0L18.9,34h-0.1C18.8,34.1,18.7,34.1,18.6,34.1L18.6,34.1z M18,42.5L18,42.5v-0.2V42.5
			C17.9,42.5,18,42.5,18,42.5z M18.1,33.2L18.1,33.2L18.1,33.2L18.1,33.2C18.1,33.3,18.1,33.3,18.1,33.2L18.1,33.2z M18.1,33.7
			c0.2,0,0.3,0,0.5,0c0.1,0,0.3,0,0.5,0c0,0,0,0,0-0.1v-0.1c-0.1,0-0.3,0-0.5,0C18.3,33.6,18.2,33.6,18.1,33.7z M18.5,33.1
			c0,0-0.1,0-0.2,0.1c-0.1,0-0.1,0-0.2,0.1c0,0,0,0,0.1-0.1C18.3,33.2,18.4,33.1,18.5,33.1z M19.2,42.1c-0.1,0-0.2,0-0.2,0.1
			c-0.1,0-0.2,0-0.2,0c-0.1,0-0.2,0-0.2,0c-0.1,0-0.1,0-0.2,0.1v0.1c0.7-0.1,1.4-0.1,2.1-0.1s1.3,0,2.1,0v-0.1v-0.1
			c-0.5,0-1,0-1.4,0s-0.9,0-1.3,0c0,0,0,0.1-0.1,0.1l-0.1,0.1c-0.1,0-0.1-0.1-0.1-0.1C19.3,42.1,19.3,42.1,19.2,42.1z M21.2,42.3
			c-0.3,0-0.5,0-0.8,0s-0.6,0.1-0.9,0.1c-0.2,0-0.3,0-0.5,0s-0.3,0-0.5,0.1c0.2,0,0.5,0,0.7,0s0.4,0,0.6,0s0.4,0,0.6,0s0.5,0,0.7,0
			l0,0c0,0,0,0-0.1,0c0,0,0,0-0.1,0l0,0c0.2,0,0.4,0,0.7,0c0.2,0,0.5,0,0.8,0v-0.1c0,0,0,0,0-0.1c-0.2,0-0.3,0-0.5,0
			S21.4,42.3,21.2,42.3z M18.7,35.2c0,0.1,0.1,0.1,0.1,0.1c0.1,0,0.1,0,0.1,0.1c0.1,0,0.1,0,0.1-0.1c0,0,0,0,0.1,0c0,0,0,0,0-0.1
			v-0.1c0,0,0,0-0.1,0s-0.1,0-0.1,0C18.9,35.2,18.8,35.2,18.7,35.2L18.7,35.2z M19,36.2L19,36.2c0-0.1,0-0.1,0-0.1S19,36.1,19,36.2
			L19,36.2z M19.1,37.1C19.1,37,19.1,37,19.1,37.1c0-0.1,0-0.2-0.1-0.2C19.1,37,19.1,37,19.1,37.1c0,0,0,0.1,0,0.2
			c0,0.1,0,0.1,0,0.1s0,0.1,0.1,0.1c0-0.2,0-0.4,0-0.6s0-0.4,0-0.6l0,0l0,0c0,0.1,0,0.2,0,0.2c0,0.1,0,0.1,0,0.2c0,0.1,0,0.1,0,0.2
			C19.2,37,19.2,37.1,19.1,37.1z M19.2,38.5C19.2,38.5,19.2,38.4,19.2,38.5c0-0.1,0-0.2,0-0.2v-0.1v-0.1c0.1-0.1,0.1-0.2,0-0.3
			c0-0.1-0.1-0.2-0.1-0.3c0,0.2,0,0.3,0,0.5C19.2,38.2,19.2,38.3,19.2,38.5z M19.2,36.2c0-0.1,0-0.2,0-0.2
			C19.2,36.1,19.2,36.1,19.2,36.2C19.1,36.2,19.2,36.2,19.2,36.2z M19.3,33.6C19.4,33.6,19.3,33.6,19.3,33.6L19.3,33.6
			c-0.1,0-0.1,0-0.2,0.1c0,0,0,0,0,0.1c0.2,0,0.3,0,0.5,0c0.1,0,0.3,0,0.5,0v0.1c0,0,0-0.1,0.1-0.1h0.1h0.1h0.1
			c-0.1,0-0.2-0.1-0.3-0.1c-0.1,0-0.2,0-0.3,0c-0.1,0-0.2,0-0.4,0S19.4,33.6,19.3,33.6z M19.2,33.8c0.1,0.1,0.1,0.1,0.3,0.1
			c0.1,0,0.2,0,0.3,0c-0.1,0-0.2,0-0.3,0C19.4,33.8,19.3,33.8,19.2,33.8z M19.2,33.9L19.2,33.9c0.2,0.1,0.4,0.1,0.5,0.2
			c0.2,0,0.4,0,0.6,0s0.4,0,0.6,0s0.3,0,0.5,0c-0.1-0.1-0.3-0.2-0.4-0.2c-0.2,0-0.3-0.1-0.5,0c-0.2,0-0.4,0-0.6,0
			C19.6,34,19.4,34,19.2,33.9z M19.6,34.3c0.3,0,0.6,0,0.9,0s0.6,0,0.8,0c-0.1,0-0.3,0-0.5,0s-0.3,0-0.5,0S19.9,34.3,19.6,34.3
			c-0.1,0-0.3,0-0.4,0c0,0.1,0.1,0.1,0.2,0.1S19.5,34.3,19.6,34.3z M19.2,33.4C19.2,33.4,19.2,33.5,19.2,33.4
			C19.2,33.5,19.2,33.5,19.2,33.4c0.1,0.1,0.1,0.1,0.2,0.1s0.1,0,0.2,0c0,0,0,0,0-0.1v-0.1h-0.1C19.3,33.4,19.3,33.4,19.2,33.4z
			 M21.3,34.4c-0.1,0-0.2,0-0.3,0c-0.1,0-0.2,0-0.3,0c-0.1,0-0.2,0-0.3,0c-0.1,0-0.2,0-0.3-0.1H20h-0.1c-0.1,0-0.2,0-0.3,0
			c-0.1,0-0.3,0-0.4,0v0.1v0.1c0.4,0,0.8,0,1.2,0c0.4,0,0.7,0,1.1,0h-0.1C21.4,34.4,21.3,34.4,21.3,34.4z M21.8,34.7
			c-0.2,0-0.4,0-0.6,0s-0.4,0-0.5,0h-0.4c-0.2,0-0.3,0-0.5,0s-0.3,0-0.5,0v0.1l0,0c0.3,0,0.6,0,0.9,0s0.6,0,0.9,0c0.2,0,0.3,0,0.5,0
			s0.3,0,0.5,0.1V35c0,0,0,0,0,0.1C22,35,22,35,22,35h0.1c0-0.1-0.1-0.1-0.1-0.2C22,34.7,21.9,34.7,21.8,34.7L21.8,34.7z M21.5,34.9
			c-0.2,0-0.4,0-0.6,0s-0.3,0-0.5,0c-0.1,0-0.2,0-0.2,0s-0.1,0-0.2,0s-0.1,0-0.2,0s-0.2,0-0.3,0l0,0c0,0,0,0-0.1,0s-0.1,0-0.1,0
			s0,0,0,0.1c0,0,0,0,0.1,0c0,0,0,0,0.1,0s0,0,0.1,0c0.4,0,0.8,0,1.2,0c0.4,0,0.7,0,1,0l0,0l0,0C21.6,35,21.6,35,21.5,34.9
			C21.5,35,21.5,35,21.5,34.9z M19.3,35.4L19.3,35.4c0-0.1,0-0.2,0-0.2S19.3,35.3,19.3,35.4L19.3,35.4z M20.6,34.5
			c-0.2,0-0.5,0-0.7,0s-0.4,0-0.6,0.1C19.7,34.6,20.2,34.6,20.6,34.5c0.4,0.1,0.7,0.1,1.1,0.1c-0.2-0.1-0.3-0.1-0.5-0.1
			S20.8,34.5,20.6,34.5z M19.6,35.2c0,0,0,0-0.1,0s-0.1,0-0.1,0c0,0.1,0,0.1,0,0.1s0,0,0,0.1c0.2,0,0.5,0,0.7,0s0.5,0,0.7,0
			s0.5,0,0.7,0s0.4,0,0.6-0.1c-0.2,0-0.5,0-0.7-0.1c-0.2,0-0.5,0-0.7,0s-0.4,0-0.7,0C20,35.2,19.8,35.2,19.6,35.2z M20.9,35.1
			c-0.2,0-0.4,0-0.6,0s-0.5,0-0.7,0h-0.1c-0.1,0-0.1,0-0.1,0.1c0.3,0,0.5,0,0.7,0s0.5,0,0.7,0s0.4,0,0.7,0c0.2,0,0.4,0,0.7,0
			c0,0,0-0.1-0.1-0.1c0,0,0,0,0-0.1h0.1c0,0,0.1,0,0.1,0.1V35v-0.1c-0.2,0-0.4,0-0.6,0C21.4,35.1,21.2,35.1,20.9,35.1z M19.4,35.5
			h0.1h0.1C19.5,35.5,19.5,35.5,19.4,35.5z M21.8,35.7c-0.4,0-0.8,0-1.1,0c-0.3,0-0.6,0-0.9,0h-0.1h-0.1h-0.1v0.1c0.2,0,0.3,0,0.6,0
			c0.2,0,0.4,0,0.7,0c0.2,0,0.5,0,0.7,0s0.5,0,0.7,0c-0.1,0-0.1,0-0.1,0C21.9,35.8,21.8,35.7,21.8,35.7z M22,36c-0.3,0-0.7,0-1,0
			s-0.7,0-1,0c-0.1,0-0.2,0-0.3,0c-0.1,0-0.2,0-0.3,0v0.1c0.2,0,0.4,0,0.7,0c0.2,0,0.5,0,0.7,0s0.5,0,0.7,0s0.5,0,0.7,0V36
			c0,0,0,0-0.1,0C22.1,36,22.1,36,22,36L22,36z M19.5,36.3v0.1v0.1c0.1-0.1,0.1-0.1,0.2-0.1s0.1,0,0.2,0c0.2,0,0.4,0,0.6,0
			s0.4,0,0.6,0s0.4,0,0.6,0s0.4,0,0.6-0.1l0,0l0,0c-0.5-0.1-0.9-0.1-1.3-0.1C20.4,36.3,20,36.3,19.5,36.3z M20.9,36.6L20.9,36.6
			c-0.3,0-0.5,0-0.8,0s-0.5,0-0.7,0v0.2c0.4,0,0.8,0,1.2,0c0.4,0,0.8,0,1.2,0c0.1,0,0.1,0,0.2,0s0.1,0,0.1-0.1c-0.2,0-0.3,0-0.4,0
			s-0.3,0-0.4,0c-0.2,0-0.3,0-0.5,0s-0.3,0-0.5,0s-0.3,0-0.5,0s-0.3,0-0.5,0c0,0,0-0.1,0.1-0.1h0.1h0.1h0.1c0.3,0,0.6,0,1,0
			c0.3,0,0.7,0,0.9,0c0.1,0,0.2,0,0.3,0c0.1,0,0.2,0,0.2-0.1c0-0.1-0.1-0.1-0.2-0.1s-0.2,0-0.2,0c-0.1,0-0.3,0-0.4,0
			C21.3,36.6,21.1,36.6,20.9,36.6C21,36.6,21,36.6,20.9,36.6C21,36.6,20.9,36.6,20.9,36.6L20.9,36.6z M21.7,37c-0.3,0-0.7,0-1.1-0.1
			c-0.4,0-0.8,0-1.2,0l0,0V37c0.2,0,0.4,0,0.6,0s0.4,0,0.7,0c0.2,0,0.5,0,0.7,0s0.5,0,0.7,0c-0.1,0-0.1,0-0.2,0
			C21.9,37,21.8,37,21.7,37z M19.5,37.2c0.4,0,0.7,0,1.1,0s0.8,0,1.2,0h0.1H22h0.1c0,0,0,0,0-0.1c-0.5,0-0.9,0-1.3,0
			C20.4,37.2,20,37.2,19.5,37.2z M19.6,37.3c-0.1,0-0.1,0-0.1,0v0.1c0.3,0,0.7,0,1,0s0.7,0,1,0c0.1,0,0.2,0,0.3,0c0.1,0,0.2,0,0.3,0
			c-0.2,0-0.4,0-0.6,0s-0.4,0-0.6,0s-0.4,0-0.6,0S19.8,37.3,19.6,37.3z M19.5,37.6v0.3c0.2,0,0.4,0,0.7,0c0.3,0,0.5,0,0.8,0
			s0.5,0,0.7,0s0.4-0.1,0.6-0.1v-0.1c-0.4,0.1-0.8,0.1-1.3,0C20.5,37.7,20,37.7,19.5,37.6z M20.1,38.1L20.1,38.1L20.1,38.1
			c-0.1,0-0.1,0-0.2,0s-0.1,0-0.2,0s-0.1,0-0.2,0s-0.1,0-0.1,0c0.2,0,0.3,0,0.5,0.1c0.2,0,0.4,0,0.6,0s0.4,0,0.6,0s0.4,0,0.6,0
			c0.1,0,0.1,0,0.2,0s0.1,0,0.1-0.1C21.7,38,21.3,38,21,38C20.7,38.1,20.4,38.1,20.1,38.1z M22.1,38.3c-0.2,0-0.3,0-0.5,0
			c-0.1,0-0.3,0-0.4,0H21c-0.1,0-0.1,0-0.1,0h-0.1H20c-0.1,0-0.1,0-0.2,0s-0.1,0-0.2,0.1c0.4,0,0.9,0.1,1.4,0.1s1,0.1,1.5,0v-0.1
			h-0.1C22.4,38.4,22.1,38.4,22.1,38.3C22.1,38.4,22.1,38.4,22.1,38.3L22.1,38.3z M21.5,38.7h-0.1c-0.1,0-0.1,0-0.2-0.1
			c-0.1,0-0.2,0-0.3,0c-0.1,0-0.2,0-0.4,0c-0.1,0-0.2,0-0.4,0c-0.1,0-0.2,0-0.3,0c0,0,0,0-0.1,0h-0.1h-0.1c0,0,0,0,0,0.1
			c0.3,0.1,0.6,0.1,1,0.1s0.7,0,1.1,0C21.6,38.7,21.5,38.7,21.5,38.7L21.5,38.7z M19.5,38.8c0.1,0,0.1,0,0.2,0h0.1
			c-0.1,0-0.1,0-0.2,0C19.6,38.7,19.6,38.7,19.5,38.8z M19.5,39.1v0.1c0,0.1,0,0.1,0,0.1c0.2,0,0.5,0,0.7,0s0.5,0,0.7,0s0.5,0,0.7,0
			s0.5,0,0.7,0v-0.1v-0.1H22l0,0l0,0V39c-0.4,0-0.8,0-1.2,0C20.4,39.1,20,39.1,19.5,39.1z M19.5,39.6c0.2,0,0.5,0,0.7,0
			c0.3,0,0.5,0,0.7,0s0.5,0,0.7,0s0.4,0,0.6,0v-0.1c-0.1,0-0.1,0-0.1,0H22h-2.4v-0.1c0,0,0,0-0.1,0C19.6,39.5,19.6,39.5,19.5,39.6
			C19.5,39.5,19.5,39.6,19.5,39.6z M21.9,40.7c-0.1,0-0.2,0-0.4,0c-0.1,0-0.3,0-0.4,0h-0.7h-0.7c-0.1,0-0.1,0-0.2,0s-0.1,0-0.1,0.1
			c0.4,0,0.8,0,1.2,0c0.4,0,0.8,0,1.2,0c0.1,0,0.1,0,0.2,0s0.1,0,0.1-0.1c0,0,0-0.1-0.1-0.1h-0.1h-0.1C22,40.8,21.9,40.8,21.9,40.7z
			 M19.9,39.7c-0.1,0-0.1,0-0.2,0s-0.1,0-0.2,0.1c0,0.1,0.1,0.1,0.1,0.1c0.1,0,0.1,0,0.2,0c0.2,0,0.4,0,0.6,0s0.4,0,0.6,0
			s0.4,0,0.6,0s0.4,0,0.5,0h0.1c0.1,0,0.1,0,0.1-0.1c-0.2,0-0.3,0-0.5,0s-0.4,0-0.6,0s-0.4,0-0.6,0C20.3,39.7,20.1,39.7,19.9,39.7z
			 M20.7,40.1h-1.1l0,0l0,0c0,0,0,0,0,0.1l0,0c0.4,0.1,0.8,0.1,1.2,0.1c0.4,0,0.8,0,1.2,0h0.1c0.1,0,0.1,0,0.1-0.1
			c-0.2,0-0.5,0-0.7,0C21.2,40.2,20.9,40.2,20.7,40.1z M21.9,40.4c-0.2,0-0.5,0-0.8,0s-0.5,0-0.8-0.1c-0.1,0-0.2,0-0.4,0
			c-0.1,0-0.2,0-0.4,0l0,0l0,0l0,0c0,0,0,0,0,0.1c0.3,0,0.5,0,0.7,0s0.5,0,0.7,0s0.4,0,0.6,0s0.4,0,0.5-0.1c-0.1,0-0.1,0-0.1-0.1
			C22,40.4,21.9,40.4,21.9,40.4z M21.4,40.6c-0.3,0-0.6,0-0.9,0s-0.6,0-0.9,0l0,0l0,0c0.4,0,0.7,0.1,1.1,0.1s0.8,0,1.2,0H22
			c0.1,0,0.1,0,0.1-0.1c-0.1,0-0.2,0-0.4,0C21.7,40.6,21.5,40.6,21.4,40.6z M20,41.8c-0.1,0-0.2,0-0.3,0c-0.1,0-0.2,0.1-0.2,0.1
			c0.3,0,0.6,0,0.9,0s0.6,0,0.8,0c0.2,0,0.3,0,0.5,0s0.4,0,0.5,0c0,0-0.1,0-0.1-0.1c0,0,0-0.1-0.1-0.1c-0.2,0-0.4,0-0.6,0
			s-0.4,0-0.5,0c-0.2,0-0.4,0-0.5,0C20.4,41.8,20.2,41.8,20,41.8z M20.7,40c-0.1,0-0.3,0-0.4,0c-0.2,0-0.3,0-0.5,0h-0.1
			c0,0-0.1,0,0,0.1c0,0,0,0.1,0.1,0.1s0.2,0,0.2,0h1.8c0.1,0,0.1,0,0.2,0s0.1,0,0.2,0s0.1,0,0.1,0v-0.1c-0.3,0-0.6,0-0.8,0
			C21.2,40,20.9,40,20.7,40z M19.6,41.6c0.4,0,0.8,0,1.2,0c0.4,0,0.8,0,1.2,0.1c0.1,0,0.1,0,0.2,0s0.1,0,0.2,0l-0.1-0.1h-0.1
			c-0.4,0-0.8,0-1.2,0c-0.4,0-0.8,0-1.2,0v-0.1l0,0c-0.1,0-0.1,0-0.1,0.1C19.6,41.5,19.6,41.5,19.6,41.6z M21.7,40.9
			c-0.4,0-0.8,0-1.1,0c-0.4,0-0.7,0-1,0c0.3,0.1,0.7,0.1,1.2,0.1c0.4,0,0.9,0.1,1.3,0h0.1c0.1,0,0.1,0,0.1-0.1
			C22.2,41,22.1,41,22,41C21.9,40.9,21.9,40.9,21.7,40.9z M20.3,41.1C20.2,41.1,20.2,41.1,20.3,41.1c-0.1,0-0.2,0-0.3,0
			c-0.1,0-0.1,0-0.2,0s-0.1,0-0.2,0v0.2c0.4,0,0.9,0,1.3,0s0.9,0,1.4,0v-0.2c-0.2,0-0.4,0-0.5,0c-0.2,0-0.3,0-0.5,0s-0.3,0-0.5,0
			C20.6,41.1,20.4,41.1,20.3,41.1z M22.1,38.9c-0.1,0-0.1,0-0.2,0s-0.1,0-0.2,0c-0.3,0-0.7,0-1.1,0s-0.7,0-1.1,0
			c0.1,0.1,0.2,0.1,0.3,0.1s0.2,0,0.3,0c0.3,0,0.7,0,1,0S21.7,39,22.1,38.9C22,39,22,39,22.1,38.9C22,39,22,39,22.1,38.9
			C22.1,39,22.1,39,22.1,38.9l0.1,0.1h0.1l0,0c0-0.1-0.1-0.1-0.1-0.1C22.1,38.9,22.1,38.9,22.1,38.9z M19.6,41.7L19.6,41.7
			c0.1,0,0.3,0,0.4,0c0.3,0,0.7,0,1,0s0.7,0,1,0c-0.4,0-0.8,0-1.2-0.1C20.4,41.7,20,41.7,19.6,41.7z M20.2,33.6L20.2,33.6
			C20.2,33.6,20.1,33.6,20.2,33.6c-0.1-0.1-0.1-0.1-0.2-0.1h-0.1h-0.1h-0.1c0.1,0,0.2,0,0.3,0C20,33.6,20.1,33.6,20.2,33.6z
			 M19.9,38.5C19.9,38.5,19.8,38.5,19.9,38.5c-0.1,0-0.1,0-0.1,0S19.8,38.5,19.9,38.5C19.8,38.5,19.8,38.5,19.9,38.5z M21.5,41.4
			c-0.3,0-0.6,0-0.9,0s-0.6,0-0.9,0c0.2,0,0.4,0,0.6,0s0.5,0,0.7,0s0.5,0,0.7,0s0.4,0,0.6,0c-0.1-0.1-0.3-0.1-0.4-0.1
			C21.8,41.4,21.7,41.4,21.5,41.4z M21.3,37.5c-0.2,0-0.3,0-0.5,0s-0.3,0-0.4,0c0,0,0,0-0.1,0s-0.2,0-0.3,0c-0.1,0-0.2,0-0.2,0.1
			c0.4,0,0.8,0,1.2,0.1c0.4,0,0.8,0,1.2-0.1c-0.1-0.1-0.2-0.1-0.4-0.1C21.7,37.5,21.5,37.5,21.3,37.5z M22.2,35.9
			c-0.1,0-0.2,0-0.4,0c-0.1,0-0.3,0-0.4,0s-0.3,0-0.4,0s-0.3,0-0.4,0l0,0l0,0L20.5,36c-0.1,0-0.1,0-0.2,0s-0.1,0-0.2,0S20,36,20,36
			c0.4,0,0.8,0,1.2,0C21.4,36,21.8,36,22.2,35.9C22.3,35.9,22.3,35.9,22.2,35.9C22.3,35.9,22.3,35.9,22.2,35.9L22.2,35.9L22.2,35.9z
			 M21.1,38.5c-0.2,0-0.3,0-0.5,0s-0.3,0-0.5,0l0,0l0,0c0.1,0,0.2,0,0.3,0c0.1,0,0.2,0,0.2,0l0,0l0,0C20.7,38.5,20.9,38.6,21.1,38.5
			c0.1,0.1,0.3,0.1,0.4,0.1c0.2,0,0.3,0,0.4,0s0.3,0,0.4,0c-0.2-0.1-0.4-0.1-0.6-0.1C21.5,38.6,21.3,38.6,21.1,38.5z M20.1,35.5h0.2
			C20.3,35.5,20.3,35.5,20.1,35.5C20.2,35.5,20.2,35.5,20.1,35.5z M20.4,33.4C20.4,33.4,20.3,33.4,20.4,33.4c-0.1,0-0.1,0-0.1,0
			S20.3,33.4,20.4,33.4C20.3,33.4,20.4,33.4,20.4,33.4z M20.3,39.4c0.3,0,0.6,0,0.8,0c0.2,0,0.5,0,0.8,0c-0.3,0-0.5,0-0.8,0
			C20.9,39.4,20.6,39.4,20.3,39.4z M20.5,42.7L20.5,42.7L20.5,42.7z M21.5,35.6h-1.1c0.3,0,0.6,0,0.9,0.1c0.3,0,0.6,0,0.9,0
			c-0.1,0-0.2-0.1-0.3-0.1C21.8,35.6,21.7,35.6,21.5,35.6z M21.2,38h-0.3H21.2c0,0,0.1,0,0.2,0s0.2,0,0.3,0h0.1h0.1c0,0,0,0,0.1,0
			s0,0,0-0.1c-0.1,0-0.2,0-0.3,0C21.4,38,21.3,38,21.2,38z M21.7,38.8c0.1,0,0.2,0,0.4,0c0.1,0,0.2,0,0.3-0.1c-0.1,0-0.1,0-0.2,0
			s-0.1,0-0.2,0c0,0,0,0-0.1,0L21.7,38.8C21.8,38.8,21.7,38.8,21.7,38.8L21.7,38.8z M21.7,35C21.8,35,21.8,35,21.7,35
			c0.1,0,0.1,0,0.2,0C21.9,35,21.8,35,21.7,35L21.7,35z M21.9,38h0.2v-0.1C22,38,22,38,21.9,38C22,38,21.9,38,21.9,38z M22.1,38h0.2
			v-0.1C22.3,38,22.2,38,22.1,38C22.2,38,22.2,38,22.1,38L22.1,38z M22.1,38.2h0.1h0.1l0,0l0,0C22.2,38.2,22.2,38.2,22.1,38.2
			L22.1,38.2z M22.1,37.4C22.2,37.5,22.2,37.5,22.1,37.4c0.1,0,0.1,0,0.1,0S22.3,37.4,22.1,37.4C22.2,37.4,22.1,37.4,22.1,37.4z
			 M22.2,37.3L22.2,37.3L22.2,37.3L22.2,37.3L22.2,37.3z M22.2,40.6C22.2,40.6,22.2,40.7,22.2,40.6h0.1l0,0
			C22.3,40.6,22.3,40.5,22.2,40.6C22.3,40.6,22.3,40.6,22.2,40.6L22.2,40.6z M22.2,36.9C22.2,36.9,22.3,36.9,22.2,36.9
			C22.3,36.9,22.3,36.8,22.2,36.9C22.2,36.8,22.2,36.9,22.2,36.9z M22.2,40.3C22.2,40.3,22.3,40.3,22.2,40.3c0.1,0,0.1,0,0.1,0
			C22.3,40.2,22.3,40.2,22.2,40.3C22.3,40.2,22.3,40.2,22.2,40.3C22.2,40.2,22.2,40.2,22.2,40.3z M22.3,40.4L22.3,40.4
			c-0.1,0-0.1,0-0.1,0C22.2,40.4,22.2,40.4,22.3,40.4L22.3,40.4z M22.3,36.5L22.3,36.5C22.3,36.4,22.3,36.4,22.3,36.5L22.3,36.5
			C22.2,36.5,22.2,36.5,22.3,36.5z M22.3,36.7L22.3,36.7L22.3,36.7L22.3,36.7z M22.6,42.3C22.6,42.4,22.6,42.4,22.6,42.3
			c-0.1,0.1-0.1,0.1-0.1,0.2c0.1,0,0.3,0,0.5,0s0.4,0,0.5,0v-0.1c-0.2,0-0.3,0-0.5,0C22.9,42.4,22.8,42.4,22.6,42.3z M23.3,42.1
			c-0.1,0-0.2,0-0.3,0c-0.1,0-0.2,0-0.2,0l0,0l0,0h-0.1c-0.1,0-0.1,0-0.1,0v0.2c0.1,0,0.2,0,0.3,0c0.1,0,0.2,0,0.3,0s0.2,0,0.3,0
			c0.1,0,0.2,0,0.2-0.1c0-0.1,0-0.1-0.1-0.1C23.5,42.1,23.4,42.1,23.3,42.1z"/>
	</g>
	<g>
		<path fill="#FFFFFF" d="M23.2,42.9v-0.8c1.1-0.1,1.6,0,1.7-1.2c0.1-0.7,0.1-1.5,0.1-3.2v-6.6c0-1-0.2-1.1-1.6-1.2v-0.8h5.8
			c0.9,2.4,2.9,7,3.5,8.7h0.1c1.2-3,2.1-5.6,3.2-8.7h5.5v0.8c-1.4,0.1-1.6,0.2-1.6,1.2V41c0,1,0.2,1.1,1.6,1.2V43h-6.8v-0.8
			c1.5-0.1,1.6-0.2,1.6-1.2v-9.9h-0.1c-1.2,3.1-3.4,9.7-4.2,11.8h-1.4c-1.4-3.8-3.4-9.2-4.5-11.8H26v6.7c0,1.7,0,2.5,0.1,3.2
			c0.1,1.3,0.9,1.1,2,1.2V43L23.2,42.9L23.2,42.9z"/>
		<path fill="#FFFFFF" d="M53,38c0,3.2-1.6,5.1-5.5,5.1s-5.6-1.9-5.6-5.1s1.6-5.1,5.6-5.1C51.4,32.9,53,34.9,53,38z M47.5,42.2
			c1.4,0,2-1.5,2-4.2s-0.6-4.2-2-4.2s-2,1.5-2,4.2S46,42.2,47.5,42.2z"/>
		<path fill="#FFFFFF" d="M53.9,29.6l-0.7-0.1v-0.8l4.5-0.5l0.2,0.1v6c1-0.8,2-1.4,3.3-1.4c1.9,0,4,1.2,4,4.8c0,4.5-2.6,5.5-5.6,5.5
			c-1.4,0-2.4-0.3-3.2-0.7l-1.2,0.7l-0.7-0.4V30.7C54.4,29.9,54.2,29.7,53.9,29.6z M57.9,41c0,0.6,0.6,1.2,1.7,1.2c1.5,0,2-1.6,2-4
			c0-3.2-1-3.7-2-3.7c-0.9,0-1.4,0.5-1.6,1.1c-0.1,0.3-0.1,0.7-0.1,1.1v3.2C57.9,39.9,57.9,40.5,57.9,41z"/>
		<path fill="#FFFFFF" d="M66.8,35.4c0-0.8-0.2-1-0.5-1l-0.7-0.1v-0.8l4.4-0.6l0.1,0.1v8.1c0,0.8,0.2,0.9,1.4,1v0.8h-6.1v-0.8
			c1.2-0.1,1.4-0.1,1.4-1V35.4z M70.2,30.4c0,0.9-0.7,1.7-1.9,1.7c-1.2,0-1.8-0.8-1.8-1.7s0.6-1.7,1.9-1.7
			C69.6,28.7,70.2,29.4,70.2,30.4z"/>
	</g>
</g>
<rect x="47.2" y="-10.8" fill="none" width="75.8" height="29.1"/>
<text transform="matrix(1 0 0 1 47.25 -2.3022)" font-family="'UtopiaStd-Regular'" font-size="12">Mobi</text>
</svg>
