<?xml version="1.0" encoding="utf-8"?>
<!-- Generator: Adobe Illustrator 18.1.1, SVG Export Plug-In . SVG Version: 6.00 Build 0)  -->
<svg version="1.1" id="Layer_1" xmlns="http://www.w3.org/2000/svg" xmlns:xlink="http://www.w3.org/1999/xlink" x="0px" y="0px"
	 viewBox="0 53.7 72 18" enable-background="new 0 53.7 72 18" xml:space="preserve">
<g>
	<g>
		<path d="M11.1,67.5c-0.1,0.2-0.1,0.3-0.3,0.4c-0.1,0.1-0.3,0.2-0.4,0.3c-0.2,0.2-0.4,0.3-0.6,0.5c-0.2,0.2-0.4,0.3-0.6,0.4
			c-0.1,0-0.1,0-0.2,0c-0.1,0-0.1,0.1-0.2,0.1c-0.1,0-0.1,0.1-0.2,0.1c-0.1,0-0.2,0.1-0.2,0.1s0,0,0,0.1c0,0,0,0,0,0.1
			c-0.1,0-0.1,0-0.1,0s-0.1,0-0.1,0.1h0.1c0,0,0,0,0,0.1c0,0,0,0,0,0.1c0.1-0.2,0.4-0.3,0.7-0.5c0.3-0.2,0.5-0.4,0.8-0.5
			c-0.2,0.2-0.4,0.4-0.7,0.6S8.6,69.8,8.3,70h0.1h0.1h0.1h0.1c0.1,0,0.3,0,0.5,0s0.3,0.1,0.5,0.1c0.1,0,0.1,0,0.2,0
			c0.1,0,0.1,0,0.1,0.1c-0.1,0-0.2,0-0.3,0s-0.2,0-0.3-0.1c-0.1,0-0.2,0-0.4,0c-0.1,0-0.2,0-0.4,0c-0.1,0-0.1,0-0.2,0
			c-0.1,0-0.1,0-0.2,0c-0.1,0-0.2,0-0.3,0.1c-0.1,0.1-0.2,0.1-0.3,0.1c-0.1,0-0.2,0.1-0.3,0.1c-0.1,0-0.2,0-0.3,0.1
			c-0.3,0-0.6,0-1,0c-0.3-0.1-0.6-0.1-0.9-0.2l0,0c0,0,0,0-0.1,0s-0.1-0.1-0.2-0.1s-0.1-0.1-0.2-0.1l0.1,0.1c0.1,0,0.1,0,0.1,0.1
			c0,0,0,0.1-0.1,0.1H4.6H4.5H4.4c-0.1,0-0.3-0.1-0.4-0.2c-0.1,0-0.1,0-0.2,0c-0.1,0-0.1,0-0.2,0c0,0,0,0,0-0.1H3.5H3.4V70
			c0,0,0,0,0-0.1c-0.1,0-0.3-0.1-0.4-0.2c-0.1-0.1-0.2-0.1-0.3-0.2s-0.2-0.2-0.3-0.2c-0.1-0.1-0.2-0.2-0.3-0.2
			C2,68.7,2,68.7,1.9,68.7s-0.1,0-0.1-0.1c0,0,0,0,0.1,0H2c-0.1-0.2-0.2-0.3-0.3-0.4c-0.1-0.1-0.2-0.3-0.3-0.5
			c0.1,0,0.1,0.1,0.1,0.1c0,0.1,0.1,0.1,0.1,0.2c0-0.1,0-0.2-0.1-0.3c0-0.1-0.1-0.2-0.2-0.2v0.1c0,0,0,0,0,0.1l-0.1-0.1
			c0,0-0.1-0.1-0.1-0.2c0-0.1,0-0.1-0.1-0.2c0-0.1,0-0.1-0.1-0.1c0,0.3,0,0.6,0.1,0.9s0.1,0.6,0.1,0.9c-0.1,0-0.1,0-0.1-0.1
			c0-0.1,0-0.1,0-0.1c0-0.1,0-0.1,0-0.2s0-0.1,0-0.1l0,0l0,0c0,0,0,0,0-0.1v-0.1l0,0l0,0c0,0.1,0,0,0-0.1s0-0.3,0-0.4
			c0-0.2,0-0.3,0-0.5c0-0.2,0-0.3-0.1-0.5l0,0l0,0c0-0.2,0-0.3,0-0.5c0-0.1,0-0.3-0.1-0.4l0,0l0,0c0-0.1,0-0.1,0-0.2
			c0-0.1,0-0.1-0.1-0.1c0,0,0,0,0,0.1v0.1c0,0-0.1-0.1-0.1-0.2s0-0.2,0-0.2c0-0.1,0-0.2,0-0.3s0-0.2,0-0.2s0,0,0,0.1c0,0,0,0,0,0.1
			c0,0,0,0,0.1-0.1v-0.1v-0.1v-0.1H0.6H0.5l0.1-0.1c0,0,0.1,0,0.1-0.1c0-0.2,0-0.3,0-0.4c0-0.1,0-0.2,0.1-0.3c0,0,0,0-0.1,0
			c0,0,0,0-0.1,0c0,0,0,0-0.1,0c0,0,0,0,0-0.1c0,0,0,0,0.1,0h0.1c0-0.1,0-0.1,0-0.2c0-0.1,0-0.1,0-0.2l0,0l0,0c0-0.2,0-0.4,0-0.5
			c0-0.2,0-0.3,0.1-0.5c0.1,0,0.1,0.1,0.1,0.1c0,0.1,0,0.1,0,0.1c0,0.1,0,0.3,0,0.4c0,0.1,0,0.3,0.1,0.4c0,0.1,0,0.1,0,0.1
			s0,0.1,0,0.2c0,0,0.1,0,0.1-0.1v-0.1v-0.1v-0.1v0.1v0.1c-0.1-0.3,0-0.4,0-0.4c0-0.1,0.1-0.2,0.1-0.2l0,0l0,0l0,0c0,0,0,0,0-0.1
			h0.2v-0.1c0,0,0,0,0-0.1l0,0l0,0l0,0c0,0,0,0,0-0.1h0.1c0,0,0.1,0,0.1-0.1H1.5c0,0-0.1,0-0.1-0.1h0.2c0.1,0,0.1-0.1,0.1-0.1
			s0.1-0.1,0.1-0.2c0,0,0,0-0.1,0s0,0-0.1,0c0.2-0.1,0.2-0.3,0.4-0.4c0.1-0.1,0.2-0.2,0.3-0.3c0.1-0.2,0.2-0.3,0.3-0.4
			c0.1-0.1,0.3-0.2,0.5-0.3c0.1,0,0.1,0,0.1-0.1l0.1-0.1h0.1h0.1c0.1,0,0.2-0.1,0.3-0.1C4,60,4.1,59.9,4.3,59.9c0.1,0,0.1,0,0.2-0.1
			c0.1,0,0.1,0,0.2-0.1c-0.2,0-0.3,0-0.5,0c-0.1,0-0.3,0.1-0.4,0.2l0,0l0,0c0.1,0,0.2,0,0.2-0.1c0.1,0,0.2-0.1,0.3-0.1s0.2,0,0.2,0
			c0.1,0,0.2,0,0.2,0s0.2,0,0.3,0c0,0,0,0,0-0.1c0.1,0,0.3,0,0.4,0c0.2,0,0.3,0,0.4,0c0.2,0,0.4,0.1,0.6,0.1c0.3,0,0.5,0,0.7,0.1
			c0.1,0,0.2,0,0.3,0.1c0.1,0,0.2,0.1,0.3,0.1c0.1,0,0.3,0,0.4,0.1c0.2,0,0.3,0.1,0.4,0.2l0,0l0,0c0.1,0,0.1,0,0.2,0.1l0.1,0.1
			C8.9,60.6,9,60.6,9,60.7c0.1,0,0.2,0,0.2,0v0.1C9.3,60.9,9.4,61,9.5,61c0.1,0.1,0.2,0.2,0.3,0.3s0.2,0.2,0.3,0.3s0.1,0.2,0.2,0.4
			l0.1,0.1l0.1,0.1l0,0c0,0,0,0,0-0.1c0,0.1,0,0.1,0,0.2s0.1,0.1,0.2,0.2v0.1v0.1c0,0,0,0.1,0.1,0.1v0.1c0-0.1,0-0.1,0-0.1l0,0
			c0,0,0,0,0,0.1c0,0,0,0,0,0.1s0,0.1,0,0.2c0,0.1,0,0.1,0,0.1c0-0.2,0-0.4,0-0.6c0-0.2,0-0.4,0-0.6c-0.1,0.1-0.1,0.2-0.1,0.3
			s0,0.2-0.1,0.3c0-0.2,0-0.3,0-0.5c0-0.2,0.1-0.4,0.1-0.5c0.1,0,0.1,0,0.1,0.1s0,0.1-0.1,0.2c0,0.2,0,0.5,0,0.8c0,0.3,0,0.6,0,0.9
			v0.1l0,0c0,0.1,0,0.2,0,0.3s0,0.2,0,0.3h0.1h0.1H11c0,0,0.1,0,0.1,0.1c0,0,0,0.1-0.1,0.1h-0.1c0,0,0,0,0.1,0l0,0l0,0l0,0h-0.1
			h-0.1l0,0c0,0,0,0,0,0.1h-0.1c-0.1,0-0.1,0-0.1,0c0,0.1,0,0.2,0,0.3s0,0.2,0,0.3l0,0l0,0c0,0.2,0,0.5,0,0.7c0,0.2,0,0.5,0,0.7
			c0,0,0,0.1,0.1,0.1c0,0,0,0,0.1,0.1c0.1,0,0.1,0,0.1-0.1c0,0,0-0.1,0.1-0.1c0,0,0.1,0,0.1,0.1v0.1V67v0.1c0,0,0,0.1,0.1,0.1
			l0.1,0.1c0,0-0.1,0-0.1-0.1c0,0-0.1,0-0.1-0.1C11.1,67.4,11,67.4,11.1,67.5C11,67.5,11,67.5,11.1,67.5z M0.6,64.5L0.6,64.5
			C0.6,64.6,0.6,64.6,0.6,64.5c0,0.1,0,0.1,0,0.2l0,0l0,0C0.6,64.6,0.6,64.6,0.6,64.5C0.6,64.6,0.6,64.5,0.6,64.5z M0.6,65.2
			C0.6,65.2,0.6,65.1,0.6,65.2c0-0.1,0-0.2,0-0.2S0.6,65.1,0.6,65.2C0.6,65.1,0.6,65.2,0.6,65.2z M0.9,66.6c0-0.1,0-0.2,0-0.2
			S0.9,66.5,0.9,66.6C0.8,66.5,0.8,66.6,0.9,66.6z M2,65.3c-0.2,0-0.3,0-0.5,0s-0.3,0-0.5,0H0.9c0,0,0,0,0,0.1
			c0.4,0,0.8,0.1,1.2,0.1c0.3,0,0.7,0,1,0c0.1,0,0.2,0,0.3,0s0.2,0,0.3,0h0.1c0,0,0.1,0,0.1-0.1c-0.3,0-0.6-0.1-1-0.1
			C2.7,65.3,2.3,65.3,2,65.3z M1,65.5C0.9,65.5,0.9,65.5,1,65.5c0,0.1,0,0.1,0,0.2c0.3,0,0.6,0,0.8,0.1c0.3,0,0.5,0,0.7,0
			s0.5,0,0.7,0s0.5,0,0.8,0v-0.2c-0.3,0-0.5-0.1-0.8-0.1s-0.5,0-0.8,0s-0.5,0-0.8,0C1.5,65.5,1.2,65.5,1,65.5z M1,62L1,62
			c0.1,0.1,0.1,0.1,0.1,0.2c0,0.1,0,0.1,0,0.2v0.1C1,62.5,1,62.6,1,62.7v-0.1v-0.1v-0.1v-0.1l0,0v-0.1C1,62.1,1,62,1,62z M1,64.7
			C1,64.8,1,64.8,1,64.7C1,64.8,1,64.8,1,64.7c0.4,0.1,0.8,0.1,1.2,0.1s0.9,0,1.3,0l-0.1-0.1c0,0-0.1,0-0.1-0.1c-0.1,0-0.2,0-0.3,0
			s-0.2,0-0.3,0v-0.1c0,0,0,0,0-0.1c-0.3,0-0.6,0-0.9,0C1.5,64.7,1.2,64.7,1,64.7z M3.2,64.9c-0.3,0-0.7,0-1.1,0s-0.8,0-1.1,0
			c0.5,0,0.9,0,1.4,0s0.9,0,1.3,0c0-0.1-0.1-0.1-0.2-0.1S3.2,64.9,3.2,64.9z M3.8,65.3C3.9,65.3,3.9,65.2,3.8,65.3
			C3.9,65.3,3.9,65.3,3.8,65.3L3.8,65.3C3.9,65.2,3.9,65.2,3.8,65.3L3.8,65.3c-0.3-0.1-0.4-0.1-0.6-0.1c-0.1,0-0.3,0-0.5,0
			c-0.3,0-0.7,0-1,0s-0.6,0-0.9,0.1c0.3,0,0.5,0,0.8,0c0.2,0,0.5,0,0.7,0s0.5,0,0.7,0C3.4,65.3,3.6,65.3,3.8,65.3z M3.3,64.4
			c-0.4,0-0.7,0-1.1,0s-0.8,0-1.2,0c0,0.1,0,0.1,0,0.1v0.1c0.2,0,0.4,0,0.5,0c0.2,0,0.3,0,0.5,0s0.3,0,0.5,0s0.3,0,0.5-0.1
			c-0.3,0-0.5,0-0.7,0s-0.5,0-0.7,0c-0.1,0-0.1,0-0.2,0s-0.1,0-0.2-0.1c0.1,0,0.1,0,0.2,0s0.2,0,0.2,0c0.1,0,0.1,0,0.2,0
			s0.1,0,0.2,0c0.1,0,0.3,0,0.4,0c0.1,0,0.3,0,0.5,0C3,64.4,3.2,64.5,3.3,64.4c0.2,0.1,0.4,0.1,0.5,0h0.1H4l-0.1-0.1
			c-0.1,0-0.1,0-0.2,0c-0.1,0-0.1,0-0.2,0C3.4,64.4,3.3,64.4,3.3,64.4z M1,62.7c0,0,0,0.1,0,0.2C1,62.9,1,62.9,1,62.7L1,62.7z
			 M1,64.1C1,64.1,1,64.2,1,64.1c0,0.1,0,0.1,0,0.2c0.5,0,0.9,0,1.4,0s1,0,1.4,0v-0.2c-0.5,0-0.9,0-1.4,0C2,64.1,1.5,64.1,1,64.1z
			 M2.6,63.9L2.6,63.9h0.2l0,0c-0.3,0-0.6,0-0.8,0s-0.6,0-0.9,0l0,0l0,0c0.3,0,0.6,0,0.8,0C2.1,63.9,2.3,63.9,2.6,63.9z M1,65.8
			C1,65.8,1,65.9,1,65.8C1.1,65.9,1.1,65.9,1,65.8c0.1,0.1,0.2,0,0.4,0c0.1,0,0.2,0,0.3-0.1c-0.1,0-0.3,0-0.4,0S1.1,65.8,1,65.8z
			 M1.1,63.6L1.1,63.6c0,0.1,0,0.2,0,0.2c0.5,0,1,0,1.4,0s0.9,0,1.3,0c0-0.1,0-0.1,0-0.1s0,0,0-0.1c-0.4,0-0.9,0-1.3,0
			S1.6,63.6,1.1,63.6z M3.1,66.3C3.2,66.3,3.2,66.3,3.1,66.3h0.2l0,0l0,0c0.1,0,0.1,0,0.1,0s0,0,0,0.1l0,0l0,0c0.1,0,0.2,0,0.3,0
			s0.2,0,0.3,0c0,0,0,0,0-0.1s0-0.1-0.1-0.1c-0.5,0-1-0.1-1.5-0.1s-1,0-1.5,0v0.1v0.1c0.2,0,0.3,0,0.5,0s0.3,0,0.5,0s0.3,0,0.5,0.1
			C2.7,66.3,2.9,66.3,3.1,66.3c-0.1,0-0.1,0-0.2,0c-0.1,0-0.2,0-0.2,0c-0.1,0-0.2,0-0.3,0s-0.2,0-0.2,0c0.1,0,0.3,0,0.5,0
			C2.8,66.2,3,66.2,3.1,66.3z M2.7,63.5c-0.2,0-0.5,0-0.7,0s-0.5,0-0.7,0H1.2c-0.1,0-0.1,0-0.1,0c0.5,0,1,0.1,1.4,0.1s0.9,0,1.3,0
			c-0.2,0-0.4,0-0.6,0C3.1,63.5,2.9,63.5,2.7,63.5z M3.9,66.4h-1c-0.3,0-0.6,0-0.9-0.1c-0.3,0-0.6,0-0.8,0c0,0.1,0,0.1,0,0.1v0.1
			c0.4,0,0.8,0,1.2,0s0.8,0,1.2,0C3.7,66.5,3.8,66.5,3.9,66.4c0.1,0.1,0.2,0.1,0.3,0c0-0.1,0-0.1-0.1-0.1C4,66.4,4,66.4,3.9,66.4z
			 M1.2,67.5C1.2,67.4,1.2,67.4,1.2,67.5C1.2,67.3,1.2,67.3,1.2,67.5l-0.1-0.1C1.2,67.3,1.2,67.4,1.2,67.5
			C1.2,67.4,1.2,67.4,1.2,67.5z M3.5,63.4c-0.2,0-0.5,0-0.7-0.1c-0.2,0-0.4,0-0.6-0.1c-0.1,0-0.3,0-0.4,0s-0.3,0-0.5,0l0,0l0,0
			c0.2,0,0.4,0,0.7,0c0.2,0,0.4,0,0.7,0.1c0.2,0,0.4,0,0.7,0c0.2,0,0.4,0,0.6,0c0,0-0.1,0-0.2,0C3.6,63.4,3.6,63.4,3.5,63.4z
			 M1.5,66.6H1.4c-0.1,0-0.1,0-0.1,0c0.1,0.1,0.3,0.1,0.5,0.1s0.4,0,0.6,0s0.4,0,0.6,0c0.2,0,0.4,0,0.6,0c0.1,0,0.2,0,0.3,0
			s0.2,0,0.3,0l0,0c-0.4,0-0.8,0-1.3,0C2.5,66.6,2,66.6,1.5,66.6z M1.3,66.1c0.2,0,0.3,0,0.4,0s0.3,0,0.4,0c-0.1,0-0.1,0-0.2,0
			s-0.2,0-0.2,0C1.6,66.1,1.5,66.1,1.3,66.1L1.3,66.1z M1.3,66.9c0.2,0,0.4,0,0.6,0s0.4,0,0.6,0s0.4,0,0.7,0c0.2,0,0.4,0,0.6,0
			c0.1,0,0.1,0,0.2,0s0.1,0,0.2-0.1c-0.5,0-0.9-0.1-1.4-0.1C2.2,66.8,1.7,66.8,1.3,66.9C1.3,66.8,1.3,66.8,1.3,66.9
			C1.3,66.8,1.3,66.8,1.3,66.9z M1.8,65.9c-0.1,0-0.2,0-0.2,0c-0.1,0-0.1,0-0.2,0c0.5,0,0.9,0,1.3,0.1c0.4,0,0.8,0,1.2,0
			c-0.1,0-0.3-0.1-0.5-0.1s-0.3,0-0.5-0.1c-0.2,0-0.4,0-0.5,0C2.1,65.8,1.9,65.8,1.8,65.9z M3.5,63c-0.3,0-0.7,0-1.1,0s-0.7,0-1.1,0
			v0.1c0,0,0,0,0,0.1c0.4,0,0.9,0,1.3,0s0.9,0,1.3,0V63c-0.1,0-0.1,0-0.2,0C3.7,63,3.6,63,3.5,63z M3.7,67c-0.1,0-0.2,0-0.2,0
			c-0.1,0-0.1,0-0.2,0c0,0,0,0-0.1,0c0,0,0,0-0.1,0H3c0,0,0,0-0.1,0H2.8h-1c-0.1,0-0.1,0-0.2,0s-0.2,0-0.2,0s0,0.1,0.1,0.1h0.1h0.1
			c0.1,0,0.1,0,0.1,0c0.4,0,0.7,0,1.1,0.1s0.8,0,1.2,0l0,0c0,0,0,0,0-0.1c-0.1,0-0.1,0-0.2,0S3.7,67,3.7,67z M1.4,67.2
			c0.2,0.1,0.4,0.1,0.6,0.1s0.4,0,0.5,0c0.2,0,0.5,0,0.7,0c0.3,0,0.5,0,0.8,0h0.1c0.1,0,0.1,0,0.1-0.1c-0.1,0-0.1,0-0.1,0
			s0,0.1-0.1,0.1v-0.1c0,0,0,0-0.1,0c-0.2,0-0.5,0-0.7,0s-0.4,0-0.6,0s-0.4,0-0.6,0C1.9,67.1,1.7,67.1,1.4,67.2L1.4,67.2z M3.5,62.7
			C3.5,62.7,3.5,62.6,3.5,62.7C3.4,62.7,3.4,62.7,3.5,62.7c-0.4,0-0.7,0-1,0s-0.6,0-0.9-0.1c0,0,0,0.1-0.1,0.1c0,0.1,0,0.1,0,0.1
			c0.4,0.1,0.9,0.1,1.3,0.1s0.8,0,1.2,0c0,0,0,0,0-0.1s0-0.1,0-0.1c-0.1,0-0.2,0-0.3,0C3.6,62.6,3.6,62.6,3.5,62.7z M1.5,67.4
			c0.1,0,0.2,0,0.2,0s0.2,0,0.3,0c0.3,0,0.6,0,0.9,0s0.6,0,0.9,0h0.1c0.1,0,0.1,0,0.2,0h0.1c0,0,0,0,0-0.1c-0.2,0-0.5,0-0.7,0
			s-0.4,0-0.7,0s-0.4,0-0.7,0C2,67.3,1.8,67.3,1.5,67.4L1.5,67.4z M1.6,63.2c0.4,0,0.8,0,1.2,0.1c0.4,0,0.8,0,1.2,0
			c-0.2,0-0.4,0-0.6,0s-0.4,0-0.5,0c-0.2,0-0.4,0-0.5,0C2,63.1,1.8,63.1,1.6,63.2z M1.7,62.4C1.7,62.5,1.7,62.5,1.7,62.4
			C1.6,62.5,1.6,62.5,1.7,62.4c0.1,0.1,0.3,0.2,0.5,0.2s0.4,0,0.6,0s0.4,0,0.6,0s0.4,0,0.6,0c0,0,0,0,0-0.1v-0.1c-0.3,0-0.7,0-1.1,0
			S2.1,62.4,1.7,62.4z M1.7,67.6c0.2,0,0.5,0,0.7,0.1c0.2,0,0.4,0,0.6,0c0.2,0,0.4,0,0.6,0c0.2,0,0.4,0,0.7,0v-0.2
			c-0.2,0-0.4,0-0.6,0c-0.2,0-0.4,0-0.7,0c-0.2,0-0.5,0-0.7,0s-0.5,0-0.7,0l0,0C1.6,67.5,1.7,67.5,1.7,67.6
			C1.6,67.6,1.6,67.6,1.7,67.6z M1.9,67.9c0.1,0,0.2,0,0.4,0c0.1,0,0.3,0.1,0.4,0.1c0.2,0,0.5,0,0.7,0c0.3,0,0.5,0,0.7,0h0.1
			c0.1,0,0.1,0,0.1-0.1c-0.3,0-0.7,0-1.1-0.1C2.7,67.9,2.3,67.9,1.9,67.9C1.8,67.8,1.8,67.8,1.9,67.9L1.9,67.9z M2,62.1
			c0.1,0,0.1,0,0.2,0c0,0,0.1,0,0.1,0.1C2.2,62.2,2.2,62.2,2,62.1C2.1,62.2,2,62.2,2,62.1c0,0.1,0.1,0.2,0.1,0.2c0.1,0,0.1,0,0.2,0
			c0.1,0,0.2,0,0.2,0c0.1,0,0.2,0,0.2,0l0.1,0.1c0.2,0,0.4,0,0.6,0s0.4,0,0.6,0c0,0,0,0,0-0.1c0,0,0,0,0-0.1c-0.2,0-0.4,0-0.5-0.1
			c-0.2,0-0.4,0-0.6,0c-0.2,0-0.4,0-0.6,0C2.4,62.1,2.2,62.1,2,62.1z M2.1,68.2c0.3,0,0.6,0.1,0.9,0.1s0.6,0,1,0s0.6,0,1,0
			c0.3,0,0.6,0,1,0.1c-0.1-0.1-0.2-0.1-0.3-0.2c-0.1,0-0.3-0.1-0.4-0.1s-0.3,0-0.4,0s-0.3,0-0.4,0C4.2,68,4,68,3.7,68S3.2,68,3,68
			c-0.1,0-0.3,0-0.4-0.1c-0.1,0-0.3,0-0.4,0C2,68,2,68,2.1,68.2C2,68.1,2,68.1,2.1,68.2z M4,61.7c-0.3,0-0.6,0-0.8,0s-0.6,0-1,0
			c0,0,0,0,0,0.1l0,0l0,0c0.1,0,0.3,0,0.4,0c0.2,0,0.3,0,0.5,0s0.3,0,0.5,0S3.9,61.8,4,61.7c0.1,0.1,0.1,0.1,0.2,0.1s0.1,0,0.1-0.1
			C4.2,61.7,4.2,61.7,4,61.7L4,61.7z M2.3,61.9L2.3,61.9c-0.1,0-0.2,0-0.2,0C2.2,61.9,2.2,61.9,2.3,61.9C2.3,62,2.3,62,2.3,61.9z
			 M2.4,68.5C2.4,68.4,2.4,68.4,2.4,68.5C2.4,68.4,2.4,68.4,2.4,68.5c0.1,0,0.2,0,0.3,0s0.1,0,0.2,0c0.7,0,1.3,0.1,1.9,0.1
			s1.2,0,1.9,0.1c-0.1,0-0.2,0-0.3-0.1c-0.1,0-0.2-0.1-0.3-0.1c-0.1,0-0.1,0-0.2,0s-0.1,0-0.2,0c-0.3,0-0.5,0-0.8-0.1
			c-0.3,0-0.5,0-0.8,0c-0.4,0-0.7,0-1.1,0s-0.7,0-1-0.1c0,0.1,0,0.1,0.1,0.1C2.3,68.4,2.4,68.4,2.4,68.5z M2.6,61.5
			c-0.1,0-0.1,0-0.2,0c0,0-0.1,0-0.1,0.1c0.3,0,0.7,0,1,0s0.6,0,1,0v-0.1c-0.3,0-0.5,0-0.8,0C3.1,61.4,2.8,61.4,2.6,61.5z M2.3,62
			C2.4,62,2.4,62,2.3,62C2.4,61.9,2.4,61.9,2.3,62C2.3,61.9,2.3,62,2.3,62z M2.7,68.6c0.6,0,1.3,0,1.9,0s1.3,0,1.9,0.1
			c0.2,0,0.5,0,0.7,0.1c0.2,0,0.5,0,0.7,0.1c0.1,0,0.2,0,0.3,0s0.2,0,0.3,0s0.2,0,0.3,0s0.2,0,0.3-0.1c-0.4,0-0.8,0-1.2,0
			S7,68.7,6.6,68.7c-0.7-0.1-1.3-0.1-1.9-0.1S3.4,68.6,2.7,68.6c0-0.1,0-0.1-0.1-0.1c-0.1,0-0.1,0-0.2,0l0,0c0,0,0,0,0.1,0
			c0,0,0,0,0.1,0C2.6,68.6,2.6,68.6,2.7,68.6C2.6,68.6,2.7,68.6,2.7,68.6L2.7,68.6z M2.5,61.4L2.5,61.4c0.1-0.1,0.2-0.1,0.2-0.2
			c-0.1,0-0.1,0-0.1,0.1C2.5,61.3,2.5,61.4,2.5,61.4z M2.6,61.9c0.1,0,0.2,0,0.3,0s0.2,0,0.3,0.1c-0.1,0-0.2,0-0.3,0
			S2.7,62,2.6,61.9C2.8,62,2.9,62,3.1,62.1c0.1,0,0.3,0,0.4,0c0.1,0,0.3,0,0.4,0c0.1,0,0.2,0,0.3,0V62l0,0c-0.3,0-0.6,0-0.9,0
			C3.1,61.9,2.8,61.9,2.6,61.9z M2.7,61.2C2.7,61.2,2.7,61.3,2.7,61.2c0,0.1-0.1,0.2-0.1,0.2c0.3,0,0.6,0,0.8,0c0.2,0,0.5,0,0.8,0
			c0,0,0,0,0-0.1v-0.1h0.1l0,0v-0.1c0,0,0,0,0-0.1c-0.3,0-0.6,0-0.9,0C3.3,61.2,3,61.2,2.7,61.2z M2.7,60.8
			C2.7,60.7,2.7,60.7,2.7,60.8c0.1-0.1,0.1-0.2,0.1-0.2h0.1l0,0l0,0c0.1,0,0.1-0.1,0.2-0.1c0.1,0,0.1-0.1,0.2-0.2
			c-0.1,0-0.2,0.1-0.3,0.2C2.8,60.6,2.7,60.7,2.7,60.8z M2.7,68.7C2.8,68.7,2.8,68.7,2.7,68.7l0.2,0.2H3c0.1,0,0.1,0,0.2,0
			c0.1,0,0.3,0,0.4,0c0.1,0,0.3,0,0.4,0c0.2,0,0.5,0,0.7,0.1c0.2,0,0.5,0,0.7,0c0.3,0,0.5,0,0.7,0s0.5,0,0.7,0s0.4,0,0.6,0
			s0.4,0,0.6,0c0.1,0,0.2,0,0.3,0s0.2,0,0.4-0.1c-0.1,0-0.1,0-0.2,0c-0.1,0-0.1,0-0.2,0c-0.1,0-0.1,0-0.2,0c-0.1,0-0.1,0-0.2-0.1
			c0,0,0,0-0.1,0H7.7c-0.5,0-1,0-1.6,0c-0.5,0-1.1,0-1.6,0c-0.2,0-0.4,0-0.7,0c-0.2,0-0.4,0-0.6,0c-0.1,0-0.1,0-0.2,0
			S2.9,68.8,2.7,68.7c0.5,0,0.7,0,0.9,0c0.2,0,0.4,0.1,0.5,0.1c0.3,0,0.6,0,0.9,0s0.5,0,0.8,0s0.5,0,0.7,0s0.5,0,0.8,0
			c-0.4,0-0.7,0-1.1-0.1c-0.4,0-0.7,0-1.1,0s-0.7,0-1.1,0S3.2,68.7,2.7,68.7C2.8,68.7,2.8,68.7,2.7,68.7c0.1,0.1,0.2,0.1,0.2,0.2
			c0,0,0,0-0.1,0C2.8,68.9,2.8,68.9,2.7,68.7C2.8,68.7,2.8,68.7,2.7,68.7L2.7,68.7z M2.8,61.1L2.8,61.1L2.8,61.1L2.8,61.1
			c0.1,0,0.2,0,0.3,0s0.2,0,0.4,0c0.1,0,0.3,0,0.4,0c0.1,0,0.3,0,0.4,0s0.1,0,0.2,0s0.1,0,0.2-0.1c-0.3,0-0.6,0-0.9,0
			S3.1,61.1,2.8,61.1z M3.5,60.9c-0.1,0-0.3,0-0.4,0c-0.1,0-0.2,0-0.3,0.1c0.2,0,0.3,0.1,0.5,0.1s0.3,0,0.5,0c0.1,0,0.2,0,0.3,0
			s0.2,0,0.3,0c0.1,0,0.2,0,0.3,0c0.1,0,0.1,0,0.2-0.1c-0.3,0-0.5,0-0.7,0C3.9,60.9,3.7,60.9,3.5,60.9z M3.4,63.9
			c-0.1,0-0.1,0-0.2,0s-0.2,0-0.2,0h0.1h0.1h0.1C3.3,63.9,3.4,63.9,3.4,63.9z M3.5,69.5L3.5,69.5C3.5,69.4,3.5,69.4,3.5,69.5
			c-0.1-0.1-0.2-0.1-0.2-0.2c-0.1,0-0.1-0.1-0.2-0.1c0.1,0.1,0.1,0.1,0.2,0.2C3.3,69.5,3.4,69.5,3.5,69.5z M4.3,67.9
			c-0.1,0-0.2,0-0.2,0c-0.1,0-0.2,0-0.3,0s-0.2,0-0.3,0s-0.2,0-0.3,0c0.2,0,0.4,0,0.6,0C3.9,67.9,4.1,67.9,4.3,67.9z M3.4,69.2
			c0.4,0,0.8,0,1.2,0s0.8,0,1.3,0c0.4,0,0.9,0,1.3,0s0.8,0,1.2-0.1c-0.1,0-0.2,0-0.4,0c-0.1,0-0.3,0-0.4,0c-0.2,0-0.5,0-0.7,0
			c-0.3,0-0.5,0-0.7,0c-0.5,0-1,0-1.5-0.1c-0.5,0-0.9-0.1-1.4-0.1l0,0l0,0C3.2,69.1,3.3,69.1,3.4,69.2C3.3,69.1,3.3,69.1,3.4,69.2z
			 M3.7,60.7c-0.1,0-0.1,0-0.2,0s-0.2,0-0.3,0.1c0.2,0,0.5,0.1,0.7,0.1c0.2,0,0.4,0,0.7,0c0.1,0,0.1,0,0.2,0s0.1,0,0.2,0
			s0.1,0,0.1,0l0.1-0.1c-0.3-0.1-0.5-0.1-0.8-0.1S3.9,60.7,3.7,60.7z M3.4,60.4C3.5,60.4,3.5,60.4,3.4,60.4h0.2
			C3.5,60.4,3.5,60.4,3.4,60.4C3.5,60.3,3.4,60.3,3.4,60.4z M3.4,63.9c0.1,0,0.2,0,0.3,0s0.2,0,0.2,0s0,0-0.1,0H3.7H3.6
			C3.5,63.9,3.4,63.9,3.4,63.9z M4,65.9L4,65.9c-0.2,0-0.2,0-0.3,0s-0.1,0-0.2,0c-0.1,0-0.1,0-0.2,0c0.1,0,0.2,0,0.3,0
			C3.8,65.9,3.9,65.9,4,65.9z M3.6,69.6L3.6,69.6c0.2,0.1,0.2,0.1,0.3,0.2c0.1,0,0.1,0,0.2,0s0.1,0,0.2,0c-0.1,0-0.2-0.1-0.3-0.1
			C3.8,69.6,3.7,69.6,3.6,69.6z M5.1,59.7C5,59.7,5.1,59.8,5.1,59.7C5.2,59.8,5.2,59.8,5.1,59.7c0,0.1-0.2,0.1-0.3,0.1
			s-0.2,0-0.3,0.1c-0.1,0-0.2,0.1-0.3,0.1c-0.2,0.1-0.3,0.1-0.4,0.1c0,0.1-0.1,0.1-0.1,0.1c-0.1,0-0.1,0-0.1,0.1
			C4,60.2,4.3,60.1,4.7,60s0.8-0.1,1.2-0.2c0,0,0-0.1,0.1-0.1s0.2,0,0.2,0s-0.1,0-0.2,0c0,0,0,0-0.1,0c0,0-0.1,0-0.2,0s-0.1,0-0.2,0
			s-0.1,0-0.2,0C5.2,59.7,5.1,59.7,5.1,59.7z M3.6,69.3c0.1,0,0.2,0.1,0.3,0.1s0.2,0,0.3,0s0.2,0,0.4,0c0.1,0,0.2,0,0.4,0h1
			c0.4,0,0.7,0,1.1,0s0.7,0,1-0.1c-0.8,0-1.5,0-2.3,0C5.1,69.2,4.3,69.2,3.6,69.3z M5.9,60.6c-0.2,0-0.4,0-0.6,0s-0.4,0-0.6,0
			s-0.4,0-0.6,0s-0.4,0-0.5,0.1c0.4,0,0.8,0,1.2,0C5.2,60.6,5.6,60.6,5.9,60.6z M4,64.1C3.9,64.1,4,64.1,4,64.1L4,64.1
			C4,64,4,64,4,64.1C4,64,4,64,4,64.1z M4,63.1L4,63.1C4,63,4,63,4,63.1L4,63.1L4,63.1z M4.1,62.9C4.1,62.8,4.1,62.8,4.1,62.9
			C4.1,62.8,4.1,62.8,4.1,62.9C4.1,62.8,4.1,62.8,4.1,62.9C4,62.8,4,62.9,4.1,62.9z M4,64.2C4.1,64.2,4.1,64.2,4,64.2
			C4.1,64.2,4.1,64.2,4,64.2C4.1,64.2,4.1,64.2,4,64.2C4.1,64,4.1,64,4.1,64C4,64,4,64,4,64C4.1,64.1,4,64.2,4,64.2z M4.9,69.4
			c-0.1,0-0.3,0-0.4,0s-0.3,0-0.4,0.1c0.6,0,1.1,0,1.7,0s1.1,0,1.7-0.1c-0.4,0-0.9,0-1.3,0C5.8,69.4,5.3,69.4,4.9,69.4z M4.2,64.2
			L4.2,64.2c0.1-0.1,0.1-0.1,0-0.2l0,0l0,0C4.2,64,4.2,64.1,4.2,64.2C4.2,64.1,4.2,64.2,4.2,64.2z M4.3,66.8
			C4.3,66.7,4.3,66.7,4.3,66.8C4.3,66.7,4.3,66.7,4.3,66.8C4.2,66.7,4.2,66.7,4.3,66.8C4.2,66.7,4.2,66.8,4.3,66.8z M4.2,67.1
			C4.3,67.1,4.3,67.1,4.2,67.1C4.2,67,4.2,67,4.2,67.1L4.2,67.1C4.2,67,4.2,67,4.2,67.1L4.2,67.1z M4.3,61.6
			C4.3,61.6,4.4,61.6,4.3,61.6C4.4,61.5,4.4,61.5,4.3,61.6L4.3,61.6C4.3,61.5,4.3,61.5,4.3,61.6L4.3,61.6z M7.2,64.1H6.8
			c-0.4,0-0.8,0-1.3,0c-0.4,0-0.9,0-1.3,0v0.1v0.1c0.2,0,0.4,0,0.7,0c0.2,0,0.5,0,0.7,0c0.3,0,0.5,0,0.8,0s0.5,0,0.7,0h0.1
			C7.3,64.3,7.3,64.3,7.2,64.1C7.3,64.1,7.2,64.1,7.2,64.1C7.3,64,7.2,64.1,7.2,64.1z M4.3,63.1C4.3,63.2,4.3,63.2,4.3,63.1
			L4.3,63.1C4.3,63.2,4.3,63.2,4.3,63.1L4.3,63.1z M5.8,64.6L5.8,64.6L5.8,64.6L5.8,64.6c-0.1,0-0.1,0-0.2,0s-0.1,0-0.1,0H5.4
			c0.1,0,0.1,0,0.2,0S5.7,64.6,5.8,64.6c-0.2,0-0.2,0-0.3,0s-0.1,0-0.2,0s-0.3,0-0.4,0.1c-0.2,0-0.3,0.1-0.5,0.1l0,0l0,0l0,0
			C4.9,64.8,5.3,64.7,5.8,64.6c0.3,0.1,0.8,0.1,1.2,0.1c-0.3,0-0.7,0-1,0s-0.7,0-1,0.1c0.1,0,0.2,0,0.3,0c0.1,0,0.2,0,0.4,0
			c0.1,0,0.2-0.1,0.3,0c0.1,0.1,0.2,0,0.3,0l0,0c0,0,0,0,0.1,0s0.2,0,0.3,0c0.1,0,0.2,0,0.3,0c0.1,0,0.1,0,0.1,0s0,0,0.1,0
			c0,0,0,0,0.1,0h0.1h0.1c0,0,0.1,0,0.1-0.1c-0.1,0-0.2,0-0.2,0c-0.1,0-0.2,0-0.3,0c0.1,0,0.1,0,0.2,0h0.1h0.1c0,0,0.1,0,0.1-0.1
			c0,0,0,0.1,0.1,0.1l0,0v-0.1l0,0l0,0l0,0l0,0v-0.1c-0.2,0-0.5,0-0.7,0s-0.5,0-0.7,0v-0.1l0,0c-0.1,0-0.1,0-0.1,0s0,0,0,0.1
			C5.9,64.7,5.8,64.7,5.8,64.6C5.7,64.7,5.7,64.7,5.8,64.6C5.7,64.6,5.7,64.6,5.8,64.6C5.7,64.6,5.7,64.6,5.8,64.6
			C5.7,64.6,5.7,64.6,5.8,64.6C5.7,64.6,5.7,64.6,5.8,64.6L5.8,64.6z M9.5,64.9c-0.1,0-0.2,0-0.3,0s-0.2,0-0.3,0V65H8.8l0,0l0,0
			c-0.2,0-0.4,0-0.6,0c-0.2,0-0.4,0-0.5,0c0,0,0,0,0,0.1v0.1c0,0,0,0,0-0.1s0-0.1,0-0.1c-0.1,0-0.1,0-0.1,0v0.1v0.1v0.1v-0.1
			c0-0.1,0-0.1,0-0.2c-0.1,0-0.3,0-0.4,0s-0.3,0-0.4,0s-0.1,0-0.2,0s-0.1,0-0.2,0c-0.2,0-0.3,0-0.5,0s-0.3,0-0.5,0s-0.3,0-0.5,0
			s-0.3,0-0.4,0c0,0.1,0,0.2,0,0.2s0,0.2,0,0.3s0,0.2,0,0.3s0,0.2,0,0.2l0,0l0,0l0,0c0,0,0,0,0,0.1v0.1c0,0,0,0.1,0.1,0.1v0.1
			c0.1,0.1,0.1,0.2,0.2,0.3s0.1,0.2,0.1,0.3L5,67.1c0.1,0,0.1,0.1,0.2,0.1c0.1,0.1,0.3,0.2,0.5,0.3s0.4,0.2,0.6,0.3
			c0.1,0.1,0.2,0.1,0.2,0.1c0.1,0,0.2,0.1,0.2,0.1c0.1,0.1,0.3,0.1,0.4,0.1s0.3,0,0.4,0S7.8,68,7.9,68s0.3-0.1,0.4-0.1s0.1,0,0.2,0
			s0.2,0,0.2,0c0.1-0.1,0.3-0.2,0.4-0.3s0.3-0.2,0.4-0.3v-0.1c0.1-0.1,0.2-0.1,0.3-0.2c0.1-0.1,0.2-0.2,0.2-0.3c0,0,0-0.1-0.1-0.1
			l-0.1-0.1l-0.1-0.1v-0.1c0.1,0,0.1,0.1,0.2,0.1c0,0.1,0.1,0.1,0.2,0.1c0.1-0.1,0.1-0.2,0.2-0.3l0,0c0,0,0,0,0,0.1c0,0,0,0,0,0.1
			s0,0,0,0c0.1-0.1,0.1-0.2,0.1-0.2c0-0.1,0.1-0.1,0.2-0.2c0,0.1,0,0.2,0,0.2c0,0.1,0,0.1,0,0.2c0,0,0,0,0.1,0c0,0,0,0,0.1,0.1h-0.1
			c0,0,0,0-0.1,0c0,0,0,0.1,0.1,0.1c0,0,0,0.1,0.1,0.1c0-0.2,0-0.5,0-0.8c0-0.3,0-0.5,0-0.8c0,0,0,0,0-0.1v-0.1c0,0,0,0-0.1,0.1
			c0,0,0,0.1-0.1,0c0,0,0-0.1,0-0.2c0-0.1,0-0.2,0-0.2c-0.2,0-0.3,0-0.5,0C9.9,64.9,9.7,64.9,9.5,64.9z M4.5,64.3H4.3
			C4.3,64.3,4.4,64.3,4.5,64.3L4.5,64.3z M4.3,67.1C4.3,67.1,4.4,67.1,4.3,67.1c0.1,0,0.1,0,0.2,0C4.5,67.1,4.5,67,4.3,67.1
			C4.4,67,4.4,67.1,4.3,67.1L4.3,67.1z M4.4,63c0.1-0.3,0.2-0.6,0.3-0.9c0.1-0.3,0.2-0.6,0.3-0.8c-0.2,0.2-0.3,0.4-0.4,0.7
			C4.5,62.3,4.4,62.6,4.4,63z M4.4,67.3C4.5,67.3,4.5,67.3,4.4,67.3h0.2l0,0l0,0C4.6,67.3,4.6,67.3,4.4,67.3
			C4.4,67.2,4.4,67.2,4.4,67.3L4.4,67.3z M4.4,67.5c0.1,0,0.2,0,0.2,0s0.1,0,0.2-0.1c-0.1,0-0.1,0-0.2,0S4.4,67.4,4.4,67.5L4.4,67.5
			z M4.4,67.8c0.1,0,0.2,0,0.3,0c0.1,0,0.2,0,0.3,0c0-0.1-0.1-0.1-0.2-0.1S4.6,67.7,4.4,67.8C4.4,67.6,4.4,67.6,4.4,67.8
			C4.4,67.7,4.4,67.7,4.4,67.8z M4.4,68L4.4,68c0.1,0,0.1,0,0.2,0C4.5,68,4.5,68,4.4,68C4.4,67.9,4.4,67.9,4.4,68z M4.4,67.9
			c0.1,0,0.2,0,0.3,0c0.1,0,0.2,0,0.4,0c0,0-0.1,0-0.1-0.1c-0.1,0-0.1,0-0.2,0s-0.1,0-0.2,0C4.5,67.8,4.4,67.8,4.4,67.9z M5.5,61
			c-0.1,0-0.2,0.1-0.2,0.2c0,0.1-0.1,0.2-0.2,0.3C5,61.7,5,61.8,4.9,62c-0.1,0.1-0.2,0.3-0.2,0.4c-0.1,0.2-0.1,0.4-0.2,0.6
			c0,0.2-0.1,0.4-0.1,0.6c0.2,0,0.4,0,0.6,0s0.3,0,0.5,0s0.3,0,0.5,0s0.4,0,0.5,0v-0.1v-0.1l0,0l0,0c0.1-0.3,0.2-0.5,0.1-0.8
			c0-0.3-0.1-0.6-0.2-0.8c0.1-0.2,0.1-0.3,0.1-0.5c0-0.1-0.1-0.2-0.2-0.3c0,0,0,0,0,0.1v0.1c0,0,0,0,0-0.1c0,0,0,0,0-0.1v-0.1
			c0,0,0,0,0-0.1c-0.1,0-0.2,0-0.4,0C5.7,60.9,5.6,60.9,5.5,61z M5.3,61c-0.1,0-0.1,0.1-0.1,0.2c-0.1,0-0.2,0.1-0.2,0.2
			c0,0.1-0.1,0.2-0.1,0.3S4.8,61.9,4.8,62s-0.1,0.2-0.1,0.3s-0.1,0.2-0.1,0.3s-0.1,0.2-0.1,0.3s0,0.2,0,0.3c0.1-0.4,0.2-0.7,0.4-1.1
			C5,61.7,5.1,61.3,5.3,61L5.3,61z M7.2,63.8H6.8c-0.3,0-0.6,0-0.9,0s-0.6,0-0.9,0c-0.1,0-0.2,0-0.3,0s-0.2,0-0.3,0
			c0.2,0,0.4,0,0.7,0c0.2,0,0.5,0,0.7,0s0.4,0,0.7,0C6.7,63.8,7,63.8,7.2,63.8L7.2,63.8c0.2,0,0.2,0,0.2-0.1l-0.1-0.1
			C7.3,63.8,7.2,63.8,7.2,63.8z M4.8,64.3c-0.1,0-0.1,0-0.2,0s-0.1,0-0.1,0C4.6,64.3,4.6,64.3,4.8,64.3L4.8,64.3z M4.6,68
			c0.1,0,0.1,0,0.2,0s0.2,0,0.3,0C5,68,5,68,4.9,67.9C4.7,68,4.6,68,4.6,68z M4.9,69.8C4.8,69.8,4.8,69.8,4.9,69.8H4.7H4.9
			C4.9,69.9,4.9,69.9,4.9,69.8z M4.8,64.6L4.8,64.6C4.9,64.6,4.9,64.6,4.8,64.6L4.8,64.6L4.8,64.6z M4.8,69.6
			c0.3,0.1,0.6,0.1,0.9,0.1c0.3,0,0.6,0,0.9-0.1c-0.2,0-0.4,0-0.5,0s-0.3,0-0.4,0s-0.3,0-0.4,0C5.1,69.6,4.9,69.6,4.8,69.6z M7,60.4
			c-0.1,0-0.2,0-0.3,0c-0.1,0-0.2,0-0.3,0c-0.1,0-0.2,0-0.3,0c-0.1,0-0.2,0-0.3,0c-0.2,0-0.4,0-0.6,0s-0.3,0-0.5,0
			c0.2,0,0.4,0.1,0.7,0.1c0.2,0,0.5,0,0.7,0C6.5,60.5,6.7,60.5,7,60.4c0.2,0,0.5,0.1,0.7,0.1c0.1,0,0.2,0,0.3,0s0.2,0,0.3,0
			c-0.1,0-0.2,0-0.3,0c-0.1,0-0.2,0-0.3,0s-0.2,0-0.4,0C7.2,60.4,7.1,60.4,7,60.4z M4.9,60.3c0.2,0,0.4,0,0.5,0c0.2,0,0.3,0,0.5,0
			c0,0,0,0-0.1,0s-0.1,0-0.1,0l0,0c0,0,0.1,0,0,0s-0.3,0-0.4,0C5.2,60.2,5,60.2,4.9,60.3z M5.1,67.4L5.1,67.4C5,67.3,5,67.3,5,67.3
			S5,67.3,5.1,67.4L5.1,67.4z M5.1,69.9L5.1,69.9c-0.1-0.1-0.1,0-0.2,0C5,69.9,5,69.9,5.1,69.9L5.1,69.9z M5.8,67.8
			c-0.1,0-0.2-0.1-0.3-0.1c-0.1-0.1-0.2-0.1-0.3-0.1c0.1,0.1,0.2,0.1,0.3,0.2C5.6,67.8,5.7,67.8,5.8,67.8z M5.2,70
			c0.1,0,0.2,0,0.3,0.1c0.1,0.1,0.2,0.1,0.3,0.1c0.1-0.1,0.1-0.1,0.2-0.1s0.2,0,0.2-0.1c-0.2,0-0.3,0-0.5,0C5.6,70,5.4,70,5.2,70z
			 M7,64.3C7,64.3,7,64.2,7,64.3C7,64.2,7,64.2,7,64.3c-0.2,0-0.4,0-0.7,0c-0.2,0-0.4,0-0.6,0c-0.1,0-0.2,0-0.3,0
			c-0.1,0-0.2,0-0.3,0c0.1,0,0.3,0,0.5,0s0.4,0,0.6,0s0.4,0,0.6,0s0.4,0,0.5,0c0,0,0-0.1-0.1-0.1L7,64.3L7,64.3
			C7.1,64.2,7.1,64.3,7,64.3z M6.5,68.2c-0.1-0.1-0.2-0.1-0.4-0.1C6,68.1,5.9,68,5.7,68c0.1,0.1,0.3,0.2,0.4,0.2
			c0.2,0.1,0.4,0.1,0.6,0.1s0.4,0,0.6,0s0.4,0,0.5-0.1c-0.1,0-0.2,0-0.3,0c-0.1,0-0.2,0-0.4,0c-0.1,0-0.2,0-0.4,0
			C6.7,68.3,6.6,68.3,6.5,68.2z M5.8,60.2c0.1,0,0.3,0,0.4,0.1c0.1,0,0.3,0,0.4,0s0.3,0,0.4,0s0.3,0,0.5,0c-0.2,0-0.5-0.1-0.8-0.1
			S6.1,60.2,5.8,60.2z M6.1,60.3C6,60.3,6,60.3,6.1,60.3C6,60.3,6,60.3,6.1,60.3C5.9,60.3,5.9,60.3,6.1,60.3C6,60.3,6,60.3,6.1,60.3
			z M6.1,60.7c0.2,0,0.4,0,0.7,0s0.4,0,0.6,0s0.4,0,0.6,0c0.2,0,0.4,0,0.6,0c-0.2,0-0.4-0.1-0.6-0.1s-0.4,0-0.6,0s-0.4,0-0.6,0
			S6.4,60.6,6.1,60.7L6.1,60.7L6.1,60.7C6,60.6,6,60.6,6.1,60.7C6,60.6,6.1,60.7,6.1,60.7z M6.1,62.7c0,0.1,0,0.2,0,0.3s0,0.2,0,0.3
			H6v-0.1v-0.1c0,0,0,0,0-0.1S6,62.9,6.1,62.7C6,62.8,6,62.7,6.1,62.7C6,62.7,6,62.7,6.1,62.7z M6,70.2c0.4,0.1,0.7,0,1.1,0
			C7.4,70.1,7.7,70,8,69.9c-0.2,0-0.3,0-0.5,0S7.2,69.9,7,70c-0.2,0-0.3,0.1-0.5,0.1S6.1,70.2,6,70.2z M6.8,62
			C6.8,62,6.8,61.9,6.8,62C6.9,62,6.9,62,6.8,62c0.1-0.1,0-0.2,0-0.3s-0.1-0.2-0.1-0.3s-0.1-0.2-0.2-0.3C6.5,61,6.4,61,6.3,61
			c0.1,0.1,0.1,0.2,0.1,0.2c0,0.1,0.1,0.2,0.1,0.3c0.1,0.1,0.1,0.2,0.2,0.2C6.7,61.8,6.7,61.9,6.8,62z M6.6,60.8c0.1,0,0.1,0,0.2,0
			s0.1,0,0.2,0c-0.1,0-0.2,0-0.2,0C6.7,60.8,6.7,60.8,6.6,60.8z M6.6,59.9L6.6,59.9C6.7,60,6.9,60,7.1,60s0.3,0,0.4,0
			c-0.1,0-0.3-0.1-0.4-0.1C6.9,59.9,6.8,59.8,6.6,59.9z M6.8,61c0.1,0,0.3,0.1,0.5,0.1s0.4,0,0.6,0c0.2,0,0.4,0,0.5,0
			c0.2,0,0.3,0,0.5,0.1c0.1,0,0.1,0,0.2,0c0.1,0,0.2,0,0.2,0C9.2,61.1,9.1,61,8.9,61s-0.3,0-0.5,0c-0.3,0-0.5,0-0.8,0
			C7.4,60.9,7.1,60.9,6.8,61L6.8,61C6.7,60.9,6.8,60.9,6.8,61C6.8,60.9,6.8,60.9,6.8,61z M6.9,63c0,0.1,0,0.1,0.1,0.2
			c0.1,0.1,0,0.2,0.1,0.3c0-0.1,0-0.1,0-0.2c0-0.1,0-0.1,0-0.2s0-0.1,0-0.2c0-0.1,0-0.1-0.1-0.2H6.9c0,0.1,0,0,0,0l0,0
			c0,0,0,0,0.1,0c0,0,0,0,0.1,0l0,0C7,62.5,7,62.4,7,62.3c0-0.1,0-0.2,0-0.3H6.9H6.8c0.1,0.1,0.1,0.3,0.1,0.5
			C6.9,62.7,6.9,62.8,6.9,63z M6.7,63.5C6.8,63.5,6.8,63.5,6.7,63.5c0.1,0,0.2,0,0.3,0c0-0.1,0-0.1,0-0.2c0-0.1-0.1-0.1-0.1-0.2
			C6.8,63.2,6.8,63.4,6.7,63.5z M6.9,61.2c0.4,0.1,0.9,0.1,1.3,0.1c0.5,0,0.9,0,1.3,0c-0.1,0-0.1-0.1-0.1-0.1s-0.1,0-0.1-0.1
			c-0.2,0-0.5,0-0.7,0c-0.3,0-0.5,0-0.8,0c-0.2,0-0.3,0-0.5-0.1c-0.2,0-0.3,0-0.4,0C6.9,61.1,6.9,61.1,6.9,61.2
			C6.9,61.1,6.9,61.1,6.9,61.2z M7,61.3C7,61.3,7,61.4,7,61.3c0,0.1,0,0.2,0.1,0.2c0.3,0,0.6,0,0.9,0s0.6,0,0.9,0c0.2,0,0.3,0,0.4,0
			c0.1,0,0.3,0,0.4-0.1c-0.2,0-0.5-0.1-0.7-0.1s-0.4,0-0.7-0.1c-0.2,0-0.5,0-0.7,0C7.5,61.3,7.3,61.3,7,61.3z M7.1,61.7
			C7.2,61.7,7.2,61.7,7.1,61.7h0.2v-0.1c0,0,0,0,0-0.1c-0.1,0-0.1,0-0.1,0H7.1V61.7z M7.1,61.8C7.1,61.8,7.2,61.9,7.1,61.8
			C7.1,61.9,7.1,61.9,7.1,61.8l0.2,0.1v-0.1H7.1C7.2,61.8,7.2,61.8,7.1,61.8z M7.2,63.5L7.2,63.5c0-0.1,0-0.1,0.1-0.2
			c0-0.1,0-0.1,0-0.2c0,0,0,0.1,0,0.2C7.2,63.4,7.2,63.5,7.2,63.5z M7.3,62.2L7.3,62.2c0.1-0.1,0.1-0.1,0-0.2l0,0
			C7.2,62.1,7.2,62.1,7.3,62.2C7.3,62.1,7.3,62.2,7.3,62.2z M7.4,62.6L7.4,62.6v-0.2C7.4,62.5,7.4,62.5,7.4,62.6L7.4,62.6z
			 M7.4,68.2c0.1,0,0.1,0,0.2,0s0.1,0,0.2,0s0.1,0,0.2,0s0.1,0,0.2,0s0.1,0,0.2,0c0.1,0,0.1,0,0.2-0.1c-0.2,0-0.4,0.1-0.6,0.1
			C7.7,68.1,7.5,68.1,7.4,68.2z M7.4,69.8C7.5,69.8,7.5,69.8,7.4,69.8h0.2H7.4L7.4,69.8z M7.5,62L7.5,62C7.6,61.9,7.6,61.9,7.5,62
			c0.1-0.1,0.1-0.1,0.1-0.2H7.5C7.5,61.8,7.5,61.8,7.5,62C7.5,61.9,7.5,61.9,7.5,62z M7.6,62.1L7.6,62.1C7.5,62,7.5,62,7.6,62.1
			C7.5,62.1,7.5,62.1,7.6,62.1C7.5,62.1,7.5,62.1,7.6,62.1L7.6,62.1c0.1,0,0.2,0.1,0.3,0.1c0.1,0,0.2,0,0.3,0c0.1,0,0.2,0,0.3,0
			s0.2,0,0.2,0c0.1,0,0.1,0,0.2,0c0.1,0,0.2,0,0.3,0s0.2,0,0.3,0s0.2,0,0.2,0c-0.2,0-0.4,0-0.6,0c-0.2,0-0.3,0-0.5,0s-0.3,0-0.5,0
			C7.9,62.1,7.8,62.1,7.6,62.1z M9.6,61.7c-0.2,0-0.3,0-0.5,0s-0.4,0-0.6,0s-0.4,0-0.6,0c-0.2,0-0.4,0-0.5,0l0,0h0.1l0,0
			c0.1,0,0.1,0,0.2,0s0.1,0,0.2,0c0.3,0,0.7,0,1.1,0.1c0.4,0,0.7,0.1,1,0.1c-0.1-0.2-0.1-0.2-0.2-0.2C9.8,61.7,9.7,61.7,9.6,61.7z
			 M10,62.4c-0.1,0-0.1,0-0.1,0s-0.1,0-0.2,0c-0.3,0-0.5,0-0.9,0c-0.3,0-0.6,0-0.9,0c-0.1,0-0.1,0-0.2,0s-0.1,0-0.2,0s-0.1,0-0.2,0
			c0,0-0.1,0-0.1,0.1c0.1,0,0.1,0,0.2,0s0.1,0,0.2,0c0.4,0,0.8,0.1,1.2,0.1S9.6,62.6,10,62.4L10,62.4L10,62.4z M7.5,62.5v0.2h0.1
			C7.6,62.7,7.6,62.7,7.5,62.5L7.5,62.5L7.5,62.5C7.6,62.5,7.6,62.5,7.5,62.5C7.6,62.5,7.5,62.5,7.5,62.5L7.5,62.5z M7.5,62.9
			C7.5,62.8,7.5,62.8,7.5,62.9c0.1-0.1,0.1-0.2,0-0.2C7.5,62.7,7.5,62.7,7.5,62.9C7.5,62.8,7.5,62.8,7.5,62.9z M7.5,63L7.5,63
			C7.6,63,7.6,63,7.5,63L7.5,63C7.5,62.9,7.5,63,7.5,63z M7.5,63.9L7.5,63.9L7.5,63.9z M7.5,64.1L7.5,64.1L7.5,64.1L7.5,64.1
			L7.5,64.1z M7.5,64.4C7.5,64.3,7.5,64.3,7.5,64.4C7.6,64.4,7.6,64.4,7.5,64.4C7.6,64.3,7.5,64.3,7.5,64.4
			C7.5,64.3,7.5,64.3,7.5,64.4C7.5,64.3,7.5,64.3,7.5,64.4z M7.5,64.9C7.5,64.8,7.5,64.8,7.5,64.9C7.6,64.9,7.6,64.9,7.5,64.9
			L7.5,64.9L7.5,64.9z M7.5,63.9L7.5,63.9C7.6,64,7.6,63.9,7.5,63.9C7.6,63.8,7.6,63.8,7.5,63.9C7.6,63.9,7.5,63.9,7.5,63.9z
			 M7.6,64.2C7.6,64.2,7.6,64.1,7.6,64.2C7.6,64.1,7.6,64.1,7.6,64.2C7.6,64.1,7.6,64.1,7.6,64.2C7.5,64.1,7.5,64.1,7.6,64.2z
			 M9.8,61.9c-0.3,0-0.7-0.1-1.1-0.1c-0.4,0-0.7,0-1.1,0c0,0,0,0,0,0.1V62c0.2,0,0.4,0,0.7,0c0.2,0,0.5,0,0.7,0s0.4,0,0.6,0
			c0.2,0,0.4,0,0.5,0c0-0.1-0.1-0.1-0.1-0.1C9.9,61.9,9.8,61.9,9.8,61.9z M10,63.3c-0.2,0-0.4,0-0.6,0c-0.2,0-0.4,0-0.6,0
			c-0.2,0-0.4,0-0.6,0s-0.4,0-0.5,0H7.6l0.1,0.1h0.1c0.2,0,0.3,0,0.4,0s0.3,0,0.4,0c0.2,0,0.4,0,0.6,0.1c0.2,0,0.4,0,0.6,0
			c0,0,0,0,0.1,0H10h0.1h0.1l0,0c0-0.1,0-0.1-0.1-0.1C10.1,63.3,10,63.3,10,63.3z M7.6,65.1L7.6,65.1C7.6,65.2,7.6,65.2,7.6,65.1
			C7.6,65.2,7.6,65.2,7.6,65.1L7.6,65.1z M7.6,68.6c0.2,0,0.4,0,0.6,0s0.4,0,0.6,0c0.2,0,0.3,0,0.4,0c0.1,0,0.2,0,0.3-0.1
			c-0.1,0-0.2,0-0.4,0s-0.3,0-0.5,0s-0.3,0-0.5,0C7.8,68.6,7.7,68.6,7.6,68.6z M7.6,63L7.6,63L7.6,63L7.6,63
			c0.4,0.1,0.8,0.1,1.3,0.1c0.4,0,0.8,0,1.2,0c0,0,0,0,0.1,0c0,0,0,0,0.1,0c0,0,0,0,0.1,0c0,0,0,0,0-0.1c-0.5,0.1-1,0-1.4,0
			S8.1,63,7.6,63z M7.6,64.7L7.6,64.7L7.6,64.7c0.1,0,0.3,0,0.4,0c0.1,0,0.2,0,0.3,0s0.2,0,0.3,0s0.2,0,0.2-0.1H8.7H8.6
			c0,0,0,0,0-0.1c-0.1,0-0.2,0-0.3,0s-0.2,0-0.3,0c0-0.1-0.1-0.1-0.1,0C7.8,64.7,7.7,64.7,7.6,64.7C7.7,64.7,7.7,64.7,7.6,64.7z
			 M10.4,62.8c-0.2,0-0.4,0-0.7-0.1c-0.2,0-0.5,0-0.8,0s-0.5,0-0.7,0s-0.4,0-0.6,0v0.1c0.5,0,1,0.1,1.4,0.1S9.8,62.9,10.4,62.8
			C10.3,63,10.3,62.9,10.4,62.8C10.3,62.9,10.3,62.9,10.4,62.8c-0.1,0.1-0.1,0.1-0.1,0.1S10.3,62.9,10.4,62.8
			C10.4,62.9,10.4,62.9,10.4,62.8C10.4,62.9,10.4,62.9,10.4,62.8z M7.6,63.1c0.1,0,0.3,0.1,0.5,0.1c0.2,0,0.4,0,0.7,0
			c-0.1,0-0.2,0-0.3,0s-0.2,0-0.3,0s-0.2,0-0.3,0C7.8,63.1,7.7,63.1,7.6,63.1z M7.6,63.9c0.5,0,0.9,0,1.3,0.1c0.4,0,0.8,0,1.2,0
			L10,63.9c-0.1,0-0.1,0-0.2,0H9.5c-0.3,0-0.7-0.1-1-0.1S7.9,63.8,7.6,63.9L7.6,63.9z M9.9,64.1c-0.4,0-0.8,0-1.1,0
			c-0.4,0-0.8,0-1.1,0l0,0l0,0c0.1,0,0.2,0,0.4,0c0.1,0,0.3,0,0.4,0c0.3,0,0.6,0,0.9,0c0.3,0,0.6,0,0.8,0h-0.1
			C10,64.1,10,64.1,9.9,64.1z M7.6,64.3L7.6,64.3c0.1,0.1,0.3,0.1,0.4,0.1c0.2,0,0.3,0,0.5,0s0.3,0,0.5,0s0.3,0,0.5,0s0.3,0,0.5,0
			s0.3,0,0.4-0.1c-0.5,0-1,0-1.4,0S8.1,64.3,7.6,64.3z M7.6,64.8c0.1,0,0.3,0,0.4,0c0.1,0,0.3,0,0.4-0.1c-0.1,0-0.3,0-0.4,0
			S7.7,64.8,7.6,64.8z M10.1,62.5c-0.2,0-0.4,0-0.6,0s-0.4,0-0.6,0s-0.4,0-0.5,0c-0.2,0-0.4,0-0.6,0c0,0,0,0,0,0.1c0,0,0,0,0,0.1
			c0.2,0,0.5,0,0.7,0c0.2,0,0.4,0,0.6,0c0.2,0,0.4,0,0.6,0c0.2,0,0.4,0,0.7,0c0-0.1-0.1-0.1-0.1-0.1C10.2,62.5,10.1,62.5,10.1,62.5z
			 M7.8,60.9c0.2,0,0.4,0,0.6,0.1c0.2,0,0.4,0,0.6,0c-0.2-0.1-0.2-0.2-0.3-0.2s-0.2,0-0.3,0s-0.2,0-0.3,0S7.9,60.9,7.8,60.9z
			 M7.8,63.4C7.9,63.4,7.9,63.4,7.8,63.4L7.8,63.4C8,63.4,7.9,63.4,7.8,63.4C7.9,63.4,7.9,63.4,7.8,63.4z M7.9,69.8L7.9,69.8
			L7.9,69.8L7.9,69.8C7.9,69.8,7.8,69.8,7.9,69.8z M7.9,69.9L7.9,69.9c0.2,0,0.2,0,0.2-0.1C8.1,69.9,8,69.9,7.9,69.9
			C8,69.9,8,69.9,7.9,69.9z M8.2,68.2c0.1,0,0.1,0,0.1,0h0.1l0,0l0,0c0,0,0,0,0.1,0c0,0,0,0,0.1,0s0.1-0.1,0.2-0.1
			c0.1,0,0.1-0.1,0.1-0.1c-0.1,0.1-0.2,0.1-0.4,0.2C8.4,68.1,8.3,68.1,8.2,68.2z M8.2,68.5c0.2,0,0.5,0,0.7,0s0.4,0,0.7,0
			c0,0,0,0,0-0.1c0,0,0,0,0.1-0.1c-0.1,0-0.3,0-0.4,0s-0.3,0-0.4,0c-0.1,0-0.2,0-0.4,0C8.4,68.3,8.3,68.4,8.2,68.5z M9.6,63.6
			c0.1,0,0.2,0,0.3,0s0.2,0,0.3,0l-0.1-0.1c0,0,0,0-0.1,0S9.7,63.5,9.6,63.6c-0.2-0.1-0.3-0.1-0.5-0.1c-0.1,0-0.3,0-0.4,0
			c-0.1,0-0.3,0-0.5,0c0.2,0,0.4,0.1,0.6,0.1C9.1,63.6,9.3,63.6,9.6,63.6z M9.9,63.7c-0.2,0-0.5-0.1-0.8-0.1s-0.6,0-0.8-0.1
			c0.1,0,0.2,0.1,0.4,0.1c0.1,0,0.3,0,0.4,0c0.1,0,0.3,0,0.4,0C9.7,63.7,9.8,63.7,9.9,63.7z M8.7,64.6C8.7,64.6,8.8,64.6,8.7,64.6
			c0.1,0,0.2,0,0.2,0S8.8,64.6,8.7,64.6L8.7,64.6z M9.4,64.8L9.4,64.8L9.4,64.8c0.1,0,0.1,0,0.2,0c0.1,0,0.1,0,0.2,0
			c0.1,0,0.1,0,0.2,0c0.1,0,0.1,0,0.2,0c0,0,0,0,0.1,0h0.1h0.1l0,0c-0.3,0-0.6,0-0.9,0c-0.3,0-0.6,0-0.8,0.1c0.1,0,0.2,0,0.3,0
			C9.2,64.8,9.3,64.8,9.4,64.8z M8.7,67.9c0.1,0,0.2-0.1,0.2-0.1c0.1-0.1,0.2-0.1,0.3-0.1c0.1-0.1,0.1-0.1,0.2-0.2
			c0.1-0.1,0.1-0.1,0.2-0.2c0.1-0.1,0.1-0.1,0.2-0.2C9.9,67,9.9,67,9.9,66.9c-0.2,0.2-0.4,0.3-0.6,0.5C9.1,67.6,8.9,67.7,8.7,67.9z
			 M8.8,68.3c0.2,0,0.3,0,0.5,0s0.3,0,0.5,0c0,0,0,0,0.1,0c0,0,0,0,0.1,0c-0.1,0-0.2,0-0.3,0s-0.2,0-0.3,0s-0.2,0-0.3,0
			C8.9,68.2,8.8,68.2,8.8,68.3z M9.2,68L9.2,68C9.2,68.1,9.2,68.1,9.2,68C9.2,68.1,9.2,68.1,9.2,68c0.1,0.1,0.1,0.1,0.2,0.1
			c0.1,0,0.1,0,0.2,0c0.1,0,0.1,0,0.2,0c0,0,0-0.1,0.1-0.1H10h0.1l0,0c-0.1,0-0.1,0-0.2,0s-0.2,0-0.2,0c-0.1,0-0.2,0-0.2,0
			S9.3,68,9.2,68z M9.2,67.7c0.1,0,0.1,0,0.1,0v-0.1C9.4,67.6,9.3,67.6,9.2,67.7z M9.5,67.1L9.5,67.1c-0.2,0.1-0.2,0.1-0.2,0.1
			L9.5,67.1C9.4,67.1,9.4,67.1,9.5,67.1z M9.4,62.2c0.1,0,0.1,0,0.2,0c0.1,0,0.1,0,0.2,0c0.1,0,0.1,0,0.2,0c0.1,0,0.1,0,0.1,0l0,0
			c-0.1,0-0.2,0-0.4,0C9.7,62.2,9.5,62.2,9.4,62.2z M9.4,63.8c0.1,0,0.1,0,0.2,0c0.1,0,0.1,0,0.2,0c0.1,0,0.1,0,0.2,0
			c0.1,0,0.1,0,0.2,0c-0.1,0-0.2,0-0.4,0C9.6,63.8,9.5,63.8,9.4,63.8z M9.6,67.8C9.5,67.8,9.5,67.8,9.6,67.8
			c-0.1,0.1-0.1,0.1-0.1,0.1C9.6,67.9,9.6,67.9,9.6,67.8c0.2,0.1,0.3,0.1,0.3,0.1c0.1,0,0.1,0,0.2,0c0.1,0,0.1,0,0.1-0.1
			c-0.1,0-0.2,0-0.3,0C9.8,67.8,9.7,67.8,9.6,67.8z M9.7,68.7L9.7,68.7c0.1-0.1,0.1-0.1,0.1-0.1S9.7,68.6,9.7,68.7
			C9.7,68.7,9.6,68.7,9.7,68.7z M9.7,67.7c0.1,0,0.1,0,0.2,0c0.1,0,0.2,0,0.3,0s0.2,0,0.2,0c0.1,0,0.1-0.1,0.2-0.1
			c-0.1,0-0.2,0-0.3,0s-0.2,0-0.3,0S9.8,67.6,9.7,67.7C9.7,67.6,9.7,67.6,9.7,67.7z M9.9,67.5c0.1,0,0.1,0,0.2,0c0.1,0,0.2,0,0.2,0
			c0.1,0,0.1,0,0.2,0c0.1,0,0.1,0,0.1-0.1c-0.1,0-0.1,0-0.2,0s-0.1,0-0.2,0c-0.1,0-0.1,0-0.2,0C10,67.4,9.9,67.4,9.9,67.5z M10,66.9
			L10,66.9c0.1-0.1,0.1-0.1,0.1-0.1C10,66.8,10,66.8,10,66.9C10,66.9,9.9,66.9,10,66.9z M10.5,67.2h-0.1h-0.1h-0.1
			c0,0-0.1,0-0.1,0.1C10.2,67.3,10.3,67.3,10.5,67.2c0,0.1,0.2,0.1,0.3,0.1c0-0.1-0.1-0.1-0.1-0.1C10.6,67.2,10.6,67.2,10.5,67.2z
			 M10.2,63.6c0.1,0,0.1,0,0.2,0c0.1,0,0.1,0,0.2,0l0,0l0,0h0.1v-0.1c0,0,0,0,0-0.1c-0.1,0-0.1,0-0.2,0
			C10.4,63.6,10.3,63.6,10.2,63.6L10.2,63.6L10.2,63.6z M10.2,63.8c0.1,0,0.1,0,0.2,0c0,0,0.1,0,0.2,0c-0.1,0-0.1,0-0.2,0
			S10.2,63.8,10.2,63.8z M10.2,64L10.2,64c0.1,0.1,0.1,0,0.2,0c0.1,0,0.1,0,0.2,0c0,0,0-0.1-0.1-0.1s-0.1,0-0.1,0
			C10.4,63.9,10.3,64,10.2,64L10.2,64z M10.2,64.1L10.2,64.1c0.1,0.1,0.2,0.1,0.2,0.1c0.1,0,0.2,0,0.2,0c-0.1-0.1-0.1-0.1-0.2,0
			C10.3,64.1,10.3,64.1,10.2,64.1z M10.2,63.4C10.3,63.4,10.3,63.4,10.2,63.4c0.1,0,0.2,0,0.2,0l0,0C10.4,63.4,10.4,63.4,10.2,63.4
			C10.4,63.3,10.4,63.3,10.2,63.4C10.3,63.3,10.3,63.3,10.2,63.4C10.3,63.3,10.3,63.3,10.2,63.4L10.2,63.4z M10.3,63.2h0.2v-0.1
			L10.3,63.2C10.4,63.1,10.3,63.1,10.3,63.2C10.3,63.1,10.3,63.1,10.3,63.2z M11,67.5c-0.1,0.1-0.1,0.1-0.2,0.2
			c0,0.1-0.1,0.1-0.1,0.2c-0.2,0.1-0.3,0.2-0.4,0.4c0.1-0.1,0.3-0.2,0.4-0.3C10.8,67.8,10.9,67.7,11,67.5L11,67.5L11,67.5z
			 M10.5,66.8l0.1,0.1c0,0,0.1,0.1,0.2,0c0-0.1-0.1-0.1-0.1-0.1H10.5C10.6,66.7,10.6,66.7,10.5,66.8C10.5,66.7,10.5,66.7,10.5,66.8z
			 M10.6,65.3L10.6,65.3C10.7,65.3,10.7,65.3,10.6,65.3v0.4c0,0,0,0,0-0.1v-0.1C10.6,65.5,10.6,65.4,10.6,65.3L10.6,65.3z
			 M10.8,67.1C10.8,67,10.8,67,10.8,67.1c-0.1,0-0.1,0-0.1-0.1C10.7,67,10.7,67,10.8,67.1C10.8,67,10.8,67,10.8,67.1z"/>
		<path d="M17.7,60.1c0.1,0,0.2,0,0.3,0c0.1,0,0.2,0,0.3-0.1c0.1,0,0.2-0.1,0.4-0.1c0.1,0,0.3-0.1,0.4-0.1c0-0.1,0-0.2,0-0.3
			s0-0.2,0-0.3h0.1l0,0c0,0.1,0,0.2,0,0.3s0,0.2,0,0.3c0.3,0,0.6,0,0.8,0.1c0.2,0,0.5,0.1,0.7,0.1l0,0l0,0c0,0,0,0,0.1,0l0,0h0.1H21
			h0.1l0.1,0.1h-0.1H21l0,0c0,0,0,0,0.1,0c0,0.1,0.1,0.1,0.1,0.1h0.1c0.1,0.1,0.3,0.2,0.4,0.3s0.2,0.2,0.3,0.4h0.1h0.1V61
			c0,0,0,0,0,0.1c0.1,0,0.1,0,0.1,0.1l0.1,0.1c0-0.2,0-0.3,0-0.5c0-0.2,0-0.4,0-0.6h0.1c0,0,0,0,0,0.1v0.1v0.1l0,0l0,0
			c0,0.3,0,0.5,0,0.7c0,0.2,0,0.4,0.1,0.6c0,0-0.1,0.1-0.1,0.2l0,0l0,0v0.1v0.1c0,0.3,0,0.6,0,0.9c0,0.3,0,0.6,0,0.9s0,0.5,0,0.8
			c0,0.3,0,0.6,0,0.9l0,0c0,0,0,0,0,0.1l0,0c0,0,0,0,0,0.1c0,0.3,0,0.7,0,0.9c0,0.3,0,0.6,0,0.9h0.1c0,0,0.1,0,0,0.1c0,0,0,0-0.1,0
			h-0.1c0,0.1,0,0.1,0,0.2c0,0,0,0.1,0,0.2c0.2,0,0.3,0,0.5,0.1c0.2,0,0.3,0.1,0.5,0.1c0,0,0.1,0,0.1-0.1v-0.1h0.1c0,0,0,0,0.1,0
			c0,0,0,0,0,0.1s0,0,0,0.1c0.1,0,0.1,0,0.2,0.1c0.1,0,0.1,0,0.2,0h0.1h0.1h0.1c0,0,0.1,0,0.1,0.1c0,0,0,0-0.1,0h-0.1h-0.1h-0.1
			c0,0,0,0,0,0.1v0.1c-0.1,0-0.1,0-0.2,0c0,0-0.1,0-0.2,0l0,0c0,0,0,0,0,0.1c0,0,0,0,0,0.1c0,0,0,0-0.1,0v0.1l0,0c0,0,0,0,0.1,0h0.1
			c0.1,0,0.1,0.1,0.2,0.1s0.2,0,0.2,0v0.1c0,0,0,0.1-0.1,0.1c0,0,0,0-0.1,0v0.1c0,0,0,0,0,0.1c-0.1,0-0.1,0-0.2,0s-0.1,0-0.2,0
			s-0.1,0-0.2,0s-0.1,0-0.2,0l0,0l0,0c0,0.1,0,0.1,0,0.2c0,0.1,0,0.2,0,0.2s0,0-0.1,0l0,0v-0.1c0-0.1,0-0.1,0-0.2H23
			c-0.1,0-0.1,0-0.1,0H23h0.1v-0.1l0,0c-0.2,0-0.3,0-0.5,0s-0.3,0-0.5,0v0.1c0.1,0,0.2,0,0.4,0c0.1,0,0.3,0,0.4,0
			c-0.1,0-0.2,0-0.3,0c-0.1,0-0.3,0-0.4,0c0,0.1,0,0.3,0,0.4s0,0.3,0,0.4c0-0.1-0.1-0.3-0.1-0.4c0-0.2,0-0.3,0-0.4
			c-0.1,0-0.2,0-0.3,0c-0.1,0-0.2,0-0.3,0c0.1,0,0.2,0,0.3,0c0.1,0,0.2,0,0.3,0v-0.1c-0.2-0.1-0.3-0.1-0.5-0.1s-0.4,0-0.6,0
			c0,0,0,0,0.1,0c0,0,0,0,0.1,0l0,0l0,0c0.1,0,0.1,0,0.2,0c0,0,0.1,0,0.2,0h-0.1c-0.1,0-0.1,0-0.2,0s-0.1,0-0.2,0s-0.1,0-0.1,0l0,0
			c0,0,0,0,0,0.1l0,0l0,0c-0.2,0-0.5,0-0.7,0c-0.3,0-0.5,0-0.7-0.1c0.1,0,0.2,0,0.4,0c0.1,0,0.3,0,0.4,0s0.3,0,0.4,0s0.3,0,0.4,0
			c-0.1,0-0.2,0-0.3,0c-0.1,0-0.3,0-0.4,0s-0.3,0-0.4,0s-0.3,0-0.4,0s-0.1,0-0.2,0s-0.1,0-0.2-0.1c-0.2,0-0.4,0-0.6,0s-0.3,0-0.6,0
			c0,0.1,0,0.2,0,0.3s0,0.1,0,0.2l0,0v-0.1c0-0.1,0-0.1,0-0.1s0-0.1,0-0.2c0,0,0,0,0,0.1v0.1l0,0l0,0c-0.1,0-0.1,0-0.1-0.1v-0.1l0,0
			l0,0l0,0c-0.1,0-0.2,0-0.3,0c-0.1,0-0.2,0-0.3,0l0,0l0,0c0.1,0.1,0.1,0.1,0.2,0c0.1,0,0.2,0,0.2,0c0,0.1-0.1,0.1-0.1,0.1
			s-0.1,0-0.2,0c-0.2,0-0.3,0-0.5,0s-0.3,0-0.5,0l0,0l0,0c-0.1,0-0.2,0-0.3,0c-0.1,0-0.2,0-0.3,0c0,0.1,0,0.1,0,0.2
			c0,0.1,0,0.1,0,0.2c0,0.1,0,0.1,0,0.2c0,0.1,0,0.1,0,0.1c-0.1-0.1-0.1-0.2-0.1-0.3s0-0.2,0-0.3c-0.1,0-0.2,0-0.2,0
			c-0.1,0-0.1,0-0.2,0c0,0,0-0.1,0.1,0c0.1,0,0.1,0,0.1,0c-0.2,0-0.4,0-0.6-0.1c-0.2,0-0.4,0-0.7,0c-0.2,0-0.5,0-0.7,0s-0.5,0-0.7,0
			c0,0,0,0,0,0.1v0.1c-0.1,0-0.1,0-0.1,0v-0.1h-0.7c-0.1,0-0.2,0-0.2,0c-0.1,0-0.1,0-0.2,0.1l0,0c0,0,0,0,0-0.1c0,0,0,0-0.1,0
			c0,0,0,0-0.1,0c-0.1-0.1-0.2-0.1-0.1-0.2c0-0.1,0.1-0.1,0.3-0.1c0-0.1,0-0.2-0.1-0.2c0,0-0.1,0-0.2,0c-0.1,0-0.1,0-0.1-0.1
			c0,0,0.1,0,0.1-0.1c0,0,0.1,0,0.1-0.1l0.1-0.1c0-0.1,0-0.1,0-0.2c0.1,0,0.1,0.1,0.1,0.1l0.1,0.1c0.1-0.1,0.3-0.1,0.4-0.1
			c0.2,0,0.3-0.1,0.4-0.1v-0.1c0,0,0,0,0-0.1c0.1,0,0.1-0.1,0.1-0.1c0-0.1,0-0.1,0-0.2c0-0.1,0-0.1,0.1-0.1v-0.1l0,0l0,0
			c0.1-0.1,0.1-0.1,0.1-0.2s0-0.1-0.1-0.2c0,0,0,0,0.1,0s0,0,0.1,0c0-0.1,0-0.1,0-0.2c0,0,0-0.1,0-0.2V67l0,0c0-0.3,0-0.6,0-0.8
			c0-0.2,0-0.5,0-0.8l0,0l0,0c0-0.1,0-0.1,0.1-0.1V65H13h-0.1c0-0.1,0-0.1,0-0.1H13c0-0.1,0-0.1,0-0.2c0-0.1,0-0.1,0-0.2
			c0,0,0,0-0.1,0c0,0-0.1,0,0,0v-0.1c0,0,0,0,0.1,0l0,0l0,0v-0.1l0,0c0-0.3,0-0.7,0-1c0-0.3,0-0.6-0.1-1c-0.1,0-0.1,0.1-0.1,0.1
			c0,0.1-0.1,0.1-0.1,0.2c0,0.1,0,0.1-0.1,0.2c0,0.1,0,0.1-0.1,0.2l0,0l0,0c0-0.1,0-0.2,0.1-0.3c0-0.1,0.1-0.2,0.1-0.3
			s0.1-0.2,0.1-0.3s0-0.2,0-0.3c0.1,0,0.1,0,0.1,0l0,0c0,0.2,0,0.4,0,0.6s0,0.4,0.1,0.5c0-0.1,0-0.2,0-0.4c0-0.1,0-0.3,0-0.4
			c0-0.1,0-0.2-0.1-0.4c0-0.1-0.1-0.2-0.2-0.2h-0.1h-0.1c-0.1,0-0.3-0.1-0.4-0.1c-0.2,0-0.3-0.1-0.4-0.1c0,0,0,0,0,0.1v0.1
			c-0.1,0-0.1-0.1-0.1-0.1c0-0.1,0-0.1,0-0.2c0-0.1,0-0.1,0-0.2c0-0.1,0-0.1,0-0.2l-0.1-0.1v-0.1c0,0,0,0-0.1,0h-0.1h-0.1
			c0,0,0,0,0-0.1c0.1,0,0.1,0,0.2,0c0.1,0,0.1,0,0.2,0v-0.1c0,0,0,0,0-0.1c0.1,0,0.2,0,0.4,0v-0.1v-0.1c0,0,0,0,0,0.1c0,0,0,0,0,0.1
			c0.1,0,0.1,0,0.2,0c0.1,0,0.2,0,0.2,0c0.1,0,0.2,0,0.3-0.1c0.1,0,0.2,0,0.4,0c0,0,0,0,0-0.1l0,0l0,0l0,0c0.1,0,0.1,0,0.1,0
			s0,0,0,0.1c0-0.2,0-0.3,0-0.5c0-0.1,0-0.3,0-0.5c0.1,0,0.1,0.1,0.1,0.1c0,0.1,0,0.1,0,0.2c0,0.1,0,0.1,0,0.2s0,0.1,0,0.2
			c0,0,0.1,0,0.1,0.1v0.1c0.1,0,0.1,0,0.2,0c0.1,0,0.2,0,0.2,0c0.2,0,0.4-0.1,0.6-0.1c0.2,0,0.4,0,0.5,0c0,0,0,0,0.1,0l0,0
			c0.1,0,0.2,0,0.2,0c0.1,0,0.2-0.1,0.2-0.1h0.1h0.1h0.1c0,0,0.1,0,0.1,0.1c-0.2,0-0.4,0-0.6,0.1c-0.2,0-0.3,0.1-0.5,0.1
			c0.2,0,0.4,0,0.6,0c0.2,0,0.5,0,0.7,0c0-0.1,0-0.1,0-0.2c0-0.1,0-0.1,0-0.2h0.1h0.1v0.1l0,0v-0.1v-0.1c0,0,0,0,0-0.1
			c0,0.1,0,0.2,0.1,0.2c0,0.1,0,0.2,0.1,0.3c0.1,0,0.2,0,0.2,0c0.1,0,0.1,0,0.2,0c0,0,0,0.1-0.1,0.1s-0.1,0-0.1,0h-0.1
			c0,0-0.1,0-0.1,0.1v0.6c-0.4-0.1-0.3-0.1-0.2-0.2c0.1-0.1,0.2-0.1,0.3-0.1c0.1,0,0.2-0.1,0.4-0.1c0.1,0,0.2-0.1,0.4-0.1l0,0
			c0,0,0,0,0-0.1c0.1,0,0.1-0.1,0.2-0.1C17.5,60.2,17.6,60.1,17.7,60.1c0-0.1,0.1-0.1,0.2-0.2c0,0,0,0,0,0.1c0,0,0,0-0.1,0
			C17.8,60.1,17.8,60.1,17.7,60.1L17.7,60.1z M11,60.3C10.9,60.3,11,60.3,11,60.3c0.1,0,0.1,0,0.1,0H11L11,60.3L11,60.3z M11.1,61
			L11.1,61C11.2,61,11.2,61,11.1,61c0.1,0,0.1,0,0.1-0.1s-0.1-0.1-0.1-0.1V61C11.1,60.9,11.1,61,11.1,61z M12.5,60.1
			c-0.2,0-0.4,0-0.7,0c-0.2,0-0.4,0-0.6,0.1c0,0,0,0,0.1,0h0.1h0.1c0,0,0,0,0,0.1h0.1l0,0c0,0,0,0-0.1,0c0.1,0,0.1,0,0.2,0
			c0.1,0,0.2,0,0.2,0c0.1,0,0.1,0,0.2,0c0.1,0,0.1,0,0.1,0l0,0l0,0c0,0,0,0-0.1,0H12c0.1,0,0.2,0,0.2,0
			C12.4,60.2,12.4,60.2,12.5,60.1C12.4,60.2,12.4,60.2,12.5,60.1c-0.1,0.1-0.1,0.1-0.1,0.1S12.4,60.2,12.5,60.1L12.5,60.1
			C12.4,60.2,12.4,60.2,12.5,60.1C12.4,60.2,12.4,60.1,12.5,60.1z M11.8,69.9c0.1,0,0.3-0.1,0.5-0.1s0.4,0,0.5-0.1
			c-0.2,0-0.4,0.1-0.6,0.1c-0.2,0-0.4,0.1-0.6,0.1c-0.1,0-0.1,0-0.2,0c-0.1,0-0.1,0-0.2-0.1c0.1-0.1,0.2-0.1,0.3-0.1
			C11.6,69.9,11.7,69.9,11.8,69.9L11.8,69.9L11.8,69.9z M11.5,60.5h-0.1c-0.1,0-0.1,0-0.1,0.1c0.1,0,0.3,0,0.5,0s0.4,0,0.6,0
			c0-0.1,0-0.1,0-0.1v-0.1c-0.2,0-0.3,0-0.5,0C11.8,60.5,11.6,60.5,11.5,60.5z M11.3,60.3C11.3,60.3,11.3,60.4,11.3,60.3
			c0.1,0,0.2,0,0.2,0C11.4,60.3,11.4,60.3,11.3,60.3C11.4,60.3,11.3,60.3,11.3,60.3L11.3,60.3L11.3,60.3z M12.3,60.8
			c-0.1,0-0.3,0-0.5,0s-0.4,0-0.5,0.1l0,0c0,0,0,0,0,0.1c0.2,0,0.3,0,0.5,0s0.4,0,0.6,0C12.4,60.9,12.4,60.8,12.3,60.8
			C12.3,60.9,12.3,60.9,12.3,60.8C12.3,60.9,12.3,60.8,12.3,60.8z M12.2,69C12.1,69,12.1,69,12.2,69C12.1,69,12.1,68.9,12.2,69
			c-0.2-0.1-0.3-0.1-0.4,0c-0.1,0-0.2,0-0.3,0.1v0.1c0,0.1,0,0.1,0,0.1c0.2,0,0.3,0,0.5,0s0.4,0,0.5,0v-0.1c-0.1,0-0.1,0-0.2,0
			c-0.1,0-0.2,0-0.2,0c-0.1,0-0.1,0-0.2,0s-0.1,0-0.2-0.1c0-0.1,0.1-0.1,0.2-0.1S12.1,69,12.2,69C12.1,69.1,12.2,69.1,12.2,69
			c0.2,0.1,0.3,0.1,0.3,0.1s0,0,0-0.1v-0.1c-0.1,0-0.1,0-0.2,0C12.2,69,12.2,69,12.2,69z M11.5,61.1c0.2,0,0.3,0,0.5,0s0.3,0,0.5,0
			V61v-0.1c-0.1,0-0.2,0-0.2,0c-0.1,0-0.2,0-0.2,0c-0.1,0-0.2,0-0.2,0L11.5,61.1z M12.2,61.4c-0.1,0-0.2,0-0.2,0c-0.1,0-0.1,0-0.2,0
			c0.1,0,0.1,0,0.2,0.1C12,61.4,12.1,61.4,12.2,61.4z M12.4,60.7C12.4,60.8,12.3,60.8,12.4,60.7c-0.1,0-0.1,0-0.1,0
			C12.2,60.8,12.3,60.8,12.4,60.7C12.4,60.8,12.4,60.8,12.4,60.7z M13.2,68.4c-0.1,0-0.1,0-0.2,0c-0.1,0-0.1,0-0.2,0
			c-0.1,0-0.1,0-0.1,0s-0.1,0-0.1,0.1c0.1,0,0.2,0,0.3,0C13,68.4,13.1,68.4,13.2,68.4c0,0,0.1,0,0.2,0s0.2,0,0.2,0H13.2z M14,69
			c-0.2,0-0.5,0-0.7-0.1c-0.2,0-0.5,0-0.7-0.1V69c0.3,0,0.5,0,0.7,0C13.6,69.1,13.8,69.1,14,69c0.2,0.1,0.4,0.1,0.6,0.1
			c0.2,0,0.4,0,0.7,0c-0.2,0-0.4-0.1-0.6,0C14.4,69,14.2,69,14,69z M14.9,69.2c-0.1,0-0.2,0-0.3,0s-0.3,0-0.4,0c-0.2,0-0.4,0-0.6,0
			s-0.4,0-0.6,0c-0.1,0-0.1,0-0.2,0c-0.1,0-0.1,0-0.1,0.1c0.4,0,0.7,0,1,0s0.7,0,1,0.1c-0.1,0-0.1,0-0.1,0c0.1,0,0.1,0,0.2,0
			c0.1,0,0.1,0,0.2,0c0,0,0-0.1,0.1-0.1h0.1h0.1c0,0,0.1,0,0.1-0.1v-0.1h-0.1h-0.1C15,69.2,14.9,69.2,14.9,69.2z M13.5,61
			c-0.1,0-0.3,0-0.4,0c-0.2,0-0.3,0-0.4,0.1c0.3,0.1,0.6,0.1,1,0.1c0.3,0,0.7,0,1,0c0.1,0,0.2,0,0.3,0s0.2,0,0.3,0h0.1h0.1
			c0,0,0,0.1-0.1,0.1h-0.1h-0.1h-0.1c-0.1,0-0.3,0-0.5,0s-0.3,0-0.5,0H14c0,0-0.1,0-0.1-0.1c-0.1,0-0.2,0-0.2,0c-0.1,0-0.2,0-0.2,0
			c-0.1,0-0.2,0-0.2,0h-0.2c0.1,0.1,0.2,0.1,0.3,0.1s0.3,0,0.4,0c0.3,0,0.6,0,1,0c0.3,0,0.6,0,0.9,0v-0.1c0-0.1,0-0.1,0-0.1
			c-0.4,0-0.7,0-1.1,0.1C14.2,61.1,13.8,61.1,13.5,61z M15.1,64h-1.4c-0.2,0-0.3,0-0.5,0s-0.3,0.1-0.5,0.1c0.2,0,0.5,0,0.7,0
			s0.5,0,0.7,0s0.5,0,0.7,0s0.4,0,0.6,0c0-0.1,0-0.1,0-0.1h-0.1C15.2,64,15.2,64,15.1,64L15.1,64z M15.1,64.3c-0.2,0-0.4,0-0.6,0
			s-0.4,0-0.6,0c-0.2,0-0.4,0-0.6,0s-0.4,0-0.6,0v0.2c0.2,0,0.4,0,0.6,0c0.2,0,0.4,0,0.6,0c0.2,0,0.4,0,0.6,0c0.2,0,0.4,0,0.6,0h0.1
			c0.1,0,0.1,0,0.1-0.1c0,0,0-0.1-0.1-0.1C15.2,64.3,15.2,64.3,15.1,64.3C15.2,64.3,15.2,64.3,15.1,64.3L15.1,64.3z M14.7,67.2
			c-0.3,0-0.6,0-0.9,0c-0.3,0-0.6,0-0.9,0c-0.1,0-0.1,0-0.2,0c-0.1,0-0.1,0-0.2,0.1c0.2,0,0.3,0,0.5,0s0.3,0,0.5,0s0.3,0,0.5,0
			s0.3,0,0.5,0L14.7,67.2c0,0.1,0,0.1,0.1,0.1s0.1,0,0.2,0c0.1,0,0.1,0,0.1-0.1c-0.1-0.1-0.2-0.1-0.3-0.1
			C14.9,67.2,14.8,67.2,14.7,67.2z M12.7,67.5c0.4,0,0.9,0,1.2,0.1c0.4,0,0.8,0.1,1.2,0h0.1c0,0,0.1,0,0.1-0.1l0,0
			c-0.2,0-0.4,0-0.6,0c-0.2,0-0.4,0-0.7,0c-0.2,0-0.5,0-0.7,0S12.8,67.5,12.7,67.5z M13.9,67.6c-0.2,0-0.4,0-0.5,0s-0.1,0-0.2,0
			c-0.1,0-0.1,0-0.2,0c-0.1,0-0.1,0-0.2,0c-0.1,0-0.1,0-0.1,0.1c0.2,0,0.4,0,0.6,0C13.5,67.7,13.7,67.7,13.9,67.6
			c0.3,0.1,0.5,0.1,0.7,0.1s0.4,0,0.6,0c-0.2,0-0.4-0.1-0.6-0.1C14.4,67.6,14.1,67.6,13.9,67.6z M12.7,67.9L12.7,67.9L12.7,67.9
			C12.7,67.9,12.7,68,12.7,67.9C12.8,68,13,68,13.3,68c0.2,0,0.5,0,0.7,0s0.5,0,0.7,0s0.4,0,0.5,0c-0.2,0-0.4,0-0.6,0
			c-0.2,0-0.4,0-0.6,0c-0.2,0-0.4,0-0.6,0C13.2,67.9,13,67.9,12.7,67.9z M12.7,68.1L12.7,68.1c0,0.1,0,0.1,0,0.2c0.2,0,0.4,0,0.7,0
			c0.2,0,0.4,0,0.6,0c0.2,0,0.4,0,0.6,0c0.2,0,0.4,0,0.7,0v-0.2c-0.2,0-0.5,0-0.7,0s-0.4,0-0.6,0s-0.4,0-0.6,0
			C13.1,68.1,12.9,68.1,12.7,68.1z M12.7,65.5c0.4,0,0.8,0,1.2,0s0.8,0,1.2,0c0.1,0,0.1,0,0.2,0c0.1,0,0.1,0,0.1-0.1l-0.1-0.1
			c-0.1,0-0.1,0-0.1,0c-0.4,0-0.8,0-1.2,0s-0.8,0-1.2,0v-0.1l0,0h-0.1c0,0,0,0,0,0.1C12.7,65.4,12.7,65.4,12.7,65.5L12.7,65.5z
			 M12.7,61c0.4,0,0.8,0,1.2,0s0.7,0,1.1,0h0.1h0.1c-0.2,0-0.3,0-0.5,0c-0.1,0-0.3,0-0.4,0l0,0l0,0c-0.2,0-0.5,0-0.7,0
			C13.3,60.9,13,60.9,12.7,61L12.7,61C12.7,60.9,12.7,60.9,12.7,61L12.7,61z M15.2,65.1c-0.1,0-0.3,0-0.4,0c-0.1,0-0.2,0-0.4,0
			s-0.5,0-0.8,0s-0.6,0-0.8,0h-0.1c0,0,0,0-0.1,0c0,0,0,0,0,0.1c0.4,0,0.7,0,1.1,0s0.7,0,1,0c0.1,0,0.2,0,0.3,0S15.2,65.2,15.2,65.1
			s0-0.1-0.1-0.1C15.2,65.1,15.2,65.1,15.2,65.1z M13.9,65.9c-0.2,0-0.4,0-0.5,0c-0.2,0-0.4,0-0.5,0h-0.1c-0.1,0-0.1,0-0.1,0.1
			c0.1,0,0.1,0,0.2,0c0.1,0,0.2,0,0.3,0s0.2,0,0.3,0s0.1,0,0.2,0.1c0.1,0,0.2,0,0.4,0c0.1,0,0.3,0,0.4,0H15c0.1,0,0.2,0,0.2,0.1
			c0.1,0,0.1,0,0.2-0.1c-0.2,0-0.4-0.1-0.7-0.1C14.4,65.9,14.2,65.9,13.9,65.9z M13.1,67H13h-0.1h-0.1v0.1c0.2,0,0.3,0,0.5,0
			s0.4,0,0.6,0c0.2,0,0.4,0,0.6,0s0.4,0,0.5,0h0.1c0,0,0.1,0,0.1-0.1c-0.4-0.1-0.7-0.1-1.1-0.1C13.8,67,13.4,67,13.1,67z M13.1,60.4
			C13.1,60.4,13,60.5,13.1,60.4c-0.1,0-0.1,0-0.2,0h-0.1h-0.1v0.1v0.1c0.2,0,0.4,0,0.7,0c0.2,0,0.5,0,0.7,0s0.5,0,0.7,0
			s0.4,0,0.6-0.1c-0.3,0-0.6,0-0.8,0s-0.6,0-0.9,0h-0.1h-0.1h-0.1c0,0-0.1,0-0.1-0.1c0.3,0,0.6,0,0.9,0c0.3,0,0.7,0,1.1,0
			c0.1,0,0.1,0,0.2,0c0.1,0,0.1,0,0.2-0.1c-0.4,0-0.8,0-1.2,0C13.9,60.4,13.5,60.4,13.1,60.4z M15.5,60.7c-0.2,0-0.5,0.1-0.7,0.1
			c-0.3,0-0.5,0-0.8,0s-0.5,0-0.7,0s-0.4,0-0.6,0c0.1,0,0.1,0.1,0.2,0.1c0.1,0,0.1,0,0.2,0c0.1,0,0.2,0,0.4,0s0.2,0,0.4,0.1
			c0.2,0,0.4,0,0.6,0c0.2,0,0.4,0,0.6,0C15.2,60.9,15.4,60.8,15.5,60.7C15.6,60.8,15.5,60.7,15.5,60.7L15.5,60.7z M12.7,64L12.7,64
			c0.1,0,0.1,0,0.1,0S12.8,64,12.7,64L12.7,64z M14.7,64.6c-0.1,0-0.1,0-0.2,0s-0.1,0-0.2,0c-0.2,0-0.5,0-0.8,0s-0.6,0-0.8,0.1
			c0,0,0,0.1,0.1,0.1h0.1H13h0.1c0.4,0,0.7,0,1.1,0c0.4,0,0.8,0,1.2,0h-0.1c-0.1,0-0.1,0-0.2,0c-0.1,0-0.1,0-0.2,0
			C14.7,64.7,14.7,64.7,14.7,64.6z M15.1,65.6c-0.2,0-0.3,0-0.5,0s-0.4,0-0.6,0c-0.2,0-0.4,0-0.5,0s-0.3,0-0.5,0c-0.1,0-0.1,0-0.2,0
			c-0.1,0-0.1,0-0.1,0.1c0.2,0,0.3,0,0.5,0s0.4,0,0.6,0c0.2,0,0.4,0,0.6,0C14.6,65.7,14.8,65.7,15.1,65.6L15.1,65.6l0.1,0.1
			C15.2,65.6,15.2,65.6,15.1,65.6C15.2,65.6,15.1,65.6,15.1,65.6z M15.1,66.3c-0.4,0-0.8,0-1.3,0c-0.4,0-0.8,0-1.2,0l0,0l0,0
			c0.1,0,0.1,0,0.2,0c0.1,0,0.2,0,0.3,0c0.3,0,0.6,0,1,0C14.5,66.5,14.8,66.5,15.1,66.3c0.1,0.1,0.1,0.1,0.2,0.1
			c0.1,0,0.1,0,0.1-0.1h-0.1C15.2,66.3,15.2,66.3,15.1,66.3z M14.3,66.5c-0.1,0-0.2,0-0.4,0c-0.1,0-0.3,0-0.4,0c-0.1,0-0.3,0-0.4,0
			c-0.1,0-0.3,0-0.4,0v0.1c0.2,0,0.4,0,0.6,0c0.2,0,0.4,0,0.7,0c0.2,0,0.5,0,0.7,0s0.5,0,0.7,0c-0.1,0-0.2-0.1-0.3-0.1s-0.2,0-0.3,0
			s-0.2,0-0.3,0C14.4,66.5,14.3,66.5,14.3,66.5z M12.7,66.8L12.7,66.8L12.7,66.8c0.2,0.1,0.4,0.1,0.6,0.1c0.2,0,0.4,0,0.7,0
			c0.1,0,0.2,0,0.4,0c0.1,0,0.3,0,0.4,0c0.1,0,0.3,0,0.4,0c0.1,0,0.2,0,0.3-0.1c-0.5,0-0.9,0-1.4,0C13.6,66.8,13.1,66.8,12.7,66.8z
			 M12.7,60.2c0.1,0,0.2,0,0.4,0c0.1,0,0.3,0,0.4,0c0.1,0,0.3,0,0.4,0c0.1,0,0.2,0,0.4-0.1c-0.2,0-0.5,0-0.7,0s-0.4,0-0.7,0l0,0l0,0
			C12.8,60.1,12.8,60.1,12.7,60.2C12.8,60.1,12.8,60.1,12.7,60.2C12.8,60.1,12.8,60.1,12.7,60.2L12.7,60.2z M12.7,63.4L12.7,63.4
			c0.3,0.1,0.5,0.1,0.8,0.1c0.2,0,0.5,0,0.8,0c0.1,0,0.3,0,0.5,0s0.4,0,0.5,0h0.1c0,0,0.1,0,0.1-0.1c-0.4,0-0.9-0.1-1.3-0.1
			C13.7,63.4,13.2,63.4,12.7,63.4z M12.7,63.7c0.2,0,0.4,0,0.6,0c0.2,0,0.4,0,0.6,0c0.2,0,0.4,0,0.6,0c0.2,0,0.4,0,0.5,0
			s0.1,0,0.2,0c0.1,0,0.1,0,0.1,0v0.1c0,0,0,0-0.1,0s-0.1,0-0.1,0H15c-0.1,0-0.1,0-0.1,0h-0.1c-0.1,0-0.2,0-0.4,0
			c-0.1,0-0.3,0-0.4,0c-0.2,0-0.3,0-0.4,0c-0.1,0-0.3,0-0.4,0c-0.1,0-0.2,0-0.2,0c-0.1,0-0.1,0-0.2,0.1c0.5,0,0.9,0,1.4,0.1
			c0.4,0,0.9,0,1.3,0v-0.1c0-0.1,0-0.1,0-0.1c-0.2,0-0.5,0-0.7,0s-0.4,0-0.7,0c-0.2,0-0.4,0-0.7,0C13.2,63.7,13,63.7,12.7,63.7z
			 M15.1,64.8c-0.1,0-0.3,0-0.5,0s-0.3,0-0.5,0s-0.3,0-0.5,0s-0.3,0-0.5,0h-0.2c0,0,0,0-0.1,0c0,0-0.1,0-0.1,0.1c0,0,0,0,0.1,0
			s0.1,0,0.1,0l0,0l0,0c0.5,0,0.9,0,1.3,0c0.4,0,0.8,0,1.1,0C15.3,64.9,15.2,64.9,15.1,64.8C15.2,64.8,15.2,64.8,15.1,64.8z
			 M12.7,68.5c0.2,0,0.4,0,0.6,0c0.2,0,0.4,0,0.6,0c0.2,0,0.4,0,0.6,0c0.2,0,0.4,0,0.6,0l0,0l0,0c-0.4,0-0.8-0.1-1.1-0.1
			C13.5,68.5,13.1,68.5,12.7,68.5z M14.9,68.8c-0.1,0-0.1,0-0.2,0c-0.1,0-0.1,0-0.2,0c-0.1,0-0.3,0-0.4,0c-0.2,0-0.3,0-0.5,0
			s-0.3,0-0.5,0s-0.3,0-0.4,0.1c0.4,0,0.8,0,1.3,0.1c0.4,0,0.8,0,1.2,0h0.1h0.1c0-0.1-0.1-0.1-0.2-0.1C15.1,68.8,15,68.8,14.9,68.8z
			 M15,63.1C14.9,63.1,14.9,63.1,15,63.1C14.9,63,14.9,63,15,63.1C14.7,63,14.5,63,14.4,63c-0.2,0-0.3,0-0.5,0s-0.3,0-0.5,0
			s-0.4,0-0.6,0v0.1c0,0,0,0,0,0.1c0.2,0,0.3,0,0.5,0s0.4,0,0.6,0c0.2,0,0.4,0,0.6,0C14.6,63.2,14.8,63.2,15,63.1
			C15,63.2,15,63.1,15,63.1c0.1,0,0.2,0,0.2,0h0.1c0,0,0.1,0,0.1-0.1c-0.1-0.1-0.2-0.1-0.3,0C15.1,63.1,15,63.1,15,63.1z M12.8,62.1
			v0.7c0.3,0,0.6-0.1,0.8-0.1c0.3,0,0.6,0,0.8,0c-0.3,0-0.5,0-0.8,0c-0.2,0-0.5,0-0.8,0v-0.1c0,0,0,0,0-0.1c0.1-0.1,0.2-0.1,0.2-0.1
			c0.1,0,0.2,0,0.2,0c0.3,0,0.5,0,0.8-0.1c0.3,0,0.5,0,0.8-0.1c-0.2,0-0.4,0-0.6,0s-0.4,0-0.6-0.1c-0.1,0-0.2,0-0.3,0s-0.2,0-0.3,0
			L12.8,62.1C12.9,62.1,12.9,62.1,12.8,62.1c0,0,0,0-0.1,0c0,0,0,0,0-0.1c0.2,0,0.4,0,0.6,0c0.2,0,0.4,0,0.7,0c0.2,0,0.4,0,0.6,0
			c0.2,0,0.4,0,0.5,0h0.1h0.1h0.1v-0.1c-0.5,0-1,0-1.4-0.1C13.7,62,13.2,62.1,12.8,62.1z M12.8,66.1c0.3,0,0.6,0,0.9,0
			c0.3,0,0.6,0,0.9,0c-0.3,0-0.6,0-0.9-0.1C13.4,66.1,13.1,66.1,12.8,66.1z M12.9,69.8L12.9,69.8C12.8,69.8,12.8,69.8,12.9,69.8
			L12.9,69.8z M14.8,61.7c-0.1,0-0.2,0-0.3,0s-0.2,0-0.3,0c-0.2,0-0.4,0-0.7,0c-0.2,0-0.4,0-0.6,0c-0.1,0-0.1,0-0.1,0v0.1
			c0.4,0,0.7,0,1,0S14.5,61.8,14.8,61.7c0.1,0.1,0.1,0.1,0.2,0.1c0.1,0,0.1,0,0.2,0c0.1,0,0.1,0,0.1,0s0.1,0,0.1-0.1
			c-0.1,0-0.2-0.1-0.3-0.1C15,61.7,14.9,61.7,14.8,61.7z M15.5,62h-0.3c-0.1,0-0.3,0-0.4,0s-0.2,0-0.3,0s-0.2,0-0.4,0
			c-0.1,0-0.2,0-0.4,0c-0.1,0-0.3,0-0.5,0s-0.3,0-0.5,0c0.2,0,0.5,0,0.7,0s0.5,0,0.7,0s0.5,0,0.7,0S15.2,62,15.5,62L15.5,62L15.5,62
			C15.6,62,15.5,62,15.5,62L15.5,62z M12.8,65.3c0.3,0,0.6,0,0.9,0c0.3,0,0.6,0,1,0c0.1,0,0.2,0,0.3,0s0.2,0,0.3-0.1
			c-0.2,0-0.4,0-0.6,0c-0.2,0-0.4,0-0.7,0c-0.2,0-0.4,0-0.6,0C13.2,65.2,13,65.2,12.8,65.3z M12.9,66.2L12.9,66.2c0.1,0,0.2,0,0.2,0
			C13,66.2,13,66.2,12.9,66.2L12.9,66.2z M12.9,67.8c0.2,0,0.4,0,0.6,0c0.2,0,0.4,0,0.6,0s0.4,0,0.6,0c0.2,0,0.4,0,0.6,0
			c-0.2,0-0.4,0-0.6,0s-0.4,0-0.6,0s-0.4,0-0.6,0C13.2,67.8,13,67.8,12.9,67.8z M14,69.7c-0.1,0-0.1,0-0.2,0.1c-0.1,0-0.2,0-0.3,0
			s-0.2,0-0.3,0s-0.2,0-0.3,0c0.2,0,0.4,0,0.6-0.1S13.8,69.7,14,69.7z M13,62.9c0.1,0,0.3,0,0.4,0c0.1,0,0.3,0,0.4,0.1h0.1H14
			c0.1,0,0.3,0,0.5,0s0.3,0,0.5,0c0,0,0.1,0,0.1-0.1l0.1-0.1c-0.2,0-0.3,0-0.5,0s-0.4,0-0.6,0c-0.2,0-0.4,0-0.6,0
			C13.3,62.8,13.1,62.9,13,62.9z M13,66.7c0.3,0,0.7,0,1.1,0c0.4,0,0.7,0,1.1,0c0.1,0,0.1,0,0.1,0s0.1,0,0.1-0.1
			c-0.2,0-0.3,0-0.5-0.1c-0.2,0-0.4,0-0.6,0c-0.2,0-0.4,0-0.6,0C13.4,66.7,13.2,66.7,13,66.7z M13.3,62.5c0.3,0,0.7,0.1,1.1,0.1
			c0.4,0,0.7,0,1.1,0l0.1-0.1c0,0,0.1,0,0.1-0.1c-0.2,0-0.3,0-0.5,0s-0.4,0-0.6,0s-0.4,0-0.6,0S13.4,62.5,13.3,62.5z M13.4,66.2
			c0.2,0,0.3,0,0.5,0s0.3,0,0.5,0s0.4,0,0.5,0c0.2,0,0.3,0,0.5-0.1c-0.3,0-0.7,0-1,0C14.1,66.2,13.7,66.2,13.4,66.2z M13.6,65.8
			c0.3,0,0.6,0,0.9,0c0.3,0,0.6,0,0.9,0c-0.3,0-0.6-0.1-0.9-0.1C14.2,65.8,13.9,65.8,13.6,65.8z M15.1,68.7c-0.1,0-0.3,0-0.4,0
			c-0.1,0-0.2,0-0.3,0s-0.3,0-0.4,0c-0.1,0-0.3,0-0.4,0c0.3,0,0.6,0,0.9,0c0.3,0,0.5,0,0.8,0C15.3,68.7,15.2,68.7,15.1,68.7
			C15.2,68.7,15.1,68.7,15.1,68.7z M15.1,60.3L15.1,60.3C15.1,60.3,15.1,60.2,15.1,60.3c-0.1,0-0.2,0-0.3,0s-0.2,0-0.3,0
			s-0.2,0-0.3,0s-0.2,0-0.3,0s-0.1,0-0.1,0l0,0h0.1H14c0.1,0,0.3,0,0.5,0C14.7,60.4,14.9,60.4,15.1,60.3
			C15.1,60.4,15.1,60.4,15.1,60.3c0.1,0.1,0.2,0.1,0.3,0.1s0.1,0,0.1,0h0.1c-0.1,0-0.1,0-0.1,0h-0.1C15.4,60.4,15.2,60.3,15.1,60.3
			L15.1,60.3z M13.8,63.3c0.2,0,0.4,0,0.7,0.1c0.3,0,0.5,0,0.7,0h0.1c0.1,0,0.1,0,0.1-0.1c-0.2,0-0.3,0-0.4,0c-0.1,0-0.3,0-0.4,0
			c-0.1,0-0.3,0-0.4,0C14.1,63.3,13.9,63.3,13.8,63.3z M15.4,61.4c-0.1,0-0.2,0-0.3,0s-0.2,0-0.3,0s-0.3,0-0.5,0s-0.3,0-0.5,0
			c0.2,0.1,0.3,0.1,0.5,0.1s0.3,0,0.5,0c0.1,0,0.2,0,0.3,0s0.2,0,0.2,0C15.4,61.5,15.4,61.5,15.4,61.4c0.2,0.1,0.2,0,0.2,0
			C15.5,61.4,15.5,61.4,15.4,61.4L15.4,61.4z M14.3,69.7h-0.1c-0.1,0-0.1,0-0.1,0c0-0.1,0-0.1,0.1-0.1
			C14.1,69.7,14.2,69.7,14.3,69.7z M14.2,61.6L14.2,61.6c0.1,0,0.1,0,0.2,0C14.3,61.6,14.2,61.6,14.2,61.6L14.2,61.6z M14.6,69.6
			C14.6,69.6,14.7,69.6,14.6,69.6C14.7,69.6,14.7,69.7,14.6,69.6c0.1,0.1,0.1,0.1,0.2,0.1s0.1,0,0.1,0l0,0c0,0,0,0,0.1,0l0,0l0,0
			C14.9,69.7,14.8,69.7,14.6,69.6c-0.1,0.1-0.2,0.1-0.3,0.1c0,0,0,0,0.1,0L14.6,69.6C14.5,69.7,14.5,69.7,14.6,69.6
			C14.6,69.7,14.6,69.6,14.6,69.6z M14.7,64.6c0.1,0,0.2,0,0.4,0c0.1,0,0.2,0,0.3,0c-0.1,0-0.2,0-0.3,0
			C14.9,64.6,14.8,64.6,14.7,64.6z M15.3,67.1C15.3,67.2,15.4,67.2,15.3,67.1C15.4,67.2,15.4,67.1,15.3,67.1
			C15.4,67.1,15.3,67.1,15.3,67.1z M15.4,67.3C15.4,67.4,15.4,67.3,15.4,67.3c0.1-0.1,0.1-0.1,0.1-0.1L15.4,67.3
			C15.4,67.3,15.3,67.3,15.4,67.3C15.3,67.3,15.3,67.3,15.4,67.3z M15.4,67.6L15.4,67.6L15.4,67.6L15.4,67.6L15.4,67.6z M15.4,69.7
			L15.4,69.7C15.5,69.7,15.5,69.6,15.4,69.7C15.5,69.6,15.5,69.6,15.4,69.7C15.4,69.6,15.4,69.6,15.4,69.7z M15.6,68.9
			c0.1,0,0.1,0,0.2,0c0.1,0,0.2,0,0.2,0v-0.1v-0.1h-0.1c-0.1,0-0.1,0-0.1,0C15.7,68.8,15.6,68.8,15.6,68.9L15.6,68.9z M15.6,69.1
			h0.6c0.1,0,0.1,0,0.1,0s0,0-0.1,0h-0.1H16c0,0,0,0-0.1,0c0,0,0,0-0.1,0l0,0H15.6C15.7,69,15.6,69,15.6,69.1L15.6,69.1z M16.8,69.2
			c-0.1,0-0.2,0-0.3,0c-0.1,0-0.2,0-0.3,0c-0.1,0-0.2,0-0.3,0s-0.2,0-0.2,0v0.1l0,0c0.1,0,0.2,0,0.4,0c0.1,0,0.3,0,0.5,0
			c0.1,0.1,0.1,0.1,0.2,0.1s0.2,0,0.2,0v-0.1c0,0,0,0,0-0.1C16.9,69.1,16.8,69.1,16.8,69.2L16.8,69.2z M15.7,66.1
			C15.6,66,15.6,66,15.7,66.1C15.6,66,15.6,66,15.7,66.1C15.6,66,15.6,66.1,15.7,66.1C15.6,66.1,15.6,66.2,15.7,66.1
			C15.6,66.2,15.6,66.1,15.7,66.1L15.7,66.1z M17.9,62C17.9,61.9,17.8,61.9,17.9,62c-0.1,0-0.2,0-0.2,0c-0.1,0-0.1,0-0.2,0
			C17.6,62,17.7,62,17.9,62c0.1,0,0.2,0.1,0.4,0.1c0,0,0,0.1,0.1,0.1c0,0,0.1,0,0.1,0.1h0.1c0,0,0,0,0,0.1c-0.1-0.1-0.2-0.1-0.4-0.2
			C18,62.1,17.9,62,17.9,62c-0.2,0-0.4,0-0.5,0c-0.2,0-0.3,0.1-0.5,0.1c-0.2,0.1-0.3,0.1-0.4,0.2s-0.3,0.1-0.4,0.2c0,0,0,0-0.1,0
			v0.3c0,0.5,0,0.9-0.1,1.4c0,0.5-0.1,0.9-0.1,1.4s0,1,0,1.5s0,0.9,0,1.4c0-0.1,0-0.2,0-0.4c0-0.1,0-0.3,0-0.3
			c0-0.1-0.1-0.2-0.1-0.2c0-0.1,0-0.2,0-0.2c0-0.1,0-0.2,0-0.2c0-0.1,0-0.2,0-0.2c0-0.1,0-0.1,0-0.2c0-0.1,0-0.1,0-0.2
			c-0.1,0.3-0.1,0.6-0.1,0.9s0,0.6,0,0.9c0,0.1,0,0.1,0,0.1s0,0.1-0.1,0.1l0,0l0,0v0.1c0,0,0,0,0,0.1c0.1,0,0.1,0,0.1,0h0.1v-0.1
			c0,0,0,0,0-0.1v0.1c0,0,0,0,0,0.1c0.1,0,0.3,0,0.5,0.1c0.2,0,0.3,0.1,0.4,0.1v-0.1c0-0.1,0-0.1,0.1-0.1v0.1c0,0,0,0,0.1,0.1
			c0,0,0,0,0,0.1c0,0,0,0,0,0.1c0.1,0,0.1,0,0.2,0s0.1,0,0.2,0l0,0l0,0v0.1l0,0c-0.1,0-0.1,0-0.2,0c0,0-0.1,0-0.2,0
			c0,0.1,0,0.2,0,0.2s0,0.1,0,0.2c0.1,0,0.2,0,0.3,0c0.1,0,0.2,0,0.3,0c0-0.1,0-0.1,0-0.1s0,0,0-0.1h0.1h0.1v-0.1v-0.1l0,0l0,0
			c0-0.1,0.1-0.1,0.1-0.2c0-0.1,0.1-0.1,0.1-0.2l0,0l0,0c0,0,0,0,0-0.1c0,0,0-0.1,0.1-0.1s0.1,0,0.1,0.1c0,0,0,0.1,0.1,0.1
			c0.2,0,0.4-0.1,0.5-0.1c0.2,0,0.3-0.1,0.5-0.1v-0.1c0,0-0.1,0-0.2,0s-0.1,0-0.1-0.1h0.1c0.1,0,0.1,0,0.1,0l0,0l0,0
			c0-0.1,0-0.2,0-0.2c0-0.1,0-0.2,0-0.3l0,0c0,0,0,0,0-0.1c0,0,0,0,0.1,0c0-0.1,0-0.2,0-0.3s0-0.2,0-0.3c0,0,0,0-0.1,0h-0.1v-0.1H19
			v-0.4l0,0c0,0,0,0-0.1,0c0,0,0,0-0.1,0l0,0c0-0.1,0-0.1,0.1-0.1s0.1,0,0.1,0v-0.2c-0.1,0-0.1,0-0.1,0h-0.1c0-0.1,0-0.1,0.1-0.1H19
			c0-0.3,0-0.6-0.1-0.9c0-0.3-0.1-0.6-0.1-0.9c0-0.2,0-0.4,0-0.7c0-0.2-0.1-0.4-0.1-0.6c0,0.1,0,0.2-0.1,0.3c0,0.1,0,0.2-0.1,0.3
			c0-0.2,0-0.4,0-0.5c0-0.2,0-0.3,0-0.5c0,0,0,0-0.1,0h-0.1c0-0.1,0-0.1,0-0.1h0.1c-0.1-0.1-0.1-0.1-0.2-0.1s-0.1-0.1-0.2-0.1
			c0.1,0,0.2,0.1,0.2,0.1c0.1,0,0.1,0.1,0.2,0.1c-0.1-0.2-0.2-0.3-0.4-0.4C18.3,62,18.1,61.9,17.9,62z M15.7,63.7c0,0.2,0,0.5,0,0.7
			c0,0.2,0,0.4,0,0.6c0,0.1,0,0.3,0,0.5c0,0.2,0,0.3,0,0.5c0,0.2,0,0.3,0,0.5c0,0.2,0,0.3,0,0.4c0-0.1,0.1-0.1,0.1-0.2
			c0-0.1,0-0.2,0-0.2c0-0.3,0-0.5,0-0.8c0-0.3,0-0.5,0-0.8c0-0.1,0-0.3,0-0.4s0-0.3,0-0.4S15.8,63.9,15.7,63.7
			c0.1-0.2,0.1-0.3,0-0.4l0,0v0.1v0.1C15.7,63.6,15.7,63.6,15.7,63.7L15.7,63.7z M15.8,61.9c0.1,0,0.2,0,0.2,0c0.1,0,0.1,0,0.2,0
			l0,0l0,0c0,0.1-0.1,0.1-0.1,0.1C16,62,16,62,16,62.1c0.2,0,0.3,0,0.4-0.1s0.2-0.1,0.3-0.2c-0.1,0-0.3,0-0.5,0c-0.2,0-0.4,0-0.6,0
			v0.1C15.6,61.9,15.8,61.9,15.8,61.9z M15.8,63.3L15.8,63.3C15.8,63.2,15.8,63.2,15.8,63.3L15.8,63.3z M15.9,62L15.9,62
			c-0.1,0-0.1,0-0.1,0C15.8,62.1,15.8,62.1,15.9,62C15.9,62.1,15.9,62.1,15.9,62z M15.8,62.1C15.8,62.2,15.8,62.2,15.8,62.1
			C15.8,62.2,15.8,62.2,15.8,62.1C15.8,62.2,15.9,62.2,15.8,62.1c0.1,0.1,0.1,0,0.1,0H16c0,0,0,0,0-0.1L15.8,62.1L15.8,62.1z
			 M15.9,63.4c0,0,0-0.1,0-0.2c0-0.1,0-0.1,0-0.2s0-0.1,0-0.2c0-0.1,0-0.1,0-0.2c0,0.1-0.1,0.1-0.1,0.2s0,0.1,0,0.2
			c0,0.1,0,0.1,0,0.2C15.9,63.3,15.9,63.4,15.9,63.4z M15.9,69.5H16c0.1,0,0.1,0,0.2,0s0.1,0,0.2,0s0.1,0,0.1-0.1
			c-0.1,0-0.2,0-0.3,0C16.1,69.5,16,69.5,15.9,69.5z M15.9,61c0.1,0,0.1,0,0.2-0.1l0.1-0.1c-0.1,0-0.1,0-0.2,0.1
			C16,61,15.9,61,15.9,61z M15.9,61.1c0.1,0,0.1-0.1,0.2-0.1s0.1-0.1,0.2-0.1c-0.1,0-0.1,0-0.2,0.1S15.9,61.1,15.9,61.1z M16.6,61.2
			C16.5,61.2,16.5,61.2,16.6,61.2C16.5,61.1,16.5,61.1,16.6,61.2c-0.1,0-0.1,0-0.2,0.1c-0.1,0-0.1,0.1-0.2,0.1s-0.1,0.1-0.2,0.1
			c0,0-0.1,0.1-0.1,0.2c0,0,0.1,0,0.2,0c0.1,0,0.1,0,0.2,0c0,0,0,0,0-0.1v-0.1c0.1,0,0.2,0.1,0.4,0.1c0.2,0,0.3,0,0.5,0s0.3,0,0.5,0
			s0.3,0,0.4,0l0,0l0,0c0.1,0,0.2,0,0.3,0c0.1,0,0.2,0,0.2,0h0.6c0,0,0,0,0-0.1v-0.1c-0.1,0-0.1,0-0.2,0s-0.1,0-0.2,0s-0.1,0-0.2,0
			s-0.1,0-0.2,0v-0.1l0,0l0,0c-0.2,0-0.4,0-0.6,0s-0.3,0-0.5,0c-0.1,0-0.1,0-0.1,0s-0.1,0-0.2,0s-0.1,0-0.2,0S16.7,61.3,16.6,61.2
			l-0.1,0.1c0,0-0.1,0-0.1-0.1C16.5,61.1,16.5,61.1,16.6,61.2c0.1-0.1,0.1-0.1,0.2-0.1s0.1,0,0.2,0s0.1,0,0.2,0c0.4,0,0.7,0,1,0
			s0.6,0,1,0l0,0c-0.4,0-0.8,0-1.2,0C17.4,61.1,17,61.1,16.6,61.2z M16,69c0.1,0,0.2,0,0.3,0c0.1,0,0.2,0,0.3,0c-0.1,0-0.1,0-0.1,0
			h-0.1c0.1,0,0.2,0,0.3,0c0.1,0,0.2,0.1,0.3,0c-0.1-0.1-0.3-0.1-0.4-0.1s-0.3,0-0.4-0.1v0.1C16,68.9,16,68.9,16,69z M16.1,62.8
			L16.1,62.8c0.1,0,0.1,0,0.2,0C16.2,62.9,16.2,62.9,16.1,62.8L16.1,62.8z M16.2,63.4L16.2,63.4C16.3,63.4,16.3,63.4,16.2,63.4
			C16.3,63.4,16.3,63.5,16.2,63.4C16.2,63.5,16.2,63.5,16.2,63.4L16.2,63.4L16.2,63.4z M16.4,60.7c0.1,0,0.1,0,0.1,0l0.1-0.1
			C16.5,60.6,16.4,60.7,16.4,60.7z M18.1,61h-0.9c-0.1,0-0.1,0-0.2,0s-0.1,0-0.2,0s-0.1,0-0.2,0c0,0-0.1,0-0.1,0.1
			c0.2,0,0.4,0,0.6,0s0.4,0,0.6,0s0.4,0,0.6,0s0.4,0,0.5,0C18.7,61,18.5,61,18.4,61C18.4,61,18.3,61,18.1,61z M17,60.8
			C17,60.9,17,60.9,17,60.8C17,60.9,17,60.9,17,60.8L17,60.8L17,60.8z M17,62c0.1,0,0.2,0,0.2,0s0.1,0,0.2,0c-0.1,0-0.2,0-0.3,0
			C17.1,62,17,62,17,62z M17.3,61.7C17.2,61.7,17.2,61.7,17.3,61.7c-0.1,0-0.1,0-0.1,0.1c0.1-0.1,0.3-0.1,0.5-0.1s0.4,0,0.6,0.1
			c0.1,0,0.1,0.1,0.1,0.1s0.1,0,0.2,0s0.2,0,0.3,0c0.1,0,0.1,0,0.2-0.1H19h-0.1c-0.1,0-0.1,0-0.2,0s-0.1,0-0.1,0v-0.1
			c0,0,0.1,0,0.2,0s0.1,0,0.2,0s0.1,0,0.2,0h0.1v-0.1l0,0c-0.2,0-0.3,0-0.4,0s-0.3,0-0.4,0s-0.3,0-0.4,0
			C17.6,61.6,17.4,61.6,17.3,61.7h-0.1c-0.2-0.1-0.2,0-0.2,0s0.1,0,0.1-0.1C17.2,61.7,17.2,61.7,17.3,61.7z M17.1,60.8
			C17.2,60.8,17.2,60.8,17.1,60.8c0.1,0,0.1,0,0.2,0C17.3,60.8,17.2,60.8,17.1,60.8C17.2,60.8,17.2,60.8,17.1,60.8z M17.3,60.6
			c0.2,0,0.3,0,0.4,0s0.3,0,0.4,0s0.3,0,0.4,0s0.3,0,0.5,0v-0.1c-0.1,0-0.2,0-0.4,0c-0.1,0-0.3,0-0.5,0s-0.3,0-0.4,0
			C17.6,60.5,17.4,60.6,17.3,60.6z M17.5,60.7L17.5,60.7c-0.1,0-0.1,0.1-0.2,0.1c0.3,0,0.6,0,0.8,0c0.3,0,0.6,0,0.8,0l0,0
			c0,0,0,0,0-0.1c-0.3,0-0.5,0-0.8,0C17.9,60.7,17.7,60.7,17.5,60.7z M17.4,60.3L17.4,60.3c0.1,0,0.1,0,0.1,0S17.5,60.3,17.4,60.3
			C17.4,60.3,17.3,60.3,17.4,60.3z M18.6,60.8L18.6,60.8C18.6,60.8,18.5,60.8,18.6,60.8c-0.1,0-0.1,0-0.2,0s-0.1,0-0.2,0
			s-0.2,0-0.2,0c-0.1,0-0.1,0-0.2,0c0,0,0,0-0.1,0c0,0,0,0-0.1,0l0,0l0,0c0.2,0,0.5,0,0.7,0s0.4,0,0.7,0l-0.1-0.1h-0.1
			C18.8,60.8,18.7,60.8,18.6,60.8L18.6,60.8z M18,69.2L18,69.2V69V69.2C17.9,69.2,18,69.2,18,69.2z M18.1,59.9L18.1,59.9L18.1,59.9
			L18.1,59.9C18.1,60,18.1,60,18.1,59.9L18.1,59.9z M18.1,60.4c0.2,0,0.3,0,0.5,0c0.1,0,0.3,0,0.5,0c0,0,0,0,0-0.1v-0.1
			c-0.1,0-0.3,0-0.5,0C18.3,60.3,18.2,60.3,18.1,60.4z M18.5,59.8c0,0-0.1,0-0.2,0.1c-0.1,0-0.1,0-0.2,0.1c0,0,0,0,0.1-0.1
			C18.3,59.9,18.4,59.8,18.5,59.8z M19.2,68.8c-0.1,0-0.2,0-0.2,0.1c-0.1,0-0.2,0-0.2,0c-0.1,0-0.2,0-0.2,0c-0.1,0-0.1,0-0.2,0.1
			v0.1c0.7-0.1,1.4-0.1,2.1-0.1s1.3,0,2.1,0v-0.1v-0.1c-0.5,0-1,0-1.4,0s-0.9,0-1.3,0c0,0,0,0.1-0.1,0.1L19.7,69
			c-0.1,0-0.1-0.1-0.1-0.1C19.3,68.8,19.3,68.8,19.2,68.8z M21.2,69c-0.3,0-0.5,0-0.8,0s-0.6,0.1-0.9,0.1c-0.2,0-0.3,0-0.5,0
			s-0.3,0-0.5,0.1c0.2,0,0.5,0,0.7,0s0.4,0,0.6,0s0.4,0,0.6,0s0.5,0,0.7,0l0,0c0,0,0,0-0.1,0c0,0,0,0-0.1,0l0,0c0.2,0,0.4,0,0.7,0
			c0.2,0,0.5,0,0.8,0v-0.1c0,0,0,0,0-0.1c-0.2,0-0.3,0-0.5,0S21.4,69,21.2,69z M18.7,61.9c0,0.1,0.1,0.1,0.1,0.1
			c0.1,0,0.1,0,0.1,0.1c0.1,0,0.1,0,0.1-0.1c0,0,0,0,0.1,0c0,0,0,0,0-0.1v-0.1c0,0,0,0-0.1,0s-0.1,0-0.1,0
			C18.9,61.9,18.8,61.9,18.7,61.9L18.7,61.9z M19,62.9L19,62.9C19,62.8,19,62.8,19,62.9C19,62.8,19,62.8,19,62.9L19,62.9z
			 M19.1,63.8C19.1,63.7,19.1,63.7,19.1,63.8c0-0.1,0-0.2-0.1-0.2C19.1,63.7,19.1,63.7,19.1,63.8c0,0,0,0.1,0,0.2c0,0.1,0,0.1,0,0.1
			s0,0.1,0.1,0.1c0-0.2,0-0.4,0-0.6s0-0.4,0-0.6l0,0l0,0c0,0.1,0,0.2,0,0.2c0,0.1,0,0.1,0,0.2c0,0.1,0,0.1,0,0.2
			S19.2,63.8,19.1,63.8z M19.2,65.2C19.2,65.2,19.2,65.1,19.2,65.2c0-0.1,0-0.2,0-0.2v-0.1v-0.1c0.1-0.1,0.1-0.2,0-0.3
			c0-0.1-0.1-0.2-0.1-0.3c0,0.2,0,0.3,0,0.5C19.2,64.9,19.2,65,19.2,65.2z M19.2,62.9c0-0.1,0-0.2,0-0.2
			C19.2,62.8,19.2,62.8,19.2,62.9C19.1,62.9,19.2,62.9,19.2,62.9z M19.3,60.3C19.4,60.3,19.3,60.3,19.3,60.3L19.3,60.3
			c-0.1,0-0.1,0-0.2,0.1c0,0,0,0,0,0.1c0.2,0,0.3,0,0.5,0c0.1,0,0.3,0,0.5,0v0.1c0,0,0-0.1,0.1-0.1h0.1h0.1h0.1
			c-0.1,0-0.2-0.1-0.3-0.1c-0.1,0-0.2,0-0.3,0c-0.1,0-0.2,0-0.4,0S19.4,60.3,19.3,60.3z M19.2,60.5c0.1,0.1,0.1,0.1,0.3,0.1
			c0.1,0,0.2,0,0.3,0c-0.1,0-0.2,0-0.3,0C19.4,60.5,19.3,60.5,19.2,60.5z M19.2,60.6L19.2,60.6c0.2,0.1,0.4,0.1,0.5,0.2
			c0.2,0,0.4,0,0.6,0s0.4,0,0.6,0s0.3,0,0.5,0c-0.1-0.1-0.3-0.2-0.4-0.2c-0.2,0-0.3-0.1-0.5,0c-0.2,0-0.4,0-0.6,0
			C19.6,60.7,19.4,60.7,19.2,60.6z M19.6,61c0.3,0,0.6,0,0.9,0s0.6,0,0.8,0c-0.1,0-0.3,0-0.5,0s-0.3,0-0.5,0S19.9,61,19.6,61
			c-0.1,0-0.3,0-0.4,0c0,0.1,0.1,0.1,0.2,0.1S19.5,61,19.6,61z M19.2,60.1C19.2,60.1,19.2,60.2,19.2,60.1
			C19.2,60.2,19.2,60.2,19.2,60.1c0.1,0.1,0.1,0.1,0.2,0.1s0.1,0,0.2,0c0,0,0,0,0-0.1V60h-0.1C19.3,60.1,19.3,60.1,19.2,60.1z
			 M21.3,61.1c-0.1,0-0.2,0-0.3,0c-0.1,0-0.2,0-0.3,0c-0.1,0-0.2,0-0.3,0c-0.1,0-0.2,0-0.3-0.1H20h-0.1c-0.1,0-0.2,0-0.3,0
			c-0.1,0-0.3,0-0.4,0v0.1v0.1c0.4,0,0.8,0,1.2,0c0.4,0,0.7,0,1.1,0h-0.1C21.4,61.1,21.3,61.1,21.3,61.1z M21.8,61.4
			c-0.2,0-0.4,0-0.6,0s-0.4,0-0.5,0h-0.4c-0.2,0-0.3,0-0.5,0s-0.3,0-0.5,0v0.1l0,0c0.3,0,0.6,0,0.9,0s0.6,0,0.9,0c0.2,0,0.3,0,0.5,0
			s0.3,0,0.5,0.1v0.1c0,0,0,0,0,0.1C22,61.7,22,61.7,22,61.7h0.1c0-0.1-0.1-0.1-0.1-0.2S21.9,61.4,21.8,61.4L21.8,61.4z M21.5,61.6
			c-0.2,0-0.4,0-0.6,0s-0.3,0-0.5,0c-0.1,0-0.2,0-0.2,0s-0.1,0-0.2,0s-0.1,0-0.2,0s-0.2,0-0.3,0l0,0c0,0,0,0-0.1,0s-0.1,0-0.1,0
			s0,0,0,0.1c0,0,0,0,0.1,0c0,0,0,0,0.1,0s0,0,0.1,0c0.4,0,0.8,0,1.2,0c0.4,0,0.7,0,1,0l0,0l0,0C21.6,61.7,21.6,61.7,21.5,61.6
			C21.5,61.7,21.5,61.7,21.5,61.6z M19.3,62.1L19.3,62.1c0-0.1,0-0.2,0-0.2S19.3,62,19.3,62.1L19.3,62.1z M20.6,61.2
			c-0.2,0-0.5,0-0.7,0s-0.4,0-0.6,0.1C19.7,61.3,20.2,61.3,20.6,61.2c0.4,0.1,0.7,0.1,1.1,0.1c-0.2-0.1-0.3-0.1-0.5-0.1
			S20.8,61.2,20.6,61.2z M19.6,61.9c0,0,0,0-0.1,0s-0.1,0-0.1,0c0,0.1,0,0.1,0,0.1s0,0,0,0.1c0.2,0,0.5,0,0.7,0s0.5,0,0.7,0
			s0.5,0,0.7,0s0.4,0,0.6-0.1c-0.2,0-0.5,0-0.7-0.1c-0.2,0-0.5,0-0.7,0s-0.4,0-0.7,0C20,61.9,19.8,61.9,19.6,61.9z M20.9,61.8
			c-0.2,0-0.4,0-0.6,0s-0.5,0-0.7,0h-0.1c-0.1,0-0.1,0-0.1,0.1c0.3,0,0.5,0,0.7,0s0.5,0,0.7,0s0.4,0,0.7,0c0.2,0,0.4,0,0.7,0
			c0,0,0-0.1-0.1-0.1c0,0,0,0,0-0.1h0.1c0,0,0.1,0,0.1,0.1v-0.1v-0.1c-0.2,0-0.4,0-0.6,0C21.4,61.8,21.2,61.8,20.9,61.8z M19.4,62.2
			h0.1h0.1C19.5,62.2,19.5,62.2,19.4,62.2z M21.8,62.4c-0.4,0-0.8,0-1.1,0c-0.3,0-0.6,0-0.9,0h-0.1h-0.1h-0.1v0.1c0.2,0,0.3,0,0.6,0
			c0.2,0,0.4,0,0.7,0c0.2,0,0.5,0,0.7,0s0.5,0,0.7,0c-0.1,0-0.1,0-0.1,0C21.9,62.5,21.8,62.4,21.8,62.4z M22,62.7c-0.3,0-0.7,0-1,0
			s-0.7,0-1,0c-0.1,0-0.2,0-0.3,0c-0.1,0-0.2,0-0.3,0v0.1c0.2,0,0.4,0,0.7,0c0.2,0,0.5,0,0.7,0s0.5,0,0.7,0s0.5,0,0.7,0v-0.1
			c0,0,0,0-0.1,0C22.1,62.7,22.1,62.7,22,62.7L22,62.7z M19.5,63L19.5,63v0.2c0.1-0.1,0.1-0.1,0.2-0.1s0.1,0,0.2,0
			c0.2,0,0.4,0,0.6,0s0.4,0,0.6,0s0.4,0,0.6,0s0.4,0,0.6-0.1l0,0l0,0c-0.5-0.1-0.9-0.1-1.3-0.1C20.4,63,20,63,19.5,63z M20.9,63.3
			L20.9,63.3c-0.3,0-0.5,0-0.8,0s-0.5,0-0.7,0v0.2c0.4,0,0.8,0,1.2,0c0.4,0,0.8,0,1.2,0c0.1,0,0.1,0,0.2,0s0.1,0,0.1-0.1
			c-0.2,0-0.3,0-0.4,0s-0.3,0-0.4,0c-0.2,0-0.3,0-0.5,0s-0.3,0-0.5,0s-0.3,0-0.5,0s-0.3,0-0.5,0c0,0,0-0.1,0.1-0.1h0.1h0.1h0.1
			c0.3,0,0.6,0,1,0c0.3,0,0.7,0,0.9,0c0.1,0,0.2,0,0.3,0c0.1,0,0.2,0,0.2-0.1s-0.1-0.1-0.2-0.1s-0.2,0-0.2,0c-0.1,0-0.3,0-0.4,0
			C21.3,63.3,21.1,63.3,20.9,63.3C21,63.3,21,63.3,20.9,63.3C21,63.3,20.9,63.3,20.9,63.3L20.9,63.3z M21.7,63.7
			c-0.3,0-0.7,0-1.1-0.1c-0.4,0-0.8,0-1.2,0l0,0v0.1c0.2,0,0.4,0,0.6,0s0.4,0,0.7,0c0.2,0,0.5,0,0.7,0s0.5,0,0.7,0
			c-0.1,0-0.1,0-0.2,0C21.9,63.7,21.8,63.7,21.7,63.7z M19.5,63.9c0.4,0,0.7,0,1.1,0s0.8,0,1.2,0h0.1H22h0.1c0,0,0,0,0-0.1
			c-0.5,0-0.9,0-1.3,0C20.4,63.9,20,63.9,19.5,63.9z M19.6,64c-0.1,0-0.1,0-0.1,0v0.1c0.3,0,0.7,0,1,0s0.7,0,1,0c0.1,0,0.2,0,0.3,0
			c0.1,0,0.2,0,0.3,0c-0.2,0-0.4,0-0.6,0s-0.4,0-0.6,0s-0.4,0-0.6,0S19.8,64,19.6,64z M19.5,64.3v0.3c0.2,0,0.4,0,0.7,0
			c0.3,0,0.5,0,0.8,0s0.5,0,0.7,0s0.4-0.1,0.6-0.1v-0.1c-0.4,0.1-0.8,0.1-1.3,0C20.5,64.4,20,64.4,19.5,64.3z M20.1,64.8L20.1,64.8
			L20.1,64.8c-0.1,0-0.1,0-0.2,0s-0.1,0-0.2,0s-0.1,0-0.2,0s-0.1,0-0.1,0c0.2,0,0.3,0,0.5,0.1c0.2,0,0.4,0,0.6,0s0.4,0,0.6,0
			s0.4,0,0.6,0c0.1,0,0.1,0,0.2,0s0.1,0,0.1-0.1c-0.3-0.1-0.7-0.1-1-0.1C20.7,64.8,20.4,64.8,20.1,64.8z M22.1,65
			c-0.2,0-0.3,0-0.5,0c-0.1,0-0.3,0-0.4,0H21c-0.1,0-0.1,0-0.1,0h-0.1H20c-0.1,0-0.1,0-0.2,0s-0.1,0-0.2,0.1c0.4,0,0.9,0.1,1.4,0.1
			s1,0.1,1.5,0v-0.1h-0.1C22.4,65.1,22.1,65.1,22.1,65C22.1,65.1,22.1,65.1,22.1,65L22.1,65z M21.5,65.4h-0.1c-0.1,0-0.1,0-0.2-0.1
			c-0.1,0-0.2,0-0.3,0c-0.1,0-0.2,0-0.4,0c-0.1,0-0.2,0-0.4,0c-0.1,0-0.2,0-0.3,0c0,0,0,0-0.1,0h-0.1h-0.1c0,0,0,0,0,0.1
			c0.3,0.1,0.6,0.1,1,0.1s0.7,0,1.1,0C21.6,65.4,21.5,65.4,21.5,65.4L21.5,65.4z M19.5,65.5c0.1,0,0.1,0,0.2,0h0.1
			c-0.1,0-0.1,0-0.2,0C19.6,65.4,19.6,65.4,19.5,65.5z M19.5,65.8L19.5,65.8c0,0.2,0,0.2,0,0.2c0.2,0,0.5,0,0.7,0s0.5,0,0.7,0
			s0.5,0,0.7,0s0.5,0,0.7,0v-0.1v-0.1H22l0,0l0,0v-0.1c-0.4,0-0.8,0-1.2,0C20.4,65.8,20,65.8,19.5,65.8z M19.5,66.3
			c0.2,0,0.5,0,0.7,0c0.3,0,0.5,0,0.7,0s0.5,0,0.7,0s0.4,0,0.6,0v-0.1c-0.1,0-0.1,0-0.1,0H22h-2.4v-0.1c0,0,0,0-0.1,0
			C19.6,66.2,19.6,66.2,19.5,66.3C19.5,66.2,19.5,66.3,19.5,66.3z M21.9,67.4c-0.1,0-0.2,0-0.4,0c-0.1,0-0.3,0-0.4,0h-0.7h-0.7
			c-0.1,0-0.1,0-0.2,0s-0.1,0-0.1,0.1c0.4,0,0.8,0,1.2,0c0.4,0,0.8,0,1.2,0c0.1,0,0.1,0,0.2,0s0.1,0,0.1-0.1c0,0,0-0.1-0.1-0.1
			L21.9,67.4l-0.1-0.1C22,67.5,21.9,67.5,21.9,67.4z M19.9,66.4c-0.1,0-0.1,0-0.2,0s-0.1,0-0.2,0.1c0,0.1,0.1,0.1,0.1,0.1
			c0.1,0,0.1,0,0.2,0c0.2,0,0.4,0,0.6,0s0.4,0,0.6,0s0.4,0,0.6,0s0.4,0,0.5,0h0.1c0.1,0,0.1,0,0.1-0.1c-0.2,0-0.3,0-0.5,0
			s-0.4,0-0.6,0s-0.4,0-0.6,0C20.3,66.4,20.1,66.4,19.9,66.4z M20.7,66.8h-1.1l0,0l0,0c0,0,0,0,0,0.1l0,0C20,67,20.4,67,20.8,67
			c0.4,0,0.8,0,1.2,0h0.1c0.1,0,0.1,0,0.1-0.1c-0.2,0-0.5,0-0.7,0C21.2,66.9,20.9,66.9,20.7,66.8z M21.9,67.1c-0.2,0-0.5,0-0.8,0
			s-0.5,0-0.8-0.1c-0.1,0-0.2,0-0.4,0c-0.1,0-0.2,0-0.4,0l0,0l0,0l0,0c0,0,0,0,0,0.1c0.3,0,0.5,0,0.7,0s0.5,0,0.7,0s0.4,0,0.6,0
			s0.4,0,0.5-0.1c-0.1,0-0.1,0-0.1-0.1C22,67.1,21.9,67.1,21.9,67.1z M21.4,67.3c-0.3,0-0.6,0-0.9,0s-0.6,0-0.9,0l0,0l0,0
			c0.4,0,0.7,0.1,1.1,0.1s0.8,0,1.2,0H22c0.1,0,0.1,0,0.1-0.1c-0.1,0-0.2,0-0.4,0C21.7,67.3,21.5,67.3,21.4,67.3z M20,68.5
			c-0.1,0-0.2,0-0.3,0c-0.1,0-0.2,0.1-0.2,0.1c0.3,0,0.6,0,0.9,0s0.6,0,0.8,0c0.2,0,0.3,0,0.5,0s0.4,0,0.5,0c0,0-0.1,0-0.1-0.1
			c0,0,0-0.1-0.1-0.1c-0.2,0-0.4,0-0.6,0s-0.4,0-0.5,0c-0.2,0-0.4,0-0.5,0C20.4,68.5,20.2,68.5,20,68.5z M20.7,66.7
			c-0.1,0-0.3,0-0.4,0c-0.2,0-0.3,0-0.5,0h-0.1c0,0-0.1,0,0,0.1c0,0,0,0.1,0.1,0.1s0.2,0,0.2,0h1.8c0.1,0,0.1,0,0.2,0s0.1,0,0.2,0
			s0.1,0,0.1,0v-0.1c-0.3,0-0.6,0-0.8,0C21.2,66.7,20.9,66.7,20.7,66.7z M19.6,68.3c0.4,0,0.8,0,1.2,0c0.4,0,0.8,0,1.2,0.1
			c0.1,0,0.1,0,0.2,0s0.1,0,0.2,0l-0.1-0.1h-0.1c-0.4,0-0.8,0-1.2,0c-0.4,0-0.8,0-1.2,0v-0.1l0,0c-0.1,0-0.1,0-0.1,0.1
			C19.6,68.2,19.6,68.2,19.6,68.3z M21.7,67.6c-0.4,0-0.8,0-1.1,0c-0.4,0-0.7,0-1,0c0.3,0.1,0.7,0.1,1.2,0.1c0.4,0,0.9,0.1,1.3,0
			h0.1c0.1,0,0.1,0,0.1-0.1c-0.1,0.1-0.2,0.1-0.3,0.1C21.9,67.6,21.9,67.6,21.7,67.6z M20.3,67.8C20.2,67.8,20.2,67.8,20.3,67.8
			c-0.1,0-0.2,0-0.3,0c-0.1,0-0.1,0-0.2,0s-0.1,0-0.2,0V68c0.4,0,0.9,0,1.3,0s0.9,0,1.4,0v-0.2c-0.2,0-0.4,0-0.5,0
			c-0.2,0-0.3,0-0.5,0s-0.3,0-0.5,0C20.6,67.8,20.4,67.8,20.3,67.8z M22.1,65.6c-0.1,0-0.1,0-0.2,0s-0.1,0-0.2,0c-0.3,0-0.7,0-1.1,0
			s-0.7,0-1.1,0c0.1,0.1,0.2,0.1,0.3,0.1s0.2,0,0.3,0c0.3,0,0.7,0,1,0S21.7,65.7,22.1,65.6C22,65.7,22,65.7,22.1,65.6
			C22,65.7,22,65.7,22.1,65.6C22.1,65.7,22.1,65.7,22.1,65.6l0.1,0.1h0.1l0,0c0-0.1-0.1-0.1-0.1-0.1C22.1,65.6,22.1,65.6,22.1,65.6z
			 M19.6,68.4L19.6,68.4c0.1,0,0.3,0,0.4,0c0.3,0,0.7,0,1,0s0.7,0,1,0c-0.4,0-0.8,0-1.2-0.1C20.4,68.4,20,68.4,19.6,68.4z
			 M20.2,60.3L20.2,60.3C20.2,60.3,20.1,60.3,20.2,60.3c-0.1-0.1-0.1-0.1-0.2-0.1h-0.1h-0.1h-0.1c0.1,0,0.2,0,0.3,0
			C20,60.3,20.1,60.3,20.2,60.3z M19.9,65.2C19.9,65.2,19.8,65.2,19.9,65.2c-0.1,0-0.1,0-0.1,0S19.8,65.2,19.9,65.2
			C19.8,65.2,19.8,65.2,19.9,65.2z M21.5,68.1c-0.3,0-0.6,0-0.9,0s-0.6,0-0.9,0c0.2,0,0.4,0,0.6,0s0.5,0,0.7,0s0.5,0,0.7,0
			s0.4,0,0.6,0C22.2,68,22,68,21.9,68C21.8,68.1,21.7,68.1,21.5,68.1z M21.3,64.2c-0.2,0-0.3,0-0.5,0s-0.3,0-0.4,0c0,0,0,0-0.1,0
			s-0.2,0-0.3,0c-0.1,0-0.2,0-0.2,0.1c0.4,0,0.8,0,1.2,0.1c0.4,0,0.8,0,1.2-0.1c-0.1-0.1-0.2-0.1-0.4-0.1
			C21.7,64.2,21.5,64.2,21.3,64.2z M22.2,62.6c-0.1,0-0.2,0-0.4,0c-0.1,0-0.3,0-0.4,0s-0.3,0-0.4,0s-0.3,0-0.4,0l0,0l0,0l-0.1,0.1
			c-0.1,0-0.1,0-0.2,0s-0.1,0-0.2,0s-0.1,0-0.1,0c0.4,0,0.8,0,1.2,0C21.4,62.7,21.8,62.7,22.2,62.6C22.3,62.6,22.3,62.6,22.2,62.6
			C22.3,62.6,22.3,62.6,22.2,62.6L22.2,62.6L22.2,62.6z M21.1,65.2c-0.2,0-0.3,0-0.5,0s-0.3,0-0.5,0l0,0l0,0c0.1,0,0.2,0,0.3,0
			c0.1,0,0.2,0,0.2,0l0,0l0,0C20.7,65.2,20.9,65.3,21.1,65.2c0.1,0.1,0.3,0.1,0.4,0.1c0.2,0,0.3,0,0.4,0s0.3,0,0.4,0
			c-0.2-0.1-0.4-0.1-0.6-0.1C21.5,65.3,21.3,65.3,21.1,65.2z M20.1,62.2h0.2C20.3,62.2,20.3,62.2,20.1,62.2
			C20.2,62.2,20.2,62.2,20.1,62.2z M20.4,60.1C20.4,60.1,20.3,60.1,20.4,60.1c-0.1,0-0.1,0-0.1,0S20.3,60.1,20.4,60.1
			C20.3,60.1,20.4,60.1,20.4,60.1z M20.3,66.1c0.3,0,0.6,0,0.8,0c0.2,0,0.5,0,0.8,0c-0.3,0-0.5,0-0.8,0
			C20.9,66.1,20.6,66.1,20.3,66.1z M20.5,69.4L20.5,69.4L20.5,69.4z M21.5,62.3h-1.1c0.3,0,0.6,0,0.9,0.1c0.3,0,0.6,0,0.9,0
			c-0.1,0-0.2-0.1-0.3-0.1C21.8,62.3,21.7,62.3,21.5,62.3z M21.2,64.7h-0.3H21.2c0,0,0.1,0,0.2,0s0.2,0,0.3,0h0.1h0.1c0,0,0,0,0.1,0
			s0,0,0-0.1c-0.1,0-0.2,0-0.3,0C21.4,64.7,21.3,64.7,21.2,64.7z M21.7,65.5c0.1,0,0.2,0,0.4,0c0.1,0,0.2,0,0.3-0.1
			c-0.1,0-0.1,0-0.2,0s-0.1,0-0.2,0c0,0,0,0-0.1,0L21.7,65.5C21.8,65.5,21.7,65.5,21.7,65.5L21.7,65.5z M21.7,61.7
			C21.8,61.7,21.8,61.7,21.7,61.7c0.1,0,0.1,0,0.2,0C21.9,61.7,21.8,61.7,21.7,61.7L21.7,61.7z M21.9,64.7h0.2v-0.1
			C22,64.7,22,64.7,21.9,64.7C22,64.7,21.9,64.7,21.9,64.7z M22.1,64.7h0.2v-0.1C22.3,64.7,22.2,64.7,22.1,64.7
			C22.2,64.7,22.2,64.7,22.1,64.7L22.1,64.7z M22.1,64.9h0.1h0.1l0,0l0,0C22.2,64.9,22.2,64.9,22.1,64.9L22.1,64.9z M22.1,64.1
			C22.2,64.2,22.2,64.2,22.1,64.1c0.1,0,0.1,0,0.1,0S22.3,64.1,22.1,64.1C22.2,64.1,22.1,64.1,22.1,64.1z M22.2,64L22.2,64L22.2,64
			L22.2,64L22.2,64z M22.2,67.3C22.2,67.3,22.2,67.4,22.2,67.3h0.1l0,0C22.3,67.3,22.3,67.2,22.2,67.3
			C22.3,67.3,22.3,67.3,22.2,67.3L22.2,67.3z M22.2,63.6C22.2,63.6,22.3,63.6,22.2,63.6C22.3,63.6,22.3,63.5,22.2,63.6
			C22.2,63.5,22.2,63.6,22.2,63.6z M22.2,67C22.2,67,22.3,67,22.2,67c0.1,0,0.1,0,0.1,0C22.3,66.9,22.3,66.9,22.2,67
			C22.3,66.9,22.3,66.9,22.2,67C22.2,66.9,22.2,66.9,22.2,67z M22.3,67.1L22.3,67.1c-0.1,0-0.1,0-0.1,0
			C22.2,67.1,22.2,67.1,22.3,67.1L22.3,67.1z M22.3,63.2L22.3,63.2C22.3,63.1,22.3,63.1,22.3,63.2L22.3,63.2
			C22.2,63.2,22.2,63.2,22.3,63.2z M22.3,63.4L22.3,63.4L22.3,63.4L22.3,63.4z M22.6,69C22.6,69.1,22.6,69.1,22.6,69
			c-0.1,0.1-0.1,0.1-0.1,0.2c0.1,0,0.3,0,0.5,0s0.4,0,0.5,0v-0.1c-0.2,0-0.3,0-0.5,0C22.9,69.1,22.8,69.1,22.6,69z M23.3,68.8
			c-0.1,0-0.2,0-0.3,0c-0.1,0-0.2,0-0.2,0l0,0l0,0h-0.1c-0.1,0-0.1,0-0.1,0V69c0.1,0,0.2,0,0.3,0c0.1,0,0.2,0,0.3,0s0.2,0,0.3,0
			c0.1,0,0.2,0,0.2-0.1s0-0.1-0.1-0.1C23.5,68.8,23.4,68.8,23.3,68.8z"/>
	</g>
	<g>
		<path d="M23.2,69.6v-0.8c1.1-0.1,1.6,0,1.7-1.2c0.1-0.7,0.1-1.5,0.1-3.2v-6.6c0-1-0.2-1.1-1.6-1.2v-0.8h5.8c0.9,2.4,2.9,7,3.5,8.7
			h0.1c1.2-3,2.1-5.6,3.2-8.7h5.5v0.8c-1.4,0.1-1.6,0.2-1.6,1.2v9.9c0,1,0.2,1.1,1.6,1.2v0.8h-6.8v-0.8c1.5-0.1,1.6-0.2,1.6-1.2
			v-9.9h-0.1c-1.2,3.1-3.4,9.7-4.2,11.8h-1.4c-1.4-3.8-3.4-9.2-4.5-11.8H26v6.7c0,1.7,0,2.5,0.1,3.2c0.1,1.3,0.9,1.1,2,1.2v0.8
			L23.2,69.6L23.2,69.6z"/>
		<path d="M53,64.7c0,3.2-1.6,5.1-5.5,5.1s-5.6-1.9-5.6-5.1s1.6-5.1,5.6-5.1C51.4,59.6,53,61.6,53,64.7z M47.5,68.9
			c1.4,0,2-1.5,2-4.2c0-2.7-0.6-4.2-2-4.2s-2,1.5-2,4.2C45.5,67.4,46,68.9,47.5,68.9z"/>
		<path d="M53.9,56.3l-0.7-0.1v-0.8l4.5-0.5l0.2,0.1v6c1-0.8,2-1.4,3.3-1.4c1.9,0,4,1.2,4,4.8c0,4.5-2.6,5.5-5.6,5.5
			c-1.4,0-2.4-0.3-3.2-0.7l-1.2,0.7l-0.7-0.4V57.4C54.4,56.6,54.2,56.4,53.9,56.3z M57.9,67.7c0,0.6,0.6,1.2,1.7,1.2
			c1.5,0,2-1.6,2-4c0-3.2-1-3.7-2-3.7c-0.9,0-1.4,0.5-1.6,1.1c-0.1,0.3-0.1,0.7-0.1,1.1v3.2C57.9,66.6,57.9,67.2,57.9,67.7z"/>
		<path d="M66.8,62.1c0-0.8-0.2-1-0.5-1L65.6,61v-0.8l4.4-0.6l0.1,0.1v8.1c0,0.8,0.2,0.9,1.4,1v0.8h-6.1v-0.8c1.2-0.1,1.4-0.1,1.4-1
			C66.8,67.8,66.8,62.1,66.8,62.1z M70.2,57.1c0,0.9-0.7,1.7-1.9,1.7c-1.2,0-1.8-0.8-1.8-1.7s0.6-1.7,1.9-1.7
			C69.6,55.4,70.2,56.1,70.2,57.1z"/>
	</g>
</g>
<text transform="matrix(1 0 0 1 49 32.1145)" font-family="'UtopiaStd-Regular'" font-size="12">Mobi</text>
</svg>
