<?xml version="1.0" encoding="utf-8"?>
<!-- Generator: Adobe Illustrator 18.1.1, SVG Export Plug-In . SVG Version: 6.00 Build 0)  -->
<svg version="1.1" xmlns="http://www.w3.org/2000/svg" xmlns:xlink="http://www.w3.org/1999/xlink" x="0px" y="0px"
	 viewBox="0 0 663.1 663.2" enable-background="new 0 0 663.1 663.2" xml:space="preserve">
<g id="Layer_3">
</g>
<g id="Layer_1">
	<path fill-rule="evenodd" clip-rule="evenodd" fill="none" stroke="#FFFFFF" stroke-width="28" stroke-miterlimit="10" d="
		M125.4,14h412.2C599.2,14,649,63.9,649,125.5v412.3c0,61.5-49.9,111.4-111.4,111.4H125.4C63.9,649.2,14,599.3,14,537.7V125.5
		C14,63.9,63.9,14,125.4,14z"/>
	<path fill="#EFEFEF" d="M76,362.4c-14.9-2.8-12-2.2-34-6.7c-3.5-0.7-3.4-4.4-2.4-7.9s4.2-20.9,5.4-23.4s2-2.5,5-2.2s32,6,32,6
		L76,362.4z"/>
	<path fill="#E2E2E2" d="M77.3,350.2c-14.2-3.2-29.7-6.5-34.2-7.4c0.3-1.7,3.1-15,4.5-20.6c-1.4,0-2.4,1.5-2.9,3
		c-1.1,3-3.9,17.1-3.9,17.1c-0.9,4-1.1,4.8-1.4,6.2c-0.3,1.2-1.7,6.3,2.6,7.2c3.7,0.8,34.8,7,34.8,7L77.3,350.2z"/>
	<path fill-rule="evenodd" clip-rule="evenodd" fill="#FFFFFF" d="M111.3,369.7c-9.1-1.4-29.7-5.1-36.2-7
		c2.1-11.7,6.3-34.8,6.3-34.8c13.2,2.4,30.3,5.2,35.9,5.8C112.7,359.7,111.3,369.7,111.3,369.7z"/>
	<path fill="#B5B5B5" d="M107.1,356.5l-29.7-6.3l-2.3,12.5l32.3,7C108.8,357.8,107.1,356.5,107.1,356.5z"/>
	<path fill-rule="evenodd" clip-rule="evenodd" fill="#FFFFFF" d="M438.8,286.5c96.6-94.4,25.3-226.3-142.2-177.8
		c-44.7,13-80,36.8-113.8,73.1c-58.4,62.9-67.3,124.6-71.5,151c-1.9,12.1-4.3,34-4.2,48.7c0.9,166.4,139.7,204,276,146.2
		c-2-35.3-23.2-46-23.2-46c-120.7,38.1-165.1-24.4-163.5-105.3C196.4,376.4,337.4,385.5,438.8,286.5z M324.1,144.2
		c82.7-26.6,103.9,56.5,43.7,122.3c-42.3,46.2-103,66.6-168,70.4c0,0,0,0,0,0C213.6,242.5,266.6,162.6,324.1,144.2z"/>
	<g>
		<path fill="#FFFFFF" d="M510.7,418.1c1.1,0.2,2.2,0.2,3.2,0c1.1-0.2,2.2-0.4,3.3-0.7c1.1-0.3,2.3-0.6,3.5-0.9
			c1.2-0.3,2.6-0.5,4-0.6c0-1,0-1.9,0-2.7c0-0.8-0.1-1.6-0.2-2.5c0.3,0,0.5,0,0.6,0.1c0.1,0.1,0.2,0,0.3-0.1c0.3,1,0.4,1.8,0.1,2.6
			c-0.2,0.7-0.3,1.6-0.1,2.6c2.9,0.2,5.5,0.4,7.7,0.6c2.2,0.2,4.3,0.6,6.4,1.1c0,0.1-0.1,0.2-0.2,0.1c-0.1,0-0.3,0-0.5,0.1
			c0.2,0.1,0.5,0.2,0.6,0.2c0.3,0.1,0.4,0,0.4-0.5c0.4,0.2,0.7,0.4,1.1,0.3c0.4,0,0.8,0,1.1,0c0.3,0,0.6,0.1,0.9,0.2
			c0.3,0.2,0.5,0.5,0.7,1.1c-0.3,0.3-0.7,0.4-1.1,0.2c-0.5-0.2-0.8-0.2-1.1-0.2c0.2,0.2,0.3,0.3,0.4,0.4c0.1,0.1,0.3,0.1,0.6,0
			c0.3,0.5,0.6,0.9,0.8,1.1c0.2,0.3,0.7,0.4,1.4,0.4c1.3,1,2.5,2,3.6,3c1.1,1,2,2.2,2.8,3.4c0.3,0.2,0.7,0.2,1.1,0.2
			c0.4-0.1,0.7,0,0.8,0.2c0.2,0.3,0.2,0.5,0.1,0.7c-0.1,0.2-0.2,0.4-0.4,0.5c0.5,0.1,0.9,0.4,1.1,0.8c0.2,0.4,0.5,0.8,0.8,1.1
			c0.1-1.6,0.2-3.3,0.1-5.2c-0.1-1.9-0.1-3.8-0.1-5.7c0.4,0.1,0.6,0.2,0.7,0.3c0.1,0.2,0.2,0.4,0.2,0.6c0,0.2,0,0.5,0,0.9
			c0,0.3,0,0.7,0,1.1c0,0.2,0.1,0.3,0.2,0.4c0.1,0.1,0.2,0.2,0.2,0.3c0,2.4,0,4.7-0.1,6.9c-0.1,2.2,0.4,4.1,1.4,5.9
			c-0.4,0.4-0.6,1-0.6,1.6h0.1c0.1,0,0.2,0.1,0.2,0.3c-0.1,0.3-0.1,0.6,0.1,1c0.2,0.3,0.3,0.7,0.3,1c0.3,2.7,0.4,5.5,0.2,8.4
			c-0.2,2.8,0,5.7,0.5,8.6c-0.2,2.6-0.2,5.2-0.2,7.8c0.1,2.7,0,5.6-0.2,8.8c0,0.1,0.1,0.2,0.2,0.3c0.1,0.1,0.2,0.3,0.2,0.6
			c0,0.2-0.1,0.3-0.2,0.4c-0.1,0.1-0.2,0.3-0.2,0.6c-0.1,3.2-0.1,6.3,0.1,9.1c0.2,2.8,0.3,5.9,0.3,9.1c0.3,0,0.7,0,1.1,0
			c0.5,0,0.6,0.3,0.4,1c-0.1,0.1-0.3,0.2-0.6,0.2c-0.3,0-0.6,0-0.9,0c-0.3,0.7-0.4,1.2-0.2,1.5c0.2,0.3,0.2,0.8,0.2,1.5
			c1.6,0.1,3.3,0.3,5,0.6c1.8,0.3,3.3,0.6,4.6,0.9c0.3-0.1,0.5-0.3,0.6-0.6c0.1-0.3,0.2-0.5,0.3-0.7c0.3,0.3,0.5,0.3,0.6,0
			c0.1-0.3,0.3-0.3,0.6,0c0,0.2,0.1,0.4,0.2,0.5c0.1,0.2,0.2,0.4,0.2,0.7c0.7,0.2,1.3,0.4,2,0.6c0.6,0.2,1.4,0.4,2.1,0.4
			c0.3,0.2,0.7,0.4,1.1,0.4c0.5,0,0.9,0.1,1.4,0.1c0.5,0.1,0.9,0.2,1.3,0.3c0.4,0.1,0.8,0.4,1,0.7c-0.2,0.2-0.4,0.4-0.8,0.4
			c-0.3,0-0.7,0-1.1-0.1c-0.4-0.1-0.8-0.2-1.2-0.3c-0.4-0.1-0.8-0.2-1.1-0.2c-0.1,0.1-0.2,0.3-0.1,0.6c0,0.3,0,0.5-0.1,0.7
			c-0.7-0.2-1.2-0.3-1.6-0.5c-0.4-0.1-0.9-0.2-1.6-0.2c0,0.1,0.1,0.2,0.2,0.4c0.1,0.2,0.2,0.4,0.2,0.6c0,0.2,0,0.4-0.1,0.5
			c-0.1,0.2-0.4,0.2-0.9,0c0.1,0.3,0.1,0.5,0,0.6c-0.2,0.1-0.1,0.2,0,0.4c0.1,0.1,0.3,0.1,0.6-0.1c0.3-0.2,0.6-0.3,0.9-0.3
			c0.5,0.3,1.2,0.6,2.1,1c0.9,0.3,1.7,0.4,2.4,0c0,0.4,0.1,0.6,0.4,0.6c-0.2,0.3-0.4,0.5-0.5,0.5c-0.2,0.1-0.4,0.1-0.7,0.1
			c0.3,0.3,0.4,0.6,0.3,0.8c-0.1,0.2-0.2,0.5-0.3,0.8c-0.5-0.1-1-0.2-1.6-0.3c-0.6-0.1-1.2-0.2-1.8-0.3c-0.6-0.1-1.2-0.1-1.8-0.1
			c-0.6,0-1.1,0.2-1.5,0.4c-0.3,0-0.4-0.1-0.3-0.3c0.1-0.2,0.1-0.3,0-0.3c-0.3,0.5-0.4,1.2-0.4,2.1c0.1,0.9,0.2,1.7,0.4,2.4
			c-0.2,0.1-0.4,0.1-0.6-0.1c-0.2-0.2-0.4-0.2-0.4,0.1c-0.3-0.3-0.4-0.7-0.4-1.2c0.1-0.5,0.1-1.1,0.1-1.7c-0.2-0.1-0.6-0.2-1.2-0.1
			c-0.6,0-1.1,0-1.4-0.1c0.3-0.2,0.7-0.2,1.3-0.1c0.5,0.1,1,0,1.3-0.3c0.1-0.3,0.1-0.5,0-0.6c-0.1-0.1-0.2-0.2-0.4-0.3
			c-1.6-0.2-3.2-0.2-4.9-0.2c-1.7,0.1-3.4,0-4.9-0.2v1c1.1,0.1,2.3,0.2,3.7,0.3c1.3,0.1,2.6,0.2,3.7,0.4c-1.1,0.1-2.2,0.1-3.3,0
			c-1.1-0.2-2.4-0.1-4,0c-0.2,1.4-0.3,2.7-0.3,4c0,1.3,0.1,2.7,0.3,4.3c-0.3-1.2-0.6-2.5-0.9-4.1c-0.3-1.6-0.2-3,0.3-4.3
			c-0.9-0.3-1.8-0.4-2.7-0.4c-0.9,0-2,0-3.1,0c1-0.1,1.9-0.2,2.8-0.3c0.9-0.1,1.8,0,2.6,0.3c0.2-0.2,0.4-0.5,0.4-0.9
			c-1.6-0.5-3.2-0.7-4.9-0.6c-1.7,0.1-3.7,0.1-5.9,0c0.1,0.3,0.3,0.4,0.5,0.4c0.2,0,0.5,0,0.8,0.2c0.1,0.1,0.1,0.3,0,0.5
			c-0.1,0.2,0,0.3,0.3,0.5c0.7-0.1,1.2-0.2,1.6-0.2c0.4,0,1.1,0,1.9,0c-0.3,0.2-0.8,0.4-1.4,0.5c-0.6,0.1-1.2,0.1-1.9,0.1
			c-0.6,0-1.3,0-1.8,0c-0.6,0-1,0-1.3,0.1c-0.2,0-0.3,0-0.3,0.1c0,0.1,0,0.2,0,0.5c0-0.2-0.1-0.3-0.2-0.4c-0.1-0.1-0.3-0.2-0.5-0.3
			c-2.1,0.1-4.4,0.2-6.9,0.3c-2.5,0.1-4.8-0.2-6.9-0.6c1.1,0,2.3,0,3.7,0.1c1.3,0.1,2.7,0.1,4,0.1c1.3,0,2.7,0,4,0
			c1.3-0.1,2.6-0.2,3.7-0.5c-1-0.2-2.1-0.3-3.2-0.4c-1.2-0.1-2.4-0.1-3.8-0.1c-1.3,0-2.6,0-4,0c-1.3,0-2.6,0.1-3.8,0.1
			c-0.7,0-1.4,0-2.1,0c-0.7,0-1.3-0.2-1.8-0.7c-2.1,0.2-4,0.2-5.6,0.2c-1.6-0.1-3.4,0-5.3,0.2c0,1.1,0.1,2,0.2,2.7
			c0.2,0.7,0.1,1.4-0.2,2.1c-0.3,0-0.4-0.1-0.4-0.4c0-0.3,0-0.7,0-1.1c-0.1-0.5-0.3-0.9-0.5-1.3c-0.2-0.4-0.3-0.9-0.5-1.6
			c-0.3,0-0.4,0.2-0.3,0.7c0.1,0.5,0.1,0.8-0.1,1c-0.1,0-0.2-0.1-0.2-0.3c0-0.2,0-0.2,0-0.1c-0.5,0-0.7-0.2-0.7-0.5
			c0-0.3-0.1-0.6-0.3-0.8v0.4c0,0.1,0,0.2-0.1,0.3c-0.1,0.1-0.1,0.2-0.2,0.3c-1.2-0.2-2.3-0.3-3.3-0.5c-1.1-0.1-2.1-0.2-3.1-0.2
			c-0.2,0-0.3,0-0.4,0.1c-0.1,0.1-0.2,0.1-0.3,0.1c0.5,0.5,1.1,0.6,1.9,0.5c0.8-0.2,1.5-0.1,2.2,0.2c-0.1,0.5-0.6,0.7-1.3,0.5
			c-0.8-0.1-1.4-0.2-1.9-0.2c-1.6-0.2-3.2-0.3-4.8-0.4c-1.6-0.1-3.1-0.1-4.5,0c-0.2,0-0.4,0.1-0.4,0.4c-0.1,0.1-0.1,0.2,0,0.3
			c-0.8-0.1-1.7-0.1-2.8,0c-1.1,0.1-1.9,0-2.6-0.3c-0.2,0.7-0.2,1.3-0.1,1.9c0.1,0.6,0.2,1.2,0.3,1.7c0.1,0.5,0.2,1.1,0.2,1.6
			c0,0.5-0.1,0.9-0.3,1.2c-0.7-0.7-1-1.6-1.1-2.8c0-1.2-0.1-2.3-0.2-3.3c-1,0.2-1.8,0.2-2.4,0.1c-0.6-0.1-1.3-0.1-2.1-0.1
			c0.1-0.4,0.4-0.6,1-0.4c0.5,0.2,0.9,0.1,1.2-0.2c-2-0.3-4-0.5-6-0.5c-2.1,0-4.2,0-6.4,0.1c-2.2,0.1-4.4,0.2-6.6,0.3
			c-2.2,0.1-4.4,0-6.6-0.1c-0.3,0-0.4,0.2-0.3,0.5c0.1,0.3,0,0.6-0.3,0.8c-0.5,0.1-0.7,0-0.7-0.5c0-0.4-0.1-0.7-0.2-0.8h-7
			c-0.9-0.2-1.6-0.2-2.4-0.2c-0.7,0.1-1.4,0.4-2.1,1.1c-0.2,0-0.3,0-0.5-0.1c-0.1-0.1-0.2-0.2-0.2-0.5c-0.2,0.2-0.4,0.2-0.7,0.2
			c-0.3-0.1-0.5,0-0.6,0.2c-1.2-0.7-1.5-1.3-1.1-2c0.5-0.6,1.3-1,2.6-1c0-0.9-0.2-1.5-0.6-1.9c-0.3,0.3-0.8,0.4-1.6,0.3
			c-0.7-0.1-1.2-0.4-1.3-0.9c0.4-0.2,0.8-0.5,1.2-0.7c0.5-0.2,0.9-0.5,1.2-0.8c0.4-0.3,0.6-0.7,0.8-1.2c0.2-0.5,0.2-1.1,0.2-1.8
			c0.7,0.2,1.1,0.5,1.4,0.9c0.3,0.4,0.6,0.9,0.9,1.4c1.3-0.5,2.7-0.9,4.2-1.1c1.5-0.3,2.8-0.7,3.7-1.4c0.2-0.3,0.2-0.6,0.1-0.8
			c-0.1-0.2-0.1-0.4-0.1-0.5c0.6-0.3,0.8-0.7,0.6-1.3c-0.2-0.6-0.3-1.2-0.3-1.9c0.1-0.5,0.3-0.9,0.5-1.3c0.2-0.4,0.3-0.8,0.1-1.3
			c0-0.2-0.1-0.3-0.3-0.4c-0.2-0.1-0.3-0.2-0.3-0.3c0.5-0.5,0.7-1.1,0.5-1.9c-0.1-0.8-0.4-1.3-0.9-1.6c0.2-0.1,0.4-0.2,0.7-0.3
			c0.3-0.1,0.5-0.2,0.6-0.4c-0.1-0.8-0.2-1.4-0.1-1.8c0-0.4,0-1-0.1-1.6c0-0.3,0.1-0.5,0.3-0.6c0.2-0.1,0.3-0.2,0.3-0.4
			c0-2.9-0.1-5.5-0.2-7.8c-0.1-2.3-0.2-4.8-0.2-7.6c0.2-0.3,0.1-0.4-0.2-0.3c-0.3,0.1-0.5,0-0.5-0.3c0-0.7,0.3-0.9,1-0.6v-3.2
			c-0.3-0.1-0.6-0.1-0.9,0c-0.3,0.1-0.5,0-0.7-0.3c0-0.5,0.2-0.8,0.5-0.9c0.3-0.1,0.7-0.1,1.2-0.1c-0.2-0.5-0.3-1-0.3-1.5
			c0-0.5,0-1.2,0-2c0-0.2-0.2-0.3-0.6-0.2c-0.4,0-0.5-0.1-0.3-0.4c0-0.3,0.1-0.5,0.2-0.5c0.2-0.1,0.4-0.1,0.7-0.1
			c0.2-0.2,0.2-0.3,0.1-0.5c-0.1-0.1,0-0.2,0.3-0.2c0-0.3-0.1-0.5-0.3-0.6c-0.2-0.1-0.3-0.2-0.3-0.4c0.3-3.2,0.4-6.4,0.3-9.4
			c-0.1-3-0.4-6.2-0.9-9.4c-0.5,0.4-0.9,0.8-1.1,1.4c-0.3,0.6-0.5,1.2-0.7,1.8c-0.2,0.6-0.4,1.3-0.5,2c-0.2,0.7-0.4,1.3-0.6,1.8
			c-0.1,0-0.3-0.1-0.5-0.2c-0.2-0.2-0.3-0.3-0.5-0.4c0.2-0.9,0.4-1.8,0.8-2.6c0.3-0.8,0.7-1.6,1-2.4c0.3-0.8,0.6-1.6,0.8-2.4
			c0.2-0.8,0.3-1.6,0.2-2.6c0.5-0.1,0.8-0.1,0.9,0.1c0.1,0.2,0.2,0.3,0.4,0.3c0.3,1.8,0.4,3.6,0.4,5.4c-0.1,1.8,0.2,3.4,0.6,4.9
			c0.1-1,0.1-2.1,0.1-3.4c0-1.3-0.1-2.5-0.2-3.8c-0.1-1.2-0.4-2.3-0.7-3.4c-0.4-1-0.9-1.8-1.5-2.3c-0.3,0.1-0.6,0.2-1,0.1
			c-0.3-0.1-0.7-0.1-1-0.1c-1.4-0.3-2.8-0.5-4.3-0.7c-1.5-0.2-2.9-0.6-4.3-1.2c-0.2,0.1-0.3,0.4-0.2,0.8c0,0.4-0.1,0.7-0.4,0.8
			c-0.7-0.3-1.2-0.7-1.3-1.3c-0.2-0.6-0.2-1.2-0.1-1.9c0.1-0.7,0.2-1.4,0.3-2.1c0.1-0.7,0.1-1.4-0.1-2.1c-0.3-0.2-0.6-0.5-1-0.9
			c-0.4-0.4-0.5-0.9-0.3-1.4c-0.2-0.1-0.5-0.1-0.8,0c-0.4,0-0.8,0-1.2,0c-0.4,0-0.8-0.1-1.1-0.2c-0.3-0.1-0.5-0.4-0.5-0.7
			c0.5,0.1,1.1,0.2,1.8,0.1c0.7-0.1,1.3-0.1,1.8-0.1c0.1-0.3,0.1-0.5-0.1-0.6c-0.2-0.1-0.3-0.3-0.3-0.6c1.2,0.2,2.3,0.2,3.6,0
			c0.1-0.3,0.2-0.6,0.2-0.9c0-0.3,0.2-0.5,0.5-0.7c0.1,0.2,0.3,0.4,0.4,0.5c0.2,0.2,0.2,0.3,0.2,0.5c0.5,0,1.2-0.1,2.1-0.2
			c0.9-0.2,1.7-0.1,2.4,0.2c1-0.3,2.1-0.5,3.2-0.5c1.2,0,2.3,0,3.4,0.1c0.2-0.2,0.3-0.3,0.3-0.5c0-0.2,0-0.3,0-0.4
			c0-0.1,0-0.2,0-0.3c0-0.1,0.2-0.1,0.4-0.1c0.5,0,0.7,0.1,0.6,0.4c-0.1,0.2,0.1,0.5,0.4,0.6c-0.3-1.5-0.4-2.9-0.4-4.3
			c0.1-1.4,0.2-2.9,0.4-4.3c0.5,0.2,0.8,0.5,0.9,1c0.1,0.5,0.1,1.1,0,1.7c-0.1,0.7-0.2,1.4-0.3,2.1c-0.1,0.7-0.1,1.4,0,1.9
			c0.3,0.1,0.5,0.4,0.6,0.8c0.1,0.4,0.2,0.8,0.3,1.1c0.7,0.1,1.4,0.1,2.1-0.1c0.8-0.2,1.5-0.2,2.3,0.1c1.6-0.3,3.4-0.5,5.4-0.7
			c2-0.2,3.6-0.3,4.9-0.3c0.2,0,0.4,0,0.6,0c0.2,0,0.4-0.1,0.4-0.2c0.8,0.1,1.6,0,2.4-0.3c0.8-0.3,1.6-0.5,2.4-0.7
			c0.3,0,0.7,0,1.1,0c0.4,0,0.8,0,1.2,0.1c0.4,0.1,0.7,0.2,1,0.4c0.3,0.2,0.5,0.5,0.5,0.8c-2.1,0-3.9,0.2-5.5,0.5
			c-1.6,0.3-3.1,0.5-4.3,0.5c1.8,0.3,3.8,0.4,6.1,0.2c2.3-0.2,4.4-0.2,6.4-0.2c0.2-0.5,0.3-1.1,0.4-1.7c0.1-0.6,0.1-1.4,0-2.1
			c0.3-0.2,0.6-0.2,0.9-0.1c0.3,0.1,0.5,0.2,0.6,0.4v1.3c0.2-0.1,0.3-0.2,0.3-0.5c0-0.2,0-0.5,0-0.8c0-0.3,0-0.5,0-0.8
			c0-0.2,0.1-0.4,0.3-0.5c0.3,0.9,0.5,1.6,0.5,2.4c0,0.7,0.2,1.6,0.5,2.7c0.8,0,1.4,0,2,0c0.5,0,1,0.1,1.5,0.4
			c-0.1,0.4-0.2,0.6-0.5,0.6c-0.3,0.1-0.6,0.1-1,0.1c-0.4,0-0.8,0-1.2,0c-0.4,0-0.8,0.2-1.1,0.5v6c0.9-0.8,1.9-1.4,2.9-2
			c1-0.5,2.1-1,3.3-1.4c1.2-0.4,2.3-0.8,3.5-1.1c1.2-0.4,2.3-0.8,3.4-1.3c0-0.1-0.1-0.2-0.2-0.3c-0.1-0.1-0.2-0.3-0.2-0.6
			c0.5-0.3,1.2-0.5,2.1-0.5c0.9-0.1,1.6-0.1,2.1-0.1c0.7-0.7,1.6-1.3,2.6-1.6c0.1,0.2,0,0.4-0.1,0.6c-0.2,0.2-0.4,0.3-0.6,0.4
			c-0.3,0.1-0.5,0.2-0.8,0.3C511.1,417.8,510.9,417.9,510.7,418.1z M446.1,419.7c-0.1,0.2,0,0.3,0.4,0.3c0.4,0,0.6-0.1,0.6-0.3h-0.4
			c-0.1-0.1-0.2-0.2-0.3-0.1C446.4,419.7,446.2,419.7,446.1,419.7z M447.7,426.5c0.1,0,0.2,0,0.3,0.1c0.1,0.1,0.3,0.1,0.6,0.1
			c0.3-0.3,0.3-0.7,0-1.3c-0.3-0.5-0.5-1-0.7-1.3c0,0.3,0,0.6-0.1,1C447.8,425.5,447.7,426,447.7,426.5z M460.5,418.1
			c-2.1,0-4.3,0-6.4,0.1c-2.1,0.1-3.9,0.3-5.5,0.8c0.2,0.1,0.4,0.2,0.7,0.2c0.3,0,0.6,0,0.9,0.1c0.3,0.1,0.5,0.1,0.7,0.2
			c0.2,0.1,0.2,0.3,0.2,0.5h1c0-0.3-0.1-0.4-0.4-0.3c-0.2,0.1-0.5,0-0.6-0.3c0.6,0,1.3,0,2.1-0.1c0.8-0.1,1.5-0.2,2.2-0.4
			c0.7-0.2,1.4-0.3,2-0.4c0.6-0.1,1.1-0.1,1.4-0.1c-0.1,0.2-0.1,0.3,0,0.4c0.1,0.1,0,0.2-0.3,0.3c-0.2-0.1-0.5-0.2-0.8-0.2
			c-0.4,0-0.6,0.1-0.8,0.2c0.9,0,1.6,0,2.2,0c0.6,0,1.1-0.1,1.4-0.2c-0.2,0-0.4,0-0.6,0.1c-0.2,0.1-0.4,0-0.4-0.1
			c0-0.2,0.1-0.5,0.4-0.6v0.4c0,0.2,0.1,0.3,0.3,0.3C460.2,418.3,460.3,418.1,460.5,418.1z M453.7,512.2c1.3-0.3,2.9-0.6,4.7-0.8
			c1.9-0.2,3.5-0.4,4.9-0.5c-1.6,0.3-3.4,0.6-5.4,1c-2,0.4-3.9,0.5-5.4,0.5c-0.7,0.2-1.4,0.3-2.2,0.4c-0.8,0.1-1.3-0.2-1.6-0.6
			c0.9-0.5,1.8-0.7,2.7-0.7c0.9,0,1.8,0,2.4,0c0.3,0.1,0.4,0.2,0.2,0.3C453.8,511.9,453.7,512.1,453.7,512.2z M451.2,422
			c-0.3,0.1-0.7,0.2-1.3,0.2c-0.6,0-0.9,0.4-0.9,1.1c1.4,0.1,3.1,0.1,5,0c1.9-0.2,3.8-0.1,5.5,0c0.2-0.5,0.2-0.9,0.1-1.1
			c-0.1-0.3-0.1-0.7-0.1-1.1c-1.6,0-3.1,0.1-4.4,0.4C453.8,421.6,452.5,421.8,451.2,422z M449.3,420c0.2,0,0.5,0,0.8,0
			c0.4,0,0.6-0.1,0.8-0.4c-0.3,0-0.6,0-0.8,0.1c-0.2,0.1-0.4,0-0.5-0.1c-0.1,0.1-0.1,0.1-0.2,0.1C449.3,419.9,449.3,420,449.3,420z
			 M458.6,424.8c-1.2,0-2.6,0-4.3,0c-1.7,0-3.4,0.2-5,0.7c0.2,0,0.2,0.1,0.2,0.4c-0.1,0.2,0,0.5,0.2,0.6c1.6-0.3,3.2-0.4,5-0.3
			c1.7,0.1,3.6,0.1,5.5-0.1c0-0.8-0.3-1.3-0.9-1.6c0,0.5-0.1,0.7-0.2,0.5C458.9,424.9,458.7,424.8,458.6,424.8z M457.6,503.6
			c-0.1,0-0.2-0.2-0.2-0.5c0-0.3-0.2-0.5-0.5-0.5c-1.1,0.1-2.1,0.3-3,0.5c-0.9,0.2-1.9,0.5-3,0.8c-0.2,0.3-0.2,0.8-0.2,1.4
			c0.1,0.6,0,1.1-0.2,1.4c1.6-0.1,3.3-0.2,5.2-0.4c1.9-0.1,3.5-0.1,4.8,0.1v-1c-0.7,0-1.4,0-2.1-0.1c-0.8-0.1-1.5-0.1-2.3-0.1
			c-0.7,0-1.4,0.1-2.1,0.2c-0.7,0.1-1.3-0.1-1.8-0.5c0.3-0.5,0.9-0.7,1.6-0.7c0.8,0,1.5,0,2.2,0c0.8,0,1.6,0,2.5,0.1
			c0.9,0.1,1.5,0,2-0.1c-0.2-0.1-0.2-0.4-0.1-0.8c0.1-0.4,0.1-0.8,0.1-1.1c-0.9-0.1-1.4,0-1.7,0.5
			C458.5,503.2,458.1,503.4,457.6,503.6z M451.2,427.4c1.5,0,3,0.1,4.5,0.2c1.6,0.2,3,0.3,4.4,0.4c0-0.3,0-0.6,0.1-0.9
			c0.1-0.3,0-0.5-0.1-0.6c-0.7,0.2-1.5,0.4-2.3,0.4c-0.8,0-1.6,0-2.4,0c-0.8,0-1.6,0-2.3,0C452.4,426.9,451.7,427.1,451.2,427.4z
			 M458,429.9c-1-0.1-1.8-0.2-2.4-0.2c-0.6,0-1.3,0-2.1,0c0.7,0.3,1.4,0.5,2.1,0.5C456.3,430.2,457.1,430.1,458,429.9z M459.9,423.9
			c-0.3,0.1-0.5,0.1-0.6,0c-0.1-0.2-0.3-0.1-0.6,0c-0.2,0.1,0,0.2,0.5,0.2C459.6,424.1,459.9,424,459.9,423.9z M467.8,497.2
			c-0.5,0-1.1,0-1.7-0.1c-0.6-0.1-1.2-0.1-1.7-0.1s-1,0.1-1.4,0.2c-0.4,0.1-0.7,0.4-0.9,0.7c0.8,0,1.6,0,2.6,0
			c0.9,0,1.8-0.1,2.7-0.1c0.9-0.1,1.8-0.1,2.6-0.2c0.8-0.1,1.5-0.2,2.1-0.3H467.8z M475.2,503.3c-2.1-0.2-4.3-0.4-6.6-0.5
			c-2.3-0.2-4.5-0.3-6.6-0.5v1.9c2.6-0.1,4.9-0.1,7-0.1c2.1,0,4.2,0,6.2,0c2,0,4,0,6-0.1c2-0.1,4.1-0.2,6.4-0.4
			c-1.8-0.4-3.8-0.5-6-0.4C479.5,503.4,477.3,503.4,475.2,503.3z M483.8,504.8c-1,0-2.1,0-3.3-0.1c-1.2-0.1-2.5-0.1-3.7-0.1
			c-2.3,0-4.3,0.1-6,0.2c-1.8,0.1-3.7,0.3-5.8,0.5c-0.5,0-1.1,0-1.7,0c-0.6,0-1.1,0.3-1.2,1c3.5,0,6.9-0.1,10.1-0.3
			c3.2-0.2,6.4,0,9.8,0.6c-0.6,0-0.9,0.1-0.9,0.3c0.5,0.2,1,0.2,1.6,0c0.6-0.2,1.2-0.2,1.9,0c0.1-0.3,0.3-0.5,0.6-0.5
			c0.3-0.1,0.7-0.1,1.1-0.1c0.4,0,0.7,0,1-0.1c0.3-0.1,0.5-0.2,0.5-0.5c-0.1-0.4-0.2-0.6-0.5-0.7c-0.2-0.1-0.5-0.2-0.9-0.2
			c-0.4,0-0.8,0-1.2,0.1C484.7,504.8,484.3,504.8,483.8,504.8z M470.4,426.7c-1.3,0-2.7,0-4.1,0c-1.5,0-2.7,0.2-3.8,0.7
			c2.9,0.7,6,0.9,9.1,0.8c3.2-0.1,6.3-0.2,9.4-0.2c1.1-0.1,2.2-0.2,3.3-0.1c1.1,0,2.1,0,3.1-0.1c0.3,0,0.7-0.1,1.1-0.4
			c0.4-0.2,0.8-0.1,1.1,0.4c-0.2,0.3-0.4,0.5-0.8,0.6c-0.3,0.1-0.7,0.2-1.1,0.2c-0.4,0-0.8,0-1.3-0.1c-0.5-0.1-0.9-0.1-1.3-0.1
			c-1.4,0.1-3,0.3-4.7,0.4c-1.7,0.2-3.2,0.2-4.5,0.2c-0.3,0-0.6,0-0.9-0.1c-0.3-0.1-0.5-0.2-0.7-0.5c-0.7,0.2-1.5,0.4-2.2,0.4
			c-0.7,0-1.5,0-2.2,0c-0.8,0-1.5,0-2.3,0c-0.8,0-1.5,0.1-2.2,0.3c1,0.7,2.1,0.9,3.3,0.8c1.2-0.1,2.6-0.2,4.1-0.2c3,0,6.2,0,9.4,0
			c3.2,0,6.1-0.1,8.5-0.3c0.1-0.3,0.2-0.8,0.2-1.4c0-0.6-0.1-1.1-0.2-1.4c-3.4,0.3-6.8,0.5-10.1,0.5
			C477.2,427,473.8,426.9,470.4,426.7z M485.5,455.5H472c-1.5,0.2-3.1,0.3-4.8,0.5c-1.8,0.1-3.4,0.5-4.8,1.2c2.3-0.1,4.6,0,6.9,0
			c2.3,0.1,4.5,0.2,6.7,0.3c2.2,0.1,4.4,0.1,6.5,0.1c2.1,0,4.2-0.2,6.2-0.5c0-0.5-0.1-0.8-0.4-1.1c-0.2-0.2-0.5-0.4-0.9-0.5
			c-0.3-0.1-0.7-0.1-1.1-0.1C486,455.5,485.7,455.5,485.5,455.5z M485.8,458.1c-1.8,0.3-3.7,0.5-5.7,0.5c-2,0-3.9-0.1-5.9-0.2
			c-2-0.1-3.9-0.2-5.9-0.4c-2-0.1-4-0.1-5.9,0.1v1.6c1.9-0.1,3.9-0.1,5.9-0.1c2.1,0,4.1,0,6.2,0c2.1,0,4.1,0.1,6,0.1
			c2,0,3.8,0,5.5,0c0.3,0,0.8,0,1.4,0c0.6,0,1-0.2,1.2-0.7c-0.1-0.3-0.3-0.5-0.5-0.6c-0.2-0.1-0.5-0.1-0.7-0.1c-0.3,0-0.6,0-0.9,0
			C486.3,458.4,486,458.3,485.8,458.1z M482.3,486.3c-2.7,0-5.5,0-8.2,0c-2.7,0-5.4,0.1-8.2,0.3c-0.7,0-1.3,0-2,0
			c-0.7,0-1.2,0.2-1.5,0.7c1.6,0.2,3.1,0.3,4.6,0.2c1.5,0,3,0,4.5,0c1.5,0,3,0,4.6,0c1.5,0,3.1,0.2,4.8,0.4c0.3-0.3,0.7-0.4,1.3-0.4
			c0.5,0,1.1,0,1.6,0c0.7,0,1.4,0,2.1,0c0.8,0,1.2-0.2,1.4-0.7c-0.9-0.5-1.7-0.7-2.6-0.7C483.9,486.3,483.1,486.3,482.3,486.3z
			 M462.4,488.8c4.3,0,8.3,0.2,12,0.6c3.7,0.4,7.5,0.5,11.3,0.4c0.2,0,0.5,0,1,0c0.5,0,0.7-0.2,0.7-0.7v-0.4c-2-0.2-4-0.3-6.1-0.4
			c-2.1-0.1-4.3-0.2-6.5-0.2c-2.2,0-4.3,0-6.4,0.1C466.2,488.4,464.3,488.6,462.4,488.8z M474.6,490.1c-1.9-0.2-3.6-0.2-5.1,0
			c-0.5,0.1-1.2,0.1-1.9,0c-0.7-0.1-1.4-0.2-2.1-0.2c-0.7,0-1.3,0-1.8,0.1c-0.5,0.1-0.9,0.3-1.2,0.7c1.9-0.1,3.9,0,6.1,0
			c2.2,0.1,4.3,0.2,6.5,0.2c2.2,0.1,4.3,0.1,6.4,0.1c2.1,0,4.1-0.1,5.9-0.4c-1.8-0.4-3.8-0.6-6.2-0.6
			C478.9,490.1,476.7,490.1,474.6,490.1z M463.1,492.4c0,0.1-0.1,0.2-0.2,0.3c-0.1,0.1-0.2,0.2-0.2,0.4c-0.2,0-0.3,0.1-0.3,0.3
			c1.8,0.1,3.8,0.2,6,0.3c2.2,0.1,4.5,0.2,6.7,0.3c2.3,0.1,4.4,0.2,6.4,0.2c2,0,3.6,0,4.9-0.1c-2.3-0.2-4.3-0.3-6.2-0.5
			c-1.9-0.1-3.7-0.2-5.5-0.3c-1.8-0.1-3.6-0.2-5.5-0.3C467.4,492.7,465.3,492.6,463.1,492.4z M462.7,494.3c-0.1,0.1-0.2,0.3-0.2,0.6
			c0,0.3,0,0.6,0,0.9c2.1,0.1,4.2,0.3,6.3,0.4c2,0.2,4.1,0.3,6.1,0.5c2,0.2,4.1,0.3,6.2,0.3c2.1,0.1,4.3,0,6.6-0.2v-1.6
			c-2.3-0.2-4.5-0.3-6.5-0.2c-2,0-4.1,0-6,0c-2,0-4,0-6-0.1C467.1,494.8,465,494.6,462.7,494.3z M462.7,469.6
			c3.5-0.3,7.3-0.3,11.2,0c3.9,0.3,7.7,0.4,11.2,0.3c0.5,0,1.1,0,1.7,0c0.6,0,1.1-0.2,1.2-0.7c-0.3-0.3-0.7-0.5-1.3-0.5
			c-0.5-0.1-1-0.1-1.3-0.1c-3.7,0-7.5,0-11.3,0c-3.8,0-7.5-0.1-11.1-0.3c-0.2-0.3-0.1-0.6,0.2-0.9c0.3-0.3,0.3-0.4,0-0.4
			c-0.3,0-0.5,0.1-0.6,0.3c-0.1,0.2-0.2,0.4-0.2,0.7c0,0.3,0,0.5,0.1,0.8C462.7,469.1,462.7,469.4,462.7,469.6z M462.7,426.1
			c4,0,7.8,0,11.2,0.1c3.5,0.1,7,0,10.5-0.1c0.3-0.1,0.6-0.1,1,0c0.3,0.1,0.7,0,1-0.3c-1.8,0.1-3.3,0.1-4.7,0
			c-1.3-0.2-2.7-0.1-3.9,0c-0.2,0-0.2-0.1-0.2-0.2c0.1-0.1,0-0.2-0.2-0.2c-2.3,0.3-4.5,0.3-6.7,0c-2.2-0.3-4.8-0.4-7.6-0.2h-0.4
			c0.2,0.3,0.2,0.5,0,0.6C462.6,425.9,462.6,426,462.7,426.1z M486.4,465.5c-1.3-0.2-2.5-0.2-3.5-0.1c-1.1,0.1-2.2,0.1-3.5,0.1
			c-2.3-0.2-4.8-0.3-7.7-0.4c-2.9-0.1-5.4,0.1-7.7,0.4c-0.2-0.1-0.5-0.2-0.7-0.2c-0.2,0-0.4,0.1-0.5,0.2c-0.2,0.1-0.2,0.3,0,0.6
			c3.4-0.2,6.9-0.2,10.3-0.1c3.5,0.1,6.8,0.2,9.9,0.4c1,0,2,0,2.9,0c1,0,1.7-0.2,2.2-0.7c0-0.5-0.2-0.7-0.7-0.5
			C486.9,465.4,486.6,465.5,486.4,465.5z M474.6,473.2c-1.8,0-3.5,0-5.3-0.1c-1.7-0.1-3.4,0-5,0.1c-0.2,0-0.5,0-1.1,0
			c-0.5,0-0.7,0.2-0.6,0.7c0.5,0.2,1.2,0.4,2.1,0.4c0.9,0,1.8,0,2.8,0c0.9,0,1.8,0,2.7,0c0.9,0.1,1.4,0.2,1.7,0.5
			c1.1-0.3,2.3-0.4,3.5-0.2c1.2,0.2,2.4,0.2,3.6,0.2h4.8c0.9,0.2,1.6,0.4,2.4,0.5c0.7,0.2,1.4,0,2.1-0.5c-2-0.3-4.1-0.6-6.5-0.9
			C479.4,473.5,477,473.3,474.6,473.2z M466.3,484.1c-0.4,0.1-0.9,0.1-1.3,0.1c-0.4,0-0.8,0-1.2,0.1c-0.4,0.1-0.7,0.2-0.9,0.4
			c-0.2,0.2-0.3,0.5-0.2,1c1.5-0.2,3.2-0.3,5.1-0.2c2,0,4,0.1,6.1,0.1c2.1,0.1,4.1,0.1,6.1,0.2c2,0.1,3.7,0,5.1-0.1
			c0.3,0,0.7,0,1.1,0c0.5,0,0.6-0.2,0.5-0.7c-3.4-0.5-6.8-0.8-10.3-0.8C473,484.1,469.6,484.1,466.3,484.1z M466.6,420.7
			c-0.2,0.2-0.4,0.4-0.7,0.4c-0.3,0-0.6,0-1,0c-0.4-0.1-0.7-0.1-1-0.1c-0.3,0-0.5,0-0.7,0c-0.2,0.3-0.3,0.6-0.3,1c0,0.3,0,0.7,0,1
			c2,0.1,4.1,0.2,6.4,0.4c2.3,0.1,4.5,0.2,6.8,0.2c2.3,0,4.5,0,6.7-0.1c2.2-0.1,4.2-0.4,6-0.7c-2.7-0.2-5.4-0.3-8.1-0.5
			c-2.7-0.1-5.5-0.2-8.6-0.2c-0.3,0-0.7,0-1.1,0.1c-0.5,0.1-0.9,0.1-1.3,0.1c-0.4,0-0.8-0.1-1.1-0.2c-0.3-0.1-0.5-0.3-0.6-0.6
			c2.7-0.2,5.7-0.1,8.7,0.2c3.1,0.3,6.5,0.5,10.2,0.5c0.7,0,1.3,0,2,0c0.7,0,1.2-0.2,1.5-0.7c-3.5-0.2-7.4-0.3-11.5-0.4
			C474.6,420.9,470.6,420.8,466.6,420.7z M490,423.5c-2.1,0.4-4.3,0.7-6.8,0.7c-2.4,0.1-4.9,0-7.3,0c-2.4-0.1-4.8-0.2-7.1-0.3
			c-2.3-0.1-4.3-0.1-6.1,0c0.5,0.3,1.1,0.5,1.8,0.5c0.7,0.1,1.4,0.1,2.1,0.1c1.2-0.2,2.3-0.2,3.6,0c1.2,0.2,2.4,0.4,3.5,0.6
			c1.8,0,3.6,0,5.4,0.1c1.9,0.1,3.7,0,5.4-0.1c2.2,0,4.1-0.3,5.8-1c0-0.2-0.1-0.3-0.2-0.5C490,423.6,490,423.6,490,423.5z
			 M462.7,455.5c0.2,0,0.4,0,0.6,0.1c0.2,0.1,0.4,0,0.4-0.1c0-0.3-0.2-0.4-0.5-0.3C462.9,455.3,462.7,455.4,462.7,455.5z M481.6,461
			c-0.5,0.3-1.1,0.4-1.8,0.4c-0.7-0.1-1.4-0.1-2.1-0.1c-2.1,0-4.6-0.1-7.3-0.3c-2.7-0.2-5.3,0-7.8,0.6c0.1,0.4,0.2,0.6,0.5,0.7
			c0.3,0.1,0.6,0.2,0.9,0.2c0.3,0,0.6,0,1-0.1c0.3-0.1,0.6-0.1,0.9-0.1c3.4,0,6.9,0.1,10.4,0.2c3.5,0.2,7.2,0.1,11.1-0.2
			c-0.2-0.2-0.5-0.4-1.1-0.4c-0.5,0-1.1,0-1.7,0c-0.6,0-1.2,0-1.8-0.1C482.3,461.6,481.9,461.4,481.6,461z M485.8,470.9
			c-1.6,0-3.3,0-5.1-0.1c-1.8-0.1-3.6-0.1-5.4-0.2c-1.8-0.1-3.6-0.1-5.3-0.1c-1.7,0-3.3,0-4.8,0.1c-0.5,0-1,0-1.5,0
			c-0.5,0-0.9,0.2-1.1,0.7c1.5,0,3.2,0,5.2,0.1c1.9,0.1,3.9,0.1,5.9,0.2c2,0.1,4.1,0.2,6.2,0.2c2.1,0.1,4.1,0.1,6.1,0.1
			c0.3,0,0.7,0,1.1,0c0.4,0,0.7-0.1,0.9-0.4c0-0.7-0.3-0.9-0.8-0.8C486.8,470.8,486.2,470.9,485.8,470.9z M486.1,477.7
			c-4,0.1-8,0.2-12.1,0.2c-4,0-7.8-0.1-11.3-0.2v0.3h0.4c0.5,0.3,1.1,0.4,2,0.4c0.8,0,1.7,0,2.5,0c2.9,0.1,6,0.2,9.2,0.4
			c3.2,0.1,6.4,0.1,9.6-0.1c0.3,0,0.7,0.1,1.2,0.2c0.5,0.1,0.9-0.2,1.1-0.8c-0.3-0.3-0.7-0.4-1.3-0.4
			C486.9,477.6,486.4,477.7,486.1,477.7z M478.1,479.2c-1,0.2-2.2,0.2-3.6,0.2c-1.3-0.1-2.7-0.1-4.1-0.1c-1.4,0-2.8,0-4.1,0
			c-1.3,0-2.5,0.1-3.6,0.4v0.6c1.9,0.2,3.9,0.2,6,0.2c2.1-0.1,4.3-0.1,6.5-0.2c2.2-0.1,4.4-0.1,6.7-0.2c2.3-0.1,4.5,0,6.8,0.2
			c-0.9-0.3-1.9-0.5-2.9-0.5c-1-0.1-2-0.1-3,0c-1,0-1.9,0-2.7,0C479.2,479.6,478.6,479.5,478.1,479.2z M462.7,482.4v0.4v0.3
			c1.6,0.2,3.4,0.3,5.4,0.3c2,0,4.2,0,6.4,0c1.2,0,2.4,0,3.7,0.1c1.3,0.1,2.6,0.2,3.8,0.2c1.2,0,2.5,0,3.6-0.1
			c1.2-0.1,2.2-0.3,3.2-0.6c-4.3-0.1-8.7-0.3-13.1-0.4C471.5,482.5,467.1,482.4,462.7,482.4z M463.1,418.8c1-0.2,2.2-0.3,3.4-0.4
			c1.2-0.1,2.5-0.1,3.7-0.2c1.3-0.1,2.5-0.1,3.8-0.2c1.2-0.1,2.4-0.3,3.4-0.5c-2.4,0-4.6,0.1-6.8,0.2c-2.1,0.1-4.2,0.3-6.3,0.5
			c0.1-0.1,0.1-0.1,0.1-0.2c0-0.1,0-0.2-0.1-0.2c-0.5,0.2-0.6,0.3-0.5,0.3c0.2,0,0.1,0-0.2,0c-0.2-0.3-0.3-0.3-0.4,0
			C463.3,418.4,463.2,418.6,463.1,418.8z M463.1,449.8v1.3c2.6,0,5,0,7.4,0c2.3,0,4.8,0.1,7.4,0.3c1.3,0,2.9,0,4.8,0
			c1.9,0,3.5-0.1,4.8-0.3c0.3,0,0.6,0,1-0.1c0.4-0.1,0.5-0.3,0.5-0.8c-4-0.3-8.2-0.5-12.5-0.6C472.2,449.4,467.7,449.5,463.1,449.8z
			 M463.1,452.3c1.6,0.1,3.4,0.2,5.4,0.3c1.9,0.1,3.8,0.2,5.8,0.2c1.9,0.1,3.8,0.1,5.6,0.1c1.8,0,3.5-0.1,5-0.3c0.5,0,1-0.1,1.6-0.4
			c0.5-0.2,1-0.1,1.3,0.4c0,0.3-0.1,0.5-0.3,0.6c-0.2,0.1-0.4,0.2-0.6,0.2c-0.2,0-0.5,0-0.8,0c-0.3,0-0.6,0-0.8,0.1
			c-0.5,0-0.9,0-1.3,0c-0.4,0-0.8,0.1-1.3,0.3c-1-0.2-2.1-0.3-3.5-0.3c-1.3,0-2.7,0-4.2,0c-1.5,0-2.9,0-4.3,0c-1.4,0-2.6,0-3.7-0.1
			c-0.9,0-1.6-0.1-2.3-0.2c-0.7-0.1-1.2,0.2-1.5,0.8c4.5,0.3,8.9,0.5,13.2,0.5c4.3,0,8.4,0,12.4-0.1c0.1-0.3,0.2-0.7,0.2-1.3
			c0-0.5-0.1-1-0.2-1.3c-2.3,0.1-4.4,0.1-6.5,0c-2.1,0-4.2-0.1-6.3-0.1c-2.1-0.1-4.2-0.1-6.3,0C467.5,452,465.3,452.1,463.1,452.3z
			 M486.1,463.2c-1.4-0.2-2.9-0.3-4.5-0.3c-1.6,0-3.2,0-4.9,0c-1.7,0-3.4,0.1-5,0.1c-1.7,0.1-3.3,0.1-4.8,0.1h-2.3
			c-0.1,0-0.4,0-0.9,0c-0.5,0-0.7,0.2-0.7,0.7c0,0.2,0.3,0.2,0.9-0.1c0.6-0.2,1-0.2,1.3,0.1c0,0.2-0.1,0.4-0.4,0.4
			c-0.1,0.1-0.2,0.1-0.3,0c4.4,0,8.5,0.1,12.4,0.4c3.9,0.2,7.4,0.1,10.7-0.4c-0.1-0.5-0.3-0.8-0.6-0.9
			C486.7,463.3,486.4,463.2,486.1,463.2z M463.1,498.8c1.9,0,3.8,0.1,5.7,0.2c1.9,0.2,3.8,0.3,5.7,0.5c1.9,0.2,3.7,0.2,5.6,0.3
			c1.8,0,3.6-0.1,5.4-0.3c0-0.2-0.1-0.3-0.2-0.4c-0.1-0.1-0.2-0.2-0.2-0.3c-3.8-0.3-7.5-0.5-11-0.6
			C470.6,498.1,466.9,498.3,463.1,498.8z M483.8,501.6c-0.7,0-1.3,0-1.9,0c-0.6,0-1.1-0.1-1.6-0.2c-1.2,0.2-2.6,0.2-4,0.1
			c-1.5-0.1-3-0.2-4.5-0.3c-1.6-0.1-3.1-0.1-4.6-0.1c-1.5,0-2.9,0.2-4.2,0.5c3.8,0.2,7.8,0.4,12,0.6c4.2,0.2,7.9,0.2,11.3,0
			c0.3,0,0.6,0.1,0.9,0.2c0.3,0.2,0.5,0.1,0.7-0.2c-0.3-0.6-0.9-0.9-1.7-0.8C485.5,501.6,484.6,501.6,483.8,501.6z M484.5,446.6
			c-0.1,0-0.2-0.2-0.2-0.5c0-0.3-0.2-0.5-0.5-0.5c-2,0.1-3.7,0.1-5.3,0c-1.6,0-3.2-0.1-4.8-0.1c-1.6,0-3.2,0-4.8,0
			c-1.7,0-3.5,0-5.5,0.1c0,0.3,0,0.6-0.1,0.8c-0.1,0.2,0,0.5,0.1,0.8c1.5,0.2,3.2,0.4,5,0.5c1.8,0.1,3.7,0.1,5.6,0
			c1.9,0,3.7-0.1,5.5-0.2c1.8-0.1,3.5-0.2,5-0.3c0.2-0.2,0.5-0.3,0.9-0.2c0.4,0,0.9,0,1.3,0c0.5,0,0.9,0,1.3-0.1
			c0.4-0.1,0.7-0.3,0.9-0.6c-1-0.5-1.8-0.6-2.5-0.3C485.8,446.3,485.1,446.5,484.5,446.6z M463.7,437v6.8c2.7-0.5,5.5-0.7,8.1-0.7
			c2.7,0,5.4-0.1,8.1-0.3c-2.7-0.1-5.1-0.2-7.3-0.3c-2.2-0.1-4.7-0.2-7.4-0.4c0-0.3-0.2-0.5-0.5-0.6c-0.3-0.1-0.5-0.4-0.5-0.9
			c0.5-0.5,1.1-0.7,1.8-0.5c0.7,0.1,1.5,0.2,2.3,0.2c2.4-0.1,4.9-0.3,7.4-0.5c2.5-0.2,4.9-0.5,7.3-0.8c-2.1,0-4,0-5.7-0.1
			c-1.7-0.1-3.5-0.2-5.5-0.5c-0.7,0.2-1.5,0.3-2.5,0.3c-1,0-2,0-3,0c-0.2,0-0.5,0-0.7,0.1c-0.2,0.1-0.5,0.1-0.7,0.1
			c-0.2,0-0.4-0.1-0.5-0.2c-0.2-0.1-0.2-0.3-0.2-0.6c1.8-0.2,3.8-0.2,5.9-0.2c2.1,0.1,4.2,0.2,6.3,0.3c2.1,0.2,4.1,0.3,6,0.5
			c1.9,0.2,3.6,0.3,5.2,0.3c0.2,0,0.6,0,1,0c0.4,0,0.8,0,1.1-0.1c0.4-0.1,0.7-0.2,0.9-0.5c0.2-0.2,0.3-0.6,0.2-1.1
			c-4.6-0.2-9.2-0.4-13.8-0.7C472.5,436.4,468,436.5,463.7,437z M463.7,475.7c2.7,0.1,5.7,0.2,8.7,0.2c3.1,0,5.8-0.1,8.2-0.2
			c-2.9-0.2-5.8-0.4-8.6-0.6C469.2,474.9,466.5,475.1,463.7,475.7z M464.6,511.2h-0.9c0-0.1,0.2-0.2,0.5-0.3
			C464.5,510.8,464.6,510.9,464.6,511.2z M482.6,433.1c-1,0-1.9,0-2.7-0.1c-0.8-0.1-1.7-0.1-2.7-0.1c-2.1,0-4.3-0.1-6.4-0.2
			c-2.1-0.2-4-0.1-5.8,0.2c-0.7,0.1-1,0.2-1,0.4c0,0.1,0,0.5,0,1.2c3.4,0.2,6.7,0.3,9.8,0.3c3.1,0,6.5,0,10,0c0.5,0,1,0,1.5,0.1
			c0.5,0.1,1,0.1,1.6,0.1c0.5,0,1-0.1,1.4-0.2c0.4-0.1,0.8-0.3,1-0.6c-1-0.3-2-0.5-3.2-0.6C485,433.4,483.8,433.3,482.6,433.1z
			 M489.3,435.7h-2.9c-1.3-0.1-2.5-0.2-3.6-0.1c-1.1,0.1-2.1,0.1-3.1,0.1c-1.2,0-2.3-0.1-3.6-0.2c-1.2-0.2-2.4-0.1-3.5,0.2
			c-1.3-0.1-2.7-0.2-4.3-0.2c-1.6,0-3.1,0.1-4.3,0.2c2.3-0.1,4.6,0,7,0c2.4,0.1,4.7,0.2,7.1,0.3c2.3,0.1,4.6,0.2,6.8,0.3
			c2.2,0.1,4.2,0.1,6,0c-0.1,0-0.1-0.1,0-0.2c0.2-0.1,0.1-0.3,0-0.5c-0.5-0.1-0.7-0.2-0.8-0.1C490.1,435.7,489.8,435.7,489.3,435.7z
			 M464,467.4c2.7,0.1,5.7,0.2,8.7,0.2c3.1,0,6.1,0,9.2,0c0.9,0.2,1.9,0.3,3.2,0.4c1.3,0.1,2.3-0.2,2.9-0.6c-1.8,0-3.8-0.1-5.9-0.2
			c-2.1-0.2-4.2-0.3-6.3-0.4c-2.1-0.1-4.2-0.1-6.2-0.1C467.7,466.8,465.8,467,464,467.4z M464.6,476.7c0.3,0,0.6,0,0.9,0.1
			c0.3,0.1,0.5,0,0.7-0.1c-0.3-0.1-0.7-0.2-1.1-0.2C464.8,476.5,464.6,476.5,464.6,476.7z M464.6,491.8c1.8,0.1,3.7,0.2,5.6,0.3
			c1.9,0.2,3.8,0.3,5.7,0.4c1.9,0.1,3.9,0.2,5.8,0.2c2,0,3.9-0.1,5.9-0.3c-2-0.2-3.9-0.3-6-0.5c-2-0.1-4.1-0.2-6.1-0.3
			c-2-0.1-4-0.1-5.9,0C467.9,491.6,466.2,491.7,464.6,491.8z M474.9,510c-0.7,0.2-1.4,0.4-2.3,0.6c-0.9,0.2-1.8,0.3-2.7,0.3
			c-0.9,0.1-1.9,0.1-2.8,0.1c-0.9,0-1.7,0-2.5,0c2-0.2,3.7-0.4,5.4-0.5C471.7,510.3,473.3,510.1,474.9,510z M465.6,444.7
			c1.4-0.1,2.8-0.1,4.1,0.1c1.3,0.2,2.6,0.4,3.9,0.5c0.3,0,0.6,0,0.8-0.1c0.2-0.1,0.5-0.1,0.8-0.1c1.3,0,2.8,0.1,4.5,0.4
			c1.7,0.2,3.3,0.2,4.7-0.1c0.3-0.1,0.7-0.4,1.1-0.8c0.5-0.4,0.6-0.7,0.5-0.8c-1.5,0-3.2,0-5.1-0.1c-1.9-0.1-3.7-0.1-5.6,0
			c-1.9,0-3.6,0.1-5.3,0.3C468.4,444,466.9,444.3,465.6,444.7z M465.9,481.5c3.2,0,6.6,0.1,10.2,0.4c3.5,0.3,7,0.4,10.3,0.2
			c0.5,0,0.9,0,1.4-0.1c0.4-0.1,0.7-0.2,0.9-0.5c-1.6-0.2-3.3-0.4-5.3-0.5c-1.9-0.1-3.9-0.1-5.9-0.1c-2,0-4,0.1-6,0.2
			C469.6,481.2,467.7,481.3,465.9,481.5z M468.2,441.2c3.4,0.3,6.8,0.5,10.4,0.6c3.6,0.1,7,0.1,10.4,0c0.3-0.3,0.7-0.5,1.1-0.7
			c0.4-0.2,0.7-0.5,0.8-1c-1.6,0.2-3.3,0.4-5.2,0.4c-1.9,0-3.8,0-5.8-0.1c-2-0.1-4-0.1-5.9,0C471.9,440.5,470,440.8,468.2,441.2z
			 M469.5,476.7c1.5,0.1,3,0.2,4.6,0.3c1.6,0.1,3.3,0.2,5,0.2c1.7,0,3.4,0,5-0.1c1.6-0.1,3.2-0.3,4.6-0.6c-3.2-0.2-6.4-0.2-9.5,0
			C476.1,476.6,472.8,476.7,469.5,476.7z M471.4,472.5c2.9,0,5.8,0.1,8.6,0.4c2.8,0.3,5.6,0.4,8.3,0.2c-3-0.3-5.9-0.6-8.7-0.8
			C476.9,472.2,474.1,472.2,471.4,472.5z M486.1,500.4c-1.3,0-2.5,0-3.6,0c-1.1,0-2,0.1-2.8,0.3c-1.3-0.2-2.6-0.3-4-0.4
			c-1.4-0.1-2.6,0.1-3.7,0.4c2.7,0,5.5,0.1,8.2,0.3c2.7,0.2,5.2,0.2,7.5,0c-0.1-0.3-0.4-0.5-0.8-0.5
			C486.5,500.4,486.2,500.4,486.1,500.4z M485.8,419.4v-0.2c0-0.1-0.1-0.2-0.3-0.2c-0.7,0.2-1.5,0.4-2.5,0.5c-1,0.1-2,0.1-3.1,0.1
			c-1.1,0-2.2,0-3.3,0c-1.1,0-2.1,0-3,0c-0.7,0.1-1,0.2-1.1,0.2c-0.1,0,0,0.1,0.3,0.1c0.2,0,0.5,0,0.9,0c0.4,0,0.7,0,0.9,0
			c1.4,0,3.1,0,5.1,0.1c2,0.1,3.8,0.1,5.4,0.1c0.4,0,0.9,0,1.5,0c0.5,0,1.1,0,1.6-0.1c0.5-0.1,1-0.1,1.4-0.2
			c0.4-0.1,0.6-0.2,0.7-0.4c-0.5-0.3-0.9-0.5-1.4-0.5c-0.4,0-0.8,0.1-1.2,0.2c-0.4,0.1-0.7,0.2-1.1,0.3
			C486.3,419.7,486,419.7,485.8,419.4z M473,448.5c2,0.2,4.2,0.4,6.7,0.6c2.5,0.2,4.9,0.2,7.1,0c0.3,0,0.7,0,1.3-0.1
			c0.6-0.1,0.9-0.5,0.9-1.1c-1.5,0-2.9,0-4.2,0.1c-1.3,0.1-2.5,0.2-3.8,0.3c-1.2,0.1-2.5,0.2-3.8,0.3
			C475.9,448.6,474.5,448.6,473,448.5z M488.3,430.3c-0.8-0.2-1.6-0.2-2.5-0.1c-0.9,0.1-1.8,0.1-2.6,0.1c-1.4,0-2.9,0-4.3,0.1
			c-1.5,0.1-3,0.1-4.6,0.1c1.5,0.5,2.9,0.8,4.4,0.9c1.5,0.1,3.1,0.1,4.9,0.1c0.8,0.1,1.6,0.2,2.5,0.3c0.9,0.2,1.6,0.2,2.3,0.2
			c0.7,0,1.2-0.1,1.7-0.3c0.5-0.2,0.8-0.6,0.8-1.3c-0.5,0.3-0.9,0.3-1.3,0.1C489.2,430.4,488.8,430.3,488.3,430.3z M477.8,510
			c-0.2,0.3-0.6,0.5-1.2,0.5c-0.6,0-1.1,0.1-1.4,0.2c-0.2-0.5,0.1-0.7,0.8-0.7C476.7,509.9,477.3,510,477.8,510z M476.8,432.2
			c0.3,0,0.6,0,0.8,0c0.2,0,0.5-0.1,0.8-0.4c-0.5,0-0.8,0-1.1,0C477.2,431.8,477,431.9,476.8,432.2z M481.3,509
			c0.2,0.1,0.3,0.2,0.4,0.3c0.1,0.1,0.1,0.2,0,0.4c0.5,0.1,0.9,0.1,1.2,0c0.3-0.1,0.5,0,0.7,0.3c0-0.3,0.1-0.5,0.4-0.5
			c0.2,0,0.4-0.2,0.5-0.5c0,0.1,0.1,0.3,0.3,0.5c0.2,0.2,0.3,0.3,0.3,0.5c-1.1,0-2.2,0-3.4,0c-1.2,0-2.4,0.1-3.7,0.3
			c0-0.2,0.2-0.4,0.5-0.5c0.3-0.1,0.7-0.1,1.1-0.1c0.4,0,0.8,0,1.1-0.1C481.1,509.5,481.3,509.3,481.3,509z M482.3,460.7
			c1,0,2.1,0.1,3.4,0.2c1.3,0.2,2.3,0.1,3-0.2c-0.9,0-1.9,0-3.1-0.1C484.4,460.5,483.3,460.5,482.3,460.7z M488,485.4
			c0.1,0.1,0.3,0.2,0.5,0.1c0.2,0,0.4-0.2,0.4-0.5C488.4,485,488,485.1,488,485.4z M488.3,487.3c0.3,0.1,0.5,0,0.5-0.3
			c0.1-0.3,0.1-0.5,0.1-0.7h-0.6c0,0.3,0,0.5-0.1,0.6C488.2,487,488.2,487.1,488.3,487.3z M488.3,489.5h0.6v-0.9h-0.6V489.5z
			 M489,509.7c0-0.2,0.1-0.3,0.3-0.2c0.2,0,0.3-0.1,0.3-0.4c0-0.2-0.1-0.2-0.4,0C488.9,509.1,488.8,509.4,489,509.7z M490.2,502.6
			c0.5,0.3,1.1,0.4,2,0.4c0.8,0,1.6,0,2.2,0.2c0-0.3,0-0.6-0.1-0.8c-0.1-0.2,0-0.5,0.1-0.8c-0.4,0.1-0.9,0.1-1.4,0
			c-0.5-0.1-0.9-0.1-1.4-0.1c-0.4,0-0.8,0.1-1.1,0.2C490.4,501.8,490.2,502.2,490.2,502.6z M490.6,504.2h5.4
			c0.5-0.1,0.7-0.1,0.6-0.1c-0.1,0-0.3-0.1-0.5-0.1c-0.3-0.1-0.6-0.1-1-0.1c-0.4,0-0.6-0.1-0.6-0.2c-0.2,0.3-0.4,0.4-0.5,0.4
			c-0.2,0-0.4,0-0.7,0l0.3-0.4c-0.3,0.3-0.7,0.4-1.3,0.1c-0.5-0.2-1.1-0.3-1.6-0.1V504.2z M501.8,505.2c-0.8-0.1-1.7-0.1-2.7-0.1
			c-1,0-2.1,0-3.1,0c-1,0-2,0-3,0c-0.9,0-1.7-0.1-2.3-0.2c0,0.3,0,0.5,0.1,0.6c0.1,0.1,0,0.2-0.1,0.4c1.1,0,2.4,0,3.8,0.1
			c1.4,0.1,2.9,0,4.5-0.1c0.5,0.5,1.2,0.7,2.1,0.5c0.9-0.2,1.6-0.2,2.1-0.2c-0.1-0.3-0.1-0.5,0-0.6c0.2-0.1,0.1-0.3,0-0.6
			c-0.3-0.3-0.5-0.4-0.7-0.2C502.1,504.8,501.9,505,501.8,505.2z M491.2,475.1c-0.1-0.5-0.2-0.7-0.3-0.8c-0.1,0-0.2,0.1-0.2,0.3
			c0,0.2,0,0.5,0,0.7c0.1,0.3,0.2,0.5,0.5,0.7c-0.2-0.1-0.2-0.3-0.1-0.5C491.2,475.4,491.2,475.2,491.2,475.1z M512.4,435.7
			c0-0.4-0.1-0.6-0.4-0.6c-0.7,0.2-1.3,0.3-1.9,0.4c-0.6,0.1-1.1,0.2-1.6,0.3c1,0,2.2,0.1,3.6,0.3c1.4,0.2,2.7,0.4,3.8,0.7
			c0.2,0.3,0.4,0.5,0.7,0.7c0.3,0.2,0.6,0.4,1,0.5c0.3,0.2,0.6,0.3,0.9,0.4c0.2,0.1,0.4,0.3,0.4,0.5c-1.2-0.5-2.3-1.1-3.4-1.7
			c-1.1-0.6-2.3-1-3.6-1.1c-1.5-0.2-3.1-0.3-4.6-0.1c-1.6,0.2-3.1,0.5-4.5,1c-1.5,0.5-2.8,1.1-4.1,1.7c-1.3,0.7-2.4,1.4-3.4,2.1
			c0,0.2-0.2,0.4-0.6,0.4v2.8c0,4.5-0.2,9-0.5,13.4c-0.3,4.4-0.5,8.8-0.5,13.2c0,4.8,0.2,9.5,0.5,13.9c0.3,4.5,0.4,8.9,0.2,13.2
			c-0.1-1.1-0.3-2.3-0.5-3.7c-0.2-1.4-0.1-2.5,0.2-3.3c-0.3-0.7-0.5-1.5-0.6-2.2c-0.1-0.7-0.1-1.5-0.1-2.2c0-0.8,0.1-1.5,0.1-2.3
			c0-0.8,0-1.5,0-2.2c0-0.7-0.1-1.3-0.2-1.9c-0.1-0.6-0.2-1.2-0.2-1.9c-0.5,2.9-0.8,5.9-0.8,9c-0.1,3-0.1,6-0.1,9
			c0,0.5,0.1,0.9,0.2,1.4c0.1,0.4-0.1,0.7-0.5,0.9c-0.3,0.1-0.4,0-0.4-0.2c0-0.3,0-0.4-0.2-0.4c0,0.3,0.1,0.5,0.2,0.6
			c0.1,0.1,0.2,0.3,0.2,0.6c0.5,0,1,0.1,1.4,0.2c0.5,0.1,0.9,0.3,1.4,0.5c0.2-0.3,0.2-0.6,0-0.8c-0.2-0.2-0.1-0.4,0.4-0.5
			c-0.2,0.3-0.2,0.5-0.1,0.7c0.1,0.2,0.1,0.4,0.1,0.5c1.4,0.1,2.9,0.3,4.5,0.6c1.6,0.3,3,0.6,4.1,0.9c0.2-0.3,0.3-0.7,0.3-1.2
			c0-0.5,0.2-0.7,0.7-0.7c0.1,0.3,0.2,0.5,0.4,0.7c0.2,0.2,0.4,0.4,0.6,0.5c0.2,0.2,0.3,0.4,0.5,0.5c0.1,0.2,0.2,0.4,0.1,0.7
			c0.7,0.2,1.3,0.3,1.9,0.5c0.6,0.1,1.2,0.2,1.6,0.2c0,0.2,0,0.4,0.1,0.4c0.1,0.1,0.1,0.1,0.2,0c0,0.3-0.1,0.5-0.2,0.6
			c-0.1,0.1-0.3,0.2-0.5,0.3c-0.7-0.1-1.2-0.1-1.6,0c-0.4,0.2-1,0.1-1.8,0c0.1,0.9,0.1,1.5-0.1,2c-0.2,0.5-0.3,1.1-0.3,1.9
			c1.3,0,2.3,0,3.2,0c0.8,0,1.8,0.1,3,0.3c0.1-0.5,0.1-0.8-0.2-1.1c-0.2-0.2-0.3-0.4-0.2-0.6c0.3-0.1,0.6-0.2,0.9-0.1
			c0.3,0,0.5,0,0.7-0.1c0-0.3,0-0.6,0-1c0-0.3-0.1-0.7-0.3-1c-0.1,0.1-0.2,0.1-0.4,0.1c-0.2,0-0.3-0.2-0.3-0.5
			c0.3-0.7,0.7-1.2,1.1-1.7c0.4-0.5,0.7-1.1,0.8-1.7c0.3-0.2,0.5-0.2,0.5,0c0,0.2,0.1,0.3,0.2,0.3c0.2-0.1,0.3-0.4,0.4-0.7
			c0.1-0.4,0.3-0.5,0.6-0.5c0.5,0,0.7,0.2,0.8,0.5c0,0.4,0.3,0.6,0.8,0.7c1.8-0.3,3.5-0.6,5.1-1c1.6-0.3,3.3-0.7,4.8-1v-1.3
			c-0.3,0.2-0.8,0.3-1.5,0.3c-0.7,0-1.1-0.3-1.1-1c0.1-0.3,0.5-0.4,1.1-0.3c0.6,0.1,1,0,1.1-0.3c0-0.3-0.1-0.4-0.3-0.2
			c-0.2,0.2-0.3,0-0.3-0.5c0-0.8,0.1-1.5,0.3-2.2c0.2-0.7,0.2-1.5,0.1-2.5c0-0.2-0.2-0.3-0.5-0.4c-0.3-0.1-0.4-0.3-0.2-0.6
			c0-0.2,0.3-0.3,0.9-0.3c-0.1-0.9-0.2-1.7-0.1-2.4c0.1-0.8,0.1-1.6,0.1-2.4c-0.1,0-0.3,0-0.6,0c-0.3,0-0.5-0.1-0.7-0.2v-1h1.3v-4.1
			c-0.1-0.2-0.2-0.3-0.4-0.3c-0.2,0-0.4,0-0.6,0c-0.2,0-0.4,0-0.6,0c-0.2,0-0.3-0.2-0.3-0.4c0-0.5,0.2-0.7,0.7-0.6
			c0.5,0.1,0.9-0.1,1.2-0.4v-1.6c-0.5,0-0.9,0.1-1.2,0.2c-0.3,0.2-0.5,0.1-0.7-0.2c-0.1-0.5,0-0.7,0.5-0.7c0.5,0,0.8-0.1,1.1-0.3
			c-0.2-2.9-0.4-5.8-0.8-8.6c-0.3-2.8-0.5-5.7-0.5-8.6c0-2.1-0.1-4.2-0.3-6.3c-0.2-2.1-0.5-3.9-1-5.5c-0.3,0.8-0.5,1.8-0.5,3.2
			c0,1.3-0.2,2.4-0.5,3.2c-0.1-1.8-0.1-3.5,0.1-5.1c0.2-1.6,0.3-3.3,0.3-4.8c-0.2,0-0.4,0-0.8,0.1c-0.3,0.1-0.5,0-0.5-0.1
			c-0.2-0.5-0.1-0.7,0.2-0.7c0.3,0,0.6-0.1,0.7-0.2c-0.5-0.5-1.1-0.9-1.9-1.3c-0.8-0.4-1.3-0.7-1.6-1c0.8,0.2,1.5,0.5,2.1,0.9
			c0.6,0.4,1.3,0.9,2,1.4c-1-1.8-2.3-3.2-4.1-4.3C517.1,435.8,514.9,435.4,512.4,435.7z M491.9,452.7c0,2.3-0.1,4.5-0.3,6.8
			c-0.2,2.3-0.3,4.3-0.3,6c0,1.3,0,2.8,0,4.5c0,1.6,0,3.3,0,5c0,1.7,0,3.3,0,4.9c0,1.6,0,3-0.1,4.2c0.3-0.7,0.5-1.4,0.7-2.2
			c0.2-0.8,0.2-1.6,0.2-2.2c0.2-2.4,0.3-4.9,0.5-7.3c0.1-2.4,0.2-4.9,0.2-7.5c0-1.2,0-2.5,0.1-3.9c0.1-1.4,0.1-2.8,0.1-4.2
			c0-1.4-0.1-2.8-0.2-4.2c-0.1-1.4-0.3-2.6-0.6-3.7v-0.4c-0.2,0.3-0.4,0.7-0.4,1.1c0,0.4,0,0.8,0,1.1c0.1,0.4,0.1,0.7,0.1,1.1
			C492,452.2,491.9,452.5,491.9,452.7z M492.2,434.8c1,0,1.8-0.1,2.4-0.2c0.6-0.2,1.3-0.3,2.1-0.4c0,0.1,0.1,0.2,0.2,0.3
			c0.1,0.1,0.2,0.2,0.2,0.4c-0.2,0.5-0.5,0.8-1.1,0.9c-0.5,0.1-0.9,0.3-1.2,0.6c1.8,0.2,3.2,0,4.2-0.6c1-0.6,2.1-1.1,3.2-1.6
			c-1.3-0.3-2.8-0.4-4.6-0.3c-1.8,0.1-3.6,0.1-5.4-0.1V434.8z M492.2,448.5c0.3,0,0.4-0.2,0.4-0.6c-0.1-0.4-0.2-0.6-0.4-0.6V448.5z
			 M493.8,436.3c-0.2,0-0.4,0-0.5-0.1c-0.2-0.1-0.4,0-0.7,0.1c-0.2,0.2,0,0.3,0.5,0.3C493.5,436.6,493.8,436.5,493.8,436.3z
			 M492.5,437.3c0,0.3,0,0.5,0,0.6c0,0.1,0.1,0.2,0.2,0.3c0.3,0,0.5-0.1,0.6-0.2c0.1-0.1,0.2-0.3,0.4-0.5c0.3,0.2,0.6,0.3,0.9,0.2
			c0.3,0,0.4-0.2,0.4-0.5H492.5z M493.4,449.5c0.2-0.4,0.3-1,0.3-1.6c0-0.7,0-1.4,0-2.1c0-0.7,0-1.4,0-2.1c0-0.7,0-1.2,0.1-1.6
			c-0.3,0.5-0.5,1.1-0.6,1.8c-0.1,0.6-0.1,1.3-0.1,1.9c0,0.6,0.1,1.3,0.2,1.9C493.4,448.4,493.4,449,493.4,449.5z M493.2,508.4
			c0.3,0,0.7,0,1.2,0.1c0.5,0.1,1,0.2,1.6,0.2c0.5,0,1.1,0,1.6-0.1c0.5-0.1,1-0.3,1.4-0.6c-0.9,0-1.8,0-2.7,0
			C495.3,508,494.3,508.1,493.2,508.4z M493.4,426.5c0.7-0.2,1.2-0.4,1.6-0.7c0.4-0.3,0.8-0.6,1.3-0.9c-0.7,0.2-1.2,0.4-1.6,0.7
			C494.4,425.8,493.9,426.1,493.4,426.5z M493.4,427.7c0.5-0.3,1.1-0.6,1.7-0.8c0.7-0.2,1.2-0.6,1.5-1.1c-0.7,0.1-1.3,0.4-1.9,0.8
			C494.2,427.1,493.7,427.4,493.4,427.7z M499.8,428c-0.1,0-0.2-0.1-0.1-0.4c0-0.3,0-0.3-0.1-0.2c-0.5,0.4-1,0.8-1.6,1.2
			c-0.6,0.4-1.2,0.7-1.7,1.1c-0.5,0.4-1,0.8-1.5,1.3c-0.4,0.5-0.7,1-0.9,1.5c0.3,0,0.8,0,1.6,0c0.8,0,1.4-0.1,1.9-0.2
			c-0.3,0-0.4-0.2-0.3-0.5c0.1-0.4,0.2-0.6,0.3-0.7c1,0.3,2.3,0.5,3.7,0.6c1.5,0.1,2.9,0.2,4.4,0.1c1.5-0.1,3-0.2,4.4-0.3
			c1.5-0.1,2.7-0.3,3.8-0.5c0,0.1,0,0.2-0.1,0.2c-0.1,0,0,0,0.1,0c1,0.2,1.8,0.2,2.6,0.1c0.8-0.1,1.5-0.1,2.1-0.1h5.8
			c0-0.1,0-0.3,0-0.6c0-0.3-0.1-0.5-0.2-0.7c-0.5,0.2-1,0.3-1.5,0.3c-0.5,0-1.2,0-2.1,0c-0.5,0-1.1,0.1-1.9,0.3
			c-0.8,0.2-1.4,0.2-1.9,0l-0.3-0.6c-0.2,0-0.3,0.1-0.5,0.2l-0.2,0.2c-2.1,0.1-4,0.1-5.6,0c-1.6-0.1-3.3-0.2-5-0.4
			c-0.5,0-0.9,0.1-1.3,0.2c-0.4,0.1-0.9,0.2-1.6,0.2c-0.5,0.1-1,0.1-1.5,0.2c-0.5,0.1-1,0.2-1.5,0.2c-0.5,0-0.9,0-1.2-0.1
			c-0.4-0.1-0.6-0.3-0.6-0.6c0.5-0.5,1.1-0.7,1.9-0.7c0.8,0,1.4,0.2,1.9,0.5c0.5-0.3,1.1-0.4,1.8-0.4c0.7,0,1.4,0,2.1,0
			c3.4-0.1,6.6-0.3,9.5-0.5c2.9-0.2,6.1-0.3,9.5-0.5v-1c-3.4,0.3-7.2,0.4-11.4,0.3C508.3,427.6,504.1,427.7,499.8,428z M494.7,503.3
			c1,0,1.8,0,2.6,0.1c0.7,0.1,1.6,0,2.6-0.1c-0.5-0.2-1-0.3-1.4-0.2c-0.5,0-0.8-0.1-1.1-0.4c0.9-0.2,1.8-0.1,2.9,0.3
			c1.1,0.4,1.9,0.5,2.6,0.4c-1.2-0.5-2.4-0.8-3.7-0.8c-1.3-0.1-2.7-0.3-3.9-0.8c-0.2,0.3-0.3,0.5-0.3,0.5
			C494.7,502.2,494.7,502.6,494.7,503.3z M495.4,443.7c0.3-0.2,0.6-0.2,0.8,0c0.2,0.2,0.5,0.3,0.8,0.3c-0.3,0.3-0.6,0.3-0.8,0.1
			C495.9,443.9,495.7,443.7,495.4,443.7z M496.6,449.1c0.2,0,0.3,0.1,0.4,0.2c0.1,0.1,0.2,0.2,0.3,0.2c-0.1,0.2-0.2,0.4-0.3,0.4
			c-0.2,0-0.3,0-0.4-0.1c-0.1-0.1-0.2-0.2-0.2-0.3C496.3,449.4,496.4,449.3,496.6,449.1z M497.9,423.9c0.5,0.1,0.9,0,1.3-0.3
			c0.4-0.3,0.7-0.5,1-0.7C499.1,422.9,498.3,423.2,497.9,423.9z M514.9,426.1h-8.7c-0.5,0.1-1,0.2-1.5,0.1c-0.5-0.1-1-0.1-1.5-0.1
			c-0.5,0-1,0.1-1.5,0.2c-0.5,0.1-0.9,0.4-1.3,0.8c2-0.2,4.1-0.3,6.1-0.3c2.1,0,4.1,0,6.1,0.1c2,0.1,3.9,0.1,5.8,0.1
			c1.8,0,3.5-0.1,5-0.3c-1.1-0.5-2.4-0.7-3.9-0.7C518.1,426.1,516.5,426.1,514.9,426.1z M503.7,424.8c0,0.3,0.2,0.4,0.5,0.4
			c0.3-0.1,0.4-0.2,0.2-0.4c0-0.1-0.1-0.2-0.2-0.1C504,424.8,503.9,424.8,503.7,424.8z M503.7,436.3c0.9-0.1,1.6-0.2,2.3-0.3
			c0.7-0.1,1.4-0.2,2.2-0.4c-0.8-0.1-1.6-0.1-2.5,0C504.8,435.8,504.2,436,503.7,436.3z M506.6,432.9c-0.3,0.1-0.6,0.2-0.9,0.2
			c-0.3,0-0.4,0.2-0.4,0.5c2-0.3,3.9-0.5,5.9-0.6c2-0.1,3.9,0.2,5.6,0.9c0.7,0.3,1.1,0.5,1.3,0.7c0.2,0.2,0.7,0.3,1.5,0.3
			c0.9,0,1.7,0,2.6,0c0.9,0,1.4-0.2,1.6-0.7c-0.2-0.2-0.6-0.4-1.1-0.4c-0.5,0-0.9,0-1.4,0c-0.5,0-1,0.1-1.5,0.1
			c-0.5,0.1-0.9,0-1.2-0.1c-0.2-0.2-0.4-0.5-0.4-0.9c0.4-0.2,0.9-0.2,1.5-0.2c0.5,0.1,1.1,0.1,1.7,0.1c0.6,0,1.1,0,1.6,0
			c0.5,0,0.8-0.1,1.1-0.4c-0.1-0.3-0.2-0.5-0.1-0.5c0-0.1,0-0.1-0.1-0.1c-1.5,0.1-2.9,0.2-4.3,0.1c-1.4-0.1-2.8-0.1-4.3-0.1
			c-1.4,0-2.9,0.1-4.3,0.2C509.6,432.2,508.1,432.4,506.6,432.9c-0.3-0.2-0.8-0.3-1.4-0.4c-0.6-0.1-1,0.3-1.1,1.1
			c0.3-0.2,0.7-0.4,1.3-0.6C505.9,432.7,506.3,432.7,506.6,432.9z M505.3,424.2c0.3,0,0.6,0,0.9,0.1c0.3,0.1,0.5-0.1,0.6-0.4
			c-0.3,0.1-0.6,0.2-0.8,0.1C505.9,424,505.6,424,505.3,424.2z M507.3,422.9c1.5,0,2.9,0,4.1-0.1c1.2-0.1,2.4-0.1,3.6-0.2
			c1.2-0.1,2.4-0.2,3.8-0.2c1.3-0.1,2.8-0.1,4.5-0.1v-0.9c-1,0.2-2.3,0.3-3.7,0.2c-1.4-0.1-2.9-0.2-4.3-0.2c-1.5,0-2.9,0-4.3,0.2
			C509.5,421.7,508.3,422.2,507.3,422.9z M508.8,423.5c0,0.2-0.2,0.3-0.7,0.4c-0.5,0.1-0.7,0.2-0.9,0.3c2.7-0.1,5.5-0.2,8.1-0.1
			c2.7,0,5.4,0,8.1-0.1c-0.1,0-0.2-0.1-0.1-0.4c0-0.2,0-0.5-0.1-0.6c-2.6-0.1-5.1,0-7.5,0.2C513.2,423.4,510.9,423.5,508.8,423.5z
			 M507.5,420c0.2-0.3,0.4-0.4,0.7-0.3c0.3,0.1,0.5,0.1,0.6-0.1c0-0.4-0.2-0.5-0.7-0.3C507.6,419.7,507.4,419.9,507.5,420z
			 M519.4,424.5c-0.1,0-0.1,0-0.2-0.1c-0.1,0-0.2,0-0.2,0.1c-0.3,0.1-0.8,0.1-1.5,0.1c-0.7,0-1.4,0-2.1,0c-0.7,0-1.4,0-2.1,0
			c-0.7,0-1.2,0-1.6,0.1c-0.1,0-0.3,0-0.5,0c-0.2,0-0.4,0-0.6,0c-0.2,0-0.4,0.1-0.4,0.1c-0.1,0.1,0,0.1,0.3,0.2
			c2.4-0.2,4.6-0.2,6.6,0c2,0.2,4.2,0.3,6.4,0.3c-0.2-0.3-0.5-0.5-0.9-0.6c-0.4-0.1-0.7-0.1-1.1-0.1c-0.4,0-0.8,0-1.1,0
			C520,424.8,519.7,424.7,519.4,424.5z M513.7,505.5c-0.2-0.3-0.2-0.7,0-1.1c0.2-0.4,0.2-0.7,0-0.9c0,0.3-0.1,0.6-0.2,1
			C513.3,504.8,513.3,505.2,513.7,505.5z M514.3,416.2c0.1-0.1,0.1-0.2,0.2-0.1c0.1,0,0.2,0,0.2,0c0.1,0.1,0.1,0.1,0.2,0.1
			c0,0.2-0.2,0.3-0.6,0.3V416.2z M514.6,420.3c1.5,0.2,2.9,0.3,4.3,0.4c1.4,0.1,2.9,0.1,4.3,0c-0.2,0-0.2-0.2-0.2-0.5
			c0.1-0.3,0-0.5-0.2-0.5c-1.4-0.1-2.9-0.2-4.3-0.1C517.1,419.6,515.7,419.8,514.6,420.3z M518.1,415.2c-0.3,0.3-0.8,0.5-1.5,0.5
			c-0.7,0-1.2,0.2-1.5,0.5c0-0.2,0.4-0.4,1.1-0.6C517,415.3,517.6,415.2,518.1,415.2z M525.5,501c-0.7,0.2-1.5,0.4-2.3,0.5
			c-0.8,0.1-1.6,0.2-2.4,0.3c-0.8,0.1-1.6,0.2-2.3,0.4c-0.8,0.2-1.4,0.4-2,0.7v1c6.8-0.5,13.3-0.8,19.7-1.1
			c6.4-0.2,12.9-0.1,19.7,0.4c0-0.3,0-0.6,0-0.9c0-0.3-0.1-0.5-0.3-0.7c-4.9,0.2-9.5,0.2-13.6,0.1c-4.1-0.1-8.4-0.1-12.9-0.1
			c-0.2,0.3-0.4,0.6-0.6,0.9c-0.2,0.3-0.6,0.5-1.1,0.7c-0.5-0.2-0.8-0.6-1-1.1C526.3,501.6,525.9,501.2,525.5,501z M544.4,503.3
			c-2.6-0.2-5.2-0.1-8,0.2c-2.8,0.3-5.6,0.6-8.3,0.7c-1.6,0.2-3.2,0.2-4.9,0.1c-1.7-0.1-3.2,0.2-4.7,0.9c2.3,0,4.4,0,6.4-0.1
			c2-0.1,4-0.2,6-0.3c2-0.1,4.1-0.2,6.2-0.2c2.1,0,4.3,0,6.7,0c0,0.2-0.1,0.4-0.3,0.4c-0.2,0-0.4,0-0.6,0c-0.2,0-0.4,0-0.6,0
			c-0.2,0-0.4,0.1-0.4,0.3c2.1,0.1,4.3,0.2,6.7,0.1c2.4-0.1,4.9-0.1,7.7-0.1c0.2-0.3,0.2-0.5,0-0.6c-0.2-0.1-0.3-0.3-0.3-0.6
			c-1.6,0-3.3,0-5.3-0.1C548.7,503.8,546.6,503.6,544.4,503.3z M520.3,435.4c0.2,0.5,0.5,0.8,1,0.9c0.5,0.1,0.8,0.3,0.9,0.6
			c0.5,0,0.8-0.2,1-0.5c0.2-0.4,0.4-0.4,0.7-0.1c0-0.1,0-0.4,0.1-0.7c0.1-0.4,0-0.5-0.1-0.5c-0.1,0.2-0.3,0.3-0.6,0.3
			c-0.3,0-0.6,0-1,0c-0.4,0-0.7,0-1.1,0C520.9,435.3,520.6,435.4,520.3,435.4z M523.3,445c0-0.3,0.1-0.6,0.2-0.9
			c0.2-0.3,0.1-0.4-0.2-0.4c0,0.1,0,0.3-0.1,0.6C523,444.6,523.1,444.8,523.3,445z M524.8,453.6c0-0.5,0.1-1,0.2-1.4
			c0.2-0.5,0-0.8-0.5-1.1c0.1,0.8,0.1,1.5,0,2.2c0,0.7,0,1.3,0,1.8c0,0.5,0.1,1,0.2,1.4c0.1,0.4,0.4,0.7,0.7,1
			c0.3-1.6,0.4-3.5,0.2-5.6c-0.2-2.2-0.2-4.1-0.2-5.9h-0.2c-0.1,0-0.1-0.1-0.1-0.3c-0.1,0.8-0.2,1.5-0.1,2.1
			c0.1,0.6,0.1,1.3,0.1,1.8c0,0.6,0,1.2,0,1.8C525.2,452.1,525.1,452.8,524.8,453.6z M525.5,466.4c0.2-0.2,0.3-0.4,0.3-0.8
			c0-0.3,0-0.7,0-1.1c0-0.4-0.1-0.8-0.2-1.1c-0.1-0.3-0.2-0.6-0.4-0.8c0.6-0.8,0.7-1.7,0.4-2.8c-0.3-1.1-0.6-1.9-0.8-2.6
			c-0.1,1.8,0,3.4,0.2,4.8C525.3,463.3,525.5,464.8,525.5,466.4z M525.2,445c0.2-1,0.2-1.6,0-1.9c-0.2,0.1-0.3,0.5-0.4,1.1
			C524.8,444.7,524.9,445,525.2,445z M526.7,419.7c0.1,0,0,0-0.2,0c-0.2,0-0.4,0-0.7,0.1c-0.3,0.1-0.5,0.2-0.7,0.4
			c-0.2,0.2-0.2,0.4,0,0.7c1.6,0.2,3.1,0.3,4.5,0.3c1.4,0,3,0,4.8,0c0,0.4,0.1,0.6,0.4,0.6c0.2-0.4,0.5-0.7,0.8-0.7
			c0.4,0,0.8,0,1.2,0c0.4,0.1,0.9,0.1,1.3,0.1c0.5,0,0.8-0.2,1.1-0.5c-0.7-0.3-1.6-0.5-2.7-0.6c-1.1-0.1-2.2-0.2-3.3-0.2
			c-1.2,0-2.3-0.1-3.4-0.1C528.7,420,527.6,419.9,526.7,419.7z M525.2,421.6c0.5,0.5,1.4,0.7,2.6,0.5c1.2-0.1,2.3-0.2,3.2-0.2
			c-1.2-0.2-2.2-0.3-3-0.3C527.1,421.6,526.2,421.6,525.2,421.6z M525.5,422.9c-0.2,0.2-0.3,0.7-0.3,1.3c1.6,0.2,3.4,0.4,5.2,0.6
			c1.8,0.2,3.7,0.3,5.5,0.4c1.8,0.1,3.6,0.1,5.3,0.1c1.7,0,3.3,0,4.8-0.1c-1.2-1.2-2.6-2-4.2-2.4c-1.6-0.4-3.3-0.5-5.1-0.5
			c-1.8,0.1-3.7,0.2-5.6,0.4C529.2,423,527.3,423,525.5,422.9z M529,426.1c2.7,0.2,5.5,0.3,8.3,0.4c2.8,0.1,5.4,0.1,8,0
			c-1.3-0.2-2.7-0.3-4.3-0.4c-1.6-0.1-3.3-0.2-5.1-0.2c-1.8-0.1-3.6-0.1-5.4-0.2c-1.8-0.1-3.6-0.2-5.2-0.4c0.3,0.5,0.9,0.8,1.8,0.8
			C527.8,426.1,528.5,426.1,529,426.1z M525.5,417.8c0,0.3,0,0.5-0.1,0.6c-0.1,0.1,0,0.3,0.1,0.6c0.5,0.2,1,0.2,1.6,0.2
			c0.6-0.1,1.1,0,1.6,0.2c0-0.2,0-0.5-0.1-0.8c-0.1-0.4-0.1-0.6-0.1-0.8c-0.3,0.2-0.7,0.2-1.3,0.1
			C526.5,417.8,525.9,417.8,525.5,417.8z M545.3,427.4c-0.7,0-1.6,0-2.5,0c-0.9,0-1.8,0-2.8,0c-0.9,0-1.9-0.1-2.8-0.2
			c-0.9-0.1-1.7-0.3-2.5-0.5c-0.3,0.2-0.6,0.3-0.9,0.3c-0.3,0-0.5,0-0.7,0c-1-0.3-2.1-0.5-3.3-0.5c-1.2,0-2.5-0.1-3.7-0.2
			c0,0.3,0,0.6-0.1,1c-0.1,0.3-0.1,0.7-0.1,1c4.2,0,8.1-0.1,11.7-0.3c3.6-0.2,7.2-0.3,10.7-0.3c-0.3-0.3-0.7-0.4-1.3-0.4
			C546.3,427.4,545.8,427.4,545.3,427.4z M550.4,429.9c-2,0.2-3.9,0.3-6,0.3c-2,0-3.8,0-5.2,0h-3.8c-1.6,0.1-3.2,0.1-4.8,0
			c-1.6-0.2-3.1-0.1-4.6,0c0,0.3,0,0.5-0.1,0.6c-0.1,0.1,0,0.2,0.1,0.3c2.7,0.3,5.5,0.4,8.3,0.3c2.8-0.1,5.6-0.1,8.3,0.1
			c1.5,0,3,0,4.7,0c1.6,0,3.2,0.2,4.7,0.7c-0.2,0.3-0.3,0.5-0.4,0.6c-0.1,0.1-0.2,0.3-0.3,0.6c0.3,0,0.6-0.1,1-0.2
			c0.3-0.1,0.7-0.2,1-0.2c-0.2-0.5-0.5-1.1-1.1-1.9c-0.5-0.8-1.2-1.3-1.8-1.6V429.9z M547.2,432.5c-2.1,0-3.9,0-5.5-0.1
			c-1.6-0.1-3.2-0.1-4.8-0.1c-0.8,0-1.6,0-2.3,0c-0.7,0-1.3-0.1-1.8-0.4c-0.5,0.3-1.3,0.4-2.3,0.4c-1-0.1-1.9-0.2-2.6-0.4
			c0,0.2-0.1,0.3-0.3,0.2c-0.2,0-0.5-0.1-0.7-0.1c-0.3,0-0.5,0-0.7,0.1c-0.2,0.1-0.2,0.4-0.2,0.8c0-0.2,0.2-0.4,0.6-0.4
			c0.3,0,0.5,0.1,0.5,0.2c0,0.1,0.2,0.2,0.5,0.2c4.2,0.1,8,0.3,11.4,0.4c3.4,0.2,6.6,0.2,9.7,0.2c0.1,0,0.2-0.1,0.2-0.3
			c0-0.2-0.1-0.2-0.2-0.1c-0.2,0.2-0.4,0.2-0.7,0C547.8,433,547.5,432.8,547.2,432.5z M526.7,436.7c-0.1,0-0.2-0.2-0.1-0.7
			c0-0.5,0-0.8-0.1-1c-0.2,0.3-0.3,0.7-0.4,1.3C526,436.9,526.2,437,526.7,436.7z M538.6,428.6c-2.3,0-4.4,0.1-6.5,0.3
			c-2.1,0.2-4.1,0.4-6,0.7c4.4,0,8.5,0,12.2,0c3.7,0,7.5-0.1,11.2-0.3c-1.5-0.7-3.1-0.9-5-0.8C542.7,428.6,540.7,428.6,538.6,428.6z
			 M529.3,435c-0.1,0.2-0.4,0.2-1,0.1c-0.5-0.1-0.9-0.1-1.2-0.1c0,0.5,0,0.8-0.1,1.1c-0.1,0.2,0.1,0.4,0.4,0.6
			c2.3,0.1,4.6,0.2,7,0.3c2.4,0.1,4.7,0.2,7.1,0.3c2.3,0.1,4.6,0.1,6.8,0c2.2-0.1,4.2-0.2,6-0.5c-2.1-0.2-4.4-0.4-6.7-0.6
			c-2.3-0.2-4.6-0.3-6.8-0.4c-2.2-0.1-4.3-0.2-6.3-0.3C532.6,435.4,530.8,435.2,529.3,435z M542.1,434.1c-1.8,0-3.8-0.1-6-0.2
			c-2.3-0.1-4.5-0.2-6.8-0.2c-0.3,0-0.7,0-1.2,0c-0.5,0-0.8,0.2-1,0.7c2.4,0.1,4.8,0.2,7,0.3c2.2,0.1,4.4,0.2,6.5,0.3
			c2.1,0.1,4.2,0.2,6.3,0.4c2.1,0.1,4.2,0.2,6.5,0.3c0-0.4-0.2-0.7-0.5-0.7c-0.4-0.1-0.4-0.2-0.1-0.5c0.3,0,0.6,0.1,1,0.4
			c0.3,0.2,0.7,0.5,1,0.6c0-0.3-0.1-0.6-0.2-0.8c-0.2-0.2-0.3-0.5-0.4-0.8c-2,0.2-3.9,0.3-5.7,0.3
			C546.4,434.1,544.4,434.1,542.1,434.1z M527.4,438c0.3,0,0.7,0,1.1,0.1c0.4,0.1,0.7,0,0.8-0.1C528.6,437.6,528,437.6,527.4,438z
			 M550.4,440.2c-3.8-0.1-7.3-0.3-10.3-0.4c-3-0.2-6-0.2-8.9-0.2c-0.4,0-0.8,0-1.2-0.1c-0.5-0.1-0.9-0.1-1.3,0
			c-0.4,0.1-0.7,0.2-1,0.4c-0.2,0.2-0.4,0.5-0.4,1c1.5,0.1,3.3,0.2,5.4,0.2c2,0,4.2,0,6.5,0c2.3,0,4.6,0,6.9,0
			c2.3,0,4.5-0.1,6.6-0.2c-0.5-0.1-0.9-0.3-1.3-0.4C551.1,440.2,550.7,440.2,550.4,440.2z M552.1,443.1c-3.1,0-6.3-0.1-9.6-0.2
			c-3.3-0.2-6.4-0.3-9.3-0.4c-1,0.3-1.9,0.4-2.7,0.3c-0.9-0.1-1.9-0.1-3,0v1.3c2,0,4.1,0,6.4,0.1c2.3,0.1,4.6,0.2,6.9,0.2
			c2.3,0.1,4.7,0.1,7,0c2.3,0,4.6-0.2,6.9-0.4c0-0.4-0.1-0.6-0.3-0.8c-0.2-0.2-0.5-0.2-0.7-0.3c-0.3,0-0.5,0-0.8,0
			C552.5,443.1,552.3,443.1,552.1,443.1z M527.7,445.7c-0.2,0.3-0.2,0.7-0.1,1.1c0.1,0.4,0.1,0.7,0.1,0.9c0.5-0.5,1-0.7,1.6-0.7
			c0.6,0,1.3,0,2.2,0c2,0,4,0.1,5.9,0.2c2,0.2,3.9,0.3,5.8,0.4c1.9,0.1,3.7,0.2,5.6,0.1c1.8,0,3.6-0.2,5.4-0.5
			c-0.1-0.1-0.1-0.2,0-0.3c0.2-0.1,0.1-0.2,0-0.4c-4.3-0.5-8.6-0.8-12.8-0.8C537.3,445.7,532.7,445.7,527.7,445.7z M542.1,448.5
			h-0.3c-2.4,0-4.9,0-7.4,0c-2.5,0-4.7,0.1-6.7,0.3v2.2c4-0.1,7.9,0,11.7,0.2c3.7,0.3,7.6,0.4,11.7,0.4c0.5,0,1,0,1.6,0
			c0.6,0,1-0.2,1.3-0.7c-1.5-0.3-2.9-0.4-4.2-0.4c-1.3,0.1-2.6,0.1-3.9,0.1c-1.5-0.2-3-0.4-4.5-0.4c-1.5,0-2.9,0-4.4,0
			c-1.5,0-3,0.1-4.5,0.1c-1.5,0.1-3,0-4.5-0.2c0.1-0.4,0.2-0.6,0.5-0.7c0.3-0.1,0.6-0.2,0.9-0.2c0.3,0,0.6,0,1,0.1
			c0.3,0.1,0.6,0.1,0.9,0.1c2.9,0.2,6,0.2,9.3,0.1c3.3-0.1,6.3-0.1,9-0.1c1,0,1.9,0.1,2.7,0.2c0.9,0.2,1.5,0,2-0.5
			c-0.3-0.5-0.9-0.7-1.6-0.7c-0.8,0-1.5-0.1-2.2-0.3c-1.3,0-2.6,0-4,0.1c-1.4,0.1-2.7,0-4-0.1c-0.1-0.1-0.1-0.2-0.2-0.3
			c-0.1-0.1-0.2-0.1-0.2,0V448.5z M549.5,452.7c-3.2-0.2-6.6-0.4-10.2-0.7c-3.5-0.3-7.3-0.3-11.3,0v0.3v1c1.6,0.1,3.4,0.1,5.5,0.1
			c2.1,0,4.3,0,6.6,0c2.3,0,4.6-0.1,6.9-0.1c2.3-0.1,4.5-0.2,6.6-0.4c-0.5-0.3-1.1-0.4-1.8-0.4C551.1,452.7,550.3,452.7,549.5,452.7
			z M528,454.6c3.5,0.1,7.2,0.3,10.9,0.4c3.8,0.2,7.5,0.2,11.2,0.2c0.3,0,0.7,0,1.1,0.1c0.4,0.1,0.8,0.1,1.1,0
			c0.4,0,0.7-0.1,0.9-0.3c0.2-0.2,0.4-0.4,0.4-0.9c-4.3-0.1-8.6-0.2-12.7-0.1C536.8,454.2,532.5,454.3,528,454.6z M529.3,455.5
			c-0.5-0.1-0.8-0.1-1,0.2c-0.2,0.2-0.3,0.5-0.3,0.8c3.1,0,6.3,0.1,9.5,0.3c3.2,0.2,6.5,0.3,9.7,0.3c1-0.2,2-0.3,3.2-0.2
			c1.1,0,2.1-0.1,3-0.4c-2-0.1-4-0.2-6-0.3c-2.1-0.1-4.1-0.2-6.2-0.4c-2.1-0.1-4.1-0.2-6.1-0.3C533,455.6,531.1,455.5,529.3,455.5z
			 M528,458.5v2.6c2,0.1,4.3,0.1,6.7,0.2c2.5,0.1,4.9,0.1,7.4,0c2.5,0,4.8-0.1,7.1-0.3c2.3-0.2,4.3-0.5,6-0.9v-0.9
			c-3.8,0.5-8,0.6-12.6,0.3C538.1,459.1,533.2,458.8,528,458.5z M534.4,462.6c-0.1-0.1-0.2-0.2-0.3-0.1c-0.1,0.1-0.2,0.1-0.4,0.1
			c-0.3,0.2-0.7,0.3-1.3,0.3c-0.6,0-1.2,0-1.8,0c-0.6,0-1.2,0-1.6,0c-0.5,0-0.8,0.2-1,0.4c1.5,0.2,3.1,0.4,4.9,0.6
			c1.8,0.2,3.7,0.3,5.6,0.3c2,0.1,3.9,0.1,5.9,0.1c2,0,3.7,0,5.4,0c0.6,0,1.3,0.1,2,0.2c0.7,0.1,1.1-0.2,1.2-0.8
			c-3.4-0.5-6.7-0.7-10-0.6C539.7,463,536.9,462.9,534.4,462.6z M552.7,464.9c-1.6,0.1-3.1,0.2-4.4,0.1c-1.4-0.1-2.8-0.1-4.3-0.1
			h-1.9c-0.5,0-1-0.1-1.4-0.2c-0.5-0.1-0.8-0.2-1.1-0.2h-7.7c-0.7,0-1.4,0-2.1,0.1c-0.7,0.1-1.3,0.2-1.8,0.5c4,0.2,8.4,0.5,13,0.9
			c4.7,0.4,9.4,0.5,14.2,0.4v-0.9c-0.3-0.3-0.8-0.4-1.4-0.2c-0.6,0.2-1,0.2-1.1,0.2c0.1,0,0.2-0.1,0.1-0.2
			C552.7,465.1,552.7,465,552.7,464.9z M546.9,468.3c-0.3,0.2-0.7,0.2-1.2,0c-0.5-0.2-1.1-0.4-1.7-0.6c-0.9-0.2-1.9-0.3-3.1-0.3
			c-1.2,0-2.4,0-3.6,0c-1.2,0-2.3,0-3.4,0c-1.1,0-2,0-2.7,0c-0.1-0.1-0.3-0.1-0.6-0.2c-0.3-0.1-0.7-0.1-1.1-0.1
			c-0.4,0-0.7,0-1.1,0.1c-0.3,0.1-0.5,0.3-0.5,0.5c2.9,0.7,6.2,1,9.9,1.1c3.7,0,7.1-0.1,10.3-0.4c-0.2,0.2-0.4,0.2-0.7,0
			C547.3,468.2,547.1,468.2,546.9,468.3z M528.4,469.3c0.8,0,1.4,0.1,1.8,0.2c0.4,0.2,0.9,0.1,1.4-0.2c-0.7,0-1.3-0.1-1.7-0.2
			C529.4,469,528.9,469,528.4,469.3z M528.7,472.2c-0.1,0.3-0.2,0.7-0.2,1.3c0,0.5,0.1,1,0.2,1.3c2.2-0.2,4.4-0.4,6.8-0.4
			c2.3,0,4.6,0,7,0c2.3,0,4.6,0,6.8,0c2.2,0,4.3-0.1,6.4-0.3c0-0.3,0-0.6,0-0.9c0-0.3-0.1-0.5-0.2-0.6h-2.6c-0.2,0-0.2,0.2-0.2,0.5
			c0.1,0.3,0,0.5-0.2,0.5v-0.9c-3.8-0.2-7.7-0.3-11.7-0.3C536.7,472.2,532.7,472.2,528.7,472.2z M528.7,477.3c2.3-0.1,4.7-0.1,7.1,0
			c2.4,0.1,4.8,0.1,7.1,0.1c2.3,0,4.6,0.1,6.7,0.1c2.2,0,4.2,0,6-0.2V476c-0.7-0.1-1.1-0.2-1.4-0.1c-0.3,0.1-0.7,0.1-1.1,0.1h-23.3
			c0-0.3,0-0.5-0.1-0.5c-0.1-0.1-0.4-0.1-0.9-0.1c0.2,0.5,0.2,0.9,0,1.1C528.5,476.7,528.5,477,528.7,477.3z M551.1,488.2
			c-1.1,0-2.3-0.1-3.5-0.3c-1.2-0.2-2.4-0.3-3.6-0.3h-6.4h-6.7c-0.5,0-1,0-1.6,0c-0.6,0-0.8,0.4-0.7,1.2c3.8,0,7.7,0.1,11.7,0.3
			c4,0.2,7.9,0.3,11.7,0.3c0.5,0,1.1,0,1.8-0.1c0.7-0.1,1.2-0.2,1.4-0.5c-0.2-0.3-0.4-0.5-0.7-0.6c-0.3-0.1-0.6-0.1-1-0.1
			c-0.4,0-0.8,0.1-1.2,0.1C551.9,488.3,551.5,488.3,551.1,488.2z M532.5,478.3c-0.7,0-1.4,0-2.1,0c-0.7,0-1.3,0.2-1.8,0.7
			c0.2,0.7,0.5,0.9,1.1,0.8c0.5-0.1,1-0.2,1.5-0.2c1.8,0,3.7,0,5.8,0.1c2,0.1,4,0.1,5.9,0.2c2,0.1,3.8,0.1,5.6,0.1
			c1.8,0,3.4,0,4.8-0.1c0.3,0,0.7,0,1.3-0.1c0.5-0.1,0.8-0.3,0.6-0.8c-1.5-0.1-3.2-0.2-5.1-0.3c-1.9-0.1-3.8-0.2-5.8-0.3
			c-2-0.1-4-0.1-6.1-0.1C536.3,478.2,534.3,478.2,532.5,478.3z M539.5,482.4h-10.2c0-0.1-0.1-0.1-0.2-0.1c-0.1,0-0.1,0-0.1,0.1
			c0,0.2-0.1,0.4-0.2,0.5c-0.1,0.1-0.1,0.1-0.2,0.1c3.5,0.5,7.4,0.8,11.5,0.8c4.1,0.1,8,0,11.5-0.2c0.3,0,0.7,0,1.2,0
			c0.5,0,0.9-0.2,1.1-0.7c-2.3-0.3-4.6-0.4-7.1-0.4C544.4,482.7,542,482.6,539.5,482.4z M551.1,484.7c-2.3,0-4.7,0-7.4-0.1
			c-2.7-0.1-5.1-0.2-7.4-0.5c-1.1,0.3-2.2,0.4-3.4,0.3c-1.2-0.1-2.4-0.1-3.7,0l-0.2-0.1H529v0.1c-0.2,0.2-0.4,0.5-0.4,0.6
			c2.4,0.2,4.8,0.3,7.1,0.4c2.3,0.1,4.6,0.2,7,0.3c2,0,3.9,0.1,5.7,0.2c1.9,0.1,3.6-0.2,5.2-0.8c-0.5-0.3-0.9-0.5-1.3-0.5
			C552,484.5,551.5,484.5,551.1,484.7z M546.3,486.6c-2.7-0.2-5.5-0.3-8.4-0.5c-2.9-0.1-5.8-0.2-8.9-0.2c0,0.2-0.1,0.3-0.2,0.3h-0.2
			c3.4,0.3,7.1,0.5,11,0.7c3.9,0.2,7.7,0.3,11.4,0.3c0.3,0,0.8,0.1,1.4,0.2c0.6,0.1,1-0.1,1.1-0.5c-1.1-0.3-2.3-0.4-3.5-0.4
			C548.9,486.6,547.6,486.6,546.3,486.6z M533.1,498.8c-0.8-0.2-1.6-0.1-2.5,0.1c-0.9,0.3-1.5,0.7-2,1.1c2.6,0.1,5.3,0.2,8.3,0.3
			c3,0.1,5.7,0.2,8.1,0.4c1.6,0,3.2,0,5,0c1.7,0,3.5-0.1,5.3-0.3c-0.3-0.1-0.6-0.3-0.8-0.6c-0.2-0.3-0.4-0.5-0.5-0.7
			c-1.8,0.1-3.6,0.1-5.4,0c-1.8-0.1-3.5-0.2-5.2-0.3c-1.7-0.1-3.4-0.2-5.1-0.2C536.6,498.6,534.9,498.6,533.1,498.8z M539.3,480.9
			c-1.2-0.2-2.5-0.3-4.1-0.4c-1.6-0.1-3.1-0.1-4.6,0c-0.3,0-0.7,0-1.1,0c-0.5,0-0.6,0.2-0.4,0.7c0,0.3,0.4,0.5,1.2,0.5
			c0.8,0.1,1.5,0.1,2,0.1h17.3c0.5,0,1,0,1.6,0.1c0.5,0.1,1.1,0.1,1.6,0c0.5-0.1,0.9-0.2,1.2-0.4c0.3-0.2,0.5-0.5,0.5-1
			c-2.7,0-5.3,0.1-7.8,0.2C544,480.8,541.6,480.9,539.3,480.9z M529,496.2c4,0,7.8,0.1,11.3,0.4c3.5,0.2,7.3,0.4,11.3,0.5
			c0.5,0,1,0,1.6,0.1c0.6,0.1,1.2-0.1,1.9-0.4c-0.3-0.3-0.7-0.5-1.1-0.6c-0.5-0.1-0.9-0.2-1.4-0.4c-3.7-0.1-7.5-0.2-11.4-0.2
			c-3.9,0-7.7-0.2-11.4-0.5c-0.1-0.3-0.1-0.6,0.1-0.9c0.2-0.3,0.2-0.4-0.1-0.4c-0.7-0.1-1,0.1-1,0.7C529,495.2,529,495.7,529,496.2z
			 M549.8,490.1c-3.7-0.1-7.3-0.2-10.8-0.3c-3.6-0.1-6.9,0-9.9,0.3c3.4,0.5,7.1,0.9,11.2,1.3c4.1,0.4,8.4,0.5,12.7,0.4
			c0.3,0,0.7,0,1.2-0.1c0.5-0.1,0.9-0.4,1.1-0.9c-1-0.3-1.9-0.5-2.7-0.5C551.7,490.1,550.8,490.1,549.8,490.1z M535.4,491.8
			c-0.2,0-0.5,0-1,0c-0.5,0-1,0-1.6,0c-0.6,0-1.3-0.1-2-0.1c-0.7,0-1.3-0.1-1.8-0.2v1.6c4.2,0.1,8.5,0.3,12.8,0.5
			c4.3,0.2,8.8,0.3,13.5,0.5v-1.6c-1.8,0-3.6,0-5.2,0c-1.6,0-3.3-0.1-4.8-0.1c-1.6-0.1-3.2-0.1-4.8-0.2
			C538.9,491.9,537.2,491.8,535.4,491.8z M552.7,470.6c-0.5,0-1-0.1-1.6-0.2c-0.6-0.1-1.1-0.2-1.6-0.2c-3.2,0-6.6,0-10.1,0
			c-3.5,0-6.9,0.1-10.1,0.4c0.7,0.7,1.5,0.9,2.5,0.8c1-0.1,1.9-0.2,2.7-0.2c3.2,0.1,6.3,0.2,9.2,0.4c2.9,0.1,5.8,0.1,8.7-0.1
			c0.2,0,0.2-0.1,0.2-0.3c-0.1-0.2,0-0.2,0.2,0c0,0.2,0.2,0.3,0.5,0.4c0.3,0.1,0.6,0.1,1,0.1c0.3,0,0.7,0,1-0.1
			c0.3-0.1,0.5-0.2,0.5-0.4c-0.3-0.6-0.8-0.9-1.4-0.8C553.5,470.6,553,470.6,552.7,470.6z M529.3,497.5v0.3c1.3-0.2,2.6-0.2,3.8,0
			c3.1,0.3,6.3,0.4,9.6,0.4c3.3,0,6.6,0,10,0c-3.8-0.2-7.7-0.5-11.6-0.8C537.3,497,533.3,497,529.3,497.5z M534.8,419.7
			C535.1,419.7,535.1,419.7,534.8,419.7c-0.2-0.2-0.4-0.3-0.4-0.6c-0.3,0.1-0.7,0.2-1.1,0.1c-0.5-0.1-0.9-0.1-1.4-0.1
			c-0.5,0-0.9,0-1.3,0c-0.4,0-0.7,0.2-1,0.4c0.8,0,1.6,0,2.5,0C533.1,419.5,533.9,419.6,534.8,419.7z M531.6,466.4
			c0.1-0.1-0.1-0.2-0.5-0.2c-0.5,0-0.7,0.1-0.7,0.2c0.3,0,0.5,0,0.6,0.1C531.1,466.6,531.3,466.6,531.6,466.4z M547.6,494.6
			c-2.9-0.1-5.9-0.3-8.9-0.5c-3-0.2-5.8-0.1-8.4,0.2c1.8,0.2,3.8,0.3,6,0.4c2.2,0.1,4.5,0.2,6.8,0.3c2.3,0.1,4.5,0.2,6.6,0.2
			c2.1,0,4,0,5.6,0c-1.2-0.5-2.4-0.7-3.8-0.7C550.2,494.6,548.9,494.6,547.6,494.6z M545.9,457.5c-1.6-0.1-3.2-0.2-4.8-0.2
			c-1.6,0-3,0.1-4.2,0.2c-0.2,0-0.4-0.1-0.6-0.3c-0.7,0.3-1.5,0.4-2.4,0.4c-0.9-0.1-1.7,0.1-2.3,0.5c3.8,0.2,7.7,0.4,11.6,0.6
			c3.9,0.2,7.7,0,11.4-0.6c-1-0.5-2.2-0.7-3.8-0.7C549.4,457.4,547.7,457.5,545.9,457.5z M554,442.1c-1.1-0.1-2.3-0.1-3.7-0.2
			c-1.4-0.1-2.7-0.1-4.1-0.2c-1.4-0.1-2.7-0.1-4,0c-1.3,0-2.5,0.1-3.5,0.1c-0.2-0.2-0.2-0.3-0.2-0.4c0.1-0.1,0-0.2-0.2-0.3
			c-0.2,0.3-0.7,0.5-1.2,0.5c-0.6,0.1-1.2,0.1-1.8,0c-0.6,0-1.3,0-1.9,0c-0.6,0-1.1,0.1-1.4,0.4c3.8-0.1,7.6-0.1,11.2,0.1
			c3.7,0.2,7.6,0.3,11.8,0.3c-0.1-0.3-0.2-0.5-0.1-0.6c0.1-0.1,0.1-0.3,0.1-0.6h-0.6C554.1,441.4,554,441.7,554,442.1z M543.1,467.1
			c-1.6,0-3.2-0.1-4.8-0.4c-1.6-0.3-3.4-0.3-5.1-0.2c0-0.1-0.1-0.1-0.2-0.1c-0.1,0-0.1,0-0.1,0.1c1,0.2,1.9,0.3,2.8,0.2
			c0.9,0,1.7,0.1,2.3,0.4c0-0.1,0.1-0.2,0.2-0.1c0.1,0,0.3,0,0.5-0.1c1.4,0.3,2.8,0.5,4.3,0.7c1.5,0.2,2.9,0.2,4.3,0.2
			c1.5,0,2.8,0.1,4.1,0.2c1.3,0.1,2.5,0.2,3.6,0.2c-1.6-0.5-3.5-0.7-5.6-0.7C547.1,467.3,545.1,467.2,543.1,467.1z M534.4,438h1.9
			c-0.5-0.2-0.9-0.2-1.2-0.1C534.8,437.9,534.6,438,534.4,438z M536.7,417.5c-0.3,0-0.6-0.1-0.8-0.2c-0.2-0.2-0.4-0.1-0.5,0.2
			c0.1,0,0.3,0.1,0.6,0.2C536.3,417.9,536.5,417.8,536.7,417.5z M536.1,475.1c2.7,0.3,5.3,0.5,7.6,0.5c2.3,0,4.8-0.2,7.4-0.5
			c-2.7,0.1-5.1,0.1-7.4,0C541.5,474.9,538.9,474.9,536.1,475.1z M538,507.4c0.2-0.2,0.1-0.3-0.4-0.3
			C537.4,507.3,537.6,507.4,538,507.4z M547.9,438.9h-10.2c2.9,0,5.9,0.2,8.8,0.5c2.9,0.4,5.8,0.4,8.5,0.1c-0.8-0.3-1.8-0.5-3-0.5
			C550.7,438.9,549.3,438.9,547.9,438.9z M544.7,461.9h-3.2h1.6c0.8,0.2,1.7,0.2,2.8,0.2c1.1-0.1,2.1,0,2.9,0.2c0.2,0,0.5,0,0.8,0.1
			c0.3,0.1,0.5,0.1,0.8,0.1c0.2,0,0.4-0.1,0.5-0.2c0.1-0.1,0.2-0.3,0.1-0.6c-0.8,0-1.8,0-3.1,0.1
			C546.7,461.9,545.6,461.9,544.7,461.9z M548.9,469.6c1.1-0.1,2.2-0.1,3.4,0c1.2,0.1,2.2-0.1,3-0.6c-0.7,0-1.3,0-1.8,0.1
			c-0.5,0.1-1.1,0-1.8-0.1c-0.2,0.2-0.4,0.4-0.6,0.4c-0.2,0-0.5,0-0.8,0c-0.3-0.1-0.5-0.1-0.8-0.1
			C549.3,469.3,549,469.4,548.9,469.6z M549.5,433.5c0.3-0.2,0.6-0.2,0.9-0.1c0.3,0.1,0.5,0,0.6-0.3c-0.1-0.1-0.4-0.2-0.9-0.1
			C549.7,433,549.5,433.2,549.5,433.5z M551.4,462.3h1.6c0-0.4-0.1-0.7-0.3-0.7c-0.2-0.1-0.4,0-0.5,0.1
			C551.9,461.8,551.7,462,551.4,462.3z M553.3,462.3h1.9c0-0.3-0.1-0.5-0.3-0.7c-0.2-0.2-0.4-0.2-0.6-0.2c-0.2,0-0.4,0.1-0.6,0.3
			C553.5,461.9,553.3,462.1,553.3,462.3z M553.3,464.2c0.3,0,0.7,0,1.1,0c0.4,0,0.7-0.1,0.9-0.4c-0.2,0-0.2-0.1-0.1-0.2
			c0.1-0.1,0.1-0.3,0.1-0.5c-0.7,0.4-1.3,0.4-1.9,0V464.2z M553.6,456.5c0.2,0.1,0.4,0.2,0.6,0.3c0.4,0.1,0.6,0,0.6-0.3
			c0-0.3-0.2-0.4-0.7-0.2C553.7,456.5,553.5,456.5,553.6,456.5z M554,454.9h0.9v-0.6H554V454.9z M554.3,486.9c0,0.3,0.1,0.4,0.3,0.4
			c0.2,0,0.4,0,0.7,0c0.1-0.1,0.1-0.3,0.1-0.5c0-0.4-0.2-0.5-0.5-0.5c0,0.3-0.1,0.4-0.4,0.3C554.2,486.5,554.1,486.6,554.3,486.9z
			 M554.3,451.4c0.3,0,0.5-0.1,0.5-0.3c0-0.2,0-0.3-0.1-0.3C554.4,450.8,554.3,451,554.3,451.4z M554.3,483.7c0.3,0,0.5,0,0.6,0.1
			c0.1,0.1,0.2,0,0.4-0.1c0-0.3,0-0.5-0.1-0.6c-0.1-0.1-0.2-0.1-0.5,0C554.4,483.1,554.3,483.3,554.3,483.7z M555.3,485
			c-0.2,0-0.4,0-0.6-0.1c-0.2-0.1-0.4,0-0.4,0.1c0,0.2,0.2,0.3,0.6,0.3C555.3,485.3,555.4,485.2,555.3,485z M554.9,447.6
			c0.1-0.1,0.2-0.3,0.3-0.5c0.1-0.4,0-0.5-0.3-0.5c-0.1,0.2-0.2,0.4-0.3,0.6C554.5,447.5,554.6,447.6,554.9,447.6z M554.9,449.8
			v-0.9h-0.3C554.6,449.5,554.7,449.8,554.9,449.8z M558.1,503.6c-0.1,0.3-0.4,0.6-0.7,0.8c-0.3,0.2-0.4,0.5-0.2,0.8
			c1.4,0.3,3.1,0.4,5.1,0.3c2-0.1,3.7-0.2,5.2-0.3v-1.3c-1.5-0.2-3-0.2-4.7,0C561.1,504.2,559.6,504,558.1,503.6z M565.1,501.4
			c-0.8-0.2-1.6-0.3-2.5-0.4c-0.9-0.1-1.5-0.2-2-0.3c-0.1,0.1-0.2,0.3-0.3,0.5c-0.1,0.2-0.2,0.3-0.4,0.5c-0.3,0-0.7,0-1.3-0.1
			c-0.5-0.1-1,0-1.3,0.1v1.6c0.9,0,1.9,0,2.8,0.1c1,0.1,1.9,0.1,2.8,0.1c0.9,0,1.8-0.1,2.6-0.2c0.8-0.1,1.5-0.3,2-0.6
			c-0.1-0.5-0.5-0.8-1-0.9C566.2,501.6,565.6,501.5,565.1,501.4z"/>
	</g>
	<linearGradient id="SVGID_1_" gradientUnits="userSpaceOnUse" x1="133.4486" y1="251.1311" x2="444.0665" y2="402.6296">
		<stop  offset="0" style="stop-color:#BBBABB"/>
		<stop  offset="0.3103" style="stop-color:#FFFFFF"/>
		<stop  offset="1" style="stop-color:#BBBABB"/>
	</linearGradient>
	<path fill="url(#SVGID_1_)" d="M381.9,517.4C335.8,533,253.3,556.5,178.3,505s-88-356.5,173.5-405.5c-69,0-232,60.4-244.7,263.3
		c-12.3,197.3,155.8,218,276,164.8C385.8,512.5,381.9,517.4,381.9,517.4z"/>
	<linearGradient id="SVGID_2_" gradientUnits="userSpaceOnUse" x1="347.4252" y1="318.5788" x2="258.6055" y2="181.8085">
		<stop  offset="0" style="stop-color:#FFFFFF"/>
		<stop  offset="9.986353e-02" style="stop-color:#F1F1F1"/>
		<stop  offset="0.2867" style="stop-color:#CDCDCD"/>
		<stop  offset="0.4091" style="stop-color:#B3B3B3"/>
		<stop  offset="1" style="stop-color:#B3B3B3"/>
	</linearGradient>
	<path fill="url(#SVGID_2_)" d="M288.6,162.8c48.9-30.8,80.8-29.3,101.5-9c20.7,20.2,21.8,120.1-108.3,167.7
		c-22.7,8.3-56.4,13.2-80.7,15.3c-2,13-2.3,16.7-2.3,16.7c38.8-1.9,97,0.8,166.2-46.3c79.9-54.4,79.8-125.1,40.5-156.6
		C379.6,129.8,330.5,131,288.6,162.8z"/>
	<path fill="#E2E2E2" d="M456.2,131.4c41.9,51.4,8.9,105.4-8.4,131.4s-106,113-250,101.2c-0.5,7.4-0.7,12.4-0.7,12.4
		c117.4-1.2,183.8-37.7,234.1-82.8c81.6-73.1,43.4-137.4,39-144.2C465.5,142.3,456.2,131.4,456.2,131.4z"/>
	<path fill="#A3A3A3" d="M465.2,472.4c10.7-7.4,26.8-17.8,28.3-19c1.6-1.2,0.1-1.5,0.1-1.5s-0.1-0.8-1.8-0.4
		c-1.7,0.4-31.2,7.4-31.2,7.4l-4.1,6.9L465.2,472.4z"/>
	<path fill="#E2E2E2" d="M358.9,481.7c20.6-6.2,96.1-21.9,96.1-21.9c4.5-0.7,5.3-0.8,5.3-0.8l4.6,13.5
		c-16.2,11.1-61.2,44.9-82.8,55.2c-1.4-1.2-6.3,0.6-8.7,0.8s-5.8,0.3-2.8-3.1s2.9-4.5,4.1-9.6s1.1-10.7,1.3-12.3s-1.4-4.2-5.8-4.5
		c-4.4-0.3-6.8-0.8-8.2-1.4s-2.8-0.6,3-5.5s-0.2-6.4-3.7-7.4s-5.2-1.7-6.1-1.9C358.3,481.9,358.9,481.7,358.9,481.7z"/>
	<path fill="#FFFFFF" d="M444.5,404.9c0,0,0.5,0,1.5-0.1c1-0.1,2.4-0.1,4.2-0.2c3.6-0.2,8.8-0.3,15-0.4c3.1,0,6.5-0.1,10,0
		c3.6,0,7.3,0.2,11.2,0.3c3.9,0.2,7.9,0.2,11.9,0.2c4.1,0,8.2-0.1,12.3-0.2c2.1-0.1,4.1-0.1,6.2-0.2c2.1,0,4.1-0.1,6.1-0.1
		c4.1-0.1,8.1-0.1,11.9-0.2c3.9,0,7.6-0.1,11.2,0c3.6,0,6.9,0.1,10,0.2c3.1,0.1,5.9,0.1,8.5,0.2c2.5,0.1,4.7,0.2,6.5,0.2
		c3.6,0.2,5.7,0.3,5.7,0.3v0.2c0,0-2.1,0.1-5.7,0.3c-1.8,0.1-4,0.2-6.5,0.2c-2.5,0.1-5.4,0.2-8.5,0.2c-3.1,0.1-6.5,0.1-10,0.2
		c-3.6,0-7.3,0-11.2,0c-3.9-0.1-7.9-0.1-11.9-0.2c-2,0-4.1-0.1-6.1-0.1c-2.1-0.1-4.1-0.1-6.2-0.2c-4.1-0.1-8.3-0.3-12.3-0.2
		c-4.1,0-8.1,0.1-11.9,0.2c-3.9,0.1-7.6,0.3-11.2,0.3c-3.6,0-6.9,0-10,0c-6.2-0.1-11.4-0.3-15-0.4c-1.8-0.1-3.2-0.2-4.2-0.2
		c-1-0.1-1.5-0.1-1.5-0.1V404.9z"/>
	<path fill="#FFFFFF" d="M582.5,414.5c0,0,0.1,6.4,0.2,16.1c0.1,9.6,0.3,22.5,0.5,35.4c0.1,6.4,0.2,12.9,0.2,18.9c0,3,0,5.9-0.1,8.7
		c-0.1,2.8-0.1,5.4-0.2,7.8c0,2.4-0.2,4.6-0.2,6.6c-0.1,2-0.1,3.7-0.2,5.1c-0.1,2.8-0.3,4.4-0.3,4.4h-0.2c0,0-0.1-1.6-0.3-4.4
		c-0.1-1.4-0.2-3.1-0.2-5.1c-0.1-2-0.2-4.2-0.2-6.6c-0.1-2.4-0.1-5-0.2-7.8c-0.1-2.8-0.1-5.7-0.1-8.7c0-6,0.2-12.5,0.2-18.9
		c0.2-12.9,0.3-25.7,0.5-35.4c0.1-9.6,0.2-16.1,0.2-16.1H582.5z"/>
	<path fill="#555555" stroke="#FFFFFF" stroke-miterlimit="10" d="M444.5,409.2c-0.3,0-0.5-0.2-0.5-0.5v-11.3c0-0.3,0.2-0.5,0.5-0.5
		s0.5,0.2,0.5,0.5v11.3C445,408.9,444.8,409.2,444.5,409.2z"/>
	<path fill="#1E1E1E" stroke="#FFFFFF" stroke-miterlimit="10" d="M578,407.8c-0.3,0-0.5-0.2-0.5-0.5v-7.1c0-0.3,0.2-0.5,0.5-0.5
		c0.3,0,0.5,0.2,0.5,0.5v7.1C578.5,407.6,578.2,407.8,578,407.8z"/>
	<path fill="#1E1E1E" stroke="#FFFFFF" stroke-miterlimit="10" d="M589.3,415H578c-0.3,0-0.5-0.2-0.5-0.5s0.2-0.5,0.5-0.5h11.3
		c0.3,0,0.5,0.2,0.5,0.5S589.6,415,589.3,415z"/>
	<path fill="#1E1E1E" stroke="#FFFFFF" stroke-miterlimit="10" d="M588.7,512.3h-17.1c-0.3,0-0.5-0.2-0.5-0.5s0.2-0.5,0.5-0.5h17.1
		c0.3,0,0.5,0.2,0.5,0.5S589,512.3,588.7,512.3z"/>
	<g>
		<path fill="#FFFFFF" d="M491,393.7c0.7-0.1,1.3-0.3,1.9-0.6c0.6-0.3,1.1-0.5,1.6-0.9c0.4-0.3,0.8-0.7,1.1-1c0.3-0.3,0.5-0.7,0.6-1
			c0.1-0.3,0.1-0.6,0-0.8c-0.1-0.2-0.3-0.3-0.6-0.4c-0.3-0.1-0.8,0-1.3,0.1c-0.6,0.1-1.3,0.4-2.1,0.8l-0.5-0.8
			c0.2-0.1,0.5-0.2,0.8-0.4c0.3-0.2,0.6-0.3,0.9-0.5c0.3-0.2,0.7-0.4,1-0.6c0.3-0.2,0.6-0.4,0.9-0.7c0.3-0.2,0.5-0.4,0.7-0.6
			c0.2-0.2,0.3-0.4,0.4-0.6s0-0.3-0.1-0.4c-0.1-0.1-0.4-0.2-0.8-0.3c-0.5,0-0.9,0.1-1.2,0.2c-0.4,0.1-0.7,0.2-1.1,0.3
			c-0.4,0.1-0.7,0.2-1.1,0.3c-0.4,0.1-0.8,0.2-1.2,0.2c0-0.1,0-0.1,0-0.2c0-0.1,0-0.2,0-0.3c0-0.1,0.1-0.2,0.1-0.3
			c0-0.1,0.1-0.1,0.2-0.2c0.4-0.1,0.9-0.2,1.3-0.4c0.5-0.1,0.9-0.2,1.4-0.3c0.4-0.1,0.9-0.2,1.3-0.2c0.4-0.1,0.8-0.1,1.1,0
			c0.3,0,0.6,0.1,0.8,0.3c0.2,0.1,0.4,0.4,0.5,0.7c0,0.3-0.1,0.6-0.2,0.9c-0.2,0.3-0.3,0.6-0.6,0.8c-0.2,0.3-0.5,0.5-0.7,0.7
			c-0.2,0.2-0.5,0.4-0.6,0.6c0.7,0,1.2,0.2,1.6,0.4c0.3,0.2,0.5,0.5,0.6,0.8c0.1,0.3,0,0.7-0.2,1c-0.2,0.4-0.4,0.8-0.8,1.2
			c-0.3,0.4-0.7,0.8-1.2,1.1c-0.4,0.4-0.9,0.7-1.4,0.9c-0.5,0.2-0.9,0.4-1.4,0.6c-0.5,0.1-0.9,0.1-1.2,0c-0.1,0-0.2,0-0.3-0.1
			C491,394,491,393.9,491,393.7z"/>
		<path fill="#FFFFFF" d="M498.3,389.9c0-0.4,0.1-0.8,0.2-1.2c0.1-0.4,0.3-0.9,0.6-1.3c0.2-0.4,0.5-0.8,0.9-1.2
			c0.3-0.4,0.7-0.7,1.1-1c0.4-0.3,0.8-0.5,1.2-0.7c0.4-0.2,0.8-0.3,1.2-0.3c0.1,0,0.3,0.1,0.3,0.2c0.1,0.1,0.1,0.3,0.1,0.5
			c-0.6,0.1-1.1,0.3-1.7,0.7c-0.5,0.3-1,0.7-1.4,1.2c-0.4,0.5-0.7,1-0.9,1.6c-0.2,0.6-0.3,1.2-0.3,1.8c0,0.1,0,0.4,0.1,0.6
			c0.1,0.3,0.2,0.5,0.3,0.8s0.3,0.5,0.4,0.7s0.3,0.3,0.5,0.3c0.2-0.1,0.3-0.3,0.5-0.5c0.2-0.2,0.4-0.4,0.7-0.7
			c0.2-0.2,0.5-0.5,0.8-0.7c0.3-0.2,0.6-0.5,0.9-0.7c0.3-0.2,0.7-0.4,1-0.5c0.4-0.1,0.7-0.2,1.1-0.2c0.2,0,0.3,0,0.5,0.1
			c0.1,0.1,0.2,0.2,0.3,0.3c0.1,0.1,0.2,0.3,0.2,0.4c0,0.2,0.1,0.3,0.1,0.5c-0.1,0.6-0.3,1.2-0.6,1.6c-0.3,0.5-0.7,0.8-1.1,1.1
			s-0.9,0.5-1.4,0.7c-0.5,0.1-1.1,0.2-1.6,0.2c-0.5,0-1.1-0.1-1.5-0.3c-0.5-0.2-0.9-0.5-1.3-0.8c-0.4-0.4-0.7-0.8-0.9-1.3
			C498.4,391.2,498.3,390.6,498.3,389.9z M505.6,390.3c-0.2,0-0.4,0.1-0.7,0.2c-0.2,0.1-0.5,0.2-0.7,0.4c-0.2,0.2-0.5,0.4-0.7,0.6
			c-0.2,0.2-0.5,0.4-0.7,0.6c-0.2,0.2-0.4,0.4-0.6,0.6c-0.2,0.2-0.3,0.3-0.4,0.4c0.4,0.1,0.8,0.1,1.3,0c0.5-0.1,0.9-0.2,1.4-0.4
			c0.4-0.2,0.8-0.5,1.1-0.8c0.3-0.3,0.5-0.7,0.5-1.1C506.1,390.5,505.9,390.3,505.6,390.3z"/>
	</g>
	<g>
		<path fill="#FFFFFF" d="M589.1,466c0.7-0.1,1.3-0.3,1.9-0.6c0.6-0.3,1.1-0.5,1.6-0.9c0.4-0.3,0.8-0.7,1.1-1c0.3-0.3,0.5-0.7,0.6-1
			c0.1-0.3,0.1-0.6,0-0.8c-0.1-0.2-0.3-0.3-0.6-0.4c-0.3-0.1-0.8,0-1.3,0.1c-0.6,0.1-1.3,0.4-2.1,0.8l-0.5-0.8
			c0.2-0.1,0.5-0.2,0.8-0.4c0.3-0.2,0.6-0.3,0.9-0.5c0.3-0.2,0.7-0.4,1-0.6c0.3-0.2,0.6-0.4,0.9-0.7c0.3-0.2,0.5-0.4,0.7-0.6
			c0.2-0.2,0.3-0.4,0.4-0.6c0-0.2,0-0.3-0.1-0.4s-0.4-0.2-0.8-0.3c-0.5,0-0.9,0.1-1.2,0.2c-0.4,0.1-0.7,0.2-1.1,0.3
			c-0.4,0.1-0.7,0.2-1.1,0.3c-0.4,0.1-0.8,0.2-1.2,0.2c0-0.1,0-0.1,0-0.2c0-0.1,0-0.2,0-0.3c0-0.1,0.1-0.2,0.1-0.3
			c0-0.1,0.1-0.1,0.2-0.2c0.4-0.1,0.9-0.2,1.3-0.4c0.5-0.1,0.9-0.2,1.4-0.3c0.4-0.1,0.9-0.2,1.3-0.2c0.4-0.1,0.8-0.1,1.1,0
			c0.3,0,0.6,0.1,0.8,0.3c0.2,0.1,0.4,0.4,0.5,0.7c0,0.3-0.1,0.6-0.2,0.9c-0.2,0.3-0.3,0.6-0.6,0.8c-0.2,0.3-0.5,0.5-0.7,0.7
			c-0.2,0.2-0.5,0.4-0.6,0.6c0.7,0,1.2,0.2,1.6,0.4c0.3,0.2,0.5,0.5,0.6,0.8c0.1,0.3,0,0.7-0.2,1c-0.2,0.4-0.4,0.8-0.8,1.2
			c-0.3,0.4-0.7,0.8-1.2,1.1c-0.4,0.4-0.9,0.7-1.4,0.9c-0.5,0.2-0.9,0.4-1.4,0.6c-0.5,0.1-0.9,0.1-1.2,0c-0.1,0-0.2,0-0.3-0.1
			C589.1,466.3,589.1,466.2,589.1,466z"/>
		<path fill="#FFFFFF" d="M596.6,465.8c0.2-0.2,0.5-0.5,0.8-0.8c0.3-0.3,0.6-0.7,1-1.1c0.3-0.4,0.7-0.9,1-1.3
			c0.3-0.5,0.6-0.9,0.9-1.4c0.3-0.5,0.5-0.9,0.7-1.3c0.2-0.4,0.3-0.8,0.3-1.2c0-0.3,0-0.6-0.1-0.9c-0.1-0.2-0.3-0.4-0.7-0.5
			c-0.4,0-0.8,0.1-1.1,0.3c-0.3,0.2-0.6,0.4-0.9,0.6c-0.3,0.2-0.6,0.4-0.9,0.6c-0.3,0.2-0.6,0.3-1,0.3c0-0.2,0.1-0.5,0.3-0.7
			c0.2-0.2,0.4-0.5,0.6-0.7c0.3-0.2,0.6-0.4,0.9-0.6c0.3-0.2,0.7-0.3,1-0.4c0.3-0.1,0.7-0.2,1-0.2c0.3,0,0.6,0,0.9,0.1
			c0.3,0.1,0.5,0.2,0.7,0.5c0.2,0.2,0.3,0.5,0.3,0.9c0,0.4-0.1,0.8-0.2,1.2c-0.1,0.4-0.3,0.9-0.5,1.3c-0.2,0.5-0.4,0.9-0.7,1.4
			c-0.3,0.5-0.5,0.9-0.8,1.3c-0.3,0.4-0.5,0.8-0.8,1.2c-0.3,0.4-0.5,0.7-0.8,0.9c0.5,0,0.9,0,1.3,0c0.4-0.1,0.8-0.1,1.1-0.2
			c0.4-0.1,0.7-0.2,1.1-0.3c0.4-0.1,0.8-0.1,1.2-0.1c0.1,0,0.2,0,0.3,0.1c0.1,0.1,0.2,0.2,0.2,0.3c0,0.1,0,0.3-0.1,0.4
			c-0.1,0.1-0.2,0.2-0.4,0.3c-0.1,0.1-0.3,0.1-0.5,0.2c-0.2,0-0.3,0.1-0.5,0.1c-0.2,0-0.3,0-0.4,0c-0.1,0-0.2,0-0.2,0
			c-0.1,0-0.3,0.1-0.7,0.1s-0.7,0.1-1.1,0.2c-0.4,0.1-0.8,0.1-1.3,0.1c-0.4,0-0.8,0-1.1,0c-0.3,0-0.6-0.1-0.8-0.2
			C596.5,466.3,596.5,466.1,596.6,465.8z"/>
	</g>
</g>
<g id="Layer_2" display="none">
</g>
</svg>
