<?xml version="1.0" encoding="utf-8"?>
<!-- Generator: Adobe Illustrator 18.1.1, SVG Export Plug-In . SVG Version: 6.00 Build 0)  -->
<svg version="1.1" id="Layer_1" xmlns="http://www.w3.org/2000/svg" xmlns:xlink="http://www.w3.org/1999/xlink" x="0px" y="0px"
	 viewBox="0 0 144 72" enable-background="new 0 0 144 72" xml:space="preserve">
<g>
	<path fill="#040607" d="M24.1,36.8c-0.7-1.6-1.6-2.2-3.7-2.2c-1.8,0-2.8,0.7-2.8,1.8s0.9,1.5,3.1,1.9c3.1,0.6,4.5,1,5.7,1.8
		c1.6,1,2.5,2.5,2.5,4.3c0,2.1-1.2,3.9-3.1,5.1c-1.3,0.7-3.3,1.2-5.5,1.2c-2.4,0-4.3-0.4-6.1-1.6c-1.3-0.9-1.9-1.8-2.5-3.6l4.5-0.9
		c0.7,1.8,2.1,2.7,4.3,2.7c2.1,0,3.3-0.7,3.3-2.1c0-1-0.9-1.5-3.7-2.1c-2.4-0.4-3.7-0.9-4.9-1.5c-1.6-0.9-2.5-2.5-2.5-4.3
		s0.9-3.1,2.2-4.3c1.5-1,3.1-1.6,5.5-1.6c2.2,0,4.2,0.4,5.5,1.5c1,0.9,1.6,1.5,2.4,3.1L24.1,36.8L24.1,36.8z"/>
	<path fill="#040607" d="M37.6,34.7c2.7,0,4,1.9,4,6.1S40.1,47,37.7,47c-1.5,0-2.5-0.6-3.1-1.9c-0.4-1-0.9-2.7-0.9-4.3
		C33.7,36.8,35.2,34.7,37.6,34.7L37.6,34.7z M46.1,50.9c-1,0.1-1.5,0.1-1.9,0.1c-1.3,0-1.9-0.4-1.9-1.5c2.8-1.5,4.5-4.6,4.5-8.4
		c0-6.1-3.6-10-9.1-10c-2.8,0-4.9,0.9-6.6,2.7c-1.6,1.9-2.5,4.3-2.5,7.2c0,5.5,3.7,9.6,8.7,9.6c0.7,0,1.2,0,2.1-0.1
		c0.3,2.8,1.6,3.9,4.9,3.9c0.7,0,1,0,1.8-0.3L46.1,50.9L46.1,50.9z"/>
	<polygon fill="#040607" points="60.2,46.7 60.2,50.4 46.9,50.4 46.9,31.4 51.8,31.4 51.8,46.7 	"/>
	<path fill="#040607" d="M74.2,36.8c-0.7-1.6-1.6-2.2-3.7-2.2c-1.9,0-2.8,0.7-2.8,1.8s0.7,1.5,3,1.9c3.3,0.6,4.6,1,5.7,1.8
		c1.6,1,2.5,2.5,2.5,4.3c0,2.1-1.2,3.9-3.1,5.1c-1.5,0.7-3.3,1.2-5.5,1.2c-2.5,0-4.5-0.4-6.1-1.6c-1.3-0.9-1.9-1.8-2.5-3.6l4.5-0.9
		c0.6,1.8,1.9,2.7,4.3,2.7c2.1,0,3.3-0.7,3.3-2.1c0-1-0.9-1.5-3.7-2.1c-2.4-0.4-3.7-0.9-4.9-1.5c-1.6-0.9-2.5-2.5-2.5-4.3
		s0.7-3.1,2.1-4.3c1.5-1,3.1-1.6,5.5-1.6c2.2,0,4,0.4,5.5,1.5c1.2,0.9,1.8,1.5,2.4,3.1L74.2,36.8L74.2,36.8z"/>
	<path fill="#040607" d="M83.5,41.6c0.3-1.9,1-2.8,2.8-2.8c1.6,0,2.5,0.9,2.5,2.8H83.5L83.5,41.6z M93.4,44c0-2.4-0.3-3.6-1.2-4.9
		c-1.2-1.8-3.6-3-6.1-3c-4.3,0-7.5,3.1-7.5,7.5s3.1,7.2,7.8,7.2c3.6,0,5.8-1.5,7.2-4.9l-4.3-0.3c-0.3,1.5-1.2,2.1-2.7,2.1
		c-1.8,0-3-1.2-3-3c0-0.1,0-0.3,0-0.7L93.4,44L93.4,44z"/>
	<path fill="#040607" d="M93.2,50.4V36.2h4.3v2.5c0.6-1.9,1.6-2.8,3.3-2.8c0.3,0,0.4,0,0.9,0v4.2c-0.3,0-0.3,0-0.4,0
		c-2.2,0-3.4,1.5-3.4,4.3v6H93.2L93.2,50.4z"/>
	<polygon fill="#040607" points="109.8,50.4 106.3,50.4 100.9,36.4 105.8,36.4 108.8,45.2 111.9,36.4 115.4,36.4 	"/>
	<path fill="#040607" d="M118.1,41.6c0.3-1.9,1.2-2.8,2.8-2.8c1.8,0,2.5,0.9,2.7,2.8H118.1L118.1,41.6z M128.1,44
		c0-2.4-0.3-3.6-1.3-4.9c-1.2-1.8-3.4-3-6.1-3c-4.5,0-7.6,3.1-7.6,7.5s3.1,7.2,7.8,7.2c3.7,0,6-1.5,7.2-4.9l-4.2-0.3
		c-0.3,1.5-1.3,2.1-2.8,2.1c-1.8,0-3-1.2-3-3c0-0.1,0-0.3,0-0.7L128.1,44L128.1,44z"/>
	<path fill="#040607" d="M128,50.4V36.2h4.2v2.5c0.7-1.9,1.8-2.8,3.3-2.8c0.3,0,0.6,0,0.9,0v4.2c-0.3,0-0.4,0-0.6,0
		c-2.2,0-3.4,1.5-3.4,4.3v6H128L128,50.4z"/>
	<polygon points="14.4,31.6 14.4,19.6 10.1,31.6 8.9,31.6 4.5,19.6 4.5,31.6 2.9,31.6 2.9,17.8 5.6,17.8 9.6,28.9 13.7,17.8 
		16.2,17.8 16.2,31.6 	"/>
	<path d="M19,21.4h1.6v10.2H19V21.4L19,21.4z M19,17.8h1.6v1.8H19V17.8L19,17.8z"/>
	<path d="M30.7,28.3c-0.3,1.3-0.4,1.9-1.2,2.5c-0.7,0.7-1.5,1-2.5,1c-2.5,0-4.3-2.1-4.3-5.2s1.6-5.4,4.3-5.4c2.1,0,3.4,1.2,3.7,3.6
		L29.4,25c-0.3-1.6-1.2-2.5-2.5-2.5c-1.6,0-2.7,1.5-2.7,3.9c0,2.5,1,4,2.7,4c1.3,0,2.1-0.9,2.5-2.5L30.7,28.3L30.7,28.3z"/>
	<path d="M33,31.6V21.4h1.3v2.4c0.4-0.9,0.7-1.3,1-1.8c0.4-0.4,1.2-0.9,2.1-0.9c0.1,0,0.3,0,0.6,0v1.5c-1.9-0.3-3.4,1.3-3.4,3.4v5.4
		L33,31.6L33,31.6z"/>
	<path d="M47.9,26.5c0,3.1-1.9,5.2-4.6,5.2c-1.5,0-2.5-0.4-3.4-1.6c-0.7-1-0.9-2.2-0.9-3.7c0-1.5,0.3-2.5,1-3.6
		c0.9-1.2,2.1-1.6,3.6-1.6C46.1,21.3,47.9,23.4,47.9,26.5L47.9,26.5z M41.2,23.7c-0.4,0.7-0.7,1.6-0.7,2.8c0,2.5,1,4,2.8,4
		c1.8,0,2.7-1.5,2.7-3.9c0-1.3-0.1-2.2-0.7-3c-0.4-0.7-1.3-1-2.1-1C42.5,22.5,41.6,23.1,41.2,23.7L41.2,23.7z"/>
	<path d="M50.3,28.6c0.1,0.6,0.3,0.9,0.6,1.2c0.6,0.4,1.5,0.7,2.5,0.7c1.5,0,2.4-0.6,2.4-1.5c0-0.9-0.6-1.3-1.8-1.5L52,27.1
		c-1.8-0.3-2.7-1.3-2.7-2.7c0-1.8,1.5-3,3.7-3c2.1,0,3.4,0.9,3.9,2.5l-1.5,0.3c-0.4-1-1.3-1.5-2.5-1.5c-1.3,0-2.1,0.6-2.1,1.5
		s0.4,1.3,1.5,1.5l2.1,0.3c2.1,0.3,3.1,1.5,3.1,3c0,1.9-1.6,3.1-4.2,3.1c-1.5,0-2.5-0.3-3.4-1c-0.4-0.4-0.9-0.9-1-1.8L50.3,28.6
		L50.3,28.6z"/>
	<path d="M68,26.5c0,3.1-1.9,5.2-4.6,5.2c-1.5,0-2.5-0.4-3.4-1.6c-0.6-1-0.9-2.2-0.9-3.7c0-1.5,0.3-2.5,1-3.6
		c0.9-1.2,2.1-1.6,3.6-1.6C66.2,21.3,68,23.4,68,26.5L68,26.5z M61.4,23.7c-0.3,0.7-0.7,1.6-0.7,2.8c0,2.5,1,4,2.8,4
		s2.8-1.5,2.8-3.9c0-1.3-0.3-2.2-0.7-3c-0.6-0.7-1.3-1-2.1-1C62.6,22.5,61.8,23.1,61.4,23.7L61.4,23.7z"/>
	<path d="M74.2,22.8h-2.5v8.8h-1.5v-8.8h-1.8v-1.3h1.8c0-1.2,0.1-1.6,0.3-2.2c0.3-0.9,1.3-1.5,2.5-1.5c0.4,0,0.9,0,1.5,0.1V19
		c-0.4-0.1-0.7-0.3-0.9-0.3c-1,0-1.6,0.3-1.9,1c-0.3,0.3-0.3,0.4-0.3,1.5h2.5L74.2,22.8L74.2,22.8z"/>
	<path d="M80.7,31.7c-0.7,0.1-1,0.3-1.5,0.3c-1.9,0-2.8-1-2.8-3.1v-6.1h-1.8v-1.3h1.8V19l1.5-0.1v2.5h2.2v1.3h-2.2V29
		c0,1,0.4,1.5,1.6,1.5c0.3,0,0.6,0,1.2-0.1L80.7,31.7L80.7,31.7z"/>
	<path d="M84.3,21.3c0,0.7-0.7,1.5-1.5,1.5s-1.5-0.7-1.5-1.5c0-0.9,0.7-1.5,1.5-1.5C83.5,19.9,84.3,20.5,84.3,21.3L84.3,21.3z
		 M81.6,21.3c0,0.6,0.6,1.2,1.2,1.2c0.7,0,1.3-0.6,1.3-1.2c0-0.7-0.6-1.3-1.3-1.3C82.2,20.1,81.6,20.7,81.6,21.3L81.6,21.3z
		 M83.2,22.2l-0.3-0.7h-0.4v0.7h-0.3v-1.6h0.7c0.3,0,0.6,0.1,0.6,0.4c0,0.1-0.1,0.3-0.3,0.3l0.3,0.9H83.2L83.2,22.2z M82.9,21.3
		c0.3,0,0.3-0.1,0.3-0.3c0-0.3-0.1-0.3-0.3-0.3h-0.4v0.6L82.9,21.3L82.9,21.3z"/>
	<polygon fill="#040607" points="137.7,38.2 137.7,36.1 137.1,36.1 137.1,35.8 138.6,35.8 138.6,36.1 138,36.1 138,38.2 	"/>
	<polygon fill="#040607" points="140.8,38.2 140.8,36.1 140.1,38.2 139.9,38.2 139.2,36.1 139.2,38.2 139,38.2 139,35.8 139.3,35.8 
		140.1,37.6 140.7,35.8 141.1,35.8 141.1,38.2 	"/>
</g>
</svg>
