<?xml version="1.0" encoding="utf-8"?>
<!-- Generator: Adobe Illustrator 18.1.1, SVG Export Plug-In . SVG Version: 6.00 Build 0)  -->
<svg version="1.1" id="Layer_1" xmlns="http://www.w3.org/2000/svg" xmlns:xlink="http://www.w3.org/1999/xlink" x="0px" y="0px"
	 viewBox="0 0 144 36" enable-background="new 0 0 144 36" xml:space="preserve">
<g>
	<g>
		<path d="M18.5,24.2c0,0.8-0.2,1.5-0.5,2.2c-0.3,0.7-0.7,1.3-1.3,1.8c-0.5,0.5-1.1,0.9-1.8,1.2c-0.7,0.3-1.4,0.4-2.2,0.4h-1.7
			c-0.8,0-1.5-0.1-2.2-0.4c-0.7-0.3-1.3-0.7-1.8-1.2c-0.5-0.5-1-1.1-1.3-1.8c-0.3-0.7-0.5-1.4-0.5-2.2v-0.9l2.1-0.3v1.3
			c0,0.5,0.1,1,0.3,1.4c0.2,0.4,0.5,0.8,0.8,1.2c0.4,0.3,0.8,0.6,1.2,0.8c0.5,0.2,1,0.3,1.5,0.3h1.4c0.5,0,1-0.1,1.5-0.3
			c0.5-0.2,0.9-0.5,1.2-0.8c0.4-0.3,0.6-0.7,0.8-1.2c0.2-0.4,0.3-0.9,0.3-1.4v-0.7c0-0.8-0.2-1.4-0.5-2c-0.3-0.5-0.7-1-1.2-1.3
			s-1.1-0.7-1.7-0.9c-0.6-0.3-1.3-0.5-2-0.8c-0.7-0.3-1.3-0.5-2-0.8c-0.6-0.3-1.2-0.7-1.7-1.2c-0.5-0.5-0.9-1-1.2-1.7
			c-0.3-0.7-0.5-1.5-0.5-2.5v-0.4c0-0.8,0.1-1.5,0.4-2.2c0.3-0.7,0.7-1.3,1.2-1.8S8.3,6.9,9,6.6c0.7-0.3,1.4-0.4,2.2-0.4h1.5
			c0.8,0,1.5,0.1,2.2,0.4c0.7,0.3,1.3,0.7,1.8,1.2c0.5,0.5,0.9,1.1,1.2,1.8c0.3,0.7,0.4,1.4,0.4,2.2v0.6l-2.1,0.3v-0.9
			c0-0.5-0.1-1-0.3-1.4c-0.2-0.4-0.5-0.8-0.8-1.2c-0.3-0.3-0.7-0.6-1.2-0.8c-0.4-0.2-0.9-0.3-1.4-0.3h-1.3c-0.5,0-1,0.1-1.4,0.3
			C9.5,8.6,9.1,8.9,8.7,9.2c-0.3,0.3-0.6,0.7-0.8,1.2c-0.2,0.4-0.3,0.9-0.3,1.4v0.4c0,0.7,0.2,1.4,0.5,1.9c0.3,0.5,0.7,0.9,1.2,1.3
			c0.5,0.4,1.1,0.7,1.7,0.9c0.6,0.3,1.3,0.5,2,0.8c0.7,0.3,1.3,0.6,2,0.9c0.6,0.3,1.2,0.7,1.7,1.2c0.5,0.5,0.9,1.1,1.2,1.7
			c0.3,0.7,0.5,1.5,0.5,2.5V24.2z"/>
		<path d="M33.5,26.4c-0.3,0.7-0.7,1.3-1.2,1.8c-0.5,0.5-1.1,0.9-1.8,1.2c-0.7,0.3-1.4,0.4-2.2,0.4h-1.6c-0.8,0-1.5-0.1-2.2-0.4
			c-0.7-0.3-1.3-0.7-1.8-1.2c-0.5-0.5-0.9-1.1-1.2-1.8C21.1,25.7,21,25,21,24.2V11.8c0-0.8,0.1-1.5,0.4-2.2c0.3-0.7,0.7-1.3,1.2-1.8
			c0.5-0.5,1.1-0.9,1.8-1.2c0.7-0.3,1.4-0.4,2.2-0.4h1.6c0.8,0,1.5,0.1,2.2,0.4c0.7,0.3,1.3,0.7,1.8,1.2c0.5,0.5,0.9,1.1,1.2,1.8
			c0.3,0.7,0.4,1.4,0.4,2.2v12.3C33.9,25,33.8,25.7,33.5,26.4z M31.8,11.8c0-0.5-0.1-1-0.3-1.4c-0.2-0.4-0.5-0.8-0.8-1.2
			c-0.3-0.3-0.7-0.6-1.2-0.8c-0.4-0.2-0.9-0.3-1.4-0.3h-1.4c-0.5,0-1,0.1-1.4,0.3c-0.4,0.2-0.8,0.5-1.2,0.8
			c-0.3,0.3-0.6,0.7-0.8,1.2c-0.2,0.4-0.3,0.9-0.3,1.4v12.3c0,0.5,0.1,1,0.3,1.4c0.2,0.4,0.5,0.8,0.8,1.2c0.3,0.3,0.7,0.6,1.2,0.8
			c0.4,0.2,0.9,0.3,1.4,0.3h1.4c0.5,0,1-0.1,1.4-0.3c0.4-0.2,0.8-0.5,1.2-0.8c0.3-0.3,0.6-0.7,0.8-1.2c0.2-0.4,0.3-0.9,0.3-1.4V11.8
			z"/>
		<path d="M39.3,8.5V17h8.8v2h-8.8v10.5h-2.1v-23h12.9v2H39.3z"/>
		<path d="M57.4,8.5v21h-2.1v-21h-5.5v-2h13v2H57.4z"/>
		<path d="M75.3,29.5l-6.2-9.8h-2.8v9.8h-2.1v-23h7.3c0.8,0,1.5,0.1,2.2,0.4c0.7,0.3,1.3,0.7,1.8,1.2s0.9,1.1,1.2,1.8
			c0.3,0.7,0.4,1.4,0.4,2.2V14c0,0.8-0.1,1.5-0.4,2.2c-0.3,0.7-0.7,1.3-1.2,1.8c-0.5,0.5-1.1,0.9-1.8,1.2c-0.7,0.3-1.4,0.4-2.2,0.4
			l6.2,9.8H75.3z M75,12.2c0-0.5-0.1-1-0.3-1.4c-0.2-0.4-0.5-0.8-0.8-1.2c-0.3-0.3-0.7-0.6-1.2-0.8c-0.4-0.2-0.9-0.3-1.4-0.3h-5.1
			v9.2h5.1c0.5,0,1-0.1,1.4-0.3c0.4-0.2,0.8-0.5,1.2-0.8c0.3-0.3,0.6-0.7,0.8-1.2C74.9,15,75,14.5,75,14V12.2z"/>
		<path d="M92.2,26.4c-0.3,0.7-0.7,1.3-1.2,1.8c-0.5,0.5-1.1,0.9-1.8,1.2c-0.7,0.3-1.4,0.4-2.2,0.4h-1.6c-0.8,0-1.5-0.1-2.2-0.4
			c-0.7-0.3-1.3-0.7-1.8-1.2c-0.5-0.5-0.9-1.1-1.2-1.8c-0.3-0.7-0.4-1.4-0.4-2.2V11.8c0-0.8,0.1-1.5,0.4-2.2
			c0.3-0.7,0.7-1.3,1.2-1.8c0.5-0.5,1.1-0.9,1.8-1.2c0.7-0.3,1.4-0.4,2.2-0.4H87c0.8,0,1.5,0.1,2.2,0.4c0.7,0.3,1.3,0.7,1.8,1.2
			c0.5,0.5,0.9,1.1,1.2,1.8c0.3,0.7,0.4,1.4,0.4,2.2v12.3C92.6,25,92.4,25.7,92.2,26.4z M90.5,11.8c0-0.5-0.1-1-0.3-1.4
			c-0.2-0.4-0.5-0.8-0.8-1.2c-0.3-0.3-0.7-0.6-1.2-0.8c-0.4-0.2-0.9-0.3-1.4-0.3h-1.4c-0.5,0-1,0.1-1.4,0.3
			c-0.4,0.2-0.8,0.5-1.2,0.8c-0.3,0.3-0.6,0.7-0.8,1.2c-0.2,0.4-0.3,0.9-0.3,1.4v12.3c0,0.5,0.1,1,0.3,1.4c0.2,0.4,0.5,0.8,0.8,1.2
			c0.3,0.3,0.7,0.6,1.2,0.8c0.4,0.2,0.9,0.3,1.4,0.3h1.4c0.5,0,1-0.1,1.4-0.3c0.4-0.2,0.8-0.5,1.2-0.8c0.3-0.3,0.6-0.7,0.8-1.2
			c0.2-0.4,0.3-0.9,0.3-1.4V11.8z"/>
		<path d="M107.7,29.5l-9.6-16.7l-0.2-1v17.7h-2.1v-23H97l9.6,16.8l0.2,1V6.5h2.1v23H107.7z"/>
		<path d="M112.4,29.5v-23h12.9v2h-10.9V17h8.8v2h-8.8v8.5h10.9v2H112.4z"/>
		<path d="M133.3,8.5v21h-2.1v-21h-5.5v-2h13v2H133.3z"/>
	</g>
	<rect x="112.4" y="6.5" width="23.5" height="2"/>
</g>
</svg>
