<?xml version="1.0" encoding="utf-8"?>
<!-- Generator: Adobe Illustrator 18.1.1, SVG Export Plug-In . SVG Version: 6.00 Build 0)  -->
<svg version="1.1"
	 id="svg2" sodipodi:docname="Windows_8_Logo.svg" inkscape:version="0.48.0 r9654" xmlns:dc="http://purl.org/dc/elements/1.1/" xmlns:cc="http://creativecommons.org/ns#" xmlns:rdf="http://www.w3.org/1999/02/22-rdf-syntax-ns#" xmlns:svg="http://www.w3.org/2000/svg" xmlns:sodipodi="http://sodipodi.sourceforge.net/DTD/sodipodi-0.dtd" xmlns:inkscape="http://www.inkscape.org/namespaces/inkscape"
	 xmlns="http://www.w3.org/2000/svg" xmlns:xlink="http://www.w3.org/1999/xlink" x="0px" y="0px" viewBox="158 -7.6 459.4 87.6"
	 enable-background="new 158 -7.6 459.4 87.6" xml:space="preserve">
<sodipodi:namedview  inkscape:window-height="746" inkscape:pageshadow="2" inkscape:pageopacity="0.0" inkscape:window-width="1366" fit-margin-bottom="0" inkscape:document-units="px" fit-margin-right="0" inkscape:current-layer="g3763" inkscape:guide-bbox="true" inkscape:window-y="-8" inkscape:window-maximized="1" inkscape:window-x="-8" fit-margin-top="0" showguides="true" pagecolor="#ffffff" bordercolor="#666666" showgrid="false" inkscape:cy="-25.868872" inkscape:cx="243.44312" borderopacity="1.0" inkscape:zoom="2" fit-margin-left="0" id="base">
	</sodipodi:namedview>
<g id="layer1" transform="translate(148.9622,-225.33682)" inkscape:groupmode="layer" inkscape:label="Layer 1">
	<g id="g3012" transform="translate(109.60155,-54.548234)">
		<g id="g3763">
			<path id="path13" sodipodi:nodetypes="cccccccccccccccccccc" inkscape:connector-curvature="0" fill="#00ADEF" d="M-100.6,284.7
				l35.7-4.9l0,34.4l-35.7,0.2L-100.6,284.7z M-64.9,318.2l0,34.5l-35.7-4.9l0-29.8L-64.9,318.2z M-60.6,279.2l47.3-6.9v41.5
				l-47.3,0.4L-60.6,279.2z M-13.2,318.5l0,41.3l-47.3-6.7l-0.1-34.7L-13.2,318.5z"/>
			<path id="path3037" sodipodi:nodetypes="ccccccccccccccccc" inkscape:connector-curvature="0" fill="#00ADEF" d="M82.7,290
				l-14.6,52.4l-8.7-0.1L48,301c0.1-2.2,0.3-0.6,0.3-0.6l-11.5,41.9l-8.7,0.1L13,290.1l8.1,0l11.6,43.6l-0.2-0.1L44.7,290l7.8,0
				L64,334.4l-0.2-0.6l10.9-43.7L82.7,290z"/>
			<path id="path3039" sodipodi:nodetypes="ccsccccccccccc" inkscape:connector-curvature="0" fill="#00ADEF" d="M90,296.3
				c-1.3,0-2.4-0.4-3.3-1.3c-0.9-0.9-1.3-1.9-1.3-3.2c0-1.3,0.4-2.4,1.3-3.3c0.9-0.9,2-1.3,3.3-1.3c1.3,0,2.4,0.4,3.3,1.3
				c0.9,0.9,1.4,2,1.4,3.2c0,1.2-0.5,2.3-1.4,3.2C92.4,295.8,91.3,296.3,90,296.3z M93.2,342.4l-7.1-0.1L86,305l7.3,0L93.2,342.4z"
				/>
			<path id="path3041" sodipodi:nodetypes="ccscssccccccccsc" inkscape:connector-curvature="0" fill="#00ADEF" d="M133.8,342.5
				h-7.2v-20.8c0-7.3-2.3-11.5-7.9-11.5c-2.7,0-5.2,1.1-7,3.1c-2.2,2.5-2.6,3.9-2.6,8.3l-0.1,20.8l-7.3-0.1l0-37.3l7.2,0l0.1,8.5
				l-1-1c2.7-4.8,6.4-8.5,13-8.5c4.3,0,7.4,1.2,9.7,3.9c2.3,2.8,3.1,7.1,3.1,12.1L133.8,342.5z"/>
			<path id="path3043" sodipodi:nodetypes="ccccssssccccccscccsssscs" inkscape:connector-curvature="0" fill="#00ADEF" d="
				M175.8,343.1h-7.5v-6.2h1.1c-2.7,4.7-7.1,7.1-13.1,7.1c-4.9,0-8.8-1.7-11.7-5.2s-4.3-8.1-4.3-13.9c0-6.3,1.6-11.3,4.8-15.1
				c3.2-3.8,7.5-5.7,12.9-5.7c5.4,0,9.2,2,11.5,6h-1.1v-22.8h7.5V343.1z M168.3,325.7v-5.4c0-2.8-0.9-5.1-2.7-7
				c-1.8-1.9-4.1-2.9-6.9-2.9c-3.3,0-5.9,1.2-7.9,3.7c-1.9,2.5-2.9,5.9-2.9,10.4c0,4.1,0.9,7.3,2.8,9.6s4.3,3.4,7.4,3.4
				c3,0,5.5-1.1,7.4-3.3C167.3,332,168.3,329.2,168.3,325.7z"/>
			<path id="path3045" sodipodi:nodetypes="sssscccsscsssssccc" inkscape:connector-curvature="0" fill="#00ADEF" d="M200.2,343.6
				c-5.7,0-10.2-1.8-13.6-5.3c-3.4-3.6-5.1-8.3-5.1-14.1c0-6.3,1.8-11.3,5.3-14.9c3.5-3.6,8.3-5.4,14.3-5.4c5.7,0,10.2,1.8,13.4,5.3
				c3.2,3.5,4.8,8.3,4.8,14.4c0,6-1.7,10.8-5.2,14.5C210.7,341.7,206.1,343.6,200.2,343.6L200.2,343.6z M200.7,310.3
				c-3.5,0-6.3,1.2-8.4,3.6c-2.1,2.4-3.1,5.8-3.1,10.1c0,4.2,1,7.4,3.1,9.8c2.1,2.3,4.9,3.5,8.4,3.5c3.5,0,6.3-1.1,8.2-3.4
				c1.9-2.3,2.9-5.6,2.9-10c0-4.4-1-7.8-2.9-10.1C206.9,311.4,204.2,310.3,200.7,310.3L200.7,310.3z"/>
			<path id="path3047" sodipodi:nodetypes="ccccccccccccccccc" inkscape:connector-curvature="0" fill="#00ADEF" d="M275,304.9
				l-11,37.5l-7.8,0l-7.9-29l0,0l-8.8,29h-7.3l-11.6-37.5h7.8l8,30.5l-0.2,0.3l8.9-30.8h6.8l8.6,31.6l-0.3-0.9l7.3-30.7H275z"/>
			
				<path id="path3049" sodipodi:nodetypes="ccscccccccccsccccccccsccccccccccsssc" inkscape:connector-curvature="0" fill="#00ADEF" d="
				M277.7,341.4V334c3.5,2.4,6.9,3.6,10.1,3.6c4.1,0,6.2-1.5,6.2-4.4c0-0.8-0.2-1.6-0.5-2.1c-0.3-0.6-0.8-1.1-1.4-1.6
				c-0.6-0.5-1.4-0.9-2.3-1.4c-0.9-0.4-1.9-0.8-2.8-1.3c-1.5-0.7-2.8-1.3-4-2c-1.1-0.7-2.1-1.5-2.9-2.4c-0.8-0.9-1.4-1.9-1.8-3
				c-0.4-1.1-0.6-2.5-0.6-4c0-1.9,0.4-3.5,1.1-4.9c0.8-1.4,1.8-2.6,3-3.6c1.2-1,2.7-1.7,4.3-2.2c1.6-0.5,3.2-0.7,4.9-0.7
				c2.9,0,5.7,0.6,8.3,1.9v7.1c-3-1.8-6.1-2.7-9-2.7c-0.9,0-1.7,0.1-2.4,0.3c-0.7,0.2-1.3,0.5-1.8,0.9c-0.5,0.4-0.9,0.9-1.1,1.4
				c-0.3,0.5-0.4,1.1-0.4,1.8c0,0.9,0.1,1.6,0.4,2.1c0.3,0.5,0.7,1,1.2,1.5c0.5,0.5,1.2,0.9,2,1.3c0.8,0.4,1.8,0.8,2.8,1.3
				c1.5,0.7,2.9,1.3,4.1,2c1.2,0.7,2.2,1.4,3,2.3c0.9,0.9,1.5,1.9,2,3.1c0.5,1.2,0.7,2.5,0.7,4.1c0,1.9-0.4,3.6-1.2,5.1
				c-0.8,1.5-1.8,2.7-3.1,3.6c-1.3,0.9-2.7,1.6-4.3,2.1c-1.6,0.4-3.3,0.7-5.1,0.7C283.6,343.9,280.5,343.1,277.7,341.4z"/>
			
				<path id="path3051" sodipodi:nodetypes="ssscccsccccccccscccccccssssssccccsssccccccccccccccccscccccccccc" inkscape:connector-curvature="0" fill="#00ADEF" d="
				M323.8,328c0-1.5,0.2-2.9,0.7-4.3c0.4-1.4,1.1-2.8,1.9-4c0.8-1.3,1.9-2.4,3.1-3.4c1.2-1,2.5-1.7,3.8-1.9
				c-2.1-0.8-3.8-2.3-5.2-4.3c-1.4-2.1-2.1-4.3-2.1-6.9c0-2,0.4-3.8,1.2-5.5c0.8-1.7,1.8-3.2,3.2-4.4c1.4-1.2,3-2.2,4.9-2.9
				c1.9-0.7,3.9-1.1,6.1-1.1c2.2,0,4.2,0.4,6.1,1.1c1.9,0.7,3.5,1.7,4.9,2.9c1.4,1.2,2.4,2.7,3.2,4.4c0.8,1.7,1.1,3.5,1.1,5.5
				c0,2.5-0.7,4.8-2.1,6.8c-1.4,2.1-3.1,3.5-5.1,4.3c1.3,0.2,2.5,0.9,3.7,1.9c1.2,1,2.3,2.2,3.1,3.4c0.8,1.3,1.5,2.6,1.9,4
				c0.4,1.4,0.7,2.9,0.7,4.3c0,2.3-0.4,4.5-1.3,6.4c-0.9,2-2.1,3.6-3.6,5.1c-1.6,1.4-3.4,2.5-5.5,3.3c-2.1,0.8-4.5,1.2-7.1,1.2
				c-2.6,0-4.9-0.4-7-1.2s-4-1.9-5.5-3.3c-1.6-1.4-2.8-3.1-3.6-5S323.8,330.3,323.8,328L323.8,328z M331.8,327.5
				c0,1.5,0.2,2.9,0.7,4.1c0.5,1.2,1.1,2.2,1.9,3s1.8,1.5,3,1.9s2.5,0.7,4,0.7c1.4,0,2.7-0.2,3.9-0.7c1.2-0.5,2.2-1.1,3-1.9
				c0.8-0.8,1.5-1.9,2-3.1c0.5-1.2,0.7-2.6,0.7-4.1c0-1.3-0.2-2.6-0.7-3.8c-0.5-1.2-1.1-2.2-2-3.1c-0.8-0.9-1.8-1.6-3-2.1
				c-1.2-0.5-2.5-0.8-3.9-0.8c-1.4,0-2.6,0.2-3.8,0.7c-1.2,0.5-2.2,1.1-3,2c-0.8,0.8-1.5,1.9-2,3.1
				C332.1,324.7,331.8,326,331.8,327.5L331.8,327.5z M333.7,303.6c0,1.1,0.2,2.2,0.6,3.1c0.4,0.9,1,1.8,1.7,2.5
				c0.7,0.7,1.5,1.3,2.4,1.7c0.9,0.4,1.9,0.6,3,0.6c1.1,0,2.1-0.2,3-0.6c0.9-0.4,1.7-1,2.4-1.7c0.7-0.7,1.3-1.5,1.7-2.5
				c0.4-1,0.6-2,0.6-3.1c0-1.2-0.2-2.2-0.6-3.2c-0.4-1-1-1.8-1.7-2.5c-0.7-0.7-1.5-1.3-2.5-1.7c-0.9-0.4-1.9-0.6-3-0.6
				c-1.1,0-2.2,0.2-3.1,0.6c-0.9,0.4-1.8,1-2.4,1.7c-0.7,0.7-1.2,1.5-1.6,2.5C333.9,301.4,333.7,302.5,333.7,303.6z"/>
		</g>
	</g>
</g>
</svg>
